<svg width="343" height="455" viewBox="0 0 343 455" fill="none" xmlns="http://www.w3.org/2000/svg">
<path d="M60.1468 231.576C64.1589 251.273 71.5158 292.706 71.5158 292.706L70.8474 351.8C70.8474 351.8 63.3289 352.325 60.1468 352.479C27.2964 352.479 0.625 325.391 0.625 292.027C0.625 258.662 27.2964 231.576 60.1468 231.576Z" fill="#FFC700"/>
<path d="M60.1468 231.576C64.1589 251.273 71.5158 292.706 71.5158 292.706L70.8474 351.8C70.8474 351.8 63.3289 352.325 60.1468 352.479C27.2964 352.479 0.625 325.391 0.625 292.027C0.625 258.662 27.2964 231.576 60.1468 231.576Z" fill="#FFC700" stroke="white" stroke-width="2"/>
<path d="M65.4971 325.414C61.9632 326.666 58.1664 327.347 54.2131 327.347C35.3419 327.347 20.0195 311.825 20.0195 292.706C20.0195 273.587 35.3419 258.065 54.2131 258.065C58.1664 258.065 61.9632 258.746 65.4971 259.999V325.414Z" fill="#FFC700"/>
<path d="M65.4971 325.414C61.9632 326.666 58.1664 327.347 54.2131 327.347C35.3419 327.347 20.0195 311.825 20.0195 292.706C20.0195 273.587 35.3419 258.065 54.2131 258.065C58.1664 258.065 61.9632 258.746 65.4971 259.999V325.414Z" fill="#FFC700" stroke="white" stroke-width="2"/>
<path d="M282.851 231.576C278.839 251.273 271.482 292.706 271.482 292.706L272.151 351.8C272.151 351.8 279.669 352.325 282.851 352.479C315.702 352.479 342.373 325.391 342.373 292.027C342.373 258.662 315.702 231.576 282.851 231.576Z" fill="#FFC700"/>
<path d="M282.851 231.576C278.839 251.273 271.482 292.706 271.482 292.706L272.151 351.8C272.151 351.8 279.669 352.325 282.851 352.479C315.702 352.479 342.373 325.391 342.373 292.027C342.373 258.662 315.702 231.576 282.851 231.576Z" fill="#FFC700" stroke="white" stroke-width="2"/>
<path d="M277.502 259.999C281.036 258.746 284.833 258.065 288.786 258.065C307.657 258.065 322.979 273.587 322.979 292.706C322.979 311.825 307.657 327.347 288.786 327.347C284.833 327.347 281.036 326.666 277.502 325.414V259.999Z" fill="#FFC700"/>
<path d="M277.502 259.999C281.036 258.746 284.833 258.065 288.786 258.065C307.657 258.065 322.979 273.587 322.979 292.706C322.979 311.825 307.657 327.347 288.786 327.347C284.833 327.347 281.036 326.666 277.502 325.414V259.999Z" fill="#FFC700" stroke="white" stroke-width="2"/>
<path d="M141.069 0.635468C141.069 0.635468 152.436 27.2441 138.394 69.2388C132.376 87.238 118.298 97.3611 111.643 107.954C103.085 121.575 102.949 134.445 102.949 134.445C102.949 134.445 100.982 145.277 105.624 166.369C109.453 183.768 115.655 192.18 115.655 192.18C115.655 192.18 121.271 190.285 130.369 191.161C142.449 192.323 147.422 195.237 147.422 195.237C147.422 195.237 189.222 158.897 189.891 105.237C190.783 33.6204 141.069 0.635468 141.069 0.635468Z" fill="#FFC700"/>
<path d="M141.069 0.635468C141.069 0.635468 152.436 27.2441 138.394 69.2388C132.376 87.238 118.298 97.3611 111.643 107.954C103.085 121.575 102.949 134.445 102.949 134.445C102.949 134.445 100.982 145.277 105.624 166.369C109.453 183.768 115.655 192.18 115.655 192.18C115.655 192.18 121.271 190.285 130.369 191.161C142.449 192.323 147.422 195.237 147.422 195.237C147.422 195.237 189.222 158.897 189.891 105.237C190.783 33.6204 141.069 0.635468 141.069 0.635468Z" fill="#FFC700" stroke="white" stroke-width="2"/>
<path d="M142.072 2.33347C142.072 2.33347 197.916 15.578 217.311 82.144C231.441 130.643 200.926 193.198 200.926 193.198C200.926 193.198 196.013 192.961 185.877 198.633C174.167 205.186 169.826 211.877 169.826 211.877C169.826 211.877 167.444 206.337 159.461 201.01C151.839 195.923 146.42 195.576 146.42 195.576C146.42 195.576 186.547 162.633 189.891 107.276C188.553 29.8432 142.072 2.33347 142.072 2.33347Z" fill="#FFC700"/>
<path d="M142.072 2.33347C142.072 2.33347 197.916 15.578 217.311 82.144C231.441 130.643 200.926 193.198 200.926 193.198C200.926 193.198 196.013 192.961 185.877 198.633C174.167 205.186 169.826 211.877 169.826 211.877C169.826 211.877 167.444 206.337 159.461 201.01C151.839 195.923 146.42 195.576 146.42 195.576C146.42 195.576 186.547 162.633 189.891 107.276C188.553 29.8432 142.072 2.33347 142.072 2.33347Z" fill="#FFC700" stroke="white" stroke-width="2"/>
<path d="M227.343 56.3323C227.343 56.3323 231.474 67.4252 229.014 85.54C227.016 100.255 220.654 105.578 220.654 105.578L197.916 192.859L217.311 191.161C217.311 191.161 256.434 169.765 258.106 131.728C257.772 83.162 227.343 56.3323 227.343 56.3323Z" fill="#FFC700"/>
<path d="M227.343 56.3323C227.343 56.3323 231.474 67.4252 229.014 85.54C227.016 100.255 220.654 105.578 220.654 105.578L197.916 192.859L217.311 191.161C217.311 191.161 256.434 169.765 258.106 131.728C257.772 83.162 227.343 56.3323 227.343 56.3323Z" fill="#FFC700" stroke="white" stroke-width="2"/>
<path d="M227.343 57.0123C227.343 57.0123 262.788 94.3693 256.1 139.878C246.737 175.878 217.311 191.5 217.311 191.5L229.348 192.52C229.348 192.52 275.494 178.595 276.832 133.086C276.091 83.0083 227.343 57.0123 227.343 57.0123Z" fill="#FFC700"/>
<path d="M227.343 57.0123C227.343 57.0123 262.788 94.3693 256.1 139.878C246.737 175.878 217.311 191.5 217.311 191.5L229.348 192.52C229.348 192.52 275.494 178.595 276.832 133.086C276.091 83.0083 227.343 57.0123 227.343 57.0123Z" fill="#FFC700" stroke="white" stroke-width="2"/>
<path d="M111.643 50.899C111.643 50.899 99.5194 92.1438 92.0085 97.2276C72.1733 110.653 63.1101 137.693 62.1537 144.633C54.7967 183.35 96.5952 199.651 96.5952 199.651C96.5952 199.651 97.6692 197.826 101.277 196.255C103.911 195.109 106.293 195.576 106.293 195.576C106.293 195.576 81.8825 158.897 82.8852 148.03C84.9407 125.764 98.8835 117.61 103.284 101.841C110.378 76.4184 111.643 50.899 111.643 50.899Z" fill="#FFC700"/>
<path d="M111.643 50.899C111.643 50.899 99.5194 92.1438 92.0085 97.2276C72.1733 110.653 63.1101 137.693 62.1537 144.633C54.7967 183.35 96.5952 199.651 96.5952 199.651C96.5952 199.651 97.6692 197.826 101.277 196.255C103.911 195.109 106.293 195.576 106.293 195.576C106.293 195.576 81.8825 158.897 82.8852 148.03C84.9407 125.764 98.8835 117.61 103.284 101.841C110.378 76.4184 111.643 50.899 111.643 50.899Z" fill="#FFC700" stroke="white" stroke-width="2"/>
<path d="M111.644 51.5777C111.644 51.5777 109.637 73.6528 100.943 104.558C98.9266 111.728 92.5924 118.535 89.9085 124.256C84.2127 136.397 82.9884 139.207 82.5515 144.973C82.2173 149.387 81.7003 155.248 90.2427 173.84C97.3043 189.21 105.625 194.896 105.625 194.896C105.625 194.896 106.712 193.062 109.971 192.18C113.4 191.251 115.656 192.18 115.656 192.18C115.656 192.18 105.581 175.039 106.962 138.521C107.524 123.672 121.223 107.393 122.345 86.8986C123.681 62.4456 111.644 51.5777 111.644 51.5777Z" fill="#FFC700"/>
<path d="M111.644 51.5777C111.644 51.5777 109.637 73.6528 100.943 104.558C98.9266 111.728 92.5924 118.535 89.9085 124.256C84.2127 136.397 82.9884 139.207 82.5515 144.973C82.2173 149.387 81.7003 155.248 90.2427 173.84C97.3043 189.21 105.625 194.896 105.625 194.896C105.625 194.896 106.712 193.062 109.971 192.18C113.4 191.251 115.656 192.18 115.656 192.18C115.656 192.18 105.581 175.039 106.962 138.521C107.524 123.672 121.223 107.393 122.345 86.8986C123.681 62.4456 111.644 51.5777 111.644 51.5777Z" fill="#FFC700" stroke="white" stroke-width="2"/>
<path d="M131.038 280.82C131.038 280.82 114.642 282.857 94.231 294.065C79.5709 302.115 77.1649 317.159 77.1649 317.159C77.1649 317.159 56.8578 298.183 45.1482 259.195C42.1638 249.256 39.7378 238.018 38.3495 225.463C30.4618 154.146 55.0802 117.464 55.0802 117.464C55.0802 117.464 48.0399 140.104 55.7499 175.199C62.7626 207.123 77.1649 217.991 77.1649 217.991C77.1649 217.991 65.2362 228.326 67.1265 253.99C68.8052 276.777 82.5189 290.669 82.5189 290.669C82.5189 290.669 92.2231 284.895 103.934 282.857C120.179 280.031 131.038 280.82 131.038 280.82Z" fill="#FFC700"/>
<path d="M131.038 280.82C131.038 280.82 114.642 282.857 94.231 294.065C79.5709 302.115 77.1649 317.159 77.1649 317.159C77.1649 317.159 56.8578 298.183 45.1482 259.195C42.1638 249.256 39.7378 238.018 38.3495 225.463C30.4618 154.146 55.0802 117.464 55.0802 117.464C55.0802 117.464 48.0399 140.104 55.7499 175.199C62.7626 207.123 77.1649 217.991 77.1649 217.991C77.1649 217.991 65.2362 228.326 67.1265 253.99C68.8052 276.777 82.5189 290.669 82.5189 290.669C82.5189 290.669 92.2231 284.895 103.934 282.857C120.179 280.031 131.038 280.82 131.038 280.82Z" fill="#FFC700" stroke="white" stroke-width="2"/>
<path d="M54.7981 117.464C54.7981 117.464 46.9104 138.263 55.4666 177.236C61.6243 205.28 76.8678 217.991 76.8678 217.991C76.8678 217.991 79.0172 213.072 85.8959 206.784C92.3929 200.846 96.932 199.651 96.932 199.651C96.932 199.651 78.206 191.5 67.5054 173.162C53.4474 149.068 54.7981 117.464 54.7981 117.464Z" fill="#FFC700"/>
<path d="M54.7981 117.464C54.7981 117.464 46.9104 138.263 55.4666 177.236C61.6243 205.28 76.8678 217.991 76.8678 217.991C76.8678 217.991 79.0172 213.072 85.8959 206.784C92.3929 200.846 96.932 199.651 96.932 199.651C96.932 199.651 78.206 191.5 67.5054 173.162C53.4474 149.068 54.7981 117.464 54.7981 117.464Z" fill="#FFC700" stroke="white" stroke-width="2"/>
<path d="M284.225 117.464C284.225 117.464 292.085 137.923 283.521 176.897C277.36 204.941 262.136 217.991 262.136 217.991C262.136 217.991 254.626 208.318 247.741 202.029C241.241 196.091 229.35 192.859 229.35 192.859C229.35 192.859 244.778 187.658 260.114 172.482C286.196 146.671 284.225 117.464 284.225 117.464Z" fill="#FFC700"/>
<path d="M284.225 117.464C284.225 117.464 292.085 137.923 283.521 176.897C277.36 204.941 262.136 217.991 262.136 217.991C262.136 217.991 254.626 208.318 247.741 202.029C241.241 196.091 229.35 192.859 229.35 192.859C229.35 192.859 244.778 187.658 260.114 172.482C286.196 146.671 284.225 117.464 284.225 117.464Z" fill="#FFC700" stroke="white" stroke-width="2"/>
<path d="M208.283 280.82C208.283 280.82 224.668 282.857 245.066 294.065C259.716 302.115 262.119 317.159 262.119 317.159C262.119 317.159 294.077 287.275 300.909 225.463C308.791 154.146 284.19 117.464 284.19 117.464C284.19 117.464 291.225 140.104 283.52 175.199C276.513 207.123 262.119 217.991 262.119 217.991C262.119 217.991 274.04 228.326 272.151 253.99C270.474 276.777 256.769 290.669 256.769 290.669C256.769 290.669 247.072 284.895 235.369 282.857C219.135 280.031 208.283 280.82 208.283 280.82Z" fill="#FFC700"/>
<path d="M208.283 280.82C208.283 280.82 224.668 282.857 245.066 294.065C259.716 302.115 262.119 317.159 262.119 317.159C262.119 317.159 294.077 287.275 300.909 225.463C308.791 154.146 284.19 117.464 284.19 117.464C284.19 117.464 291.225 140.104 283.52 175.199C276.513 207.123 262.119 217.991 262.119 217.991C262.119 217.991 274.04 228.326 272.151 253.99C270.474 276.777 256.769 290.669 256.769 290.669C256.769 290.669 247.072 284.895 235.369 282.857C219.135 280.031 208.283 280.82 208.283 280.82Z" fill="#FFC700" stroke="white" stroke-width="2"/>
<path d="M279.508 294.065C279.508 294.065 297.737 265.93 301.577 217.991C306.208 160.196 292.215 135.464 292.215 135.464C292.215 135.464 302.537 160.424 294.22 209.84C289.162 239.896 272.151 254.669 272.151 254.669C272.151 254.669 273.275 259.149 268.139 272.329C264.804 280.885 259.443 287.273 259.443 287.273" fill="#FFC700"/>
<path d="M279.508 294.065C279.508 294.065 297.737 265.93 301.577 217.991C306.208 160.196 292.215 135.464 292.215 135.464C292.215 135.464 302.537 160.424 294.22 209.84C289.162 239.896 272.151 254.669 272.151 254.669C272.151 254.669 273.275 259.149 268.139 272.329C264.804 280.885 259.443 287.273 259.443 287.273" fill="#FFC700"/>
<path d="M279.508 294.065C279.508 294.065 297.737 265.93 301.577 217.991C306.208 160.196 292.215 135.464 292.215 135.464C292.215 135.464 302.537 160.424 294.22 209.84C289.162 239.896 272.151 254.669 272.151 254.669C272.151 254.669 273.275 259.149 268.139 272.329C264.804 280.885 259.443 287.273 259.443 287.273" stroke="white" stroke-width="2"/>
<path d="M214.803 267.914C225.791 267.914 234.699 258.867 234.699 247.707C234.699 236.547 225.791 227.5 214.803 227.5C203.814 227.5 194.906 236.547 194.906 247.707C194.906 258.867 203.814 267.914 214.803 267.914Z" fill="#FFC700"/>
<path d="M214.803 267.914C225.791 267.914 234.699 258.867 234.699 247.707C234.699 236.547 225.791 227.5 214.803 227.5C203.814 227.5 194.906 236.547 194.906 247.707C194.906 258.867 203.814 267.914 214.803 267.914Z" fill="#FFC700" stroke="white" stroke-width="2"/>
<path d="M124.017 268.254C113.121 268.254 104.288 259.131 104.288 247.877C104.288 236.623 113.121 227.5 124.017 227.5C134.913 227.5 143.746 236.623 143.746 247.877C143.746 259.131 134.913 268.254 124.017 268.254Z" fill="#FFC700"/>
<path d="M124.017 268.254C113.121 268.254 104.288 259.131 104.288 247.877C104.288 236.623 113.121 227.5 124.017 227.5C134.913 227.5 143.746 236.623 143.746 247.877C143.746 259.131 134.913 268.254 124.017 268.254Z" fill="#FFC700" stroke="white" stroke-width="2"/>
<path d="M108.969 325.99C108.969 325.99 128.201 345.687 167.822 345.687C208.931 345.687 230.064 325.99 230.064 325.99C230.064 325.99 224.12 337.516 202.598 347.724C183.071 356.987 168.491 355.196 168.491 355.196C168.491 355.196 156.482 356.622 139.732 348.404C116.8 337.151 108.969 325.99 108.969 325.99Z" fill="#FFC700"/>
<path d="M108.969 325.99C108.969 325.99 128.201 345.687 167.822 345.687C208.931 345.687 230.064 325.99 230.064 325.99C230.064 325.99 224.12 337.516 202.598 347.724C183.071 356.987 168.491 355.196 168.491 355.196C168.491 355.196 156.482 356.622 139.732 348.404C116.8 337.151 108.969 325.99 108.969 325.99Z" fill="#FFC700" stroke="white" stroke-width="2"/>
<path d="M209.285 389.158C209.285 389.158 210.504 391.788 211.292 397.648C211.842 401.751 211.292 404.101 211.292 404.101C211.292 404.101 203.952 408.326 198.919 420.063C189.89 441.12 192.566 454.365 192.566 454.365C192.566 454.365 187.354 452.656 181.865 442.818C176.18 432.629 176.515 421.751 176.849 416.328C177.517 405.46 181.865 396.629 181.865 396.629C181.865 396.629 186.996 396.408 194.907 394.252C205.277 391.426 209.285 389.158 209.285 389.158Z" fill="#FFC700"/>
<path d="M209.285 389.158C209.285 389.158 210.504 391.788 211.292 397.648C211.842 401.751 211.292 404.101 211.292 404.101C211.292 404.101 203.952 408.326 198.919 420.063C189.89 441.12 192.566 454.365 192.566 454.365C192.566 454.365 187.354 452.656 181.865 442.818C176.18 432.629 176.515 421.751 176.849 416.328C177.517 405.46 181.865 396.629 181.865 396.629C181.865 396.629 186.996 396.408 194.907 394.252C205.277 391.426 209.285 389.158 209.285 389.158Z" fill="#FFC700" stroke="white" stroke-width="2"/>
<path d="M129.701 388.479C129.701 388.479 132.992 414.467 153.776 436.025C174.903 457.938 192.567 453.686 192.567 453.686C192.567 453.686 181.393 449.687 177.853 430.591C174.259 411.198 181.866 395.95 181.866 395.95C181.866 395.95 172.895 399.081 155.783 396.629C138.12 394.1 129.701 388.479 129.701 388.479Z" fill="#FFC700"/>
<path d="M129.701 388.479C129.701 388.479 132.992 414.467 153.776 436.025C174.903 457.938 192.567 453.686 192.567 453.686C192.567 453.686 181.393 449.687 177.853 430.591C174.259 411.198 181.866 395.95 181.866 395.95C181.866 395.95 172.895 399.081 155.783 396.629C138.12 394.1 129.701 388.479 129.701 388.479Z" fill="#FFC700" stroke="white" stroke-width="2"/>
<path d="M65.4962 302.215C65.4962 302.215 57.2654 345.026 79.5404 383.724C104.954 427.874 137.725 436.705 137.725 436.705C137.725 436.705 130.993 428.3 128.362 412.932C125.643 397.055 129.7 389.837 129.7 389.837C129.7 389.837 108.967 383.045 88.9041 358.592C72.7568 336.173 76.8652 316.479 76.8652 316.479L65.4962 302.215Z" fill="#FFC700"/>
<path d="M65.4962 302.215C65.4962 302.215 57.2654 345.026 79.5404 383.724C104.954 427.874 137.725 436.705 137.725 436.705C137.725 436.705 130.993 428.3 128.362 412.932C125.643 397.055 129.7 389.837 129.7 389.837C129.7 389.837 108.967 383.045 88.9041 358.592C72.7568 336.173 76.8652 316.479 76.8652 316.479L65.4962 302.215Z" fill="#FFC700" stroke="white" stroke-width="2"/>
<path d="M273.342 302.215C273.342 302.215 281.557 345.026 259.327 383.724C233.964 427.874 201.26 436.705 201.26 436.705C201.26 436.705 207.977 428.3 210.603 412.932C213.317 397.055 209.269 389.837 209.269 389.837C209.269 389.837 229.959 383.045 249.982 358.592C266.097 336.173 261.996 316.479 261.996 316.479L273.342 302.215Z" fill="#FFC700"/>
<path d="M273.342 302.215C273.342 302.215 281.557 345.026 259.327 383.724C233.964 427.874 201.26 436.705 201.26 436.705C201.26 436.705 207.977 428.3 210.603 412.932C213.317 397.055 209.269 389.837 209.269 389.837C209.269 389.837 229.959 383.045 249.982 358.592C266.097 336.173 261.996 316.479 261.996 316.479L273.342 302.215Z" fill="#FFC700" stroke="white" stroke-width="2"/>
<path d="M200.591 292.367L181.865 283.197C181.865 283.197 175.88 280.555 174.508 286.594C173.505 291.008 178.186 292.027 178.186 292.027C178.186 292.027 179.524 292.706 181.196 291.008C182.719 289.461 183.202 288.292 183.202 288.292L200.591 292.367Z" fill="#FFC700"/>
<path d="M200.591 292.367L181.865 283.197C181.865 283.197 175.88 280.555 174.508 286.594C173.505 291.008 178.186 292.027 178.186 292.027C178.186 292.027 179.524 292.706 181.196 291.008C182.719 289.461 183.202 288.292 183.202 288.292L200.591 292.367Z" fill="#FFC700" stroke="white" stroke-width="2"/>
<path d="M137.727 292.367L156.351 283.1C156.351 283.1 162.304 280.429 163.668 286.532C164.666 290.994 160.01 292.024 160.01 292.024C160.01 292.024 158.68 292.71 157.016 290.994C155.501 289.431 155.021 288.248 155.021 288.248L137.727 292.367Z" fill="#FFC700"/>
<path d="M137.727 292.367L156.351 283.1C156.351 283.1 162.304 280.429 163.668 286.532C164.666 290.994 160.01 292.024 160.01 292.024C160.01 292.024 158.68 292.71 157.016 290.994C155.501 289.431 155.021 288.248 155.021 288.248L137.727 292.367Z" fill="#FFC700" stroke="white" stroke-width="2"/>
</svg>
