<svg width="78" height="78" viewBox="0 0 78 78" fill="none" xmlns="http://www.w3.org/2000/svg">
<circle cx="39" cy="39" r="37" stroke="#FFC700" stroke-width="4"/>
<path d="M25.7955 47.3065L25.8021 47.344L25.719 54.7073C25.6324 54.7132 25.5274 54.7203 25.4149 54.7277C25.1245 54.7469 24.7862 54.7684 24.5833 54.7783C20.5008 54.775 17.1797 51.4006 17.1797 47.2359C17.1797 43.1386 20.394 39.8065 24.3854 39.6963C24.6397 40.9637 24.9829 42.8136 25.2685 44.3804C25.4191 45.2064 25.5535 45.9531 25.6503 46.4933C25.6987 46.7634 25.7377 46.9819 25.7646 47.1328L25.7955 47.3065Z" fill="#FFC700" stroke="white" stroke-width="0.5"/>
<path d="M24.5893 39.4435C25.1056 41.9826 26.0524 47.3234 26.0524 47.3234L25.9664 54.9409C25.9664 54.9409 24.9988 55.0085 24.5893 55.0283C20.3619 55.0283 16.9297 51.5366 16.9297 47.2359C16.9297 42.9351 20.3619 39.4435 24.5893 39.4435Z" fill="#FFC700" stroke="white" stroke-width="0.5"/>
<path d="M25.0281 43.2879V51.359C24.6477 51.4759 24.2443 51.5388 23.826 51.5388C21.5391 51.5388 19.6758 49.6533 19.6758 47.3234C19.6758 44.9935 21.5391 43.1081 23.826 43.1081C24.2443 43.1081 24.6478 43.171 25.0281 43.2879Z" fill="#FFC700" stroke="white" stroke-width="0.5"/>
<path d="M25.2781 51.5396C24.8234 51.701 24.3348 51.7888 23.826 51.7888C21.3976 51.7888 19.4258 49.7879 19.4258 47.3234C19.4258 44.8589 21.3976 42.8581 23.826 42.8581C24.3348 42.8581 24.8234 42.9459 25.2781 43.1074V51.5396Z" fill="#FFC700" stroke="white" stroke-width="0.5"/>
<path d="M52.4226 54.7277C52.3101 54.7203 52.2052 54.7132 52.1186 54.7073L52.0354 47.344L52.0421 47.3065L52.073 47.1328C52.0999 46.9819 52.1388 46.7634 52.1872 46.4933C52.284 45.9531 52.4185 45.2064 52.569 44.3804C52.8546 42.8136 53.1978 40.9637 53.4522 39.6963C57.4436 39.8065 60.6579 43.1386 60.6579 47.2359C60.6579 51.4006 57.3368 54.775 53.2542 54.7783C53.0513 54.7684 52.7131 54.7469 52.4226 54.7277Z" fill="#FFC700" stroke="white" stroke-width="0.5"/>
<path d="M53.2482 39.4435C52.7319 41.9826 51.7852 47.3234 51.7852 47.3234L51.8712 54.9409C51.8712 54.9409 52.8387 55.0085 53.2482 55.0283C57.4756 55.0283 60.9079 51.5366 60.9079 47.2359C60.9079 42.9351 57.4756 39.4435 53.2482 39.4435Z" fill="#FFC700" stroke="white" stroke-width="0.5"/>
<path d="M52.8086 51.359V43.2879C53.189 43.171 53.5924 43.1081 54.0107 43.1081C56.2977 43.1081 58.1609 44.9935 58.1609 47.3234C58.1609 49.6533 56.2977 51.5388 54.0107 51.5388C53.5925 51.5388 53.189 51.4759 52.8086 51.359Z" fill="#FFC700" stroke="white" stroke-width="0.5"/>
<path d="M52.5586 43.1074C53.0134 42.9459 53.502 42.8581 54.0107 42.8581C56.4392 42.8581 58.4109 44.8589 58.4109 47.3234C58.4109 49.7879 56.4392 51.7888 54.0107 51.7888C53.502 51.7888 53.0134 51.701 52.5586 51.5396V43.1074Z" fill="#FFC700" stroke="white" stroke-width="0.5"/>
<path d="M30.3422 26.9675L30.3422 26.9674L30.3423 26.9672L30.3423 26.9671L30.3423 26.9671L30.346 26.9467L30.3462 26.9259L30.3462 26.9258L30.3462 26.9257L30.3462 26.9257L30.3462 26.9256L30.3462 26.9234L30.3466 26.9118C30.3469 26.901 30.3475 26.8842 30.3488 26.8617C30.3512 26.8167 30.3559 26.7491 30.3648 26.6619C30.3828 26.4875 30.418 26.235 30.4866 25.9287C30.624 25.3154 30.8945 24.4897 31.4268 23.6411L31.4268 23.6411C31.6304 23.3164 31.894 22.9905 32.1946 22.6419C32.3036 22.5155 32.4187 22.3848 32.5371 22.2504C32.7394 22.0205 32.9513 21.7799 33.1589 21.5311C33.8241 20.7341 34.4931 19.7998 34.8947 18.5968L34.6576 18.5177L34.8947 18.5968C35.81 15.8549 35.899 13.6092 35.7563 12.0434C35.6919 11.3369 35.5804 10.7694 35.4767 10.3577C35.5842 10.4481 35.7032 10.5515 35.8316 10.6681C36.4188 11.2012 37.2024 12.0081 37.9828 13.0997C39.5427 15.2814 41.0911 18.6014 41.0345 23.1549C40.9923 26.549 39.6509 29.4024 38.3116 31.4139C37.6425 32.4187 36.9761 33.2101 36.4776 33.7496C36.2284 34.0193 36.0214 34.2258 35.8774 34.3643C35.8389 34.4013 35.8049 34.4334 35.7758 34.4606C35.6837 34.4205 35.5532 34.3693 35.3808 34.3145C35.0088 34.1962 34.4427 34.0615 33.6488 33.985C33.0413 33.9265 32.5478 33.9603 32.2035 34.0098C32.0533 34.0313 31.9314 34.0559 31.8407 34.077C31.832 34.0629 31.8227 34.0478 31.8129 34.0316C31.7346 33.9017 31.6234 33.7035 31.4966 33.4357C31.2431 32.9002 30.9267 32.0863 30.6846 30.9844C30.3895 29.6411 30.3054 28.6289 30.2943 27.9568C30.2887 27.6207 30.3014 27.3695 30.3151 27.2043C30.322 27.1217 30.3291 27.0606 30.3343 27.0211C30.337 27.0013 30.3391 26.987 30.3405 26.978L30.342 26.9687L30.3422 26.9675Z" fill="#FFC700" stroke="white" stroke-width="0.5"/>
<path d="M35.0018 9.67444C35.0018 9.67444 36.4646 13.1044 34.6576 18.5177C33.883 20.8378 32.0714 22.1427 31.215 23.5082C30.1138 25.264 30.0962 26.923 30.0962 26.923C30.0962 26.923 29.8431 28.3193 30.4405 31.038C30.9333 33.2809 31.7313 34.3653 31.7313 34.3653C31.7313 34.3653 32.454 34.121 33.6248 34.2339C35.1793 34.3836 35.8194 34.7593 35.8194 34.7593C35.8194 34.7593 41.1984 30.0749 41.2845 23.158C41.3993 13.9263 35.0018 9.67444 35.0018 9.67444Z" fill="#FFC700" stroke="white" stroke-width="0.5"/>
<path d="M38.3488 12.7692C37.6921 11.8452 37.0385 11.15 36.503 10.6554C37.1641 10.9491 37.9999 11.3881 38.8931 12.0233C40.9634 13.4954 43.3452 16.0231 44.5749 20.251C45.4648 23.3105 44.9518 26.8352 44.2013 29.6182C43.8271 31.0055 43.3964 32.1995 43.0593 33.0465C42.8909 33.4698 42.7459 33.8061 42.6433 34.036C42.603 34.1263 42.5692 34.2002 42.5432 34.2565C42.4519 34.2672 42.3258 34.2886 42.1642 34.3307C41.8201 34.4205 41.3162 34.6043 40.6477 34.979C39.8738 35.4128 39.3399 35.8532 38.9971 36.1889C38.8922 36.2917 38.8052 36.3846 38.7347 36.4644C38.7014 36.4161 38.6634 36.3638 38.6203 36.3082C38.4001 36.0243 38.0473 35.6551 37.5095 35.2956L37.5095 35.2956C36.9982 34.9538 36.5568 34.7687 36.2384 34.6688C36.2325 34.667 36.2267 34.6652 36.2209 34.6634C36.3493 34.5418 36.5067 34.3875 36.6859 34.2015C37.1845 33.6839 37.8525 32.9195 38.5339 31.9296C39.8963 29.9504 41.3173 27.0617 41.536 23.4358L41.5365 23.4262L41.5364 23.4165C41.4494 18.3728 39.8934 14.9424 38.3488 12.7692Z" fill="#FFC700" stroke="white" stroke-width="0.5"/>
<path d="M35.1328 9.89334C35.1328 9.89334 42.3192 11.6006 44.815 20.1812C46.6334 26.433 42.7064 34.4965 42.7064 34.4965C42.7064 34.4965 42.0743 34.4659 40.7699 35.1971C39.2629 36.0418 38.7044 36.9043 38.7044 36.9043C38.7044 36.9043 38.3979 36.1902 37.3706 35.5034C36.3897 34.8478 35.6923 34.8031 35.6923 34.8031C35.6923 34.8031 40.8561 30.5566 41.2864 23.4208C41.1142 13.4394 35.1328 9.89334 35.1328 9.89334Z" fill="#FFC700" stroke="white" stroke-width="0.5"/>
<path d="M46.5563 17.6899C46.9126 18.1021 47.3814 18.7066 47.8519 19.494C48.8179 21.1104 49.7896 23.4946 49.812 26.568C49.7063 28.9303 48.4403 30.788 47.1785 32.0663C46.5485 32.7046 45.9245 33.1932 45.4582 33.522C45.2252 33.6863 45.0321 33.8103 44.8979 33.8929C44.8309 33.9342 44.7786 33.9651 44.7435 33.9854C44.741 33.9869 44.7386 33.9882 44.7362 33.9896L42.6475 34.1728L45.4664 23.3341C45.4926 23.3078 45.5256 23.2727 45.564 23.228C45.6543 23.1229 45.7738 22.9654 45.9003 22.7471C46.1537 22.3098 46.4331 21.6329 46.566 20.6525C46.7277 19.4596 46.6732 18.495 46.5769 17.8252C46.5702 17.7787 46.5633 17.7335 46.5563 17.6899Z" fill="#FFC700" stroke="white" stroke-width="0.5"/>
<path d="M46.1032 16.854C46.1032 16.854 46.6348 18.2839 46.3183 20.619C46.0612 22.5158 45.2425 23.2019 45.2425 23.2019L42.3164 34.4528L44.8122 34.2339C44.8122 34.2339 49.8469 31.4758 50.0621 26.5727C50.0191 20.3124 46.1032 16.854 46.1032 16.854Z" fill="#FFC700" stroke="white" stroke-width="0.5"/>
<path d="M47.2896 18.0236C47.8138 18.4164 48.442 18.9418 49.0718 19.5972C50.6254 21.2142 52.174 23.6064 52.2221 26.746C52.1371 29.5806 50.6638 31.4312 49.1979 32.5816C48.4636 33.1579 47.7335 33.5562 47.1868 33.8102C46.9137 33.9371 46.6872 34.0276 46.5299 34.0861C46.4513 34.1154 46.39 34.1366 46.3489 34.1504C46.3432 34.1523 46.3379 34.1541 46.3329 34.1557L45.5722 34.0912C45.955 33.8232 46.4748 33.4189 47.0322 32.8686C48.1525 31.7623 49.4296 30.0609 50.0461 27.6862L50.0495 27.673L50.0515 27.6596C50.4925 24.6537 49.5435 21.9277 48.4972 19.965C48.086 19.1936 47.658 18.537 47.2896 18.0236Z" fill="#FFC700" stroke="white" stroke-width="0.5"/>
<path d="M46.1035 16.9416C46.1035 16.9416 50.6649 21.7571 49.8041 27.6233C48.5993 32.2638 44.8125 34.2776 44.8125 34.2776L46.3616 34.409C46.3616 34.409 52.3 32.6141 52.4722 26.7478C52.3768 20.2926 46.1035 16.9416 46.1035 16.9416Z" fill="#FFC700" stroke="white" stroke-width="0.5"/>
<path d="M28.8283 22.3325L28.8284 22.3325C28.9921 22.2215 29.1443 22.0316 29.2838 21.817C29.4271 21.5963 29.5726 21.3242 29.7162 21.0237C30.0036 20.4223 30.2924 19.6875 30.549 18.9789C30.6132 18.8014 30.6756 18.6253 30.7355 18.4529C30.5771 19.6408 30.3171 21.1495 29.8982 22.6531C29.6788 23.4407 29.2697 24.0675 28.8199 24.7569C28.7155 24.9169 28.6089 25.0802 28.5019 25.2497C27.9395 26.1412 27.4025 27.1605 27.2651 28.6512L27.2651 28.6512C27.2448 28.8715 27.2892 29.1334 27.3656 29.4069C27.4433 29.6849 27.56 29.9958 27.7007 30.3218C27.9822 30.974 28.3678 31.7052 28.7543 32.3871C29.1413 33.07 29.5321 33.7083 29.8258 34.1754C29.9203 34.3257 30.0048 34.4584 30.076 34.5693C29.9839 34.5875 29.8838 34.6165 29.7809 34.6613L29.7808 34.6614C29.524 34.7734 29.3503 34.8976 29.2373 35.0003C29.2275 35.0092 29.2181 35.018 29.2092 35.0266C29.192 35.0188 29.1736 35.0104 29.154 35.0013C29.0139 34.9365 28.8134 34.8379 28.5751 34.704C28.0977 34.4358 27.4727 34.0285 26.8781 33.4714C25.6916 32.3595 24.6394 30.6676 25.0918 28.2828L25.0921 28.2829L25.0938 28.2703C25.1503 27.8594 25.4607 26.7923 26.0777 25.6101C26.6934 24.4304 27.5992 23.1658 28.8283 22.3325Z" fill="#FFC700" stroke="white" stroke-width="0.5"/>
<path d="M31.2148 16.1536C31.2148 16.1536 29.6546 21.4702 28.6881 22.1255C26.1355 23.8561 24.9692 27.3417 24.8461 28.2362C23.8994 33.227 29.2783 35.3283 29.2783 35.3283C29.2783 35.3283 29.4165 35.093 29.8808 34.8905C30.2197 34.7427 30.5263 34.803 30.5263 34.803C30.5263 34.803 27.385 30.0749 27.514 28.6741C27.7785 25.804 29.5728 24.7529 30.139 22.7202C31.0519 19.4431 31.2148 16.1536 31.2148 16.1536Z" fill="#FFC700" stroke="white" stroke-width="0.5"/>
<path d="M30.42 34.3777C30.3134 34.2846 30.1605 34.1398 29.9798 33.9356C29.6139 33.5221 29.1329 32.864 28.6893 31.897C28.1439 30.7078 27.8938 29.9388 27.7837 29.4048C27.677 28.8876 27.6999 28.585 27.7206 28.3128L27.7216 28.299C27.7738 27.6092 27.9087 27.2887 28.6455 25.7156C28.7716 25.4463 28.9637 25.1584 29.1787 24.8363C29.241 24.7429 29.3053 24.6465 29.3705 24.5469C29.6507 24.1187 29.9387 23.6404 30.0798 23.1381C30.642 21.1362 30.988 19.4201 31.1937 18.2035C31.2893 17.6374 31.3546 17.1794 31.3972 16.8508C31.5043 17.0054 31.6255 17.2032 31.7448 17.4458C32.0926 18.1536 32.4271 19.2494 32.3435 20.7805C32.274 22.0526 31.8146 23.2011 31.3465 24.2958C31.3125 24.3754 31.2784 24.4548 31.2443 24.5341C30.8177 25.5264 30.3993 26.4995 30.3638 27.4389L30.3638 27.4389C30.274 29.8174 30.5565 31.5714 30.8647 32.736C31.0188 33.3182 31.1792 33.7527 31.3024 34.0439C31.3052 34.0506 31.3081 34.0573 31.3109 34.0639C31.1995 34.0691 31.0733 34.0866 30.9355 34.124C30.9355 34.124 30.9354 34.124 30.9354 34.124L31.0009 34.3653C30.5814 34.479 30.4416 34.7154 30.4416 34.7154L30.42 34.3777Z" fill="#FFC700" stroke="white" stroke-width="0.5"/>
<path d="M31.2161 16.2411C31.2161 16.2411 30.9579 19.0867 29.8391 23.0705C29.5796 23.9947 28.7644 24.8721 28.4191 25.6095C27.6861 27.1746 27.5285 27.5368 27.4723 28.2801C27.4293 28.8491 27.3628 29.6045 28.4621 32.0012C29.3708 33.9824 30.4416 34.7154 30.4416 34.7154C30.4416 34.7154 30.5814 34.479 31.0009 34.3653C31.4421 34.2455 31.7324 34.3653 31.7324 34.3653C31.7324 34.3653 30.436 32.1557 30.6136 27.4484C30.686 25.5343 32.4488 23.4359 32.5932 20.7941C32.7652 17.642 31.2161 16.2411 31.2161 16.2411Z" fill="#FFC700" stroke="white" stroke-width="0.5"/>
<path d="M30.2654 46.3002C30.673 46.2291 31.0539 46.176 31.4025 46.1366C30.6641 46.3963 29.791 46.7638 28.8533 47.2795L28.9738 47.4986L28.8533 47.2795C27.8553 47.8285 27.2751 48.616 26.9455 49.2626C26.8069 49.5345 26.7121 49.7825 26.6485 49.9794C26.6131 49.9401 26.5749 49.8971 26.5341 49.8504C26.2716 49.5495 25.9042 49.0946 25.4895 48.4838C24.6601 47.2622 23.6421 45.4171 22.897 42.9319C22.5171 41.6648 22.208 40.231 22.0311 38.6281L22.0311 38.6281C21.5273 34.0653 22.0622 30.6176 22.7189 28.316C22.9404 27.5394 23.176 26.893 23.3904 26.3779C23.3784 26.493 23.3673 26.6134 23.3574 26.739C23.2532 28.0557 23.2756 29.9412 23.7776 32.2299C24.2354 34.3174 24.9364 35.7253 25.5301 36.6161C25.8267 37.0613 26.0959 37.3765 26.2936 37.5823C26.3393 37.63 26.3813 37.6717 26.4188 37.7079C26.3959 37.7348 26.3714 37.7644 26.3457 37.7968C26.1948 37.987 26.0001 38.273 25.8145 38.6651C25.4426 39.4509 25.1117 40.6542 25.2365 42.3512C25.3479 43.8661 25.8586 45.0842 26.3404 45.9229C26.5815 46.3424 26.816 46.6681 26.9913 46.8901C27.0789 47.0011 27.1519 47.0862 27.2036 47.1443C27.2294 47.1734 27.25 47.1957 27.2644 47.211L27.2814 47.2289L27.2862 47.2339L27.2877 47.2354L27.2882 47.2359L27.2884 47.2361C27.2885 47.2362 27.2885 47.2363 27.4666 47.0608L27.2885 47.2363L27.4262 47.3759L27.5945 47.2756L27.5945 47.2756L27.5946 47.2755L27.5949 47.2754L27.5969 47.2742L27.6064 47.2687C27.615 47.2637 27.6282 47.2561 27.6458 47.2462C27.6809 47.2264 27.7335 47.1975 27.8015 47.1617C27.9377 47.0902 28.1355 46.9916 28.3795 46.8849C28.8689 46.6709 29.5379 46.4269 30.2653 46.3002L30.2224 46.0539L30.2654 46.3002Z" fill="#FFC700" stroke="white" stroke-width="0.5"/>
<path d="M33.7104 45.7913C33.7104 45.7913 31.6004 46.0539 28.9738 47.4986C27.0872 48.5362 26.7776 50.4755 26.7776 50.4755C26.7776 50.4755 24.1644 48.0294 22.6575 43.0037C22.2734 41.7226 21.9612 40.274 21.7826 38.6555C20.7675 29.4625 23.9356 24.734 23.9356 24.734C23.9356 24.734 23.0296 27.6525 24.0218 32.1763C24.9242 36.2914 26.7776 37.6923 26.7776 37.6923C26.7776 37.6923 25.2426 39.0246 25.4858 42.3328C25.7018 45.2701 27.4666 47.0608 27.4666 47.0608C27.4666 47.0608 28.7154 46.3165 30.2224 46.0539C32.3129 45.6895 33.7104 45.7913 33.7104 45.7913Z" fill="#FFC700" stroke="white" stroke-width="0.5"/>
<path d="M26.7828 37.1317C26.7434 37.1886 26.709 37.2411 26.6789 37.2887C26.6553 37.2643 26.63 37.2378 26.6032 37.2092C26.4147 37.0074 26.1528 36.6994 25.8659 36.2801C25.2922 35.4417 24.6181 34.1577 24.2296 32.3854C23.7153 30.0389 23.6685 28.2142 23.7605 26.9462C23.7698 27.0265 23.7799 27.1083 23.7906 27.1914C23.9754 28.6142 24.3904 30.4461 25.3186 32.0396L25.3186 32.0396C26.0303 33.2613 27.0057 34.1392 27.7982 34.7103C28.1658 34.9752 28.4959 35.1754 28.7452 35.3143C28.4823 35.4614 28.1336 35.696 27.7324 36.0633L27.7324 36.0633C27.2753 36.4819 26.9727 36.8574 26.7828 37.1317Z" fill="#FFC700" stroke="white" stroke-width="0.5"/>
<path d="M23.8993 24.734C23.8993 24.734 22.8843 27.4151 23.9854 32.439C24.7778 36.0539 26.7394 37.6923 26.7394 37.6923C26.7394 37.6923 27.016 37.0583 27.9012 36.2477C28.7373 35.4823 29.3214 35.3283 29.3214 35.3283C29.3214 35.3283 26.9116 34.2776 25.5346 31.9137C23.7255 28.808 23.8993 24.734 23.8993 24.734Z" fill="#FFC700" stroke="white" stroke-width="0.5"/>
<mask id="path-26-inside-1_802_3840" fill="white">
<path d="M53.425 24.734C53.425 24.734 54.4365 27.3714 53.3344 32.3952C52.5415 36.0101 50.5825 37.6923 50.5825 37.6923C50.5825 37.6923 49.6161 36.4454 48.7301 35.6348C47.8935 34.8694 46.3633 34.4528 46.3633 34.4528C46.3633 34.4528 48.3488 33.7824 50.3223 31.8261C53.6787 28.499 53.425 24.734 53.425 24.734Z"/>
</mask>
<path d="M53.425 24.734C53.425 24.734 54.4365 27.3714 53.3344 32.3952C52.5415 36.0101 50.5825 37.6923 50.5825 37.6923C50.5825 37.6923 49.6161 36.4454 48.7301 35.6348C47.8935 34.8694 46.3633 34.4528 46.3633 34.4528C46.3633 34.4528 48.3488 33.7824 50.3223 31.8261C53.6787 28.499 53.425 24.734 53.425 24.734Z" fill="#FFC700"/>
<path d="M53.425 24.734L53.8918 24.555L52.9261 24.7677L53.425 24.734ZM53.3344 32.3952L52.846 32.2881L52.846 32.2881L53.3344 32.3952ZM50.5825 37.6923L50.1873 37.9986L50.5093 38.4142L50.9082 38.0717L50.5825 37.6923ZM48.7301 35.6348L48.3925 36.0037L48.3926 36.0037L48.7301 35.6348ZM46.3633 34.4528L46.2033 33.979L44.6484 34.5041L46.2319 34.9352L46.3633 34.4528ZM50.3223 31.8261L50.6743 32.1812L50.6743 32.1812L50.3223 31.8261ZM53.425 24.734C52.9581 24.9131 52.958 24.9129 52.958 24.9127C52.9579 24.9126 52.9579 24.9124 52.9578 24.9123C52.9577 24.9121 52.9577 24.9119 52.9576 24.9117C52.9575 24.9115 52.9574 24.9113 52.9575 24.9113C52.9575 24.9114 52.9577 24.9121 52.9582 24.9134C52.9592 24.9161 52.9611 24.9213 52.9638 24.929C52.9691 24.9445 52.9778 24.9701 52.9889 25.0058C53.0111 25.0772 53.0433 25.1889 53.0794 25.3405C53.1516 25.6436 53.2396 26.1065 53.2949 26.7252C53.4056 27.9621 53.3861 29.8262 52.846 32.2881L53.8228 32.5024C54.3848 29.9404 54.4106 27.974 54.291 26.6362C54.2312 25.9676 54.1352 25.4571 54.0522 25.1087C54.0107 24.9346 53.9725 24.801 53.9437 24.7085C53.9293 24.6623 53.9172 24.6264 53.9083 24.6007C53.9039 24.5879 53.9002 24.5777 53.8974 24.5701C53.896 24.5663 53.8949 24.5631 53.8939 24.5606C53.8935 24.5593 53.893 24.5582 53.8927 24.5573C53.8925 24.5568 53.8923 24.5564 53.8922 24.556C53.8921 24.5558 53.892 24.5556 53.892 24.5555C53.8919 24.5552 53.8918 24.555 53.425 24.734ZM52.846 32.2881C52.4649 34.026 51.8051 35.2924 51.2467 36.1196C50.9673 36.5335 50.7133 36.8375 50.5321 37.0354C50.4416 37.1343 50.3694 37.2066 50.3214 37.2528C50.2975 37.2759 50.2796 37.2924 50.2686 37.3024C50.263 37.3074 50.2592 37.3108 50.2572 37.3126C50.2562 37.3134 50.2557 37.3139 50.2556 37.314C50.2556 37.314 50.2556 37.314 50.2558 37.3138C50.2559 37.3137 50.256 37.3136 50.2562 37.3135C50.2563 37.3134 50.2564 37.3133 50.2564 37.3133C50.2566 37.3131 50.2567 37.313 50.5825 37.6923C50.9082 38.0717 50.9084 38.0715 50.9085 38.0714C50.9086 38.0713 50.9088 38.0712 50.9089 38.0711C50.9092 38.0708 50.9095 38.0706 50.9098 38.0703C50.9105 38.0697 50.9113 38.069 50.9122 38.0682C50.914 38.0667 50.9163 38.0647 50.919 38.0623C50.9245 38.0574 50.9317 38.0509 50.9408 38.0428C50.9588 38.0264 50.9838 38.0032 51.015 37.9732C51.0773 37.9132 51.1643 37.8259 51.2698 37.7106C51.4808 37.4801 51.766 37.1377 52.0755 36.6791C52.6949 35.7615 53.4111 34.3794 53.8228 32.5023L52.846 32.2881ZM50.5825 37.6923C50.9777 37.3861 50.9777 37.386 50.9776 37.386C50.9776 37.386 50.9776 37.3859 50.9776 37.3859C50.9775 37.3858 50.9774 37.3857 50.9773 37.3856C50.9772 37.3854 50.9769 37.3851 50.9767 37.3847C50.9761 37.384 50.9753 37.383 50.9742 37.3816C50.9722 37.379 50.9692 37.3751 50.9653 37.3702C50.9576 37.3603 50.9463 37.3459 50.9317 37.3274C50.9026 37.2905 50.8603 37.2373 50.8069 37.1711C50.7002 37.0387 50.5487 36.8538 50.3689 36.6431C50.012 36.2247 49.5333 35.692 49.0676 35.2659L48.3926 36.0037C48.8128 36.3882 49.2603 36.8843 49.6081 37.2921C49.7807 37.4944 49.9262 37.6719 50.0284 37.7986C50.0794 37.862 50.1195 37.9125 50.1467 37.9469C50.1603 37.9641 50.1706 37.9773 50.1775 37.9861C50.1809 37.9905 50.1835 37.9937 50.1851 37.9958C50.1859 37.9969 50.1865 37.9977 50.1869 37.9981C50.1871 37.9984 50.1872 37.9985 50.1872 37.9986C50.1873 37.9987 50.1873 37.9987 50.1873 37.9987C50.1873 37.9987 50.1873 37.9987 50.1873 37.9987C50.1873 37.9987 50.1873 37.9986 50.5825 37.6923ZM49.0676 35.2659C48.5833 34.8228 47.9259 34.5006 47.4227 34.2942C47.1653 34.1886 46.9359 34.1084 46.7704 34.0544C46.6875 34.0274 46.6201 34.0068 46.5728 33.9928C46.5491 33.9858 46.5304 33.9804 46.5172 33.9766C46.5106 33.9748 46.5053 33.9733 46.5016 33.9722C46.4997 33.9717 46.4981 33.9713 46.497 33.971C46.4964 33.9708 46.4959 33.9707 46.4955 33.9706C46.4953 33.9705 46.4952 33.9705 46.495 33.9704C46.4949 33.9704 46.4948 33.9704 46.4948 33.9704C46.4947 33.9704 46.4946 33.9703 46.3633 34.4528C46.2319 34.9352 46.2319 34.9352 46.2318 34.9352C46.2318 34.9352 46.2317 34.9351 46.2317 34.9351C46.2316 34.9351 46.2316 34.9351 46.2316 34.9351C46.2316 34.9351 46.2316 34.9351 46.2318 34.9352C46.2321 34.9353 46.2328 34.9354 46.2338 34.9357C46.2359 34.9363 46.2394 34.9373 46.2442 34.9386C46.2538 34.9414 46.2688 34.9457 46.2886 34.9515C46.3282 34.9633 46.3869 34.9812 46.4605 35.0052C46.608 35.0533 46.8135 35.1251 47.0432 35.2193C47.5143 35.4126 48.0402 35.6813 48.3925 36.0037L49.0676 35.2659ZM46.3633 34.4528C46.5232 34.9265 46.5234 34.9264 46.5235 34.9264C46.5236 34.9264 46.5237 34.9263 46.5239 34.9263C46.5241 34.9262 46.5244 34.9261 46.5247 34.926C46.5253 34.9258 46.526 34.9256 46.5269 34.9253C46.5285 34.9247 46.5307 34.9239 46.5334 34.923C46.5386 34.9212 46.5458 34.9186 46.5548 34.9154C46.5729 34.9089 46.5982 34.8997 46.6305 34.8874C46.6949 34.8628 46.7867 34.8264 46.9021 34.7767C47.1327 34.6774 47.4576 34.5253 47.8452 34.3103C48.6198 33.8807 49.6487 33.1978 50.6743 32.1812L49.9703 31.471C49.0224 32.4106 48.0717 33.0411 47.3602 33.4358C47.0047 33.6329 46.71 33.7707 46.5066 33.8582C46.405 33.902 46.3263 33.9331 46.2744 33.9529C46.2485 33.9628 46.2293 33.9698 46.2173 33.9741C46.2113 33.9763 46.2071 33.9777 46.2047 33.9786C46.2035 33.979 46.2028 33.9792 46.2026 33.9793C46.2025 33.9793 46.2025 33.9793 46.2026 33.9793C46.2027 33.9793 46.2028 33.9792 46.2029 33.9792C46.2029 33.9792 46.2031 33.9791 46.2031 33.9791C46.2032 33.9791 46.2033 33.979 46.3633 34.4528ZM50.6743 32.1812C52.427 30.4438 53.2414 28.5866 53.6159 27.1593C53.8029 26.4465 53.8804 25.8408 53.9109 25.4096C53.9262 25.1939 53.9297 25.0214 53.9293 24.9006C53.9291 24.8401 53.9279 24.7925 53.9267 24.7588C53.926 24.742 53.9254 24.7286 53.9249 24.7188C53.9247 24.714 53.9244 24.71 53.9242 24.7069C53.9241 24.7053 53.9241 24.704 53.924 24.703C53.924 24.7024 53.9239 24.7019 53.9239 24.7015C53.9239 24.7013 53.9239 24.701 53.9239 24.7009C53.9238 24.7007 53.9238 24.7004 53.425 24.734C52.9261 24.7677 52.9261 24.7674 52.9261 24.7672C52.9261 24.7672 52.9261 24.767 52.926 24.7669C52.926 24.7667 52.926 24.7666 52.926 24.7665C52.926 24.7663 52.926 24.7664 52.926 24.7667C52.9261 24.7672 52.9261 24.7687 52.9263 24.771C52.9265 24.7757 52.9269 24.7839 52.9273 24.7954C52.9282 24.8185 52.9291 24.8551 52.9293 24.9041C52.9297 25.0021 52.9268 25.1498 52.9134 25.339C52.8866 25.7177 52.8177 26.2612 52.6486 26.9055C52.3109 28.1925 51.574 29.8813 49.9703 31.471L50.6743 32.1812Z" fill="white" mask="url(#path-26-inside-1_802_3840)"/>
<path d="M53.425 24.734C53.425 24.734 54.4365 27.3714 53.3344 32.3952C52.5415 36.0101 50.5825 37.6923 50.5825 37.6923C50.5825 37.6923 49.6161 36.4454 48.7301 35.6348C47.8935 34.8694 46.3633 34.4528 46.3633 34.4528C46.3633 34.4528 48.3488 33.7824 50.3223 31.8261C53.6787 28.499 53.425 24.734 53.425 24.734Z" fill="#FFC700" stroke="white" stroke-width="0.5"/>
<path d="M50.7094 49.9791C50.6459 49.7823 50.5512 49.5344 50.4128 49.2627C50.0834 48.6161 49.5037 47.8285 48.5063 47.2795L48.3857 47.4986L48.5063 47.2795C47.5692 46.7638 46.6967 46.3964 45.9587 46.1366C46.3071 46.1761 46.6876 46.2291 47.095 46.3002L47.1379 46.0539L47.095 46.3002C47.8219 46.4269 48.4904 46.6709 48.9794 46.8849C49.2233 46.9916 49.4209 47.0901 49.557 47.1617C49.625 47.1974 49.6775 47.2264 49.7126 47.2462C49.7302 47.256 49.7434 47.2636 49.752 47.2686L49.7614 47.2741L49.7635 47.2753L49.7637 47.2755L49.7638 47.2755L49.7638 47.2756L49.9322 47.376L50.0699 47.2362L49.8918 47.0608C50.0699 47.2362 50.07 47.2362 50.0701 47.2361L50.0703 47.2359L50.0708 47.2354L50.0722 47.2338L50.0771 47.2288L50.094 47.211C50.1085 47.1956 50.129 47.1733 50.1548 47.1443C50.2065 47.0862 50.2794 47.001 50.367 46.89C50.5421 46.6681 50.7765 46.3423 51.0174 45.9228C51.499 45.0841 52.0093 43.866 52.1206 42.3512C52.2453 40.6542 51.9146 39.4509 51.543 38.6651C51.3575 38.2731 51.1629 37.9871 51.0121 37.7969C50.9864 37.7644 50.962 37.7348 50.9391 37.7079C50.9766 37.6717 51.0185 37.6299 51.0642 37.5823C51.2617 37.3764 51.5308 37.0612 51.8272 36.6161C52.4205 35.7252 53.1211 34.3173 53.5786 32.2299C54.0802 29.9412 54.1026 28.0557 53.9985 26.739C53.9886 26.6138 53.9776 26.4938 53.9657 26.379C54.1798 26.8938 54.415 27.5399 54.6363 28.3159C55.2925 30.6176 55.827 34.0653 55.3236 38.6281C54.8883 42.5732 53.6532 45.495 52.5303 47.4279C51.9688 48.3945 51.4352 49.114 51.0435 49.5903C50.9157 49.7458 50.803 49.8754 50.7094 49.9791Z" fill="#FFC700" stroke="white" stroke-width="0.5"/>
<path d="M43.6523 45.7913C43.6523 45.7913 45.7609 46.0539 48.3857 47.4986C50.271 48.5362 50.5803 50.4755 50.5803 50.4755C50.5803 50.4755 54.6929 46.6234 55.5721 38.6555C56.5864 29.4625 53.4206 24.734 53.4206 24.734C53.4206 24.734 54.3259 27.6525 53.3344 32.1763C52.4326 36.2914 50.5803 37.6923 50.5803 37.6923C50.5803 37.6923 52.1144 39.0246 51.8713 42.3328C51.6555 45.2701 49.8918 47.0608 49.8918 47.0608C49.8918 47.0608 48.644 46.3165 47.1379 46.0539C45.0489 45.6895 43.6523 45.7913 43.6523 45.7913Z" fill="#FFC700" stroke="white" stroke-width="0.5"/>
<mask id="path-31-inside-2_802_3840" fill="white">
<path d="M52.8164 47.4986C52.8164 47.4986 55.1622 43.8719 55.6564 37.6924C56.2523 30.2424 54.4516 27.0544 54.4516 27.0544C54.4516 27.0544 55.78 30.2718 54.7097 36.6417C54.0587 40.516 51.8696 42.4203 51.8696 42.4203C51.8696 42.4203 52.0143 42.9978 51.3533 44.6968C50.9242 45.7997 50.2344 46.6231 50.2344 46.6231"/>
</mask>
<path d="M52.8164 47.4986C52.8164 47.4986 55.1622 43.8719 55.6564 37.6924C56.2523 30.2424 54.4516 27.0544 54.4516 27.0544C54.4516 27.0544 55.78 30.2718 54.7097 36.6417C54.0587 40.516 51.8696 42.4203 51.8696 42.4203C51.8696 42.4203 52.0143 42.9978 51.3533 44.6968C50.9242 45.7997 50.2344 46.6231 50.2344 46.6231" fill="#FFC700"/>
<path d="M55.6564 37.6924L55.158 37.6525V37.6525L55.6564 37.6924ZM54.4516 27.0544L54.887 26.8085L53.9895 27.2452L54.4516 27.0544ZM54.7097 36.6417L55.2028 36.7246L54.7097 36.6417ZM51.8696 42.4203L51.5415 42.0431L51.3101 42.2444L51.3846 42.5418L51.8696 42.4203ZM51.3533 44.6968L51.8193 44.8781L51.8193 44.878L51.3533 44.6968ZM52.8164 47.4986C53.2362 47.7701 53.2363 47.77 53.2364 47.7698C53.2365 47.7697 53.2366 47.7696 53.2367 47.7694C53.2369 47.7691 53.2371 47.7688 53.2374 47.7683C53.2379 47.7675 53.2385 47.7665 53.2394 47.7652C53.241 47.7627 53.2431 47.7593 53.2458 47.755C53.2513 47.7464 53.2589 47.7343 53.2685 47.7187C53.2877 47.6875 53.3151 47.6422 53.3497 47.5832C53.4187 47.4653 53.5162 47.2924 53.634 47.0665C53.8695 46.6149 54.1861 45.9514 54.5175 45.0929C55.1804 43.3759 55.9033 40.877 56.1549 37.7322L55.158 37.6525C54.9153 40.6872 54.2182 43.0915 53.5846 44.7327C53.2678 45.5533 52.9671 46.1827 52.7473 46.6042C52.6374 46.8149 52.5478 46.9736 52.4866 47.0781C52.456 47.1304 52.4326 47.1691 52.4172 47.194C52.4095 47.2064 52.4039 47.2154 52.4004 47.221C52.3987 47.2237 52.3974 47.2256 52.3968 47.2266C52.3965 47.2271 52.3963 47.2274 52.3963 47.2275C52.3962 47.2275 52.3962 47.2275 52.3963 47.2274C52.3963 47.2274 52.3964 47.2273 52.3964 47.2273C52.3965 47.2271 52.3965 47.227 52.8164 47.4986ZM56.1549 37.7322C56.4565 33.9611 56.1528 31.2522 55.7661 29.4734C55.5728 28.5843 55.359 27.9285 55.1904 27.4896C55.1062 27.2702 55.0332 27.1051 54.9799 26.9923C54.9532 26.9358 54.9315 26.8925 54.9156 26.8619C54.9077 26.8467 54.9013 26.8346 54.8965 26.8257C54.8941 26.8212 54.8921 26.8176 54.8905 26.8147C54.8897 26.8133 54.889 26.8121 54.8884 26.811C54.8881 26.8105 54.8879 26.81 54.8876 26.8096C54.8875 26.8094 54.8873 26.8091 54.8873 26.809C54.8871 26.8087 54.887 26.8085 54.4516 27.0544C54.0163 27.3003 54.0162 27.3001 54.016 27.2998C54.016 27.2998 54.0159 27.2996 54.0158 27.2995C54.0157 27.2992 54.0156 27.2991 54.0155 27.2989C54.0154 27.2987 54.0153 27.2986 54.0154 27.2987C54.0155 27.299 54.0161 27.3 54.0171 27.3018C54.019 27.3054 54.0227 27.3122 54.0278 27.3221C54.038 27.3419 54.0544 27.3743 54.0758 27.4196C54.1186 27.5101 54.1817 27.6523 54.2569 27.8482C54.4074 28.2398 54.6065 28.8467 54.7889 29.6858C55.1536 31.3635 55.4523 33.9736 55.158 37.6525L56.1549 37.7322ZM54.4516 27.0544C53.9895 27.2452 53.9894 27.245 53.9893 27.2448C53.9893 27.2447 53.9892 27.2445 53.9892 27.2445C53.9891 27.2443 53.989 27.2441 53.989 27.244C53.9889 27.2438 53.9889 27.2438 53.989 27.244C53.9891 27.2444 53.9896 27.2455 53.9904 27.2475C53.9919 27.2513 53.9946 27.2583 53.9984 27.2684C54.006 27.2886 54.018 27.3213 54.0334 27.3664C54.0641 27.4566 54.1086 27.5967 54.1596 27.7864C54.2616 28.1658 54.3896 28.7443 54.4858 29.5208C54.6782 31.0734 54.7438 33.4216 54.2166 36.5589L55.2028 36.7246C55.7459 33.492 55.6825 31.0465 55.4782 29.3979C55.3761 28.5738 55.239 27.9498 55.1253 27.5269C55.0685 27.3154 55.0176 27.1543 54.9799 27.0437C54.961 26.9884 54.9455 26.9458 54.9342 26.9157C54.9285 26.9007 54.9239 26.8889 54.9205 26.8802C54.9187 26.8758 54.9173 26.8723 54.9162 26.8695C54.9156 26.8681 54.9152 26.8669 54.9148 26.8659C54.9146 26.8654 54.9144 26.865 54.9142 26.8646C54.9141 26.8644 54.914 26.8642 54.914 26.8641C54.9139 26.8638 54.9138 26.8636 54.4516 27.0544ZM54.2166 36.5589C53.9043 38.4173 53.2243 39.7978 52.6272 40.71C52.3285 41.1664 52.0507 41.5053 51.8504 41.7276C51.7503 41.8386 51.6697 41.9204 51.6158 41.9731C51.5889 41.9993 51.5686 42.0183 51.5559 42.03C51.5495 42.0358 51.5451 42.0398 51.5426 42.042C51.5414 42.0431 51.5407 42.0438 51.5405 42.0439C51.5404 42.044 51.5404 42.044 51.5406 42.0439C51.5407 42.0438 51.5408 42.0437 51.5409 42.0436C51.541 42.0435 51.5411 42.0434 51.5412 42.0434C51.5413 42.0432 51.5415 42.0431 51.8696 42.4203C52.1978 42.7976 52.198 42.7974 52.1981 42.7973C52.1982 42.7972 52.1984 42.797 52.1985 42.7969C52.1988 42.7967 52.1991 42.7964 52.1995 42.7961C52.2002 42.7955 52.201 42.7948 52.2019 42.7939C52.2038 42.7923 52.2063 42.7901 52.2092 42.7875C52.2151 42.7822 52.223 42.7751 52.2329 42.766C52.2526 42.7479 52.28 42.7222 52.3141 42.6888C52.3825 42.6221 52.478 42.5249 52.5933 42.3969C52.8238 42.1411 53.134 41.7617 53.4639 41.2577C54.1241 40.2492 54.8641 38.7404 55.2028 36.7246L54.2166 36.5589ZM51.8696 42.4203C51.3846 42.5418 51.3845 42.5414 51.3844 42.541C51.3844 42.5409 51.3843 42.5404 51.3842 42.5402C51.3841 42.5396 51.3839 42.5391 51.3838 42.5386C51.3836 42.5375 51.3833 42.5365 51.3831 42.5356C51.3826 42.5336 51.3822 42.5318 51.3819 42.5302C51.3811 42.5269 51.3806 42.5242 51.3802 42.5222C51.3794 42.5181 51.3792 42.5165 51.3793 42.5175C51.3796 42.5196 51.3813 42.5324 51.3823 42.5571C51.3843 42.6066 51.3835 42.7034 51.3635 42.8569C51.3234 43.1647 51.2069 43.6941 50.8874 44.5155L51.8193 44.878C52.1607 44.0005 52.3023 43.3917 52.3552 42.986C52.3816 42.7827 52.386 42.629 52.3815 42.5171C52.3793 42.4611 52.3748 42.4155 52.3698 42.3794C52.3672 42.3614 52.3646 42.3457 52.362 42.3323C52.3607 42.3256 52.3594 42.3195 52.3582 42.3139C52.3576 42.3111 52.357 42.3085 52.3564 42.306C52.3561 42.3047 52.3558 42.3035 52.3555 42.3023C52.3554 42.3017 52.3552 42.3011 52.3551 42.3005C52.355 42.3003 52.3549 42.2998 52.3549 42.2997C52.3548 42.2993 52.3546 42.2988 51.8696 42.4203ZM50.8874 44.5154C50.6894 45.0242 50.4288 45.4739 50.2152 45.7987C50.1089 45.9602 50.0157 46.0887 49.95 46.1757C49.9171 46.2191 49.8913 46.2521 49.8741 46.2735C49.8656 46.2842 49.8592 46.2921 49.8553 46.2968C49.8534 46.2992 49.852 46.3009 49.8513 46.3017C49.8509 46.3022 49.8507 46.3024 49.8507 46.3024C49.8507 46.3025 49.8507 46.3024 49.8508 46.3024C49.8508 46.3023 49.8509 46.3023 49.8509 46.3022C49.8509 46.3022 49.851 46.3021 49.851 46.3021C49.851 46.302 49.8511 46.302 50.2344 46.6231C50.6177 46.9442 50.6177 46.9441 50.6178 46.944C50.6178 46.944 50.6179 46.9439 50.6179 46.9439C50.618 46.9437 50.6181 46.9436 50.6182 46.9435C50.6185 46.9432 50.6187 46.9429 50.619 46.9425C50.6197 46.9417 50.6205 46.9408 50.6214 46.9396C50.6234 46.9373 50.6259 46.9342 50.6291 46.9303C50.6355 46.9224 50.6444 46.9115 50.6556 46.8975C50.6778 46.8696 50.7092 46.8296 50.7477 46.7787C50.8247 46.6768 50.9308 46.5305 51.0506 46.3483C51.2892 45.9857 51.5881 45.4722 51.8193 44.8781L50.8874 44.5154Z" fill="white" mask="url(#path-31-inside-2_802_3840)"/>
<path d="M52.8164 47.4986C52.8164 47.4986 55.1622 43.8719 55.6564 37.6924C56.2523 30.2424 54.4516 27.0544 54.4516 27.0544C54.4516 27.0544 55.78 30.2718 54.7097 36.6417C54.0587 40.516 51.8696 42.4203 51.8696 42.4203C51.8696 42.4203 52.0143 42.9978 51.3533 44.6968C50.9242 45.7997 50.2344 46.6231 50.2344 46.6231" fill="#FFC700"/>
<path d="M52.8164 47.4986C52.8164 47.4986 55.1622 43.8719 55.6564 37.6924C56.2523 30.2424 54.4516 27.0544 54.4516 27.0544C54.4516 27.0544 55.78 30.2718 54.7097 36.6417C54.0587 40.516 51.8696 42.4203 51.8696 42.4203C51.8696 42.4203 52.0143 42.9978 51.3533 44.6968C50.9242 45.7997 50.2344 46.6231 50.2344 46.6231" stroke="white" stroke-width="0.5"/>
<path d="M46.8005 41.5229C46.8005 42.8275 45.762 43.8777 44.4901 43.8777C43.2181 43.8777 42.1797 42.8275 42.1797 41.5229C42.1797 40.2183 43.2181 39.1681 44.4901 39.1681C45.762 39.1681 46.8005 40.2183 46.8005 41.5229Z" fill="#FFC700" stroke="white" stroke-width="0.5"/>
<path d="M44.4901 44.1277C45.9041 44.1277 47.0505 42.9615 47.0505 41.5229C47.0505 40.0843 45.9041 38.9181 44.4901 38.9181C43.076 38.9181 41.9297 40.0843 41.9297 41.5229C41.9297 42.9615 43.076 44.1277 44.4901 44.1277Z" fill="#FFC700" stroke="white" stroke-width="0.5"/>
<path d="M30.5199 41.5448C30.5199 42.8655 31.5526 43.9215 32.8088 43.9215C34.0649 43.9215 35.0977 42.8655 35.0977 41.5448C35.0977 40.2241 34.0649 39.1681 32.8088 39.1681C31.5526 39.1681 30.5199 40.2241 30.5199 41.5448Z" fill="#FFC700" stroke="white" stroke-width="0.5"/>
<path d="M32.8088 44.1715C31.4066 44.1715 30.2699 42.9955 30.2699 41.5448C30.2699 40.0941 31.4066 38.9181 32.8088 38.9181C34.211 38.9181 35.3477 40.0941 35.3477 41.5448C35.3477 42.9955 34.211 44.1715 32.8088 44.1715Z" fill="#FFC700" stroke="white" stroke-width="0.5"/>
<path d="M44.8494 52.9575C44.3475 53.3478 43.6822 53.7765 42.8126 54.1896L42.8126 54.1897C41.5839 54.7735 40.5136 55.0077 39.754 55.0965C39.3741 55.1409 39.0719 55.1489 38.8666 55.1461C38.764 55.1446 38.6856 55.1405 38.6339 55.1368C38.6081 55.135 38.5889 55.1333 38.5767 55.1321L38.5636 55.1307L38.5613 55.1305L38.5611 55.1305L38.561 55.1304L38.5609 55.1304L38.5313 55.1268L38.5018 55.1303L38.5017 55.1303L38.5016 55.1303L38.5014 55.1303L38.5012 55.1304L38.5 55.1305L38.49 55.1315C38.4804 55.1323 38.4651 55.1336 38.4443 55.1349C38.4026 55.1376 38.3387 55.1405 38.2547 55.1408C38.0865 55.1414 37.8372 55.1319 37.5213 55.0903C36.8898 55.007 35.9912 54.7953 34.9402 54.2787C34.4198 54.0229 33.9612 53.7678 33.5592 53.5215C34.7871 54.0062 36.4131 54.4028 38.4447 54.4028C41.1311 54.4028 43.1698 53.7579 44.5403 53.1093C44.6474 53.0586 44.7505 53.0079 44.8494 52.9575Z" fill="#FFC700" stroke="white" stroke-width="0.5"/>
<path d="M30.8711 51.6138C30.8711 51.6138 33.346 54.1528 38.4447 54.1528C43.7349 54.1528 46.4544 51.6138 46.4544 51.6138C46.4544 51.6138 45.6896 53.0996 42.9199 54.4155C40.407 55.6095 38.5308 55.3786 38.5308 55.3786C38.5308 55.3786 36.9854 55.5624 34.83 54.5031C31.8789 53.0526 30.8711 51.6138 30.8711 51.6138Z" fill="#FFC700" stroke="white" stroke-width="0.5"/>
<path d="M40.3936 61.0157C40.4024 60.9945 40.4107 60.9751 40.4184 60.9573C40.4987 60.9497 40.6086 60.9374 40.7446 60.918C41.0459 60.8748 41.4757 60.7962 41.9958 60.6543L41.9958 60.6543C42.6715 60.4698 43.1433 60.3026 43.4486 60.1802C43.5195 60.1518 43.5814 60.1257 43.6349 60.1025C43.6827 60.2699 43.7429 60.5274 43.7907 60.8841C43.8239 61.1313 43.8235 61.3229 43.8156 61.4495C43.8135 61.4823 43.811 61.5108 43.8084 61.5348C43.7854 61.5509 43.7591 61.5699 43.7299 61.592C43.6222 61.6736 43.4743 61.7972 43.3063 61.9695C42.97 62.3145 42.5536 62.8542 42.2165 63.6418L42.2165 63.6418C41.6244 65.0251 41.4138 66.1573 41.3526 66.9496C41.3303 67.238 41.3279 67.4811 41.3339 67.6746C41.1059 67.4775 40.7946 67.1342 40.4701 66.5517C39.7757 65.305 39.8132 63.9654 39.8557 63.274L39.8557 63.274C39.8971 62.6011 40.0525 61.988 40.1988 61.5416C40.2718 61.3189 40.342 61.1391 40.3936 61.0157ZM39.6062 63.2587L39.6062 63.2587L39.6062 63.2587Z" fill="#FFC700" stroke="white" stroke-width="0.5"/>
<path d="M43.7803 59.7565C43.7803 59.7565 43.9372 60.0954 44.0385 60.8509C44.1094 61.3797 44.0385 61.6826 44.0385 61.6826C44.0385 61.6826 43.094 62.2272 42.4463 63.7402C41.2845 66.4545 41.6287 68.1618 41.6287 68.1618C41.6287 68.1618 40.9581 67.9416 40.2517 66.6734C39.5202 65.3599 39.5632 63.9577 39.6062 63.2587C39.6922 61.8578 40.2517 60.7195 40.2517 60.7195C40.2517 60.7195 40.912 60.691 41.93 60.4131C43.2645 60.0487 43.7803 59.7565 43.7803 59.7565Z" fill="#FFC700" stroke="white" stroke-width="0.5"/>
<path d="M40.8508 67.8553C40.6669 67.8404 40.4518 67.8095 40.2105 67.7521C39.3514 67.5477 38.1452 67.004 36.8173 65.6243C35.51 64.266 34.7513 62.7663 34.3195 61.6041C34.1038 61.0234 33.9702 60.5286 33.8908 60.1801C33.8872 60.1647 33.8838 60.1495 33.8805 60.1346C33.9915 60.1867 34.1219 60.244 34.272 60.304C34.8447 60.533 35.703 60.801 36.8599 60.9669C37.9822 61.128 38.8423 61.1064 39.4266 61.0428C39.5835 61.0257 39.7204 61.0056 39.8371 60.9852C39.7559 61.21 39.6606 61.5101 39.5768 61.8706C39.3843 62.6984 39.2506 63.8506 39.4897 65.1428L39.4897 65.1428C39.726 66.4195 40.2209 67.2084 40.6722 67.6815C40.733 67.7452 40.7928 67.803 40.8508 67.8553Z" fill="#FFC700" stroke="white" stroke-width="0.5"/>
<path d="M33.5391 59.6688C33.5391 59.6688 33.9626 63.0188 36.6372 65.7977C39.356 68.6225 41.629 68.0743 41.629 68.0743C41.629 68.0743 40.1911 67.5589 39.7355 65.0973C39.273 62.5975 40.252 60.632 40.252 60.632C40.252 60.632 39.0976 61.0355 36.8954 60.7195C34.6224 60.3934 33.5391 59.6688 33.5391 59.6688Z" fill="#FFC700" stroke="white" stroke-width="0.5"/>
<path d="M25.4422 49.1581L26.4756 50.4567C26.4751 50.4605 26.4745 50.4643 26.474 50.4683C26.4627 50.5493 26.4495 50.6662 26.4406 50.8146C26.4227 51.1114 26.4217 51.5348 26.4877 52.0501C26.6198 53.0819 27.0203 54.4795 28.0865 55.9623L28.0911 55.9687L28.0961 55.9748C29.4068 57.575 30.7411 58.5994 31.751 59.2247C32.2559 59.5374 32.6797 59.7503 32.9792 59.8857C33.0675 59.9257 33.145 59.9589 33.2107 59.9859C33.1663 60.1156 33.1164 60.2934 33.0759 60.5212C32.9838 61.0394 32.9412 61.8127 33.1207 62.863C33.2948 63.8811 33.6047 64.6706 33.873 65.2077C33.9056 65.273 33.9375 65.3345 33.9686 65.3923C33.9665 65.3914 33.9645 65.3905 33.9624 65.3896C33.5287 65.1995 32.913 64.8867 32.1954 64.3982C30.761 63.4218 28.9162 61.7417 27.3013 58.9314C25.8941 56.4826 25.448 53.8985 25.3557 51.9203C25.3095 50.9321 25.3518 50.0981 25.4055 49.5122C25.4174 49.3814 25.43 49.263 25.4422 49.1581Z" fill="#FFC700" stroke="white" stroke-width="0.5"/>
<path d="M25.2772 48.5492C25.2772 48.5492 24.218 54.0676 27.0845 59.0559C30.3549 64.7471 34.5721 65.8854 34.5721 65.8854C34.5721 65.8854 33.7058 64.802 33.3672 62.8209C33.0173 60.7744 33.5394 59.844 33.5394 59.844C33.5394 59.844 30.8713 58.9685 28.2895 55.8164C26.2116 52.9264 26.7403 50.3879 26.7403 50.3879L25.2772 48.5492Z" fill="#FFC700" stroke="white" stroke-width="0.5"/>
<path d="M51.861 49.159C51.8732 49.2637 51.8857 49.3818 51.8976 49.5121C51.9511 50.0981 51.9933 50.9321 51.9473 51.9203C51.8551 53.8986 51.41 56.4827 50.0056 58.9316C48.3939 61.7419 46.5528 63.4219 45.1214 64.3983C44.4053 64.8868 43.7909 65.1996 43.3581 65.3897C43.3563 65.3904 43.3546 65.3912 43.3529 65.3919C43.3839 65.3342 43.4157 65.2727 43.4482 65.2075C43.7159 64.6704 44.0252 63.881 44.1988 62.863C44.3781 61.8126 44.3355 61.0394 44.2437 60.5213C44.2033 60.2934 44.1534 60.1155 44.1092 59.9858C44.1746 59.9588 44.252 59.9256 44.3401 59.8856C44.639 59.7503 45.062 59.5373 45.5658 59.2246C46.5737 58.5992 47.9054 57.5748 49.2135 55.9746L49.2184 55.9685L49.223 55.9621C50.2871 54.4793 50.6867 53.0817 50.8186 52.0501C50.8844 51.5348 50.8834 51.1114 50.8655 50.8146C50.8566 50.6662 50.8434 50.5493 50.8322 50.4683C50.8316 50.4643 50.8311 50.4604 50.8306 50.4566L51.861 49.159Z" fill="#FFC700" stroke="white" stroke-width="0.5"/>
<path d="M52.0261 48.5492C52.0261 48.5492 53.0832 54.0676 50.2225 59.0559C46.9586 64.7471 42.75 65.8854 42.75 65.8854C42.75 65.8854 43.6144 64.802 43.9524 62.8209C44.3017 60.7744 43.7807 59.844 43.7807 59.844C43.7807 59.844 46.4432 58.9685 49.0199 55.8164C51.0937 52.9264 50.5659 50.3879 50.5659 50.3879L52.0261 48.5492Z" fill="#FFC700" stroke="white" stroke-width="0.5"/>
<path d="M40.1505 46.3253L40.5712 46.5317L40.4831 46.511L40.276 46.4624L40.1959 46.6566C40.1952 46.6581 40.1936 46.6614 40.191 46.6665C40.1855 46.6772 40.1754 46.6955 40.1598 46.72C40.1285 46.7689 40.0746 46.8427 39.9896 46.9293C39.9207 46.9993 39.8789 47.0027 39.8741 47.003L39.8651 46.9985L39.8353 46.992C39.8351 46.9919 39.8349 46.9919 39.8347 46.9918L39.8245 46.989C39.8143 46.9861 39.7984 46.9811 39.7791 46.9735C39.7392 46.958 39.6911 46.9343 39.6484 46.9013C39.6063 46.8688 39.5753 46.8317 39.5576 46.7892C39.541 46.7492 39.5291 46.6876 39.551 46.5908C39.5853 46.4397 39.6415 46.3693 39.6857 46.334C39.7316 46.2972 39.79 46.2782 39.8609 46.2742C39.9332 46.2701 40.0073 46.2825 40.0671 46.2983C40.0961 46.3059 40.1195 46.3138 40.135 46.3194C40.142 46.322 40.1473 46.324 40.1505 46.3253Z" fill="#FFC700" stroke="white" stroke-width="0.5"/>
<path d="M42.6637 47.2796L40.2539 46.0976C40.2539 46.0976 39.4837 45.757 39.3072 46.5355C39.1781 47.1045 39.7805 47.2359 39.7805 47.2359C39.7805 47.2359 39.9527 47.3234 40.1679 47.1045C40.3638 46.9051 40.426 46.7544 40.426 46.7544L42.6637 47.2796Z" fill="#FFC700" stroke="white" stroke-width="0.5"/>
<path d="M37.6686 46.582L37.6686 46.582C37.6342 46.428 37.5778 46.3563 37.5338 46.3206C37.4884 46.2838 37.4311 46.2649 37.3616 46.2609C37.2905 46.2568 37.2173 46.2692 37.1581 46.2851C37.1295 46.2928 37.1063 46.3007 37.091 46.3064C37.0841 46.3089 37.0789 46.311 37.0758 46.3123L36.6387 46.5301L36.7417 46.5055L36.9507 46.4557L37.0304 46.6524C37.0311 46.6538 37.0327 46.6573 37.0354 46.6626C37.0409 46.6735 37.051 46.6922 37.0666 46.717C37.0979 46.7667 37.1515 46.8413 37.2361 46.9288C37.2995 46.9943 37.3393 47.0017 37.3477 47.0027L37.356 46.9984L37.3861 46.9917M37.6686 46.582L37.3857 46.9918L37.3861 46.9917M37.6686 46.582C37.6907 46.681 37.6787 46.7447 37.6617 46.7863C37.6438 46.8302 37.6126 46.8678 37.5709 46.9006C37.5286 46.9339 37.4808 46.9577 37.4415 46.9732C37.4224 46.9808 37.4067 46.9858 37.3967 46.9888L37.3867 46.9916C37.3864 46.9916 37.3862 46.9917 37.3861 46.9917M37.6686 46.582L37.3861 46.9917M37.0302 46.6518L37.0304 46.6523L37.0302 46.6518ZM37.0723 46.3137L37.0733 46.3133L37.0731 46.3134L37.0728 46.3135L37.0723 46.3137Z" fill="#FFC700" stroke="white" stroke-width="0.5"/>
<path d="M34.5742 47.2797L36.971 46.0852C36.971 46.0852 37.737 45.7408 37.9126 46.5275C38.0409 47.1027 37.4418 47.2354 37.4418 47.2354C37.4418 47.2354 37.2706 47.3239 37.0565 47.1027C36.8616 46.9012 36.7997 46.7487 36.7997 46.7487L34.5742 47.2797Z" fill="#FFC700" stroke="white" stroke-width="0.5"/>
</svg>
