<svg width="78" height="78" viewBox="0 0 78 78" fill="none" xmlns="http://www.w3.org/2000/svg">
<circle cx="39" cy="39" r="37" stroke="#FFC700" stroke-width="4"/>
<path d="M25.7955 47.3074L25.8021 47.3448L25.719 54.7081C25.6324 54.714 25.5274 54.7211 25.4149 54.7285C25.1245 54.7477 24.7862 54.7692 24.5833 54.7792C20.5008 54.7758 17.1797 51.4014 17.1797 47.2367C17.1797 43.1395 20.394 39.8073 24.3854 39.6971C24.6397 40.9645 24.9829 42.8144 25.2685 44.3813C25.4191 45.2072 25.5535 45.9539 25.6503 46.4941C25.6987 46.7642 25.7377 46.9827 25.7646 47.1336L25.7955 47.3074Z" fill="#FFC700" stroke="white" stroke-width="0.5"/>
<path d="M24.5893 39.4443C25.1056 41.9834 26.0524 47.3242 26.0524 47.3242L25.9664 54.9417C25.9664 54.9417 24.9988 55.0093 24.5893 55.0292C20.3619 55.0292 16.9297 51.5375 16.9297 47.2367C16.9297 42.9359 20.3619 39.4443 24.5893 39.4443Z" fill="#FFC700" stroke="white" stroke-width="0.5"/>
<path d="M25.0281 43.2883V51.3594C24.6477 51.4762 24.2443 51.5391 23.826 51.5391C21.5391 51.5391 19.6758 49.6536 19.6758 47.3238C19.6758 44.9939 21.5391 43.1084 23.826 43.1084C24.2443 43.1084 24.6478 43.1713 25.0281 43.2883Z" fill="#FFC700" stroke="white" stroke-width="0.5"/>
<path d="M25.2781 51.5399C24.8234 51.7013 24.3348 51.7891 23.826 51.7891C21.3976 51.7891 19.4258 49.7882 19.4258 47.3238C19.4258 44.8593 21.3976 42.8584 23.826 42.8584C24.3348 42.8584 24.8234 42.9462 25.2781 43.1077V51.5399Z" fill="#FFC700" stroke="white" stroke-width="0.5"/>
<path d="M52.4226 54.7285C52.3101 54.7211 52.2052 54.714 52.1186 54.7081L52.0354 47.3448L52.0421 47.3074L52.073 47.1336C52.0999 46.9827 52.1388 46.7642 52.1872 46.4941C52.284 45.9539 52.4185 45.2072 52.569 44.3813C52.8546 42.8144 53.1978 40.9645 53.4522 39.6971C57.4436 39.8073 60.6579 43.1395 60.6579 47.2367C60.6579 51.4014 57.3368 54.7758 53.2542 54.7792C53.0513 54.7692 52.7131 54.7477 52.4226 54.7285Z" fill="#FFC700" stroke="white" stroke-width="0.5"/>
<path d="M53.2482 39.4443C52.7319 41.9834 51.7852 47.3242 51.7852 47.3242L51.8712 54.9417C51.8712 54.9417 52.8387 55.0093 53.2482 55.0292C57.4756 55.0292 60.9079 51.5375 60.9079 47.2367C60.9079 42.9359 57.4756 39.4443 53.2482 39.4443Z" fill="#FFC700" stroke="white" stroke-width="0.5"/>
<path d="M52.8086 51.3594V43.2883C53.189 43.1713 53.5924 43.1084 54.0107 43.1084C56.2977 43.1084 58.1609 44.9939 58.1609 47.3238C58.1609 49.6536 56.2977 51.5391 54.0107 51.5391C53.5925 51.5391 53.189 51.4762 52.8086 51.3594Z" fill="#FFC700" stroke="white" stroke-width="0.5"/>
<path d="M52.5586 43.1077C53.0134 42.9462 53.502 42.8584 54.0107 42.8584C56.4392 42.8584 58.4109 44.8593 58.4109 47.3238C58.4109 49.7882 56.4392 51.7891 54.0107 51.7891C53.502 51.7891 53.0134 51.7013 52.5586 51.5399V43.1077Z" fill="#FFC700" stroke="white" stroke-width="0.5"/>
<path d="M30.3422 26.9679L30.3422 26.9677L30.3423 26.9676L30.3423 26.9675L30.3423 26.9674L30.346 26.9471L30.3462 26.9263L30.3462 26.9262L30.3462 26.9261L30.3462 26.926L30.3462 26.926L30.3462 26.9237L30.3466 26.9122C30.3469 26.9014 30.3475 26.8846 30.3488 26.8621C30.3512 26.8171 30.3559 26.7495 30.3648 26.6623C30.3828 26.4879 30.418 26.2354 30.4866 25.929C30.624 25.3158 30.8945 24.4901 31.4268 23.6414L31.4268 23.6414C31.6304 23.3168 31.894 22.9909 32.1946 22.6423C32.3036 22.5159 32.4187 22.3851 32.5371 22.2507C32.7394 22.0209 32.9513 21.7802 33.1589 21.5315C33.8241 20.7345 34.4931 19.8002 34.8947 18.5972L34.6576 18.518L34.8947 18.5972C35.81 15.8552 35.899 13.6095 35.7563 12.0437C35.6919 11.3373 35.5804 10.7698 35.4767 10.358C35.5842 10.4485 35.7032 10.5519 35.8316 10.6685C36.4188 11.2016 37.2024 12.0085 37.9828 13.1001C39.5427 15.2818 41.0911 18.6017 41.0345 23.1552C40.9923 26.5493 39.6509 29.4028 38.3116 31.4143C37.6425 32.4191 36.9761 33.2104 36.4776 33.75C36.2284 34.0196 36.0214 34.2261 35.8774 34.3646C35.8389 34.4017 35.8049 34.4338 35.7758 34.461C35.6837 34.4209 35.5532 34.3696 35.3808 34.3148C35.0088 34.1966 34.4427 34.0619 33.6488 33.9854C33.0413 33.9268 32.5478 33.9607 32.2035 34.0101C32.0533 34.0317 31.9314 34.0562 31.8407 34.0774C31.832 34.0633 31.8227 34.0482 31.8129 34.032C31.7346 33.9021 31.6234 33.7039 31.4966 33.4361C31.2431 32.9006 30.9267 32.0866 30.6846 30.9848C30.3895 29.6415 30.3054 28.6293 30.2943 27.9572C30.2887 27.6211 30.3014 27.3699 30.3151 27.2047C30.322 27.122 30.3291 27.0609 30.3343 27.0214C30.337 27.0017 30.3391 26.9873 30.3405 26.9784L30.342 26.9691L30.3422 26.9679Z" fill="#FFC700" stroke="white" stroke-width="0.5"/>
<path d="M35.0018 9.6748C35.0018 9.6748 36.4646 13.1048 34.6576 18.518C33.883 20.8382 32.0714 22.1431 31.215 23.5086C30.1138 25.2644 30.0962 26.9233 30.0962 26.9233C30.0962 26.9233 29.8431 28.3196 30.4405 31.0384C30.9333 33.2812 31.7313 34.3656 31.7313 34.3656C31.7313 34.3656 32.454 34.1214 33.6248 34.2342C35.1793 34.384 35.8194 34.7596 35.8194 34.7596C35.8194 34.7596 41.1984 30.0753 41.2845 23.1583C41.3993 13.9267 35.0018 9.6748 35.0018 9.6748Z" fill="#FFC700" stroke="white" stroke-width="0.5"/>
<path d="M38.3488 12.7694C37.6921 11.8454 37.0385 11.1502 36.503 10.6556C37.1641 10.9493 37.9999 11.3884 38.8931 12.0235C40.9634 13.4957 43.3452 16.0234 44.5749 20.2513C45.4648 23.3107 44.9518 26.8354 44.2013 29.6184C43.8271 31.0057 43.3964 32.1997 43.0593 33.0467C42.8909 33.47 42.7459 33.8063 42.6433 34.0362C42.603 34.1265 42.5692 34.2005 42.5432 34.2568C42.4519 34.2674 42.3258 34.2888 42.1642 34.3309C41.8201 34.4207 41.3162 34.6045 40.6477 34.9792C39.8738 35.413 39.3399 35.8534 38.9971 36.1891C38.8922 36.2919 38.8052 36.3848 38.7347 36.4646C38.7014 36.4164 38.6634 36.364 38.6203 36.3084C38.4001 36.0246 38.0473 35.6553 37.5095 35.2958L37.5095 35.2958C36.9982 34.954 36.5568 34.7689 36.2384 34.669C36.2325 34.6672 36.2267 34.6654 36.2209 34.6636C36.3493 34.542 36.5067 34.3877 36.6859 34.2017C37.1845 33.6841 37.8525 32.9198 38.5339 31.9298C39.8963 29.9506 41.3173 27.0619 41.536 23.4361L41.5365 23.4264L41.5364 23.4167C41.4494 18.373 39.8934 14.9426 38.3488 12.7694Z" fill="#FFC700" stroke="white" stroke-width="0.5"/>
<path d="M35.1328 9.89355C35.1328 9.89355 42.3192 11.6008 44.815 20.1814C46.6334 26.4332 42.7064 34.4967 42.7064 34.4967C42.7064 34.4967 42.0743 34.4661 40.7699 35.1973C39.2629 36.042 38.7044 36.9045 38.7044 36.9045C38.7044 36.9045 38.3979 36.1904 37.3706 35.5036C36.3897 34.848 35.6923 34.8033 35.6923 34.8033C35.6923 34.8033 40.8561 30.5568 41.2864 23.421C41.1142 13.4397 35.1328 9.89355 35.1328 9.89355Z" fill="#FFC700" stroke="white" stroke-width="0.5"/>
<path d="M46.5563 17.6904C46.9126 18.1026 47.3814 18.7071 47.8519 19.4945C48.8179 21.1109 49.7896 23.4951 49.812 26.5686C49.7063 28.9309 48.4403 30.7885 47.1785 32.0669C46.5485 32.7051 45.9245 33.1937 45.4582 33.5225C45.2252 33.6868 45.0321 33.8108 44.8979 33.8934C44.8309 33.9347 44.7786 33.9656 44.7435 33.9859C44.741 33.9874 44.7386 33.9888 44.7362 33.9901L42.6475 34.1733L45.4664 23.3346C45.4926 23.3083 45.5256 23.2732 45.564 23.2285C45.6543 23.1235 45.7738 22.9659 45.9003 22.7476C46.1537 22.3103 46.4331 21.6334 46.566 20.6531C46.7277 19.4601 46.6732 18.4955 46.5769 17.8258C46.5702 17.7792 46.5633 17.7341 46.5563 17.6904Z" fill="#FFC700" stroke="white" stroke-width="0.5"/>
<path d="M46.1032 16.8545C46.1032 16.8545 46.6348 18.2844 46.3183 20.6195C46.0612 22.5163 45.2425 23.2024 45.2425 23.2024L42.3164 34.4533L44.8122 34.2344C44.8122 34.2344 49.8469 31.4763 50.0621 26.5732C50.0191 20.3129 46.1032 16.8545 46.1032 16.8545Z" fill="#FFC700" stroke="white" stroke-width="0.5"/>
<path d="M47.2896 18.0244C47.8138 18.4172 48.442 18.9426 49.0718 19.598C50.6254 21.2149 52.174 23.6072 52.2221 26.7468C52.1371 29.5814 50.6638 31.4319 49.1979 32.5824C48.4636 33.1587 47.7335 33.5569 47.1868 33.8109C46.9137 33.9378 46.6872 34.0284 46.5299 34.0869C46.4513 34.1161 46.39 34.1374 46.3489 34.1511C46.3432 34.153 46.3379 34.1548 46.3329 34.1565L45.5722 34.0919C45.955 33.8239 46.4748 33.4197 47.0322 32.8693C48.1525 31.763 49.4296 30.0616 50.0461 27.6869L50.0495 27.6738L50.0515 27.6604C50.4925 24.6545 49.5435 21.9284 48.4972 19.9658C48.086 19.1944 47.658 18.5378 47.2896 18.0244Z" fill="#FFC700" stroke="white" stroke-width="0.5"/>
<path d="M46.1035 16.9424C46.1035 16.9424 50.6649 21.7578 49.8041 27.6241C48.5993 32.2646 44.8125 34.2784 44.8125 34.2784L46.3616 34.4098C46.3616 34.4098 52.3 32.6149 52.4722 26.7486C52.3768 20.2934 46.1035 16.9424 46.1035 16.9424Z" fill="#FFC700" stroke="white" stroke-width="0.5"/>
<path d="M28.8283 22.3332L28.8284 22.3332C28.9921 22.2222 29.1443 22.0323 29.2838 21.8177C29.4271 21.597 29.5726 21.3249 29.7162 21.0244C30.0036 20.423 30.2924 19.6882 30.549 18.9796C30.6132 18.8021 30.6756 18.626 30.7355 18.4536C30.5771 19.6415 30.3171 21.1502 29.8982 22.6538C29.6788 23.4414 29.2697 24.0682 28.8199 24.7576C28.7155 24.9176 28.6089 25.0809 28.5019 25.2504C27.9395 26.1419 27.4025 27.1612 27.2651 28.6519L27.2651 28.6519C27.2448 28.8723 27.2892 29.1341 27.3656 29.4076C27.4433 29.6857 27.56 29.9965 27.7007 30.3225C27.9822 30.9747 28.3678 31.7059 28.7543 32.3878C29.1413 33.0707 29.5321 33.709 29.8258 34.1761C29.9203 34.3264 30.0048 34.4591 30.076 34.57C29.9839 34.5882 29.8838 34.6172 29.7809 34.662L29.7808 34.6621C29.524 34.7741 29.3503 34.8983 29.2373 35.001C29.2275 35.0099 29.2181 35.0187 29.2092 35.0273C29.192 35.0195 29.1736 35.0111 29.154 35.002C29.0139 34.9372 28.8134 34.8386 28.5751 34.7047C28.0977 34.4365 27.4727 34.0292 26.8781 33.4721C25.6916 32.3602 24.6394 30.6683 25.0918 28.2835L25.0921 28.2836L25.0938 28.271C25.1503 27.8601 25.4607 26.793 26.0777 25.6108C26.6934 24.4311 27.5992 23.1665 28.8283 22.3332Z" fill="#FFC700" stroke="white" stroke-width="0.5"/>
<path d="M31.2148 16.1543C31.2148 16.1543 29.6546 21.4709 28.6881 22.1262C26.1355 23.8568 24.9692 27.3424 24.8461 28.2369C23.8994 33.2277 29.2783 35.329 29.2783 35.329C29.2783 35.329 29.4165 35.0937 29.8808 34.8912C30.2197 34.7434 30.5263 34.8037 30.5263 34.8037C30.5263 34.8037 27.385 30.0756 27.514 28.6748C27.7785 25.8047 29.5728 24.7536 30.139 22.7209C31.0519 19.4438 31.2148 16.1543 31.2148 16.1543Z" fill="#FFC700" stroke="white" stroke-width="0.5"/>
<path d="M30.42 34.3788C30.3134 34.2857 30.1605 34.1409 29.9798 33.9367C29.6139 33.5232 29.1329 32.8651 28.6893 31.8981C28.1439 30.7089 27.8938 29.9399 27.7837 29.4059C27.677 28.8887 27.6999 28.5861 27.7206 28.3139L27.7216 28.3001C27.7738 27.6103 27.9087 27.2898 28.6455 25.7167C28.7716 25.4474 28.9637 25.1595 29.1787 24.8374C29.241 24.744 29.3053 24.6476 29.3705 24.548C29.6507 24.1198 29.9387 23.6415 30.0798 23.1392C30.642 21.1373 30.988 19.4212 31.1937 18.2046C31.2893 17.6385 31.3546 17.1805 31.3972 16.8519C31.5043 17.0065 31.6255 17.2043 31.7448 17.4469C32.0926 18.1547 32.4271 19.2505 32.3435 20.7816C32.274 22.0537 31.8146 23.2022 31.3465 24.2969C31.3125 24.3765 31.2784 24.4559 31.2443 24.5352C30.8177 25.5275 30.3993 26.5006 30.3638 27.44L30.3638 27.44C30.274 29.8185 30.5565 31.5724 30.8647 32.7371C31.0188 33.3193 31.1792 33.7538 31.3024 34.045C31.3052 34.0517 31.3081 34.0584 31.3109 34.065C31.1995 34.0702 31.0733 34.0877 30.9355 34.1251C30.9355 34.1251 30.9354 34.1251 30.9354 34.1251L31.0009 34.3664C30.5814 34.4801 30.4416 34.7165 30.4416 34.7165L30.42 34.3788Z" fill="#FFC700" stroke="white" stroke-width="0.5"/>
<path d="M31.2161 16.2422C31.2161 16.2422 30.9579 19.0878 29.8391 23.0716C29.5796 23.9958 28.7644 24.8732 28.4191 25.6106C27.6861 27.1757 27.5285 27.5379 27.4723 28.2812C27.4293 28.8502 27.3628 29.6056 28.4621 32.0023C29.3708 33.9835 30.4416 34.7165 30.4416 34.7165C30.4416 34.7165 30.5814 34.4801 31.0009 34.3664C31.4421 34.2466 31.7324 34.3664 31.7324 34.3664C31.7324 34.3664 30.436 32.1568 30.6136 27.4495C30.686 25.5354 32.4488 23.4369 32.5932 20.7952C32.7652 17.6431 31.2161 16.2422 31.2161 16.2422Z" fill="#FFC700" stroke="white" stroke-width="0.5"/>
<path d="M30.2654 46.3005C30.673 46.2295 31.0539 46.1764 31.4025 46.1369C30.6641 46.3967 29.791 46.7641 28.8533 47.2798L28.9738 47.4989L28.8533 47.2798C27.8553 47.8288 27.2751 48.6163 26.9455 49.263C26.8069 49.5348 26.7121 49.7828 26.6485 49.9797C26.6131 49.9404 26.5749 49.8975 26.5341 49.8508C26.2716 49.5498 25.9042 49.095 25.4895 48.4841C24.6601 47.2625 23.6421 45.4175 22.897 42.9322C22.5171 41.6651 22.208 40.2314 22.0311 38.6284L22.0311 38.6284C21.5273 34.0657 22.0622 30.6179 22.7189 28.3163C22.9404 27.5397 23.176 26.8933 23.3904 26.3782C23.3784 26.4933 23.3673 26.6138 23.3574 26.7394C23.2532 28.0561 23.2756 29.9415 23.7776 32.2302C24.2354 34.3177 24.9364 35.7256 25.5301 36.6165C25.8267 37.0616 26.0959 37.3768 26.2936 37.5826C26.3393 37.6303 26.3813 37.6721 26.4188 37.7082C26.3959 37.7351 26.3714 37.7647 26.3457 37.7971C26.1948 37.9873 26.0001 38.2734 25.8145 38.6654C25.4426 39.4512 25.1117 40.6545 25.2365 42.3515C25.3479 43.8664 25.8586 45.0845 26.3404 45.9232C26.5815 46.3427 26.816 46.6685 26.9913 46.8904C27.0789 47.0014 27.1519 47.0866 27.2036 47.1446C27.2294 47.1737 27.25 47.196 27.2644 47.2114L27.2814 47.2292L27.2862 47.2342L27.2877 47.2358L27.2882 47.2363L27.2884 47.2365C27.2885 47.2365 27.2885 47.2366 27.4666 47.0611L27.2885 47.2366L27.4262 47.3763L27.5945 47.2759L27.5945 47.2759L27.5946 47.2759L27.5949 47.2757L27.5969 47.2745L27.6064 47.269C27.615 47.264 27.6282 47.2564 27.6458 47.2465C27.6809 47.2268 27.7335 47.1978 27.8015 47.1621C27.9377 47.0905 28.1355 46.9919 28.3795 46.8852C28.8689 46.6712 29.5379 46.4273 30.2653 46.3005L30.2224 46.0542L30.2654 46.3005Z" fill="#FFC700" stroke="white" stroke-width="0.5"/>
<path d="M33.7104 45.7916C33.7104 45.7916 31.6004 46.0542 28.9738 47.4989C27.0872 48.5366 26.7776 50.4758 26.7776 50.4758C26.7776 50.4758 24.1644 48.0297 22.6575 43.004C22.2734 41.7229 21.9612 40.2743 21.7826 38.6558C20.7675 29.4628 23.9356 24.7344 23.9356 24.7344C23.9356 24.7344 23.0296 27.6528 24.0218 32.1767C24.9242 36.2918 26.7776 37.6927 26.7776 37.6927C26.7776 37.6927 25.2426 39.0249 25.4858 42.3332C25.7018 45.2705 27.4666 47.0611 27.4666 47.0611C27.4666 47.0611 28.7154 46.3169 30.2224 46.0542C32.3129 45.6899 33.7104 45.7916 33.7104 45.7916Z" fill="#FFC700" stroke="white" stroke-width="0.5"/>
<path d="M26.7828 37.1321C26.7434 37.1889 26.709 37.2414 26.6789 37.2891C26.6553 37.2647 26.63 37.2382 26.6032 37.2095C26.4147 37.0077 26.1528 36.6997 25.8659 36.2804C25.2922 35.4421 24.6181 34.1581 24.2296 32.3858C23.7153 30.0393 23.6685 28.2146 23.7605 26.9465C23.7698 27.0268 23.7799 27.1086 23.7906 27.1918C23.9754 28.6145 24.3904 30.4465 25.3186 32.0399L25.3186 32.0399C26.0303 33.2616 27.0057 34.1396 27.7982 34.7106C28.1658 34.9755 28.4959 35.1757 28.7452 35.3147C28.4823 35.4617 28.1336 35.6963 27.7324 36.0636L27.7324 36.0637C27.2753 36.4822 26.9727 36.8577 26.7828 37.1321Z" fill="#FFC700" stroke="white" stroke-width="0.5"/>
<path d="M23.8993 24.7344C23.8993 24.7344 22.8843 27.4155 23.9854 32.4393C24.7778 36.0542 26.7394 37.6927 26.7394 37.6927C26.7394 37.6927 27.016 37.0587 27.9012 36.248C28.7373 35.4826 29.3214 35.3286 29.3214 35.3286C29.3214 35.3286 26.9116 34.278 25.5346 31.9141C23.7255 28.8083 23.8993 24.7344 23.8993 24.7344Z" fill="#FFC700" stroke="white" stroke-width="0.5"/>
<mask id="path-26-inside-1_802_5324" fill="white">
<path d="M53.425 24.7344C53.425 24.7344 54.4365 27.3717 53.3344 32.3956C52.5415 36.0105 50.5825 37.6927 50.5825 37.6927C50.5825 37.6927 49.6161 36.4458 48.7301 35.6351C47.8935 34.8697 46.3633 34.4531 46.3633 34.4531C46.3633 34.4531 48.3488 33.7827 50.3223 31.8264C53.6787 28.4994 53.425 24.7344 53.425 24.7344Z"/>
</mask>
<path d="M53.425 24.7344C53.425 24.7344 54.4365 27.3717 53.3344 32.3956C52.5415 36.0105 50.5825 37.6927 50.5825 37.6927C50.5825 37.6927 49.6161 36.4458 48.7301 35.6351C47.8935 34.8697 46.3633 34.4531 46.3633 34.4531C46.3633 34.4531 48.3488 33.7827 50.3223 31.8264C53.6787 28.4994 53.425 24.7344 53.425 24.7344Z" fill="#FFC700"/>
<path d="M53.425 24.7344L53.8918 24.5553L52.9261 24.768L53.425 24.7344ZM53.3344 32.3956L52.846 32.2884L52.846 32.2884L53.3344 32.3956ZM50.5825 37.6927L50.1873 37.999L50.5093 38.4145L50.9082 38.072L50.5825 37.6927ZM48.7301 35.6351L48.3925 36.004L48.3926 36.004L48.7301 35.6351ZM46.3633 34.4531L46.2033 33.9794L44.6484 34.5044L46.2319 34.9355L46.3633 34.4531ZM50.3223 31.8264L50.6743 32.1815L50.6743 32.1815L50.3223 31.8264ZM53.425 24.7344C52.9581 24.9134 52.958 24.9132 52.958 24.913C52.9579 24.9129 52.9579 24.9127 52.9578 24.9126C52.9577 24.9124 52.9577 24.9122 52.9576 24.9121C52.9575 24.9118 52.9574 24.9117 52.9575 24.9117C52.9575 24.9117 52.9577 24.9124 52.9582 24.9138C52.9592 24.9164 52.9611 24.9216 52.9638 24.9294C52.9691 24.9448 52.9778 24.9704 52.9889 25.0061C53.0111 25.0775 53.0433 25.1892 53.0794 25.3408C53.1516 25.644 53.2396 26.1068 53.2949 26.7256C53.4056 27.9624 53.3861 29.8265 52.846 32.2884L53.8228 32.5027C54.3848 29.9407 54.4106 27.9743 54.291 26.6365C54.2312 25.9679 54.1352 25.4574 54.0522 25.1091C54.0107 24.9349 53.9725 24.8014 53.9437 24.7089C53.9293 24.6627 53.9172 24.6267 53.9083 24.6011C53.9039 24.5883 53.9002 24.5781 53.8974 24.5704C53.896 24.5666 53.8949 24.5634 53.8939 24.5609C53.8935 24.5597 53.893 24.5586 53.8927 24.5576C53.8925 24.5572 53.8923 24.5567 53.8922 24.5564C53.8921 24.5562 53.892 24.5559 53.892 24.5558C53.8919 24.5556 53.8918 24.5553 53.425 24.7344ZM52.846 32.2884C52.4649 34.0263 51.8051 35.2928 51.2467 36.12C50.9673 36.5338 50.7133 36.8379 50.5321 37.0358C50.4416 37.1347 50.3694 37.207 50.3214 37.2531C50.2975 37.2762 50.2796 37.2927 50.2686 37.3027C50.263 37.3077 50.2592 37.3111 50.2572 37.3129C50.2562 37.3138 50.2557 37.3142 50.2556 37.3143C50.2556 37.3144 50.2556 37.3143 50.2558 37.3141C50.2559 37.3141 50.256 37.3139 50.2562 37.3138C50.2563 37.3137 50.2564 37.3136 50.2564 37.3136C50.2566 37.3135 50.2567 37.3133 50.5825 37.6927C50.9082 38.072 50.9084 38.0719 50.9085 38.0717C50.9086 38.0717 50.9088 38.0715 50.9089 38.0714C50.9092 38.0712 50.9095 38.0709 50.9098 38.0706C50.9105 38.07 50.9113 38.0694 50.9122 38.0686C50.914 38.067 50.9163 38.065 50.919 38.0626C50.9245 38.0578 50.9317 38.0513 50.9408 38.0431C50.9588 38.0267 50.9838 38.0035 51.015 37.9736C51.0773 37.9136 51.1643 37.8262 51.2698 37.7109C51.4808 37.4804 51.766 37.138 52.0755 36.6794C52.6949 35.7618 53.4111 34.3797 53.8228 32.5027L52.846 32.2884ZM50.5825 37.6927C50.9777 37.3864 50.9777 37.3864 50.9776 37.3863C50.9776 37.3863 50.9776 37.3863 50.9776 37.3862C50.9775 37.3862 50.9774 37.3861 50.9773 37.386C50.9772 37.3857 50.9769 37.3854 50.9767 37.3851C50.9761 37.3843 50.9753 37.3833 50.9742 37.382C50.9722 37.3793 50.9692 37.3755 50.9653 37.3705C50.9576 37.3606 50.9463 37.3462 50.9317 37.3278C50.9026 37.2909 50.8603 37.2376 50.8069 37.1714C50.7002 37.039 50.5487 36.8541 50.3689 36.6434C50.012 36.225 49.5333 35.6923 49.0676 35.2662L48.3926 36.004C48.8128 36.3886 49.2603 36.8847 49.6081 37.2924C49.7807 37.4947 49.9262 37.6723 50.0284 37.799C50.0794 37.8623 50.1195 37.9128 50.1467 37.9473C50.1603 37.9645 50.1706 37.9777 50.1775 37.9864C50.1809 37.9908 50.1835 37.9941 50.1851 37.9962C50.1859 37.9972 50.1865 37.998 50.1869 37.9985C50.1871 37.9987 50.1872 37.9989 50.1872 37.9989C50.1873 37.999 50.1873 37.999 50.1873 37.999C50.1873 37.999 50.1873 37.999 50.1873 37.999C50.1873 37.999 50.1873 37.999 50.5825 37.6927ZM49.0676 35.2662C48.5833 34.8232 47.9259 34.5009 47.4227 34.2945C47.1653 34.1889 46.9359 34.1087 46.7704 34.0548C46.6875 34.0277 46.6201 34.0072 46.5728 33.9931C46.5491 33.9861 46.5304 33.9807 46.5172 33.977C46.5106 33.9751 46.5053 33.9736 46.5016 33.9726C46.4997 33.9721 46.4981 33.9716 46.497 33.9713C46.4964 33.9712 46.4959 33.971 46.4955 33.9709C46.4953 33.9709 46.4952 33.9708 46.495 33.9708C46.4949 33.9707 46.4948 33.9707 46.4948 33.9707C46.4947 33.9707 46.4946 33.9707 46.3633 34.4531C46.2319 34.9355 46.2319 34.9355 46.2318 34.9355C46.2318 34.9355 46.2317 34.9355 46.2317 34.9355C46.2316 34.9355 46.2316 34.9355 46.2316 34.9354C46.2316 34.9354 46.2316 34.9355 46.2318 34.9355C46.2321 34.9356 46.2328 34.9358 46.2338 34.9361C46.2359 34.9366 46.2394 34.9376 46.2442 34.939C46.2538 34.9417 46.2688 34.946 46.2886 34.9519C46.3282 34.9636 46.3869 34.9816 46.4605 35.0055C46.608 35.0536 46.8135 35.1254 47.0432 35.2197C47.5143 35.4129 48.0402 35.6817 48.3925 36.004L49.0676 35.2662ZM46.3633 34.4531C46.5232 34.9268 46.5234 34.9268 46.5235 34.9267C46.5236 34.9267 46.5237 34.9267 46.5239 34.9266C46.5241 34.9265 46.5244 34.9264 46.5247 34.9263C46.5253 34.9261 46.526 34.9259 46.5269 34.9256C46.5285 34.925 46.5307 34.9243 46.5334 34.9233C46.5386 34.9215 46.5458 34.919 46.5548 34.9157C46.5729 34.9093 46.5982 34.9 46.6305 34.8877C46.6949 34.8632 46.7867 34.8267 46.9021 34.777C47.1327 34.6778 47.4576 34.5256 47.8452 34.3106C48.6198 33.881 49.6487 33.1982 50.6743 32.1815L49.9703 31.4713C49.0224 32.4109 48.0717 33.0415 47.3602 33.4361C47.0047 33.6333 46.71 33.771 46.5066 33.8585C46.405 33.9023 46.3263 33.9335 46.2744 33.9532C46.2485 33.9631 46.2293 33.9701 46.2173 33.9744C46.2113 33.9766 46.2071 33.9781 46.2047 33.9789C46.2035 33.9793 46.2028 33.9795 46.2026 33.9796C46.2025 33.9797 46.2025 33.9797 46.2026 33.9796C46.2027 33.9796 46.2028 33.9796 46.2029 33.9795C46.2029 33.9795 46.2031 33.9795 46.2031 33.9795C46.2032 33.9794 46.2033 33.9794 46.3633 34.4531ZM50.6743 32.1815C52.427 30.4442 53.2414 28.5869 53.6159 27.1597C53.8029 26.4468 53.8804 25.8411 53.9109 25.4099C53.9262 25.1942 53.9297 25.0218 53.9293 24.9009C53.9291 24.8405 53.9279 24.7929 53.9267 24.7592C53.926 24.7423 53.9254 24.729 53.9249 24.7192C53.9247 24.7143 53.9244 24.7103 53.9242 24.7072C53.9241 24.7057 53.9241 24.7044 53.924 24.7033C53.924 24.7028 53.9239 24.7023 53.9239 24.7019C53.9239 24.7016 53.9239 24.7014 53.9239 24.7013C53.9238 24.701 53.9238 24.7008 53.425 24.7344C52.9261 24.768 52.9261 24.7678 52.9261 24.7676C52.9261 24.7675 52.9261 24.7673 52.926 24.7672C52.926 24.767 52.926 24.7669 52.926 24.7668C52.926 24.7667 52.926 24.7667 52.926 24.767C52.9261 24.7676 52.9261 24.769 52.9263 24.7714C52.9265 24.776 52.9269 24.7842 52.9273 24.7958C52.9282 24.8188 52.9291 24.8554 52.9293 24.9044C52.9297 25.0024 52.9268 25.1501 52.9134 25.3393C52.8866 25.7181 52.8177 26.2615 52.6486 26.9058C52.3109 28.1928 51.574 29.8816 49.9703 31.4713L50.6743 32.1815Z" fill="white" mask="url(#path-26-inside-1_802_5324)"/>
<path d="M53.425 24.7344C53.425 24.7344 54.4365 27.3717 53.3344 32.3956C52.5415 36.0105 50.5825 37.6927 50.5825 37.6927C50.5825 37.6927 49.6161 36.4458 48.7301 35.6351C47.8935 34.8697 46.3633 34.4531 46.3633 34.4531C46.3633 34.4531 48.3488 33.7827 50.3223 31.8264C53.6787 28.4994 53.425 24.7344 53.425 24.7344Z" fill="#FFC700" stroke="white" stroke-width="0.5"/>
<path d="M50.7094 49.9795C50.6459 49.7826 50.5512 49.5348 50.4128 49.263C50.0834 48.6164 49.5037 47.8289 48.5063 47.2799L48.3857 47.4989L48.5063 47.2799C47.5692 46.7641 46.6967 46.3967 45.9587 46.137C46.3071 46.1764 46.6876 46.2295 47.095 46.3005L47.1379 46.0542L47.095 46.3005C47.8219 46.4273 48.4904 46.6712 48.9794 46.8852C49.2233 46.9919 49.4209 47.0905 49.557 47.162C49.625 47.1978 49.6775 47.2267 49.7126 47.2465C49.7302 47.2564 49.7434 47.264 49.752 47.269L49.7614 47.2745L49.7635 47.2757L49.7637 47.2758L49.7638 47.2759L49.7638 47.2759L49.9322 47.3763L50.0699 47.2366L49.8918 47.0611C50.0699 47.2366 50.07 47.2365 50.0701 47.2364L50.0703 47.2362L50.0708 47.2357L50.0722 47.2342L50.0771 47.2292L50.094 47.2113C50.1085 47.1959 50.129 47.1736 50.1548 47.1446C50.2065 47.0865 50.2794 47.0013 50.367 46.8903C50.5421 46.6684 50.7765 46.3427 51.0174 45.9231C51.499 45.0845 52.0093 43.8664 52.1206 42.3515C52.2453 40.6545 51.9146 39.4512 51.543 38.6654C51.3575 38.2734 51.1629 37.9874 51.0121 37.7972C50.9864 37.7648 50.962 37.7351 50.9391 37.7082C50.9766 37.6721 51.0185 37.6303 51.0642 37.5826C51.2617 37.3768 51.5308 37.0615 51.8272 36.6164C52.4205 35.7256 53.1211 34.3177 53.5786 32.2302C54.0802 29.9415 54.1026 28.0561 53.9985 26.7394C53.9886 26.6142 53.9776 26.4941 53.9657 26.3793C54.1798 26.8942 54.415 27.5403 54.6363 28.3163C55.2925 30.6179 55.827 34.0657 55.3236 38.6284C54.8883 42.5735 53.6532 45.4954 52.5303 47.4282C51.9688 48.3949 51.4352 49.1143 51.0435 49.5907C50.9157 49.7462 50.803 49.8757 50.7094 49.9795Z" fill="#FFC700" stroke="white" stroke-width="0.5"/>
<path d="M43.6523 45.7916C43.6523 45.7916 45.7609 46.0542 48.3857 47.4989C50.271 48.5366 50.5803 50.4758 50.5803 50.4758C50.5803 50.4758 54.6929 46.6237 55.5721 38.6558C56.5864 29.4628 53.4206 24.7344 53.4206 24.7344C53.4206 24.7344 54.3259 27.6528 53.3344 32.1767C52.4326 36.2918 50.5803 37.6927 50.5803 37.6927C50.5803 37.6927 52.1144 39.0249 51.8713 42.3332C51.6555 45.2705 49.8918 47.0611 49.8918 47.0611C49.8918 47.0611 48.644 46.3169 47.1379 46.0542C45.0489 45.6899 43.6523 45.7916 43.6523 45.7916Z" fill="#FFC700" stroke="white" stroke-width="0.5"/>
<mask id="path-31-inside-2_802_5324" fill="white">
<path d="M52.8164 47.4989C52.8164 47.4989 55.1622 43.8722 55.6564 37.6927C56.2523 30.2427 54.4516 27.0547 54.4516 27.0547C54.4516 27.0547 55.78 30.2721 54.7097 36.642C54.0587 40.5163 51.8696 42.4206 51.8696 42.4206C51.8696 42.4206 52.0143 42.9981 51.3533 44.6971C50.9242 45.8 50.2344 46.6234 50.2344 46.6234"/>
</mask>
<path d="M52.8164 47.4989C52.8164 47.4989 55.1622 43.8722 55.6564 37.6927C56.2523 30.2427 54.4516 27.0547 54.4516 27.0547C54.4516 27.0547 55.78 30.2721 54.7097 36.642C54.0587 40.5163 51.8696 42.4206 51.8696 42.4206C51.8696 42.4206 52.0143 42.9981 51.3533 44.6971C50.9242 45.8 50.2344 46.6234 50.2344 46.6234" fill="#FFC700"/>
<path d="M55.6564 37.6927L55.158 37.6528V37.6528L55.6564 37.6927ZM54.4516 27.0547L54.887 26.8088L53.9895 27.2455L54.4516 27.0547ZM54.7097 36.642L55.2028 36.7249L54.7097 36.642ZM51.8696 42.4206L51.5415 42.0434L51.3101 42.2447L51.3846 42.5421L51.8696 42.4206ZM51.3533 44.6971L51.8193 44.8784L51.8193 44.8783L51.3533 44.6971ZM52.8164 47.4989C53.2362 47.7704 53.2363 47.7703 53.2364 47.7701C53.2365 47.77 53.2366 47.7699 53.2367 47.7697C53.2369 47.7694 53.2371 47.7691 53.2374 47.7687C53.2379 47.7678 53.2385 47.7668 53.2394 47.7655C53.241 47.763 53.2431 47.7596 53.2458 47.7553C53.2513 47.7467 53.2589 47.7346 53.2685 47.719C53.2877 47.6878 53.3151 47.6425 53.3497 47.5835C53.4187 47.4656 53.5162 47.2927 53.634 47.0668C53.8695 46.6152 54.1861 45.9517 54.5175 45.0932C55.1804 43.3762 55.9033 40.8773 56.1549 37.7325L55.158 37.6528C54.9153 40.6875 54.2182 43.0918 53.5846 44.733C53.2678 45.5536 52.9671 46.183 52.7473 46.6045C52.6374 46.8152 52.5478 46.9739 52.4866 47.0784C52.456 47.1307 52.4326 47.1694 52.4172 47.1943C52.4095 47.2067 52.4039 47.2157 52.4004 47.2213C52.3987 47.224 52.3974 47.2259 52.3968 47.2269C52.3965 47.2274 52.3963 47.2277 52.3963 47.2278C52.3962 47.2278 52.3962 47.2278 52.3963 47.2277C52.3963 47.2277 52.3964 47.2276 52.3964 47.2276C52.3965 47.2274 52.3965 47.2273 52.8164 47.4989ZM56.1549 37.7325C56.4565 33.9614 56.1528 31.2525 55.7661 29.4737C55.5728 28.5846 55.359 27.9288 55.1904 27.4899C55.1062 27.2705 55.0332 27.1054 54.9799 26.9926C54.9532 26.9362 54.9315 26.8928 54.9156 26.8622C54.9077 26.847 54.9013 26.8349 54.8965 26.826C54.8941 26.8216 54.8921 26.8179 54.8905 26.815C54.8897 26.8136 54.889 26.8124 54.8884 26.8113C54.8881 26.8108 54.8879 26.8103 54.8876 26.8099C54.8875 26.8097 54.8873 26.8094 54.8873 26.8093C54.8871 26.809 54.887 26.8088 54.4516 27.0547C54.0163 27.3006 54.0162 27.3004 54.016 27.3001C54.016 27.3001 54.0159 27.2999 54.0158 27.2998C54.0157 27.2995 54.0156 27.2994 54.0155 27.2992C54.0154 27.299 54.0153 27.2989 54.0154 27.299C54.0155 27.2993 54.0161 27.3003 54.0171 27.3021C54.019 27.3057 54.0227 27.3125 54.0278 27.3224C54.038 27.3422 54.0544 27.3746 54.0758 27.4199C54.1186 27.5104 54.1817 27.6526 54.2569 27.8485C54.4074 28.2402 54.6065 28.847 54.7889 29.6861C55.1536 31.3638 55.4523 33.9739 55.158 37.6528L56.1549 37.7325ZM54.4516 27.0547C53.9895 27.2455 53.9894 27.2453 53.9893 27.2451C53.9893 27.245 53.9892 27.2449 53.9892 27.2448C53.9891 27.2446 53.989 27.2444 53.989 27.2443C53.9889 27.2441 53.9889 27.2441 53.989 27.2443C53.9891 27.2447 53.9896 27.2458 53.9904 27.2478C53.9919 27.2516 53.9946 27.2586 53.9984 27.2687C54.006 27.2889 54.018 27.3216 54.0334 27.3667C54.0641 27.4569 54.1086 27.597 54.1596 27.7867C54.2616 28.1661 54.3896 28.7446 54.4858 29.5211C54.6782 31.0737 54.7438 33.4219 54.2166 36.5592L55.2028 36.7249C55.7459 33.4923 55.6825 31.0468 55.4782 29.3982C55.3761 28.5741 55.239 27.9501 55.1253 27.5272C55.0685 27.3157 55.0176 27.1547 54.9799 27.044C54.961 26.9887 54.9455 26.9461 54.9342 26.916C54.9285 26.901 54.9239 26.8892 54.9205 26.8805C54.9187 26.8761 54.9173 26.8726 54.9162 26.8698C54.9156 26.8684 54.9152 26.8672 54.9148 26.8662C54.9146 26.8658 54.9144 26.8653 54.9142 26.8649C54.9141 26.8647 54.914 26.8645 54.914 26.8644C54.9139 26.8641 54.9138 26.8639 54.4516 27.0547ZM54.2166 36.5592C53.9043 38.4176 53.2243 39.7981 52.6272 40.7103C52.3285 41.1667 52.0507 41.5056 51.8504 41.7279C51.7503 41.839 51.6697 41.9208 51.6158 41.9734C51.5889 41.9997 51.5686 42.0186 51.5559 42.0303C51.5495 42.0361 51.5451 42.0402 51.5426 42.0423C51.5414 42.0434 51.5407 42.0441 51.5405 42.0442C51.5404 42.0443 51.5404 42.0443 51.5406 42.0442C51.5407 42.0441 51.5408 42.044 51.5409 42.0439C51.541 42.0438 51.5411 42.0437 51.5412 42.0437C51.5413 42.0435 51.5415 42.0434 51.8696 42.4206C52.1978 42.7979 52.198 42.7977 52.1981 42.7976C52.1982 42.7975 52.1984 42.7974 52.1985 42.7972C52.1988 42.797 52.1991 42.7967 52.1995 42.7964C52.2002 42.7958 52.201 42.7951 52.2019 42.7942C52.2038 42.7926 52.2063 42.7904 52.2092 42.7878C52.2151 42.7825 52.223 42.7754 52.2329 42.7663C52.2526 42.7482 52.28 42.7225 52.3141 42.6891C52.3825 42.6225 52.478 42.5252 52.5933 42.3972C52.8238 42.1414 53.134 41.7621 53.4639 41.258C54.1241 40.2495 54.8641 38.7407 55.2028 36.7249L54.2166 36.5592ZM51.8696 42.4206C51.3846 42.5421 51.3845 42.5417 51.3844 42.5413C51.3844 42.5412 51.3843 42.5408 51.3842 42.5405C51.3841 42.5399 51.3839 42.5394 51.3838 42.5389C51.3836 42.5378 51.3833 42.5368 51.3831 42.5359C51.3826 42.5339 51.3822 42.5321 51.3819 42.5305C51.3811 42.5272 51.3806 42.5245 51.3802 42.5225C51.3794 42.5184 51.3792 42.5168 51.3793 42.5178C51.3796 42.5199 51.3813 42.5328 51.3823 42.5574C51.3843 42.6069 51.3835 42.7037 51.3635 42.8572C51.3234 43.165 51.2069 43.6944 50.8874 44.5158L51.8193 44.8783C52.1607 44.0008 52.3023 43.392 52.3552 42.9863C52.3816 42.783 52.386 42.6293 52.3815 42.5174C52.3793 42.4614 52.3748 42.4158 52.3698 42.3797C52.3672 42.3617 52.3646 42.346 52.362 42.3326C52.3607 42.3259 52.3594 42.3198 52.3582 42.3142C52.3576 42.3114 52.357 42.3088 52.3564 42.3063C52.3561 42.305 52.3558 42.3038 52.3555 42.3026C52.3554 42.302 52.3552 42.3014 52.3551 42.3008C52.355 42.3006 52.3549 42.3001 52.3549 42.3C52.3548 42.2996 52.3546 42.2991 51.8696 42.4206ZM50.8874 44.5157C50.6894 45.0245 50.4288 45.4742 50.2152 45.799C50.1089 45.9605 50.0157 46.089 49.95 46.176C49.9171 46.2194 49.8913 46.2524 49.8741 46.2738C49.8656 46.2845 49.8592 46.2924 49.8553 46.2971C49.8534 46.2995 49.852 46.3012 49.8513 46.302C49.8509 46.3025 49.8507 46.3027 49.8507 46.3027C49.8507 46.3028 49.8507 46.3027 49.8508 46.3027C49.8508 46.3026 49.8509 46.3026 49.8509 46.3025C49.8509 46.3025 49.851 46.3024 49.851 46.3024C49.851 46.3023 49.8511 46.3023 50.2344 46.6234C50.6177 46.9445 50.6177 46.9444 50.6178 46.9443C50.6178 46.9443 50.6179 46.9442 50.6179 46.9442C50.618 46.944 50.6181 46.9439 50.6182 46.9438C50.6185 46.9435 50.6187 46.9432 50.619 46.9428C50.6197 46.942 50.6205 46.9411 50.6214 46.9399C50.6234 46.9376 50.6259 46.9345 50.6291 46.9306C50.6355 46.9228 50.6444 46.9118 50.6556 46.8978C50.6778 46.8699 50.7092 46.83 50.7477 46.779C50.8247 46.6771 50.9308 46.5308 51.0506 46.3486C51.2892 45.986 51.5881 45.4725 51.8193 44.8784L50.8874 44.5157Z" fill="white" mask="url(#path-31-inside-2_802_5324)"/>
<path d="M52.8164 47.4989C52.8164 47.4989 55.1622 43.8722 55.6564 37.6927C56.2523 30.2427 54.4516 27.0547 54.4516 27.0547C54.4516 27.0547 55.78 30.2721 54.7097 36.642C54.0587 40.5163 51.8696 42.4206 51.8696 42.4206C51.8696 42.4206 52.0143 42.9981 51.3533 44.6971C50.9242 45.8 50.2344 46.6234 50.2344 46.6234" fill="#FFC700"/>
<path d="M52.8164 47.4989C52.8164 47.4989 55.1622 43.8722 55.6564 37.6927C56.2523 30.2427 54.4516 27.0547 54.4516 27.0547C54.4516 27.0547 55.78 30.2721 54.7097 36.642C54.0587 40.5163 51.8696 42.4206 51.8696 42.4206C51.8696 42.4206 52.0143 42.9981 51.3533 44.6971C50.9242 45.8 50.2344 46.6234 50.2344 46.6234" stroke="white" stroke-width="0.5"/>
<path d="M46.8005 41.5237C46.8005 42.8283 45.762 43.8785 44.4901 43.8785C43.2181 43.8785 42.1797 42.8283 42.1797 41.5237C42.1797 40.2192 43.2181 39.1689 44.4901 39.1689C45.762 39.1689 46.8005 40.2191 46.8005 41.5237Z" fill="#FFC700" stroke="white" stroke-width="0.5"/>
<path d="M44.4901 44.1285C45.9041 44.1285 47.0505 42.9623 47.0505 41.5237C47.0505 40.0851 45.9041 38.9189 44.4901 38.9189C43.076 38.9189 41.9297 40.0851 41.9297 41.5237C41.9297 42.9623 43.076 44.1285 44.4901 44.1285Z" fill="#FFC700" stroke="white" stroke-width="0.5"/>
<path d="M30.5199 41.5456C30.5199 42.8663 31.5526 43.9223 32.8088 43.9223C34.0649 43.9223 35.0977 42.8663 35.0977 41.5456C35.0977 40.2249 34.0649 39.1689 32.8088 39.1689C31.5526 39.1689 30.5199 40.2249 30.5199 41.5456Z" fill="#FFC700" stroke="white" stroke-width="0.5"/>
<path d="M32.8088 44.1723C31.4066 44.1723 30.2699 42.9963 30.2699 41.5456C30.2699 40.0949 31.4066 38.9189 32.8088 38.9189C34.211 38.9189 35.3477 40.0949 35.3477 41.5456C35.3477 42.9963 34.211 44.1723 32.8088 44.1723Z" fill="#FFC700" stroke="white" stroke-width="0.5"/>
<path d="M44.8494 52.9579C44.3475 53.3482 43.6822 53.777 42.8126 54.1901L42.8126 54.1901C41.5839 54.7739 40.5136 55.0081 39.754 55.0969C39.3741 55.1413 39.0719 55.1494 38.8666 55.1465C38.764 55.1451 38.6856 55.1409 38.6339 55.1373C38.6081 55.1355 38.5889 55.1337 38.5767 55.1326L38.5636 55.1312L38.5613 55.1309L38.5611 55.1309L38.561 55.1309L38.5609 55.1309L38.5313 55.1272L38.5018 55.1308L38.5017 55.1308L38.5016 55.1308L38.5014 55.1308L38.5012 55.1308L38.5 55.1309L38.49 55.1319C38.4804 55.1328 38.4651 55.1341 38.4443 55.1354C38.4026 55.1381 38.3387 55.1409 38.2547 55.1412C38.0865 55.1419 37.8372 55.1324 37.5213 55.0907C36.8898 55.0074 35.9912 54.7957 34.9402 54.2792C34.4198 54.0234 33.9612 53.7682 33.5592 53.5219C34.7871 54.0067 36.4131 54.4033 38.4447 54.4033C41.1311 54.4033 43.1698 53.7584 44.5403 53.1097C44.6474 53.0591 44.7505 53.0083 44.8494 52.9579Z" fill="#FFC700" stroke="white" stroke-width="0.5"/>
<path d="M30.8711 51.6143C30.8711 51.6143 33.346 54.1533 38.4447 54.1533C43.7349 54.1533 46.4544 51.6143 46.4544 51.6143C46.4544 51.6143 45.6896 53.1 42.9199 54.4159C40.407 55.6099 38.5308 55.3791 38.5308 55.3791C38.5308 55.3791 36.9854 55.5629 34.83 54.5036C31.8789 53.053 30.8711 51.6143 30.8711 51.6143Z" fill="#FFC700" stroke="white" stroke-width="0.5"/>
<path d="M40.3936 61.016C40.4024 60.9949 40.4107 60.9754 40.4184 60.9577C40.4987 60.9501 40.6086 60.9378 40.7446 60.9183C41.0459 60.8752 41.4757 60.7966 41.9958 60.6546L41.9958 60.6546C42.6715 60.4701 43.1433 60.303 43.4486 60.1806C43.5195 60.1521 43.5814 60.1261 43.6349 60.1028C43.6827 60.2703 43.7429 60.5278 43.7907 60.8845C43.8239 61.1317 43.8235 61.3232 43.8156 61.4498C43.8135 61.4827 43.811 61.5112 43.8084 61.5351C43.7854 61.5512 43.7591 61.5703 43.7299 61.5924C43.6222 61.674 43.4743 61.7975 43.3063 61.9699C42.97 62.3149 42.5536 62.8546 42.2165 63.6421L42.2165 63.6422C41.6244 65.0255 41.4138 66.1577 41.3526 66.95C41.3303 67.2384 41.3279 67.4815 41.3339 67.6749C41.1059 67.4778 40.7946 67.1346 40.4701 66.5521C39.7757 65.3053 39.8132 63.9658 39.8557 63.2744L39.8557 63.2744C39.8971 62.6015 40.0525 61.9884 40.1988 61.5419C40.2718 61.3192 40.342 61.1394 40.3936 61.016ZM39.6062 63.259L39.6062 63.259L39.6062 63.259Z" fill="#FFC700" stroke="white" stroke-width="0.5"/>
<path d="M43.7803 59.7568C43.7803 59.7568 43.9372 60.0958 44.0385 60.8512C44.1094 61.3801 44.0385 61.683 44.0385 61.683C44.0385 61.683 43.094 62.2276 42.4463 63.7405C41.2845 66.4549 41.6287 68.1621 41.6287 68.1621C41.6287 68.1621 40.9581 67.9419 40.2517 66.6737C39.5202 65.3603 39.5632 63.9581 39.6062 63.259C39.6922 61.8581 40.2517 60.7198 40.2517 60.7198C40.2517 60.7198 40.912 60.6913 41.93 60.4135C43.2645 60.0491 43.7803 59.7568 43.7803 59.7568Z" fill="#FFC700" stroke="white" stroke-width="0.5"/>
<path d="M40.8508 67.8554C40.6669 67.8405 40.4518 67.8096 40.2105 67.7522C39.3514 67.5478 38.1452 67.0041 36.8173 65.6245C35.51 64.2662 34.7513 62.7665 34.3195 61.6042C34.1038 61.0236 33.9702 60.5287 33.8908 60.1802C33.8872 60.1648 33.8838 60.1496 33.8805 60.1347C33.9915 60.1868 34.1219 60.2441 34.272 60.3041C34.8447 60.5331 35.703 60.8011 36.8599 60.9671C37.9822 61.1281 38.8423 61.1065 39.4266 61.0429C39.5835 61.0258 39.7204 61.0057 39.8371 60.9853C39.7559 61.2101 39.6606 61.5102 39.5768 61.8707C39.3843 62.6985 39.2506 63.8507 39.4897 65.1429L39.4897 65.143C39.726 66.4196 40.2209 67.2085 40.6722 67.6816C40.733 67.7453 40.7928 67.8031 40.8508 67.8554Z" fill="#FFC700" stroke="white" stroke-width="0.5"/>
<path d="M33.5391 59.6689C33.5391 59.6689 33.9626 63.0189 36.6372 65.7978C39.356 68.6226 41.629 68.0744 41.629 68.0744C41.629 68.0744 40.1911 67.559 39.7355 65.0975C39.273 62.5976 40.252 60.6321 40.252 60.6321C40.252 60.6321 39.0976 61.0356 36.8954 60.7196C34.6224 60.3936 33.5391 59.6689 33.5391 59.6689Z" fill="#FFC700" stroke="white" stroke-width="0.5"/>
<path d="M25.4422 49.1587L26.4756 50.4574C26.4751 50.4611 26.4745 50.465 26.474 50.4689C26.4627 50.5499 26.4495 50.6668 26.4406 50.8152C26.4227 51.112 26.4217 51.5354 26.4877 52.0508C26.6198 53.0825 27.0203 54.4801 28.0865 55.9629L28.0911 55.9693L28.0961 55.9754C29.4068 57.5756 30.7411 58.6 31.751 59.2254C32.2559 59.538 32.6797 59.751 32.9792 59.8863C33.0675 59.9263 33.145 59.9595 33.2107 59.9865C33.1663 60.1162 33.1164 60.294 33.0759 60.5219C32.9838 61.04 32.9412 61.8133 33.1207 62.8637C33.2948 63.8817 33.6047 64.6712 33.873 65.2083C33.9056 65.2736 33.9375 65.3351 33.9686 65.3929C33.9665 65.392 33.9645 65.3911 33.9624 65.3902C33.5287 65.2001 32.913 64.8873 32.1954 64.3988C30.761 63.4224 28.9162 61.7423 27.3013 58.932C25.8941 56.4832 25.448 53.8991 25.3557 51.9209C25.3095 50.9328 25.3518 50.0988 25.4055 49.5128C25.4174 49.382 25.43 49.2636 25.4422 49.1587Z" fill="#FFC700" stroke="white" stroke-width="0.5"/>
<path d="M25.2772 48.5498C25.2772 48.5498 24.218 54.0683 27.0845 59.0566C30.3549 64.7477 34.5721 65.886 34.5721 65.886C34.5721 65.886 33.7058 64.8026 33.3672 62.8215C33.0173 60.775 33.5394 59.8446 33.5394 59.8446C33.5394 59.8446 30.8713 58.9691 28.2895 55.817C26.2116 52.927 26.7403 50.3885 26.7403 50.3885L25.2772 48.5498Z" fill="#FFC700" stroke="white" stroke-width="0.5"/>
<path d="M51.861 49.1596C51.8732 49.2643 51.8857 49.3824 51.8976 49.5128C51.9511 50.0987 51.9933 50.9328 51.9473 51.9209C51.8551 53.8992 51.41 56.4833 50.0056 58.9322C48.3939 61.7425 46.5528 63.4226 45.1214 64.3989C44.4053 64.8874 43.7909 65.2002 43.3581 65.3903C43.3563 65.391 43.3546 65.3918 43.3529 65.3926C43.3839 65.3348 43.4157 65.2733 43.4482 65.2081C43.7159 64.671 44.0252 63.8816 44.1988 62.8636C44.3781 61.8133 44.3355 61.04 44.2437 60.522C44.2033 60.294 44.1534 60.1161 44.1092 59.9864C44.1746 59.9594 44.252 59.9262 44.3401 59.8862C44.639 59.7509 45.062 59.5379 45.5658 59.2252C46.5737 58.5998 47.9054 57.5754 49.2135 55.9752L49.2184 55.9691L49.223 55.9627C50.2871 54.4799 50.6867 53.0823 50.8186 52.0507C50.8844 51.5354 50.8834 51.112 50.8655 50.8152C50.8566 50.6668 50.8434 50.5499 50.8322 50.4689C50.8316 50.465 50.8311 50.4611 50.8306 50.4572L51.861 49.1596Z" fill="#FFC700" stroke="white" stroke-width="0.5"/>
<path d="M52.0261 48.5498C52.0261 48.5498 53.0832 54.0683 50.2225 59.0566C46.9586 64.7477 42.75 65.886 42.75 65.886C42.75 65.886 43.6144 64.8026 43.9524 62.8215C44.3017 60.775 43.7807 59.8446 43.7807 59.8446C43.7807 59.8446 46.4432 58.9691 49.0199 55.817C51.0937 52.927 50.5659 50.3885 50.5659 50.3885L52.0261 48.5498Z" fill="#FFC700" stroke="white" stroke-width="0.5"/>
<path d="M40.1505 46.3263L40.5712 46.5327L40.4831 46.512L40.276 46.4634L40.1959 46.6576C40.1952 46.659 40.1936 46.6624 40.191 46.6675C40.1855 46.6782 40.1754 46.6965 40.1598 46.721C40.1285 46.7699 40.0746 46.8437 39.9896 46.9303C39.9207 47.0003 39.8789 47.0036 39.8741 47.004L39.8651 46.9995L39.8353 46.993C39.8351 46.9929 39.8349 46.9929 39.8347 46.9928L39.8245 46.99C39.8143 46.9871 39.7984 46.982 39.7791 46.9745C39.7392 46.959 39.6911 46.9353 39.6484 46.9023C39.6063 46.8697 39.5753 46.8327 39.5576 46.7901C39.541 46.7502 39.5291 46.6885 39.551 46.5918C39.5853 46.4407 39.6415 46.3703 39.6857 46.3349C39.7316 46.2982 39.79 46.2792 39.8609 46.2752C39.9332 46.2711 40.0073 46.2835 40.0671 46.2993C40.0961 46.3069 40.1195 46.3148 40.135 46.3204C40.142 46.323 40.1473 46.325 40.1505 46.3263Z" fill="#FFC700" stroke="white" stroke-width="0.5"/>
<path d="M42.6637 47.2806L40.2539 46.0986C40.2539 46.0986 39.4837 45.758 39.3072 46.5365C39.1781 47.1055 39.7805 47.2369 39.7805 47.2369C39.7805 47.2369 39.9527 47.3244 40.1679 47.1055C40.3638 46.9061 40.426 46.7554 40.426 46.7554L42.6637 47.2806Z" fill="#FFC700" stroke="white" stroke-width="0.5"/>
<path d="M37.6686 46.5826L37.6686 46.5826C37.6342 46.4286 37.5778 46.3569 37.5338 46.3212C37.4884 46.2844 37.4311 46.2655 37.3616 46.2615C37.2905 46.2574 37.2173 46.2699 37.1581 46.2857C37.1295 46.2934 37.1063 46.3013 37.091 46.307C37.0841 46.3095 37.0789 46.3116 37.0758 46.3129L36.6387 46.5307L36.7417 46.5061L36.9507 46.4563L37.0304 46.653C37.0311 46.6544 37.0327 46.6579 37.0354 46.6632C37.0409 46.6741 37.051 46.6928 37.0666 46.7176C37.0979 46.7673 37.1515 46.842 37.2361 46.9294C37.2995 46.9949 37.3393 47.0023 37.3477 47.0033L37.356 46.999L37.3861 46.9923M37.6686 46.5826L37.3857 46.9924L37.3861 46.9923M37.6686 46.5826C37.6907 46.6816 37.6787 46.7453 37.6617 46.7869C37.6438 46.8308 37.6126 46.8685 37.5709 46.9012C37.5286 46.9345 37.4808 46.9583 37.4415 46.9738C37.4224 46.9814 37.4067 46.9865 37.3967 46.9894L37.3867 46.9922C37.3864 46.9922 37.3862 46.9923 37.3861 46.9923M37.6686 46.5826L37.3861 46.9923M37.0302 46.6524L37.0304 46.6529L37.0302 46.6524ZM37.0723 46.3143L37.0733 46.3139L37.0731 46.314L37.0728 46.3141L37.0723 46.3143Z" fill="#FFC700" stroke="white" stroke-width="0.5"/>
<path d="M34.5742 47.2803L36.971 46.0858C36.971 46.0858 37.737 45.7414 37.9126 46.5281C38.0409 47.1033 37.4418 47.236 37.4418 47.236C37.4418 47.236 37.2706 47.3245 37.0565 47.1033C36.8616 46.9018 36.7997 46.7493 36.7997 46.7493L34.5742 47.2803Z" fill="#FFC700" stroke="white" stroke-width="0.5"/>
</svg>
