<svg width="102" height="133" viewBox="0 0 102 133" fill="none" xmlns="http://www.w3.org/2000/svg">
<g opacity="0.8">
<path d="M18.4168 68.1677C19.5908 73.8113 21.7436 85.6824 21.7436 85.6824L21.548 102.614C21.548 102.614 19.348 102.764 18.4168 102.808C8.80439 102.808 1 95.0471 1 85.4879C1 75.9284 8.80439 68.1677 18.4168 68.1677Z" fill="white"/>
<path d="M18.4168 68.1677C19.5908 73.8113 21.7436 85.6824 21.7436 85.6824L21.548 102.614C21.548 102.614 19.348 102.764 18.4168 102.808C8.80439 102.808 1 95.0471 1 85.4879C1 75.9284 8.80439 68.1677 18.4168 68.1677Z" fill="white" stroke="#EF5482"/>
<path d="M19.9821 95.0538C18.9481 95.4125 17.8371 95.6076 16.6803 95.6076C11.1583 95.6076 6.6748 91.1603 6.6748 85.6825C6.6748 80.2046 11.1583 75.7573 16.6803 75.7573C17.8371 75.7573 18.9481 75.9525 19.9821 76.3116V95.0538Z" fill="white"/>
<path d="M19.9821 95.0538C18.9481 95.4125 17.8371 95.6076 16.6803 95.6076C11.1583 95.6076 6.6748 91.1603 6.6748 85.6825C6.6748 80.2046 11.1583 75.7573 16.6803 75.7573C17.8371 75.7573 18.9481 75.9525 19.9821 76.3116V95.0538Z" fill="white" stroke="#EF5482"/>
<path d="M83.5831 68.1677C82.4091 73.8113 80.2563 85.6824 80.2563 85.6824L80.452 102.614C80.452 102.614 82.652 102.764 83.5831 102.808C93.1955 102.808 101 95.0471 101 85.4879C101 75.9284 93.1955 68.1677 83.5831 68.1677Z" fill="white"/>
<path d="M83.5831 68.1677C82.4091 73.8113 80.2563 85.6824 80.2563 85.6824L80.452 102.614C80.452 102.614 82.652 102.764 83.5831 102.808C93.1955 102.808 101 95.0471 101 85.4879C101 75.9284 93.1955 68.1677 83.5831 68.1677Z" fill="white" stroke="#EF5482"/>
<path d="M82.0181 76.3116C83.0521 75.9525 84.1631 75.7573 85.3199 75.7573C90.8419 75.7573 95.3254 80.2046 95.3254 85.6825C95.3254 91.1603 90.8419 95.6076 85.3199 95.6076C84.1631 95.6076 83.0521 95.4125 82.0181 95.0538V76.3116Z" fill="white"/>
<path d="M82.0181 76.3116C83.0521 75.9525 84.1631 75.7573 85.3199 75.7573C90.8419 75.7573 95.3254 80.2046 95.3254 85.6825C95.3254 91.1603 90.8419 95.6076 85.3199 95.6076C84.1631 95.6076 83.0521 95.4125 82.0181 95.0538V76.3116Z" fill="white" stroke="#EF5482"/>
<path d="M42.096 2C42.096 2 45.422 9.62375 41.3132 21.6559C39.552 26.8129 35.4326 29.7133 33.4853 32.7485C30.9813 36.651 30.9414 40.3383 30.9414 40.3383C30.9414 40.3383 30.3659 43.442 31.7242 49.485C32.8447 54.4701 34.6593 56.8804 34.6593 56.8804C34.6593 56.8804 36.3026 56.3374 38.9648 56.5883C42.4996 56.9212 43.9549 57.7562 43.9549 57.7562C43.9549 57.7562 56.1861 47.3441 56.3817 31.9699C56.6429 11.4507 42.096 2 42.096 2Z" fill="white"/>
<path d="M42.096 2C42.096 2 45.422 9.62375 41.3132 21.6559C39.552 26.8129 35.4326 29.7133 33.4853 32.7485C30.9813 36.651 30.9414 40.3383 30.9414 40.3383C30.9414 40.3383 30.3659 43.442 31.7242 49.485C32.8447 54.4701 34.6593 56.8804 34.6593 56.8804C34.6593 56.8804 36.3026 56.3374 38.9648 56.5883C42.4996 56.9212 43.9549 57.7562 43.9549 57.7562C43.9549 57.7562 56.1861 47.3441 56.3817 31.9699C56.6429 11.4507 42.096 2 42.096 2Z" fill="white" stroke="#EF5482"/>
<path d="M42.3892 2.48657C42.3892 2.48657 58.7298 6.28134 64.4049 25.3535C68.5397 39.2493 59.6104 57.1721 59.6104 57.1721C59.6104 57.1721 58.173 57.1041 55.2071 58.7292C51.7804 60.6068 50.5104 62.524 50.5104 62.524C50.5104 62.524 49.8133 60.9367 47.4774 59.4102C45.247 57.9529 43.6613 57.8535 43.6613 57.8535C43.6613 57.8535 55.4031 48.4148 56.3815 32.5541C55.9899 10.3685 42.3892 2.48657 42.3892 2.48657Z" fill="white"/>
<path d="M42.3892 2.48657C42.3892 2.48657 58.7298 6.28134 64.4049 25.3535C68.5397 39.2493 59.6104 57.1721 59.6104 57.1721C59.6104 57.1721 58.173 57.1041 55.2071 58.7292C51.7804 60.6068 50.5104 62.524 50.5104 62.524C50.5104 62.524 49.8133 60.9367 47.4774 59.4102C45.247 57.9529 43.6613 57.8535 43.6613 57.8535C43.6613 57.8535 55.4031 48.4148 56.3815 32.5541C55.9899 10.3685 42.3892 2.48657 42.3892 2.48657Z" fill="white" stroke="#EF5482"/>
<path d="M67.3406 17.958C67.3406 17.958 68.5494 21.1363 67.8296 26.3264C67.245 30.5425 65.3835 32.0676 65.3835 32.0676L58.73 57.0749L64.4051 56.5884C64.4051 56.5884 75.8531 50.458 76.3424 39.5599C76.2446 25.6451 67.3406 17.958 67.3406 17.958Z" fill="white"/>
<path d="M67.3406 17.958C67.3406 17.958 68.5494 21.1363 67.8296 26.3264C67.245 30.5425 65.3835 32.0676 65.3835 32.0676L58.73 57.0749L64.4051 56.5884C64.4051 56.5884 75.8531 50.458 76.3424 39.5599C76.2446 25.6451 67.3406 17.958 67.3406 17.958Z" fill="white" stroke="#EF5482"/>
<path d="M67.3403 18.1528C67.3403 18.1528 77.7121 28.8562 75.755 41.8951C73.0154 52.2096 64.4048 56.6856 64.4048 56.6856L67.9271 56.9777C67.9271 56.9777 81.4301 52.9881 81.8216 39.9491C81.6048 25.6011 67.3403 18.1528 67.3403 18.1528Z" fill="white"/>
<path d="M67.3403 18.1528C67.3403 18.1528 77.7121 28.8562 75.755 41.8951C73.0154 52.2096 64.4048 56.6856 64.4048 56.6856L67.9271 56.9777C67.9271 56.9777 81.4301 52.9881 81.8216 39.9491C81.6048 25.6011 67.3403 18.1528 67.3403 18.1528Z" fill="white" stroke="#EF5482"/>
<path d="M33.4855 16.4014C33.4855 16.4014 29.9378 28.2186 27.74 29.6752C21.936 33.5217 19.284 41.2692 19.0042 43.2575C16.8514 54.3504 29.0822 59.021 29.0822 59.021C29.0822 59.021 29.3965 58.4981 30.4521 58.048C31.2228 57.7195 31.9199 57.8535 31.9199 57.8535C31.9199 57.8535 24.777 47.3443 25.0704 44.2308C25.6719 37.8514 29.7518 35.515 31.0393 30.9971C33.1151 23.713 33.4855 16.4014 33.4855 16.4014Z" fill="white"/>
<path d="M33.4855 16.4014C33.4855 16.4014 29.9378 28.2186 27.74 29.6752C21.936 33.5217 19.284 41.2692 19.0042 43.2575C16.8514 54.3504 29.0822 59.021 29.0822 59.021C29.0822 59.021 29.3965 58.4981 30.4521 58.048C31.2228 57.7195 31.9199 57.8535 31.9199 57.8535C31.9199 57.8535 24.777 47.3443 25.0704 44.2308C25.6719 37.8514 29.7518 35.515 31.0393 30.9971C33.1151 23.713 33.4855 16.4014 33.4855 16.4014Z" fill="white" stroke="#EF5482"/>
<path d="M33.4852 16.5957C33.4852 16.5957 32.898 22.9205 30.354 31.7755C29.7639 33.8296 27.9105 35.78 27.1251 37.419C25.4584 40.8977 25.1002 41.7028 24.9724 43.3549C24.8746 44.6196 24.7233 46.2987 27.2229 51.6258C29.2892 56.0294 31.724 57.6586 31.724 57.6586C31.724 57.6586 32.042 57.1331 32.9958 56.8804C33.9991 56.6142 34.6592 56.8804 34.6592 56.8804C34.6592 56.8804 31.7112 51.9692 32.1152 41.5062C32.2797 37.2519 36.2881 32.5875 36.6163 26.7157C37.0075 19.7095 33.4852 16.5957 33.4852 16.5957Z" fill="white"/>
<path d="M33.4852 16.5957C33.4852 16.5957 32.898 22.9205 30.354 31.7755C29.7639 33.8296 27.9105 35.78 27.1251 37.419C25.4584 40.8977 25.1002 41.7028 24.9724 43.3549C24.8746 44.6196 24.7233 46.2987 27.2229 51.6258C29.2892 56.0294 31.724 57.6586 31.724 57.6586C31.724 57.6586 32.042 57.1331 32.9958 56.8804C33.9991 56.6142 34.6592 56.8804 34.6592 56.8804C34.6592 56.8804 31.7112 51.9692 32.1152 41.5062C32.2797 37.2519 36.2881 32.5875 36.6163 26.7157C37.0075 19.7095 33.4852 16.5957 33.4852 16.5957Z" fill="white" stroke="#EF5482"/>
<path d="M39.1605 82.2769C39.1605 82.2769 34.3627 82.8606 28.3902 86.0717C24.1005 88.3782 23.3964 92.6886 23.3964 92.6886C23.3964 92.6886 17.4543 87.2515 14.0279 76.081C13.1547 73.2333 12.4448 70.0136 12.0386 66.4162C9.7305 45.9829 16.9342 35.4729 16.9342 35.4729C16.9342 35.4729 14.8741 41.9598 17.1301 52.0149C19.1822 61.1616 23.3964 64.2754 23.3964 64.2754C23.3964 64.2754 19.906 67.2366 20.4591 74.5898C20.9503 81.1186 24.9631 85.0987 24.9631 85.0987C24.9631 85.0987 27.8027 83.4444 31.2294 82.8606C35.9829 82.0508 39.1605 82.2769 39.1605 82.2769Z" fill="white"/>
<path d="M39.1605 82.2769C39.1605 82.2769 34.3627 82.8606 28.3902 86.0717C24.1005 88.3782 23.3964 92.6886 23.3964 92.6886C23.3964 92.6886 17.4543 87.2515 14.0279 76.081C13.1547 73.2333 12.4448 70.0136 12.0386 66.4162C9.7305 45.9829 16.9342 35.4729 16.9342 35.4729C16.9342 35.4729 14.8741 41.9598 17.1301 52.0149C19.1822 61.1616 23.3964 64.2754 23.3964 64.2754C23.3964 64.2754 19.906 67.2366 20.4591 74.5898C20.9503 81.1186 24.9631 85.0987 24.9631 85.0987C24.9631 85.0987 27.8027 83.4444 31.2294 82.8606C35.9829 82.0508 39.1605 82.2769 39.1605 82.2769Z" fill="white" stroke="#EF5482"/>
<path d="M16.8516 35.4729C16.8516 35.4729 14.5435 41.4321 17.0472 52.5987C18.849 60.6335 23.3094 64.2754 23.3094 64.2754C23.3094 64.2754 23.9384 62.8661 25.9512 61.0643C27.8523 59.363 29.1805 59.0207 29.1805 59.0207C29.1805 59.0207 23.701 56.6855 20.5699 51.4312C16.4563 44.5281 16.8516 35.4729 16.8516 35.4729Z" fill="white"/>
<path d="M16.8516 35.4729C16.8516 35.4729 14.5435 41.4321 17.0472 52.5987C18.849 60.6335 23.3094 64.2754 23.3094 64.2754C23.3094 64.2754 23.9384 62.8661 25.9512 61.0643C27.8523 59.363 29.1805 59.0207 29.1805 59.0207C29.1805 59.0207 23.701 56.6855 20.5699 51.4312C16.4563 44.5281 16.8516 35.4729 16.8516 35.4729Z" fill="white" stroke="#EF5482"/>
<path d="M83.9844 35.4729C83.9844 35.4729 86.2844 41.3349 83.7785 52.5014C81.9756 60.5363 77.521 64.2754 77.521 64.2754C77.521 64.2754 75.3236 61.5039 73.3089 59.7021C71.4067 58.0008 67.9272 57.0748 67.9272 57.0748C67.9272 57.0748 72.4419 55.5847 76.9294 51.2364C84.5613 43.8413 83.9844 35.4729 83.9844 35.4729Z" fill="white"/>
<path d="M83.9844 35.4729C83.9844 35.4729 86.2844 41.3349 83.7785 52.5014C81.9756 60.5363 77.521 64.2754 77.521 64.2754C77.521 64.2754 75.3236 61.5039 73.3089 59.7021C71.4067 58.0008 67.9272 57.0748 67.9272 57.0748C67.9272 57.0748 72.4419 55.5847 76.9294 51.2364C84.5613 43.8413 83.9844 35.4729 83.9844 35.4729Z" fill="white" stroke="#EF5482"/>
<path d="M61.7632 82.2769C61.7632 82.2769 66.5577 82.8606 72.5262 86.0717C76.813 88.3782 77.5163 92.6886 77.5163 92.6886C77.5163 92.6886 86.8676 84.1264 88.8668 66.4162C91.1731 45.9829 83.9745 35.4729 83.9745 35.4729C83.9745 35.4729 86.0331 41.9598 83.7786 52.0149C81.728 61.1616 77.5163 64.2754 77.5163 64.2754C77.5163 64.2754 81.0046 67.2366 80.4518 74.5898C79.961 81.1186 75.9507 85.0987 75.9507 85.0987C75.9507 85.0987 73.1134 83.4444 69.6888 82.8606C64.9386 82.0508 61.7632 82.2769 61.7632 82.2769Z" fill="white"/>
<path d="M61.7632 82.2769C61.7632 82.2769 66.5577 82.8606 72.5262 86.0717C76.813 88.3782 77.5163 92.6886 77.5163 92.6886C77.5163 92.6886 86.8676 84.1264 88.8668 66.4162C91.1731 45.9829 83.9745 35.4729 83.9745 35.4729C83.9745 35.4729 86.0331 41.9598 83.7786 52.0149C81.728 61.1616 77.5163 64.2754 77.5163 64.2754C77.5163 64.2754 81.0046 67.2366 80.4518 74.5898C79.961 81.1186 75.9507 85.0987 75.9507 85.0987C75.9507 85.0987 73.1134 83.4444 69.6888 82.8606C64.9386 82.0508 61.7632 82.2769 61.7632 82.2769Z" fill="white" stroke="#EF5482"/>
<path d="M82.6045 86.0717C82.6045 86.0717 87.9385 78.0107 89.0623 64.2754C90.4173 47.7163 86.3228 40.6304 86.3228 40.6304C86.3228 40.6304 89.3433 47.7818 86.9096 61.9402C85.4294 70.5515 80.4517 74.7843 80.4517 74.7843C80.4517 74.7843 80.7807 76.0679 79.2777 79.8441C78.3019 82.2956 76.7334 84.1258 76.7334 84.1258" fill="white"/>
<path d="M82.6045 86.0717C82.6045 86.0717 87.9385 78.0107 89.0623 64.2754C90.4173 47.7163 86.3228 40.6304 86.3228 40.6304C86.3228 40.6304 89.3433 47.7818 86.9096 61.9402C85.4294 70.5515 80.4517 74.7843 80.4517 74.7843C80.4517 74.7843 80.7807 76.0679 79.2777 79.8441C78.3019 82.2956 76.7334 84.1258 76.7334 84.1258" fill="white"/>
<path d="M82.6045 86.0717C82.6045 86.0717 87.9385 78.0107 89.0623 64.2754C90.4173 47.7163 86.3228 40.6304 86.3228 40.6304C86.3228 40.6304 89.3433 47.7818 86.9096 61.9402C85.4294 70.5515 80.4517 74.7843 80.4517 74.7843C80.4517 74.7843 80.7807 76.0679 79.2777 79.8441C78.3019 82.2956 76.7334 84.1258 76.7334 84.1258" stroke="#EF5482"/>
<path d="M63.671 78.5793C66.8864 78.5793 69.493 75.9872 69.493 72.7897C69.493 69.5921 66.8864 67 63.671 67C60.4557 67 57.8491 69.5921 57.8491 72.7897C57.8491 75.9872 60.4557 78.5793 63.671 78.5793Z" fill="white"/>
<path d="M63.671 78.5793C66.8864 78.5793 69.493 75.9872 69.493 72.7897C69.493 69.5921 66.8864 67 63.671 67C60.4557 67 57.8491 69.5921 57.8491 72.7897C57.8491 75.9872 60.4557 78.5793 63.671 78.5793Z" fill="white" stroke="#EF5482"/>
<path d="M37.1059 78.6766C33.9176 78.6766 31.3329 76.0627 31.3329 72.8383C31.3329 69.6139 33.9176 67 37.1059 67C40.2942 67 42.8789 69.6139 42.8789 72.8383C42.8789 76.0627 40.2942 78.6766 37.1059 78.6766Z" fill="white"/>
<path d="M37.1059 78.6766C33.9176 78.6766 31.3329 76.0627 31.3329 72.8383C31.3329 69.6139 33.9176 67 37.1059 67C40.2942 67 42.8789 69.6139 42.8789 72.8383C42.8789 76.0627 40.2942 78.6766 37.1059 78.6766Z" fill="white" stroke="#EF5482"/>
<path d="M32.7026 95.2188C32.7026 95.2188 38.3301 100.862 49.9239 100.862C61.9528 100.862 68.1367 95.2188 68.1367 95.2188C68.1367 95.2188 66.3975 98.5212 60.0997 101.446C54.3858 104.1 50.1195 103.587 50.1195 103.587C50.1195 103.587 46.6056 103.995 41.7045 101.641C34.9942 98.4167 32.7026 95.2188 32.7026 95.2188Z" fill="white"/>
<path d="M32.7026 95.2188C32.7026 95.2188 38.3301 100.862 49.9239 100.862C61.9528 100.862 68.1367 95.2188 68.1367 95.2188C68.1367 95.2188 66.3975 98.5212 60.0997 101.446C54.3858 104.1 50.1195 103.587 50.1195 103.587C50.1195 103.587 46.6056 103.995 41.7045 101.641C34.9942 98.4167 32.7026 95.2188 32.7026 95.2188Z" fill="white" stroke="#EF5482"/>
<path d="M62.0568 113.318C62.0568 113.318 62.4136 114.071 62.644 115.75C62.8052 116.926 62.644 117.599 62.644 117.599C62.644 117.599 60.4964 118.809 59.0235 122.172C56.3817 128.205 57.1645 132 57.1645 132C57.1645 132 55.6396 131.511 54.0334 128.692C52.37 125.773 52.4678 122.656 52.5656 121.102C52.7612 117.988 54.0334 115.458 54.0334 115.458C54.0334 115.458 55.5349 115.395 57.8495 114.777C60.8839 113.967 62.0568 113.318 62.0568 113.318Z" fill="white"/>
<path d="M62.0568 113.318C62.0568 113.318 62.4136 114.071 62.644 115.75C62.8052 116.926 62.644 117.599 62.644 117.599C62.644 117.599 60.4964 118.809 59.0235 122.172C56.3817 128.205 57.1645 132 57.1645 132C57.1645 132 55.6396 131.511 54.0334 128.692C52.37 125.773 52.4678 122.656 52.5656 121.102C52.7612 117.988 54.0334 115.458 54.0334 115.458C54.0334 115.458 55.5349 115.395 57.8495 114.777C60.8839 113.967 62.0568 113.318 62.0568 113.318Z" fill="white" stroke="#EF5482"/>
<path d="M38.769 113.123C38.769 113.123 39.732 120.569 45.8137 126.745C51.9958 133.024 57.1643 131.806 57.1643 131.806C57.1643 131.806 53.8947 130.66 52.8588 125.189C51.8071 119.632 54.0331 115.264 54.0331 115.264C54.0331 115.264 51.4082 116.161 46.4009 115.458C41.2324 114.733 38.769 113.123 38.769 113.123Z" fill="white"/>
<path d="M38.769 113.123C38.769 113.123 39.732 120.569 45.8137 126.745C51.9958 133.024 57.1643 131.806 57.1643 131.806C57.1643 131.806 53.8947 130.66 52.8588 125.189C51.8071 119.632 54.0331 115.264 54.0331 115.264C54.0331 115.264 51.4082 116.161 46.4009 115.458C41.2324 114.733 38.769 113.123 38.769 113.123Z" fill="white" stroke="#EF5482"/>
<path d="M19.9828 88.407C19.9828 88.407 17.5744 100.673 24.0923 111.76C31.5286 124.41 41.118 126.94 41.118 126.94C41.118 126.94 39.148 124.532 38.378 120.129C37.5824 115.58 38.7696 113.512 38.7696 113.512C38.7696 113.512 32.7029 111.566 26.8322 104.56C22.1073 98.1362 23.3095 92.4938 23.3095 92.4938L19.9828 88.407Z" fill="white"/>
<path d="M19.9828 88.407C19.9828 88.407 17.5744 100.673 24.0923 111.76C31.5286 124.41 41.118 126.94 41.118 126.94C41.118 126.94 39.148 124.532 38.378 120.129C37.5824 115.58 38.7696 113.512 38.7696 113.512C38.7696 113.512 32.7029 111.566 26.8322 104.56C22.1073 98.1362 23.3095 92.4938 23.3095 92.4938L19.9828 88.407Z" fill="white" stroke="#EF5482"/>
<path d="M80.8008 88.407C80.8008 88.407 83.2045 100.673 76.6997 111.76C69.2781 124.41 59.7085 126.94 59.7085 126.94C59.7085 126.94 61.6741 124.532 62.4426 120.129C63.2367 115.58 62.0521 113.512 62.0521 113.512C62.0521 113.512 68.1063 111.566 73.9653 104.56C78.6807 98.1362 77.4807 92.4938 77.4807 92.4938L80.8008 88.407Z" fill="white"/>
<path d="M80.8008 88.407C80.8008 88.407 83.2045 100.673 76.6997 111.76C69.2781 124.41 59.7085 126.94 59.7085 126.94C59.7085 126.94 61.6741 124.532 62.4426 120.129C63.2367 115.58 62.0521 113.512 62.0521 113.512C62.0521 113.512 68.1063 111.566 73.9653 104.56C78.6807 98.1362 77.4807 92.4938 77.4807 92.4938L80.8008 88.407Z" fill="white" stroke="#EF5482"/>
<path d="M59.5128 85.5851L54.0333 82.9578C54.0333 82.9578 52.282 82.2008 51.8806 83.9312C51.5872 85.1959 52.9567 85.4879 52.9567 85.4879C52.9567 85.4879 53.3483 85.6824 53.8377 85.1959C54.2831 84.7527 54.4245 84.4177 54.4245 84.4177L59.5128 85.5851Z" fill="white"/>
<path d="M59.5128 85.5851L54.0333 82.9578C54.0333 82.9578 52.282 82.2008 51.8806 83.9312C51.5872 85.1959 52.9567 85.4879 52.9567 85.4879C52.9567 85.4879 53.3483 85.6824 53.8377 85.1959C54.2831 84.7527 54.4245 84.4177 54.4245 84.4177L59.5128 85.5851Z" fill="white" stroke="#EF5482"/>
<path d="M41.1177 85.5852L46.5675 82.9302C46.5675 82.9302 48.3093 82.1648 48.7085 83.9134C49.0005 85.1919 47.6382 85.4869 47.6382 85.4869C47.6382 85.4869 47.2488 85.6835 46.762 85.1919C46.3188 84.744 46.1781 84.405 46.1781 84.405L41.1177 85.5852Z" fill="white"/>
<path d="M41.1177 85.5852L46.5675 82.9302C46.5675 82.9302 48.3093 82.1648 48.7085 83.9134C49.0005 85.1919 47.6382 85.4869 47.6382 85.4869C47.6382 85.4869 47.2488 85.6835 46.762 85.1919C46.3188 84.744 46.1781 84.405 46.1781 84.405L41.1177 85.5852Z" fill="white" stroke="#EF5482"/>
</g>
</svg>
