<svg width="102" height="132" viewBox="0 0 102 132" fill="none" xmlns="http://www.w3.org/2000/svg">
<g opacity="0.8">
<path d="M18.4169 67.1677C19.5909 72.8113 21.7437 84.6824 21.7437 84.6824L21.5481 101.614C21.5481 101.614 19.3481 101.764 18.4169 101.808C8.80444 101.808 1 94.0471 1 84.4879C1 74.9284 8.80444 67.1677 18.4169 67.1677Z" fill="url(#paint0_linear_962_704)"/>
<path d="M18.4169 67.1677C19.5909 72.8113 21.7437 84.6824 21.7437 84.6824L21.5481 101.614C21.5481 101.614 19.3481 101.764 18.4169 101.808C8.80444 101.808 1 94.0471 1 84.4879C1 74.9284 8.80444 67.1677 18.4169 67.1677Z" fill="url(#paint1_linear_962_704)" stroke="white" stroke-width="0.5"/>
<path d="M19.9827 94.0538C18.9486 94.4125 17.8376 94.6076 16.6808 94.6076C11.1588 94.6076 6.67529 90.1603 6.67529 84.6825C6.67529 79.2046 11.1588 74.7573 16.6808 74.7573C17.8376 74.7573 18.9486 74.9525 19.9827 75.3116V94.0538Z" fill="url(#paint2_linear_962_704)"/>
<path d="M19.9827 94.0538C18.9486 94.4125 17.8376 94.6076 16.6808 94.6076C11.1588 94.6076 6.67529 90.1603 6.67529 84.6825C6.67529 79.2046 11.1588 74.7573 16.6808 74.7573C17.8376 74.7573 18.9486 74.9525 19.9827 75.3116V94.0538Z" fill="url(#paint3_linear_962_704)" stroke="white" stroke-width="0.5"/>
<path d="M83.5831 67.1677C82.4091 72.8113 80.2563 84.6824 80.2563 84.6824L80.452 101.614C80.452 101.614 82.652 101.764 83.5831 101.808C93.1956 101.808 101 94.0471 101 84.4879C101 74.9284 93.1956 67.1677 83.5831 67.1677Z" fill="url(#paint4_linear_962_704)"/>
<path d="M83.5831 67.1677C82.4091 72.8113 80.2563 84.6824 80.2563 84.6824L80.452 101.614C80.452 101.614 82.652 101.764 83.5831 101.808C93.1956 101.808 101 94.0471 101 84.4879C101 74.9284 93.1956 67.1677 83.5831 67.1677Z" fill="url(#paint5_linear_962_704)" stroke="white" stroke-width="0.5"/>
<path d="M82.0176 75.3116C83.0516 74.9525 84.1626 74.7573 85.3194 74.7573C90.8414 74.7573 95.325 79.2046 95.325 84.6825C95.325 90.1603 90.8414 94.6076 85.3194 94.6076C84.1626 94.6076 83.0516 94.4125 82.0176 94.0538V75.3116Z" fill="url(#paint6_linear_962_704)"/>
<path d="M82.0176 75.3116C83.0516 74.9525 84.1626 74.7573 85.3194 74.7573C90.8414 74.7573 95.325 79.2046 95.325 84.6825C95.325 90.1603 90.8414 94.6076 85.3194 94.6076C84.1626 94.6076 83.0516 94.4125 82.0176 94.0538V75.3116Z" fill="url(#paint7_linear_962_704)" stroke="white" stroke-width="0.5"/>
<path d="M42.097 1C42.097 1 45.423 8.62375 41.3142 20.6559C39.553 25.8129 35.4336 28.7133 33.4863 31.7485C30.9823 35.651 30.9424 39.3383 30.9424 39.3383C30.9424 39.3383 30.3669 42.442 31.7252 48.485C32.8457 53.4701 34.6603 55.8804 34.6603 55.8804C34.6603 55.8804 36.3036 55.3375 38.9658 55.5884C42.5007 55.9212 43.956 56.7562 43.956 56.7562C43.956 56.7562 56.1872 46.3442 56.3828 30.9699C56.644 10.4507 42.097 1 42.097 1Z" fill="url(#paint8_linear_962_704)"/>
<path d="M42.097 1C42.097 1 45.423 8.62375 41.3142 20.6559C39.553 25.8129 35.4336 28.7133 33.4863 31.7485C30.9823 35.651 30.9424 39.3383 30.9424 39.3383C30.9424 39.3383 30.3669 42.442 31.7252 48.485C32.8457 53.4701 34.6603 55.8804 34.6603 55.8804C34.6603 55.8804 36.3036 55.3375 38.9658 55.5884C42.5007 55.9212 43.956 56.7562 43.956 56.7562C43.956 56.7562 56.1872 46.3442 56.3828 30.9699C56.644 10.4507 42.097 1 42.097 1Z" fill="url(#paint9_linear_962_704)" stroke="white" stroke-width="0.5"/>
<path d="M42.3906 1.48657C42.3906 1.48657 58.7314 5.28134 64.4065 24.3535C68.5413 38.2493 59.612 56.1722 59.612 56.1722C59.612 56.1722 58.1746 56.1041 55.2086 57.7292C51.7819 59.6068 50.5119 61.524 50.5119 61.524C50.5119 61.524 49.8148 59.9367 47.4789 58.4102C45.2485 56.9529 43.6628 56.8535 43.6628 56.8535C43.6628 56.8535 55.4046 47.4148 56.383 31.5541C55.9914 9.36851 42.3906 1.48657 42.3906 1.48657Z" fill="url(#paint10_linear_962_704)"/>
<path d="M42.3906 1.48657C42.3906 1.48657 58.7314 5.28134 64.4065 24.3535C68.5413 38.2493 59.612 56.1722 59.612 56.1722C59.612 56.1722 58.1746 56.1041 55.2086 57.7292C51.7819 59.6068 50.5119 61.524 50.5119 61.524C50.5119 61.524 49.8148 59.9367 47.4789 58.4102C45.2485 56.9529 43.6628 56.8535 43.6628 56.8535C43.6628 56.8535 55.4046 47.4148 56.383 31.5541C55.9914 9.36851 42.3906 1.48657 42.3906 1.48657Z" fill="url(#paint11_linear_962_704)" stroke="white" stroke-width="0.5"/>
<path d="M67.3416 16.958C67.3416 16.958 68.5504 20.1363 67.8306 25.3264C67.246 29.5425 65.3845 31.0676 65.3845 31.0676L58.731 56.0749L64.4061 55.5884C64.4061 55.5884 75.8541 49.458 76.3435 38.5599C76.2457 24.6451 67.3416 16.958 67.3416 16.958Z" fill="url(#paint12_linear_962_704)"/>
<path d="M67.3416 16.958C67.3416 16.958 68.5504 20.1363 67.8306 25.3264C67.246 29.5425 65.3845 31.0676 65.3845 31.0676L58.731 56.0749L64.4061 55.5884C64.4061 55.5884 75.8541 49.458 76.3435 38.5599C76.2457 24.6451 67.3416 16.958 67.3416 16.958Z" fill="url(#paint13_linear_962_704)" stroke="white" stroke-width="0.5"/>
<path d="M67.3408 17.1528C67.3408 17.1528 77.7127 27.8562 75.7555 40.8951C73.0159 51.2096 64.4053 55.6856 64.4053 55.6856L67.9276 55.9777C67.9276 55.9777 81.4306 51.9881 81.8222 38.9491C81.6054 24.6011 67.3408 17.1528 67.3408 17.1528Z" fill="url(#paint14_linear_962_704)"/>
<path d="M67.3408 17.1528C67.3408 17.1528 77.7127 27.8562 75.7555 40.8951C73.0159 51.2096 64.4053 55.6856 64.4053 55.6856L67.9276 55.9777C67.9276 55.9777 81.4306 51.9881 81.8222 38.9491C81.6054 24.6011 67.3408 17.1528 67.3408 17.1528Z" fill="url(#paint15_linear_962_704)" stroke="white" stroke-width="0.5"/>
<path d="M33.4855 15.4014C33.4855 15.4014 29.9379 27.2186 27.7401 28.6752C21.936 32.5217 19.284 40.2692 19.0042 42.2575C16.8514 53.3505 29.0822 58.021 29.0822 58.021C29.0822 58.021 29.3965 57.4981 30.4522 57.048C31.2229 56.7195 31.92 56.8535 31.92 56.8535C31.92 56.8535 24.7771 46.3443 25.0705 43.2308C25.672 36.8514 29.7518 34.515 31.0394 29.9971C33.1152 22.713 33.4855 15.4014 33.4855 15.4014Z" fill="url(#paint16_linear_962_704)"/>
<path d="M33.4855 15.4014C33.4855 15.4014 29.9379 27.2186 27.7401 28.6752C21.936 32.5217 19.284 40.2692 19.0042 42.2575C16.8514 53.3505 29.0822 58.021 29.0822 58.021C29.0822 58.021 29.3965 57.4981 30.4522 57.048C31.2229 56.7195 31.92 56.8535 31.92 56.8535C31.92 56.8535 24.7771 46.3443 25.0705 43.2308C25.672 36.8514 29.7518 34.515 31.0394 29.9971C33.1152 22.713 33.4855 15.4014 33.4855 15.4014Z" fill="url(#paint17_linear_962_704)" stroke="white" stroke-width="0.5"/>
<path d="M33.4867 15.5959C33.4867 15.5959 32.8995 21.9208 30.3555 30.7757C29.7654 32.8299 27.9119 34.7802 27.1266 36.4193C25.4599 39.8979 25.1017 40.7031 24.9738 42.3552C24.876 43.6199 24.7247 45.299 27.2244 50.626C29.2907 55.0297 31.7255 56.6588 31.7255 56.6588C31.7255 56.6588 32.0435 56.1334 32.9973 55.8807C34.0006 55.6145 34.6607 55.8807 34.6607 55.8807C34.6607 55.8807 31.7127 50.9694 32.1167 40.5064C32.2812 36.2521 36.2896 31.5878 36.6178 25.7159C37.0091 18.7098 33.4867 15.5959 33.4867 15.5959Z" fill="url(#paint18_linear_962_704)"/>
<path d="M33.4867 15.5959C33.4867 15.5959 32.8995 21.9208 30.3555 30.7757C29.7654 32.8299 27.9119 34.7802 27.1266 36.4193C25.4599 39.8979 25.1017 40.7031 24.9738 42.3552C24.876 43.6199 24.7247 45.299 27.2244 50.626C29.2907 55.0297 31.7255 56.6588 31.7255 56.6588C31.7255 56.6588 32.0435 56.1334 32.9973 55.8807C34.0006 55.6145 34.6607 55.8807 34.6607 55.8807C34.6607 55.8807 31.7127 50.9694 32.1167 40.5064C32.2812 36.2521 36.2896 31.5878 36.6178 25.7159C37.0091 18.7098 33.4867 15.5959 33.4867 15.5959Z" fill="url(#paint19_linear_962_704)" stroke="white" stroke-width="0.5"/>
<path d="M39.1607 81.2772C39.1607 81.2772 34.3629 81.8609 28.3903 85.0719C24.1005 87.3784 23.3965 91.6888 23.3965 91.6888C23.3965 91.6888 17.4543 86.2518 14.028 75.0812C13.1547 72.2336 12.4448 69.0138 12.0386 65.4164C9.73049 44.9831 16.9342 34.4731 16.9342 34.4731C16.9342 34.4731 14.8741 40.96 17.1302 51.0152C19.1822 60.1618 23.3965 63.2756 23.3965 63.2756C23.3965 63.2756 19.906 66.2368 20.4591 73.59C20.9503 80.1188 24.9632 84.0989 24.9632 84.0989C24.9632 84.0989 27.8027 82.4446 31.2295 81.8609C35.983 81.051 39.1607 81.2772 39.1607 81.2772Z" fill="url(#paint20_linear_962_704)"/>
<path d="M39.1607 81.2772C39.1607 81.2772 34.3629 81.8609 28.3903 85.0719C24.1005 87.3784 23.3965 91.6888 23.3965 91.6888C23.3965 91.6888 17.4543 86.2518 14.028 75.0812C13.1547 72.2336 12.4448 69.0138 12.0386 65.4164C9.73049 44.9831 16.9342 34.4731 16.9342 34.4731C16.9342 34.4731 14.8741 40.96 17.1302 51.0152C19.1822 60.1618 23.3965 63.2756 23.3965 63.2756C23.3965 63.2756 19.906 66.2368 20.4591 73.59C20.9503 80.1188 24.9632 84.0989 24.9632 84.0989C24.9632 84.0989 27.8027 82.4446 31.2295 81.8609C35.983 81.051 39.1607 81.2772 39.1607 81.2772Z" fill="url(#paint21_linear_962_704)" stroke="white" stroke-width="0.5"/>
<path d="M16.8516 34.4731C16.8516 34.4731 14.5435 40.4324 17.0472 51.5989C18.849 59.6338 23.3095 63.2756 23.3095 63.2756C23.3095 63.2756 23.9384 61.8664 25.9512 60.0646C27.8524 58.3633 29.1806 58.021 29.1806 58.021C29.1806 58.021 23.7011 55.6857 20.5699 50.4315C16.4563 43.5284 16.8516 34.4731 16.8516 34.4731Z" fill="url(#paint22_linear_962_704)"/>
<path d="M16.8516 34.4731C16.8516 34.4731 14.5435 40.4324 17.0472 51.5989C18.849 59.6338 23.3095 63.2756 23.3095 63.2756C23.3095 63.2756 23.9384 61.8664 25.9512 60.0646C27.8524 58.3633 29.1806 58.021 29.1806 58.021C29.1806 58.021 23.7011 55.6857 20.5699 50.4315C16.4563 43.5284 16.8516 34.4731 16.8516 34.4731Z" fill="url(#paint23_linear_962_704)" stroke="white" stroke-width="0.5"/>
<path d="M83.985 34.4731C83.985 34.4731 86.285 40.3352 83.7791 51.5017C81.9762 59.5366 77.5216 63.2756 77.5216 63.2756C77.5216 63.2756 75.3241 60.5041 73.3094 58.7023C71.4072 57.001 67.9277 56.075 67.9277 56.075C67.9277 56.075 72.4424 54.5849 76.93 50.2366C84.5619 42.8416 83.985 34.4731 83.985 34.4731Z" fill="url(#paint24_linear_962_704)"/>
<path d="M83.985 34.4731C83.985 34.4731 86.285 40.3352 83.7791 51.5017C81.9762 59.5366 77.5216 63.2756 77.5216 63.2756C77.5216 63.2756 75.3241 60.5041 73.3094 58.7023C71.4072 57.001 67.9277 56.075 67.9277 56.075C67.9277 56.075 72.4424 54.5849 76.93 50.2366C84.5619 42.8416 83.985 34.4731 83.985 34.4731Z" fill="url(#paint25_linear_962_704)" stroke="white" stroke-width="0.5"/>
<path d="M61.7632 81.2772C61.7632 81.2772 66.5577 81.8609 72.5262 85.0719C76.8131 87.3784 77.5164 91.6888 77.5164 91.6888C77.5164 91.6888 86.8677 83.1267 88.867 65.4164C91.1732 44.9831 83.9747 34.4731 83.9747 34.4731C83.9747 34.4731 86.0333 40.96 83.7787 51.0152C81.7281 60.1618 77.5164 63.2756 77.5164 63.2756C77.5164 63.2756 81.0047 66.2368 80.4519 73.59C79.9611 80.1188 75.9508 84.0989 75.9508 84.0989C75.9508 84.0989 73.1134 82.4446 69.6889 81.8609C64.9387 81.051 61.7632 81.2772 61.7632 81.2772Z" fill="url(#paint26_linear_962_704)"/>
<path d="M61.7632 81.2772C61.7632 81.2772 66.5577 81.8609 72.5262 85.0719C76.8131 87.3784 77.5164 91.6888 77.5164 91.6888C77.5164 91.6888 86.8677 83.1267 88.867 65.4164C91.1732 44.9831 83.9747 34.4731 83.9747 34.4731C83.9747 34.4731 86.0333 40.96 83.7787 51.0152C81.7281 60.1618 77.5164 63.2756 77.5164 63.2756C77.5164 63.2756 81.0047 66.2368 80.4519 73.59C79.9611 80.1188 75.9508 84.0989 75.9508 84.0989C75.9508 84.0989 73.1134 82.4446 69.6889 81.8609C64.9387 81.051 61.7632 81.2772 61.7632 81.2772Z" fill="url(#paint27_linear_962_704)" stroke="white" stroke-width="0.5"/>
<path d="M82.605 85.072C82.605 85.072 87.9391 77.0109 89.0629 63.2757C90.4178 46.7165 86.3233 39.6306 86.3233 39.6306C86.3233 39.6306 89.3438 46.7821 86.9101 60.9404C85.4299 69.5517 80.4522 73.7846 80.4522 73.7846C80.4522 73.7846 80.7812 75.0682 79.2782 78.8444C78.3024 81.2958 76.7339 83.126 76.7339 83.126" fill="url(#paint28_linear_962_704)"/>
<path d="M82.605 85.072C82.605 85.072 87.9391 77.0109 89.0629 63.2757C90.4178 46.7165 86.3233 39.6306 86.3233 39.6306C86.3233 39.6306 89.3438 46.7821 86.9101 60.9404C85.4299 69.5517 80.4522 73.7846 80.4522 73.7846C80.4522 73.7846 80.7812 75.0682 79.2782 78.8444C78.3024 81.2958 76.7339 83.126 76.7339 83.126" fill="url(#paint29_linear_962_704)"/>
<path d="M82.605 85.072C82.605 85.072 87.9391 77.0109 89.0629 63.2757C90.4178 46.7165 86.3233 39.6306 86.3233 39.6306C86.3233 39.6306 89.3438 46.7821 86.9101 60.9404C85.4299 69.5517 80.4522 73.7846 80.4522 73.7846C80.4522 73.7846 80.7812 75.0682 79.2782 78.8444C78.3024 81.2958 76.7339 83.126 76.7339 83.126" stroke="white" stroke-width="0.5"/>
<path d="M63.6716 77.5793C66.8869 77.5793 69.4935 74.9872 69.4935 71.7897C69.4935 68.5921 66.8869 66 63.6716 66C60.4562 66 57.8496 68.5921 57.8496 71.7897C57.8496 74.9872 60.4562 77.5793 63.6716 77.5793Z" fill="url(#paint30_linear_962_704)"/>
<path d="M63.6716 77.5793C66.8869 77.5793 69.4935 74.9872 69.4935 71.7897C69.4935 68.5921 66.8869 66 63.6716 66C60.4562 66 57.8496 68.5921 57.8496 71.7897C57.8496 74.9872 60.4562 77.5793 63.6716 77.5793Z" fill="url(#paint31_linear_962_704)" stroke="white" stroke-width="0.5"/>
<path d="M37.1049 77.6767C33.9166 77.6767 31.3319 75.0627 31.3319 71.8383C31.3319 68.6139 33.9166 66 37.1049 66C40.2933 66 42.8779 68.6139 42.8779 71.8383C42.8779 75.0627 40.2933 77.6767 37.1049 77.6767Z" fill="url(#paint32_linear_962_704)"/>
<path d="M37.1049 77.6767C33.9166 77.6767 31.3319 75.0627 31.3319 71.8383C31.3319 68.6139 33.9166 66 37.1049 66C40.2933 66 42.8779 68.6139 42.8779 71.8383C42.8779 75.0627 40.2933 77.6767 37.1049 77.6767Z" fill="url(#paint33_linear_962_704)" stroke="white" stroke-width="0.5"/>
<path d="M32.7026 94.2188C32.7026 94.2188 38.3301 99.8623 49.924 99.8623C61.953 99.8623 68.1369 94.2188 68.1369 94.2188C68.1369 94.2188 66.3977 97.5212 60.0999 100.446C54.3859 103.1 50.1196 102.587 50.1196 102.587C50.1196 102.587 46.6056 102.995 41.7045 100.641C34.9942 97.4167 32.7026 94.2188 32.7026 94.2188Z" fill="url(#paint34_linear_962_704)"/>
<path d="M32.7026 94.2188C32.7026 94.2188 38.3301 99.8623 49.924 99.8623C61.953 99.8623 68.1369 94.2188 68.1369 94.2188C68.1369 94.2188 66.3977 97.5212 60.0999 100.446C54.3859 103.1 50.1196 102.587 50.1196 102.587C50.1196 102.587 46.6056 102.995 41.7045 100.641C34.9942 97.4167 32.7026 94.2188 32.7026 94.2188Z" fill="url(#paint35_linear_962_704)" stroke="white" stroke-width="0.5"/>
<path d="M62.0564 112.317C62.0564 112.317 62.4132 113.071 62.6436 114.75C62.8048 115.925 62.6436 116.599 62.6436 116.599C62.6436 116.599 60.496 117.809 59.023 121.172C56.3813 127.205 57.1641 131 57.1641 131C57.1641 131 55.6391 130.51 54.0329 127.692C52.3695 124.772 52.4673 121.656 52.5651 120.102C52.7607 116.988 54.0329 114.458 54.0329 114.458C54.0329 114.458 55.5344 114.394 57.8491 113.777C60.8835 112.967 62.0564 112.317 62.0564 112.317Z" fill="url(#paint36_linear_962_704)"/>
<path d="M62.0564 112.317C62.0564 112.317 62.4132 113.071 62.6436 114.75C62.8048 115.925 62.6436 116.599 62.6436 116.599C62.6436 116.599 60.496 117.809 59.023 121.172C56.3813 127.205 57.1641 131 57.1641 131C57.1641 131 55.6391 130.51 54.0329 127.692C52.3695 124.772 52.4673 121.656 52.5651 120.102C52.7607 116.988 54.0329 114.458 54.0329 114.458C54.0329 114.458 55.5344 114.394 57.8491 113.777C60.8835 112.967 62.0564 112.317 62.0564 112.317Z" fill="url(#paint37_linear_962_704)" stroke="white" stroke-width="0.5"/>
<path d="M38.769 112.123C38.769 112.123 39.7321 119.569 45.8138 125.745C51.9959 132.024 57.1644 130.805 57.1644 130.805C57.1644 130.805 53.8948 129.66 52.8589 124.189C51.8072 118.632 54.0332 114.263 54.0332 114.263C54.0332 114.263 51.4083 115.16 46.401 114.458C41.2324 113.733 38.769 112.123 38.769 112.123Z" fill="url(#paint38_linear_962_704)"/>
<path d="M38.769 112.123C38.769 112.123 39.7321 119.569 45.8138 125.745C51.9959 132.024 57.1644 130.805 57.1644 130.805C57.1644 130.805 53.8948 129.66 52.8589 124.189C51.8072 118.632 54.0332 114.263 54.0332 114.263C54.0332 114.263 51.4083 115.16 46.401 114.458C41.2324 113.733 38.769 112.123 38.769 112.123Z" fill="url(#paint39_linear_962_704)" stroke="white" stroke-width="0.5"/>
<path d="M19.9828 87.407C19.9828 87.407 17.5744 99.6729 24.0923 110.76C31.5286 123.41 41.1181 125.94 41.1181 125.94C41.1181 125.94 39.1481 123.532 38.3781 119.129C37.5825 114.58 38.7697 112.512 38.7697 112.512C38.7697 112.512 32.703 110.566 26.8323 103.56C22.1074 97.1362 23.3096 91.4938 23.3096 91.4938L19.9828 87.407Z" fill="url(#paint40_linear_962_704)"/>
<path d="M19.9828 87.407C19.9828 87.407 17.5744 99.6729 24.0923 110.76C31.5286 123.41 41.1181 125.94 41.1181 125.94C41.1181 125.94 39.1481 123.532 38.3781 119.129C37.5825 114.58 38.7697 112.512 38.7697 112.512C38.7697 112.512 32.703 110.566 26.8323 103.56C22.1074 97.1362 23.3096 91.4938 23.3096 91.4938L19.9828 87.407Z" fill="url(#paint41_linear_962_704)" stroke="white" stroke-width="0.5"/>
<path d="M80.8009 87.407C80.8009 87.407 83.2046 99.6729 76.6998 110.76C69.2781 123.41 59.7085 125.94 59.7085 125.94C59.7085 125.94 61.6741 123.532 62.4426 119.129C63.2367 114.58 62.0521 112.512 62.0521 112.512C62.0521 112.512 68.1063 110.566 73.9654 103.56C78.6808 97.1362 77.4808 91.4938 77.4808 91.4938L80.8009 87.407Z" fill="url(#paint42_linear_962_704)"/>
<path d="M80.8009 87.407C80.8009 87.407 83.2046 99.6729 76.6998 110.76C69.2781 123.41 59.7085 125.94 59.7085 125.94C59.7085 125.94 61.6741 123.532 62.4426 119.129C63.2367 114.58 62.0521 112.512 62.0521 112.512C62.0521 112.512 68.1063 110.566 73.9654 103.56C78.6808 97.1362 77.4808 91.4938 77.4808 91.4938L80.8009 87.407Z" fill="url(#paint43_linear_962_704)" stroke="white" stroke-width="0.5"/>
<path d="M59.5138 84.5854L54.0343 81.9581C54.0343 81.9581 52.283 81.201 51.8815 82.9314C51.5881 84.1961 52.9577 84.4882 52.9577 84.4882C52.9577 84.4882 53.3493 84.6826 53.8387 84.1961C54.2841 83.753 54.4255 83.4179 54.4255 83.4179L59.5138 84.5854Z" fill="url(#paint44_linear_962_704)"/>
<path d="M59.5138 84.5854L54.0343 81.9581C54.0343 81.9581 52.283 81.201 51.8815 82.9314C51.5881 84.1961 52.9577 84.4882 52.9577 84.4882C52.9577 84.4882 53.3493 84.6826 53.8387 84.1961C54.2841 83.753 54.4255 83.4179 54.4255 83.4179L59.5138 84.5854Z" fill="url(#paint45_linear_962_704)" stroke="white" stroke-width="0.5"/>
<path d="M41.1182 84.5854L46.568 81.9305C46.568 81.9305 48.3098 81.165 48.709 82.9137C49.001 84.1922 47.6387 84.4871 47.6387 84.4871C47.6387 84.4871 47.2493 84.6838 46.7625 84.1922C46.3193 83.7443 46.1786 83.4053 46.1786 83.4053L41.1182 84.5854Z" fill="url(#paint46_linear_962_704)"/>
<path d="M41.1182 84.5854L46.568 81.9305C46.568 81.9305 48.3098 81.165 48.709 82.9137C49.001 84.1922 47.6387 84.4871 47.6387 84.4871C47.6387 84.4871 47.2493 84.6838 46.7625 84.1922C46.3193 83.7443 46.1786 83.4053 46.1786 83.4053L41.1182 84.5854Z" fill="url(#paint47_linear_962_704)" stroke="white" stroke-width="0.5"/>
</g>
<defs>
<linearGradient id="paint0_linear_962_704" x1="11.3718" y1="67.1677" x2="11.3718" y2="102.525" gradientUnits="userSpaceOnUse">
<stop offset="0.219791" stop-color="#FBD54A"/>
<stop offset="0.620833" stop-color="#EF5781"/>
<stop offset="1" stop-color="#7D3098"/>
</linearGradient>
<linearGradient id="paint1_linear_962_704" x1="11.3718" y1="67.1677" x2="11.3718" y2="102.525" gradientUnits="userSpaceOnUse">
<stop offset="0.219791" stop-color="#FBD54A"/>
<stop offset="0.620833" stop-color="#EF5781"/>
<stop offset="1" stop-color="#7D3098"/>
</linearGradient>
<linearGradient id="paint2_linear_962_704" x1="13.329" y1="74.7573" x2="13.329" y2="95.0182" gradientUnits="userSpaceOnUse">
<stop offset="0.219791" stop-color="#FBD54A"/>
<stop offset="0.620833" stop-color="#EF5781"/>
<stop offset="1" stop-color="#7D3098"/>
</linearGradient>
<linearGradient id="paint3_linear_962_704" x1="13.329" y1="74.7573" x2="13.329" y2="95.0182" gradientUnits="userSpaceOnUse">
<stop offset="0.219791" stop-color="#FBD54A"/>
<stop offset="0.620833" stop-color="#EF5781"/>
<stop offset="1" stop-color="#7D3098"/>
</linearGradient>
<linearGradient id="paint4_linear_962_704" x1="90.6282" y1="67.1677" x2="90.6282" y2="102.525" gradientUnits="userSpaceOnUse">
<stop offset="0.219791" stop-color="#FBD54A"/>
<stop offset="0.620833" stop-color="#EF5781"/>
<stop offset="1" stop-color="#7D3098"/>
</linearGradient>
<linearGradient id="paint5_linear_962_704" x1="90.6282" y1="67.1677" x2="90.6282" y2="102.525" gradientUnits="userSpaceOnUse">
<stop offset="0.219791" stop-color="#FBD54A"/>
<stop offset="0.620833" stop-color="#EF5781"/>
<stop offset="1" stop-color="#7D3098"/>
</linearGradient>
<linearGradient id="paint6_linear_962_704" x1="88.6713" y1="74.7573" x2="88.6713" y2="95.0182" gradientUnits="userSpaceOnUse">
<stop offset="0.219791" stop-color="#FBD54A"/>
<stop offset="0.620833" stop-color="#EF5781"/>
<stop offset="1" stop-color="#7D3098"/>
</linearGradient>
<linearGradient id="paint7_linear_962_704" x1="88.6713" y1="74.7573" x2="88.6713" y2="95.0182" gradientUnits="userSpaceOnUse">
<stop offset="0.219791" stop-color="#FBD54A"/>
<stop offset="0.620833" stop-color="#EF5781"/>
<stop offset="1" stop-color="#7D3098"/>
</linearGradient>
<linearGradient id="paint8_linear_962_704" x1="43.6038" y1="1" x2="43.6038" y2="57.9095" gradientUnits="userSpaceOnUse">
<stop offset="0.219791" stop-color="#FBD54A"/>
<stop offset="0.620833" stop-color="#EF5781"/>
<stop offset="1" stop-color="#7D3098"/>
</linearGradient>
<linearGradient id="paint9_linear_962_704" x1="43.6038" y1="1" x2="43.6038" y2="57.9095" gradientUnits="userSpaceOnUse">
<stop offset="0.219791" stop-color="#FBD54A"/>
<stop offset="0.620833" stop-color="#EF5781"/>
<stop offset="1" stop-color="#7D3098"/>
</linearGradient>
<linearGradient id="paint10_linear_962_704" x1="53.945" y1="1.48657" x2="53.945" y2="62.7659" gradientUnits="userSpaceOnUse">
<stop offset="0.219791" stop-color="#FBD54A"/>
<stop offset="0.620833" stop-color="#EF5781"/>
<stop offset="1" stop-color="#7D3098"/>
</linearGradient>
<linearGradient id="paint11_linear_962_704" x1="53.945" y1="1.48657" x2="53.945" y2="62.7659" gradientUnits="userSpaceOnUse">
<stop offset="0.219791" stop-color="#FBD54A"/>
<stop offset="0.620833" stop-color="#EF5781"/>
<stop offset="1" stop-color="#7D3098"/>
</linearGradient>
<linearGradient id="paint12_linear_962_704" x1="67.5372" y1="16.958" x2="67.5372" y2="56.884" gradientUnits="userSpaceOnUse">
<stop offset="0.219791" stop-color="#FBD54A"/>
<stop offset="0.620833" stop-color="#EF5781"/>
<stop offset="1" stop-color="#7D3098"/>
</linearGradient>
<linearGradient id="paint13_linear_962_704" x1="67.5372" y1="16.958" x2="67.5372" y2="56.884" gradientUnits="userSpaceOnUse">
<stop offset="0.219791" stop-color="#FBD54A"/>
<stop offset="0.620833" stop-color="#EF5781"/>
<stop offset="1" stop-color="#7D3098"/>
</linearGradient>
<linearGradient id="paint14_linear_962_704" x1="73.1137" y1="17.1528" x2="73.1137" y2="56.7808" gradientUnits="userSpaceOnUse">
<stop offset="0.219791" stop-color="#FBD54A"/>
<stop offset="0.620833" stop-color="#EF5781"/>
<stop offset="1" stop-color="#7D3098"/>
</linearGradient>
<linearGradient id="paint15_linear_962_704" x1="73.1137" y1="17.1528" x2="73.1137" y2="56.7808" gradientUnits="userSpaceOnUse">
<stop offset="0.219791" stop-color="#FBD54A"/>
<stop offset="0.620833" stop-color="#EF5781"/>
<stop offset="1" stop-color="#7D3098"/>
</linearGradient>
<linearGradient id="paint16_linear_962_704" x1="26.1178" y1="15.4014" x2="26.1178" y2="58.9026" gradientUnits="userSpaceOnUse">
<stop offset="0.219791" stop-color="#FBD54A"/>
<stop offset="0.620833" stop-color="#EF5781"/>
<stop offset="1" stop-color="#7D3098"/>
</linearGradient>
<linearGradient id="paint17_linear_962_704" x1="26.1178" y1="15.4014" x2="26.1178" y2="58.9026" gradientUnits="userSpaceOnUse">
<stop offset="0.219791" stop-color="#FBD54A"/>
<stop offset="0.620833" stop-color="#EF5781"/>
<stop offset="1" stop-color="#7D3098"/>
</linearGradient>
<linearGradient id="paint18_linear_962_704" x1="30.7892" y1="15.5959" x2="30.7892" y2="57.5082" gradientUnits="userSpaceOnUse">
<stop offset="0.219791" stop-color="#FBD54A"/>
<stop offset="0.620833" stop-color="#EF5781"/>
<stop offset="1" stop-color="#7D3098"/>
</linearGradient>
<linearGradient id="paint19_linear_962_704" x1="30.7892" y1="15.5959" x2="30.7892" y2="57.5082" gradientUnits="userSpaceOnUse">
<stop offset="0.219791" stop-color="#FBD54A"/>
<stop offset="0.620833" stop-color="#EF5781"/>
<stop offset="1" stop-color="#7D3098"/>
</linearGradient>
<linearGradient id="paint20_linear_962_704" x1="25.3716" y1="34.4731" x2="25.3716" y2="92.8723" gradientUnits="userSpaceOnUse">
<stop offset="0.219791" stop-color="#FBD54A"/>
<stop offset="0.620833" stop-color="#EF5781"/>
<stop offset="1" stop-color="#7D3098"/>
</linearGradient>
<linearGradient id="paint21_linear_962_704" x1="25.3716" y1="34.4731" x2="25.3716" y2="92.8723" gradientUnits="userSpaceOnUse">
<stop offset="0.219791" stop-color="#FBD54A"/>
<stop offset="0.620833" stop-color="#EF5781"/>
<stop offset="1" stop-color="#7D3098"/>
</linearGradient>
<linearGradient id="paint22_linear_962_704" x1="22.531" y1="34.4731" x2="22.531" y2="63.8714" gradientUnits="userSpaceOnUse">
<stop offset="0.219791" stop-color="#FBD54A"/>
<stop offset="0.620833" stop-color="#EF5781"/>
<stop offset="1" stop-color="#7D3098"/>
</linearGradient>
<linearGradient id="paint23_linear_962_704" x1="22.531" y1="34.4731" x2="22.531" y2="63.8714" gradientUnits="userSpaceOnUse">
<stop offset="0.219791" stop-color="#FBD54A"/>
<stop offset="0.620833" stop-color="#EF5781"/>
<stop offset="1" stop-color="#7D3098"/>
</linearGradient>
<linearGradient id="paint24_linear_962_704" x1="76.4383" y1="34.4731" x2="76.4383" y2="63.8714" gradientUnits="userSpaceOnUse">
<stop offset="0.219791" stop-color="#FBD54A"/>
<stop offset="0.620833" stop-color="#EF5781"/>
<stop offset="1" stop-color="#7D3098"/>
</linearGradient>
<linearGradient id="paint25_linear_962_704" x1="76.4383" y1="34.4731" x2="76.4383" y2="63.8714" gradientUnits="userSpaceOnUse">
<stop offset="0.219791" stop-color="#FBD54A"/>
<stop offset="0.620833" stop-color="#EF5781"/>
<stop offset="1" stop-color="#7D3098"/>
</linearGradient>
<linearGradient id="paint26_linear_962_704" x1="75.5429" y1="34.4731" x2="75.5429" y2="92.8723" gradientUnits="userSpaceOnUse">
<stop offset="0.219791" stop-color="#FBD54A"/>
<stop offset="0.620833" stop-color="#EF5781"/>
<stop offset="1" stop-color="#7D3098"/>
</linearGradient>
<linearGradient id="paint27_linear_962_704" x1="75.5429" y1="34.4731" x2="75.5429" y2="92.8723" gradientUnits="userSpaceOnUse">
<stop offset="0.219791" stop-color="#FBD54A"/>
<stop offset="0.620833" stop-color="#EF5781"/>
<stop offset="1" stop-color="#7D3098"/>
</linearGradient>
<linearGradient id="paint28_linear_962_704" x1="83.0358" y1="39.6306" x2="83.0358" y2="86.012" gradientUnits="userSpaceOnUse">
<stop offset="0.219791" stop-color="#FBD54A"/>
<stop offset="0.620833" stop-color="#EF5781"/>
<stop offset="1" stop-color="#7D3098"/>
</linearGradient>
<linearGradient id="paint29_linear_962_704" x1="83.0358" y1="39.6306" x2="83.0358" y2="86.012" gradientUnits="userSpaceOnUse">
<stop offset="0.219791" stop-color="#FBD54A"/>
<stop offset="0.620833" stop-color="#EF5781"/>
<stop offset="1" stop-color="#7D3098"/>
</linearGradient>
<linearGradient id="paint30_linear_962_704" x1="63.6716" y1="66" x2="63.6716" y2="77.8189" gradientUnits="userSpaceOnUse">
<stop offset="0.219791" stop-color="#FBD54A"/>
<stop offset="0.620833" stop-color="#EF5781"/>
<stop offset="1" stop-color="#7D3098"/>
</linearGradient>
<linearGradient id="paint31_linear_962_704" x1="63.6716" y1="66" x2="63.6716" y2="77.8189" gradientUnits="userSpaceOnUse">
<stop offset="0.219791" stop-color="#FBD54A"/>
<stop offset="0.620833" stop-color="#EF5781"/>
<stop offset="1" stop-color="#7D3098"/>
</linearGradient>
<linearGradient id="paint32_linear_962_704" x1="37.1049" y1="66" x2="37.1049" y2="77.9182" gradientUnits="userSpaceOnUse">
<stop offset="0.219791" stop-color="#FBD54A"/>
<stop offset="0.620833" stop-color="#EF5781"/>
<stop offset="1" stop-color="#7D3098"/>
</linearGradient>
<linearGradient id="paint33_linear_962_704" x1="37.1049" y1="66" x2="37.1049" y2="77.9182" gradientUnits="userSpaceOnUse">
<stop offset="0.219791" stop-color="#FBD54A"/>
<stop offset="0.620833" stop-color="#EF5781"/>
<stop offset="1" stop-color="#7D3098"/>
</linearGradient>
<linearGradient id="paint34_linear_962_704" x1="50.4198" y1="94.2188" x2="50.4198" y2="102.801" gradientUnits="userSpaceOnUse">
<stop offset="0.219791" stop-color="#FBD54A"/>
<stop offset="0.620833" stop-color="#EF5781"/>
<stop offset="1" stop-color="#7D3098"/>
</linearGradient>
<linearGradient id="paint35_linear_962_704" x1="50.4198" y1="94.2188" x2="50.4198" y2="102.801" gradientUnits="userSpaceOnUse">
<stop offset="0.219791" stop-color="#FBD54A"/>
<stop offset="0.620833" stop-color="#EF5781"/>
<stop offset="1" stop-color="#7D3098"/>
</linearGradient>
<linearGradient id="paint36_linear_962_704" x1="57.6171" y1="112.317" x2="57.6171" y2="131.386" gradientUnits="userSpaceOnUse">
<stop offset="0.219791" stop-color="#FBD54A"/>
<stop offset="0.620833" stop-color="#EF5781"/>
<stop offset="1" stop-color="#7D3098"/>
</linearGradient>
<linearGradient id="paint37_linear_962_704" x1="57.6171" y1="112.317" x2="57.6171" y2="131.386" gradientUnits="userSpaceOnUse">
<stop offset="0.219791" stop-color="#FBD54A"/>
<stop offset="0.620833" stop-color="#EF5781"/>
<stop offset="1" stop-color="#7D3098"/>
</linearGradient>
<linearGradient id="paint38_linear_962_704" x1="47.9667" y1="112.123" x2="47.9667" y2="131.289" gradientUnits="userSpaceOnUse">
<stop offset="0.219791" stop-color="#FBD54A"/>
<stop offset="0.620833" stop-color="#EF5781"/>
<stop offset="1" stop-color="#7D3098"/>
</linearGradient>
<linearGradient id="paint39_linear_962_704" x1="47.9667" y1="112.123" x2="47.9667" y2="131.289" gradientUnits="userSpaceOnUse">
<stop offset="0.219791" stop-color="#FBD54A"/>
<stop offset="0.620833" stop-color="#EF5781"/>
<stop offset="1" stop-color="#7D3098"/>
</linearGradient>
<linearGradient id="paint40_linear_962_704" x1="30.333" y1="87.407" x2="30.333" y2="126.737" gradientUnits="userSpaceOnUse">
<stop offset="0.219791" stop-color="#FBD54A"/>
<stop offset="0.620833" stop-color="#EF5781"/>
<stop offset="1" stop-color="#7D3098"/>
</linearGradient>
<linearGradient id="paint41_linear_962_704" x1="30.333" y1="87.407" x2="30.333" y2="126.737" gradientUnits="userSpaceOnUse">
<stop offset="0.219791" stop-color="#FBD54A"/>
<stop offset="0.620833" stop-color="#EF5781"/>
<stop offset="1" stop-color="#7D3098"/>
</linearGradient>
<linearGradient id="paint42_linear_962_704" x1="70.4718" y1="87.407" x2="70.4718" y2="126.737" gradientUnits="userSpaceOnUse">
<stop offset="0.219791" stop-color="#FBD54A"/>
<stop offset="0.620833" stop-color="#EF5781"/>
<stop offset="1" stop-color="#7D3098"/>
</linearGradient>
<linearGradient id="paint43_linear_962_704" x1="70.4718" y1="87.407" x2="70.4718" y2="126.737" gradientUnits="userSpaceOnUse">
<stop offset="0.219791" stop-color="#FBD54A"/>
<stop offset="0.620833" stop-color="#EF5781"/>
<stop offset="1" stop-color="#7D3098"/>
</linearGradient>
<linearGradient id="paint44_linear_962_704" x1="55.6771" y1="81.7932" x2="55.6771" y2="84.6431" gradientUnits="userSpaceOnUse">
<stop offset="0.219791" stop-color="#FBD54A"/>
<stop offset="0.620833" stop-color="#EF5781"/>
<stop offset="1" stop-color="#7D3098"/>
</linearGradient>
<linearGradient id="paint45_linear_962_704" x1="55.6771" y1="81.7932" x2="55.6771" y2="84.6431" gradientUnits="userSpaceOnUse">
<stop offset="0.219791" stop-color="#FBD54A"/>
<stop offset="0.620833" stop-color="#EF5781"/>
<stop offset="1" stop-color="#7D3098"/>
</linearGradient>
<linearGradient id="paint46_linear_962_704" x1="44.9341" y1="81.7637" x2="44.9341" y2="84.6438" gradientUnits="userSpaceOnUse">
<stop offset="0.219791" stop-color="#FBD54A"/>
<stop offset="0.620833" stop-color="#EF5781"/>
<stop offset="1" stop-color="#7D3098"/>
</linearGradient>
<linearGradient id="paint47_linear_962_704" x1="44.9341" y1="81.7637" x2="44.9341" y2="84.6438" gradientUnits="userSpaceOnUse">
<stop offset="0.219791" stop-color="#FBD54A"/>
<stop offset="0.620833" stop-color="#EF5781"/>
<stop offset="1" stop-color="#7D3098"/>
</linearGradient>
</defs>
</svg>
