<svg width="73" height="97" viewBox="0 0 73 97" fill="none" xmlns="http://www.w3.org/2000/svg">
<g opacity="0.7" clip-path="url(#clip0_746_1502)">
<path d="M12.8007 49.3687C13.6546 53.5678 15.2204 62.4008 15.2204 62.4008L15.0781 74.9989C15.0781 74.9989 13.478 75.1108 12.8007 75.1436C5.80923 75.1436 0.132812 69.3688 0.132812 62.2561C0.132812 55.1431 5.80923 49.3687 12.8007 49.3687Z" fill="#948F8F"/>
<path d="M12.8007 49.3687C13.6546 53.5678 15.2204 62.4008 15.2204 62.4008L15.0781 74.9989C15.0781 74.9989 13.478 75.1108 12.8007 75.1436C5.80923 75.1436 0.132812 69.3688 0.132812 62.2561C0.132812 55.1431 5.80923 49.3687 12.8007 49.3687Z" fill="#948F8F" stroke="white"/>
<path d="M13.9396 69.3735C13.1875 69.6404 12.3795 69.7856 11.5381 69.7856C7.52176 69.7856 4.26074 66.4765 4.26074 62.4006C4.26074 58.3247 7.52176 55.0156 11.5381 55.0156C12.3795 55.0156 13.1875 55.1609 13.9396 55.428V69.3735Z" fill="#948F8F"/>
<path d="M13.9396 69.3735C13.1875 69.6404 12.3795 69.7856 11.5381 69.7856C7.52176 69.7856 4.26074 66.4765 4.26074 62.4006C4.26074 58.3247 7.52176 55.0156 11.5381 55.0156C12.3795 55.0156 13.1875 55.1609 13.9396 55.428V69.3735Z" fill="#948F8F" stroke="white"/>
<path d="M60.199 49.3687C59.3451 53.5678 57.7793 62.4008 57.7793 62.4008L57.9216 74.9989C57.9216 74.9989 59.5217 75.1108 60.199 75.1436C67.1904 75.1436 72.8669 69.3688 72.8669 62.2561C72.8669 55.1431 67.1904 49.3687 60.199 49.3687Z" fill="#948F8F"/>
<path d="M60.199 49.3687C59.3451 53.5678 57.7793 62.4008 57.7793 62.4008L57.9216 74.9989C57.9216 74.9989 59.5217 75.1108 60.199 75.1436C67.1904 75.1436 72.8669 69.3688 72.8669 62.2561C72.8669 55.1431 67.1904 49.3687 60.199 49.3687Z" fill="#948F8F" stroke="white"/>
<path d="M59.0605 55.428C59.8127 55.1609 60.6207 55.0156 61.4621 55.0156C65.4784 55.0156 68.7394 58.3247 68.7394 62.4006C68.7394 66.4765 65.4784 69.7856 61.4621 69.7856C60.6207 69.7856 59.8127 69.6404 59.0605 69.3735V55.428Z" fill="#948F8F"/>
<path d="M59.0605 55.428C59.8127 55.1609 60.6207 55.0156 61.4621 55.0156C65.4784 55.0156 68.7394 58.3247 68.7394 62.4006C68.7394 66.4765 65.4784 69.7856 61.4621 69.7856C60.6207 69.7856 59.8127 69.6404 59.0605 69.3735V55.428Z" fill="#948F8F" stroke="white"/>
<path d="M30.0234 0.135254C30.0234 0.135254 32.4426 5.80786 29.4541 14.7606C28.1731 18.5978 25.1769 20.7559 23.7606 23.0142C21.9394 25.918 21.9103 28.6616 21.9103 28.6616C21.9103 28.6616 21.4918 30.971 22.4797 35.4674C23.2947 39.1767 24.6145 40.9701 24.6145 40.9701C24.6145 40.9701 25.8097 40.5661 27.7461 40.7528C30.317 41.0004 31.3755 41.6217 31.3755 41.6217C31.3755 41.6217 40.2717 33.8745 40.414 22.435C40.6039 7.16721 30.0234 0.135254 30.0234 0.135254Z" fill="#948F8F"/>
<path d="M30.0234 0.135254C30.0234 0.135254 32.4426 5.80786 29.4541 14.7606C28.1731 18.5978 25.1769 20.7559 23.7606 23.0142C21.9394 25.918 21.9103 28.6616 21.9103 28.6616C21.9103 28.6616 21.4918 30.971 22.4797 35.4674C23.2947 39.1767 24.6145 40.9701 24.6145 40.9701C24.6145 40.9701 25.8097 40.5661 27.7461 40.7528C30.317 41.0004 31.3755 41.6217 31.3755 41.6217C31.3755 41.6217 40.2717 33.8745 40.414 22.435C40.6039 7.16721 30.0234 0.135254 30.0234 0.135254Z" fill="#948F8F" stroke="white"/>
<path d="M30.2373 0.49707C30.2373 0.49707 42.1225 3.32064 46.2501 17.5116C49.2575 27.8511 42.7629 41.187 42.7629 41.187C42.7629 41.187 41.7175 41.1363 39.5603 42.3455C37.0679 43.7425 36.1442 45.1691 36.1442 45.1691C36.1442 45.1691 35.6372 43.988 33.9382 42.8522C32.3159 41.7679 31.1626 41.6939 31.1626 41.6939C31.1626 41.6939 39.7028 34.6709 40.4144 22.8694C40.1296 6.36178 30.2373 0.49707 30.2373 0.49707Z" fill="#948F8F"/>
<path d="M30.2373 0.49707C30.2373 0.49707 42.1225 3.32064 46.2501 17.5116C49.2575 27.8511 42.7629 41.187 42.7629 41.187C42.7629 41.187 41.7175 41.1363 39.5603 42.3455C37.0679 43.7425 36.1442 45.1691 36.1442 45.1691C36.1442 45.1691 35.6372 43.988 33.9382 42.8522C32.3159 41.7679 31.1626 41.6939 31.1626 41.6939C31.1626 41.6939 39.7028 34.6709 40.4144 22.8694C40.1296 6.36178 30.2373 0.49707 30.2373 0.49707Z" fill="#948F8F" stroke="white"/>
<path d="M48.3849 12.0093C48.3849 12.0093 49.2641 14.3741 48.7406 18.236C48.3154 21.373 46.9614 22.5078 46.9614 22.5078L42.1221 41.115L46.2498 40.753C46.2498 40.753 54.5763 36.1915 54.9322 28.0826C54.8611 17.729 48.3849 12.0093 48.3849 12.0093Z" fill="#948F8F"/>
<path d="M48.3849 12.0093C48.3849 12.0093 49.2641 14.3741 48.7406 18.236C48.3154 21.373 46.9614 22.5078 46.9614 22.5078L42.1221 41.115L46.2498 40.753C46.2498 40.753 54.5763 36.1915 54.9322 28.0826C54.8611 17.729 48.3849 12.0093 48.3849 12.0093Z" fill="#948F8F" stroke="white"/>
<path d="M48.3851 12.1543C48.3851 12.1543 55.9289 20.1183 54.5054 29.8202C52.5128 37.4949 46.25 40.8254 46.25 40.8254L48.8119 41.0427C48.8119 41.0427 58.6331 38.0742 58.9179 28.3723C58.7602 17.6963 48.3851 12.1543 48.3851 12.1543Z" fill="#948F8F"/>
<path d="M48.3851 12.1543C48.3851 12.1543 55.9289 20.1183 54.5054 29.8202C52.5128 37.4949 46.25 40.8254 46.25 40.8254L48.8119 41.0427C48.8119 41.0427 58.6331 38.0742 58.9179 28.3723C58.7602 17.6963 48.3851 12.1543 48.3851 12.1543Z" fill="#948F8F" stroke="white"/>
<path d="M23.7606 10.8506C23.7606 10.8506 21.1803 19.6434 19.5818 20.7272C15.3603 23.5893 13.4314 29.354 13.2278 30.8334C11.6621 39.0873 20.5579 42.5625 20.5579 42.5625C20.5579 42.5625 20.7865 42.1735 21.5543 41.8386C22.1149 41.5942 22.6219 41.6939 22.6219 41.6939C22.6219 41.6939 17.4267 33.8743 17.6401 31.5576C18.0775 26.8109 21.0449 25.0725 21.9814 21.7108C23.4912 16.291 23.7606 10.8506 23.7606 10.8506Z" fill="#948F8F"/>
<path d="M23.7606 10.8506C23.7606 10.8506 21.1803 19.6434 19.5818 20.7272C15.3603 23.5893 13.4314 29.354 13.2278 30.8334C11.6621 39.0873 20.5579 42.5625 20.5579 42.5625C20.5579 42.5625 20.7865 42.1735 21.5543 41.8386C22.1149 41.5942 22.6219 41.6939 22.6219 41.6939C22.6219 41.6939 17.4267 33.8743 17.6401 31.5576C18.0775 26.8109 21.0449 25.0725 21.9814 21.7108C23.4912 16.291 23.7606 10.8506 23.7606 10.8506Z" fill="#948F8F" stroke="white"/>
<path d="M23.7605 10.9951C23.7605 10.9951 23.3335 15.7012 21.4831 22.2899C21.0539 23.8184 19.7058 25.2696 19.1346 26.4891C17.9224 29.0775 17.6618 29.6766 17.5689 30.9059C17.4977 31.8469 17.3877 33.0962 19.2058 37.0599C20.7087 40.3365 22.4796 41.5488 22.4796 41.5488C22.4796 41.5488 22.7108 41.1578 23.4046 40.9697C24.1343 40.7717 24.6144 40.9697 24.6144 40.9697C24.6144 40.9697 22.4702 37.3154 22.7641 29.5302C22.8837 26.3647 25.7992 22.8941 26.0379 18.5251C26.3225 13.312 23.7605 10.9951 23.7605 10.9951Z" fill="#948F8F"/>
<path d="M23.7605 10.9951C23.7605 10.9951 23.3335 15.7012 21.4831 22.2899C21.0539 23.8184 19.7058 25.2696 19.1346 26.4891C17.9224 29.0775 17.6618 29.6766 17.5689 30.9059C17.4977 31.8469 17.3877 33.0962 19.2058 37.0599C20.7087 40.3365 22.4796 41.5488 22.4796 41.5488C22.4796 41.5488 22.7108 41.1578 23.4046 40.9697C24.1343 40.7717 24.6144 40.9697 24.6144 40.9697C24.6144 40.9697 22.4702 37.3154 22.7641 29.5302C22.8837 26.3647 25.7992 22.8941 26.0379 18.5251C26.3225 13.312 23.7605 10.9951 23.7605 10.9951Z" fill="#948F8F" stroke="white"/>
<path d="M27.8886 59.8669C27.8886 59.8669 24.3989 60.3013 20.0549 62.6905C16.9348 64.4067 16.4228 67.6139 16.4228 67.6139C16.4228 67.6139 12.1008 63.5684 9.60872 55.2567C8.97357 53.1379 8.45724 50.7422 8.16177 48.0655C6.48304 32.8617 11.7225 25.0415 11.7225 25.0415C11.7225 25.0415 10.2242 29.8682 11.8651 37.3499C13.3576 44.1557 16.4228 46.4725 16.4228 46.4725C16.4228 46.4725 13.884 48.6759 14.2863 54.1472C14.6436 59.0051 17.5623 61.9665 17.5623 61.9665C17.5623 61.9665 19.6276 60.7356 22.12 60.3013C25.5773 59.6987 27.8886 59.8669 27.8886 59.8669Z" fill="#948F8F"/>
<path d="M27.8886 59.8669C27.8886 59.8669 24.3989 60.3013 20.0549 62.6905C16.9348 64.4067 16.4228 67.6139 16.4228 67.6139C16.4228 67.6139 12.1008 63.5684 9.60872 55.2567C8.97357 53.1379 8.45724 50.7422 8.16177 48.0655C6.48304 32.8617 11.7225 25.0415 11.7225 25.0415C11.7225 25.0415 10.2242 29.8682 11.8651 37.3499C13.3576 44.1557 16.4228 46.4725 16.4228 46.4725C16.4228 46.4725 13.884 48.6759 14.2863 54.1472C14.6436 59.0051 17.5623 61.9665 17.5623 61.9665C17.5623 61.9665 19.6276 60.7356 22.12 60.3013C25.5773 59.6987 27.8886 59.8669 27.8886 59.8669Z" fill="#948F8F" stroke="white"/>
<path d="M11.6627 25.0415C11.6627 25.0415 9.98397 29.4756 11.805 37.7843C13.1155 43.7628 16.3597 46.4725 16.3597 46.4725C16.3597 46.4725 16.8172 45.424 18.2812 44.0833C19.6639 42.8174 20.63 42.5627 20.63 42.5627C20.63 42.5627 16.6446 40.8251 14.3672 36.9156C11.3752 31.7792 11.6627 25.0415 11.6627 25.0415Z" fill="#948F8F"/>
<path d="M11.6627 25.0415C11.6627 25.0415 9.98397 29.4756 11.805 37.7843C13.1155 43.7628 16.3597 46.4725 16.3597 46.4725C16.3597 46.4725 16.8172 45.424 18.2812 44.0833C19.6639 42.8174 20.63 42.5627 20.63 42.5627C20.63 42.5627 16.6446 40.8251 14.3672 36.9156C11.3752 31.7792 11.6627 25.0415 11.6627 25.0415Z" fill="#948F8F" stroke="white"/>
<path d="M60.4905 25.0415C60.4905 25.0415 62.1633 29.4033 60.3407 37.7119C59.0294 43.6904 55.7894 46.4725 55.7894 46.4725C55.7894 46.4725 54.1911 44.4103 52.7258 43.0697C51.3423 41.8038 48.8115 41.1148 48.8115 41.1148C48.8115 41.1148 52.0952 40.0061 55.3591 36.7706C60.9101 31.2682 60.4905 25.0415 60.4905 25.0415Z" fill="#948F8F"/>
<path d="M60.4905 25.0415C60.4905 25.0415 62.1633 29.4033 60.3407 37.7119C59.0294 43.6904 55.7894 46.4725 55.7894 46.4725C55.7894 46.4725 54.1911 44.4103 52.7258 43.0697C51.3423 41.8038 48.8115 41.1148 48.8115 41.1148C48.8115 41.1148 52.0952 40.0061 55.3591 36.7706C60.9101 31.2682 60.4905 25.0415 60.4905 25.0415Z" fill="#948F8F" stroke="white"/>
<path d="M44.3281 59.8669C44.3281 59.8669 47.8153 60.3013 52.1564 62.6905C55.2744 64.4067 55.7859 67.6139 55.7859 67.6139C55.7859 67.6139 62.5875 61.2431 64.0416 48.0655C65.719 32.8617 60.4832 25.0415 60.4832 25.0415C60.4832 25.0415 61.9805 29.8682 60.3407 37.3499C58.8493 44.1557 55.7859 46.4725 55.7859 46.4725C55.7859 46.4725 58.3231 48.6759 57.921 54.1472C57.564 59.0051 54.6472 61.9665 54.6472 61.9665C54.6472 61.9665 52.5835 60.7356 50.0927 60.3013C46.6377 59.6987 44.3281 59.8669 44.3281 59.8669Z" fill="#948F8F"/>
<path d="M44.3281 59.8669C44.3281 59.8669 47.8153 60.3013 52.1564 62.6905C55.2744 64.4067 55.7859 67.6139 55.7859 67.6139C55.7859 67.6139 62.5875 61.2431 64.0416 48.0655C65.719 32.8617 60.4832 25.0415 60.4832 25.0415C60.4832 25.0415 61.9805 29.8682 60.3407 37.3499C58.8493 44.1557 55.7859 46.4725 55.7859 46.4725C55.7859 46.4725 58.3231 48.6759 57.921 54.1472C57.564 59.0051 54.6472 61.9665 54.6472 61.9665C54.6472 61.9665 52.5835 60.7356 50.0927 60.3013C46.6377 59.6987 44.3281 59.8669 44.3281 59.8669Z" fill="#948F8F" stroke="white"/>
<path d="M59.487 62.6905C59.487 62.6905 63.3667 56.6924 64.1841 46.4725C65.1696 34.1513 62.1915 28.8789 62.1915 28.8789C62.1915 28.8789 64.3884 34.2001 62.6183 44.7349C61.5417 51.1423 57.9213 54.2918 57.9213 54.2918C57.9213 54.2918 58.1605 55.2469 57.0674 58.0567C56.3576 59.8807 55.2168 61.2425 55.2168 61.2425" fill="#948F8F"/>
<path d="M59.487 62.6905C59.487 62.6905 63.3667 56.6924 64.1841 46.4725C65.1696 34.1513 62.1915 28.8789 62.1915 28.8789C62.1915 28.8789 64.3884 34.2001 62.6183 44.7349C61.5417 51.1423 57.9213 54.2918 57.9213 54.2918C57.9213 54.2918 58.1605 55.2469 57.0674 58.0567C56.3576 59.8807 55.2168 61.2425 55.2168 61.2425" fill="#948F8F"/>
<path d="M59.487 62.6905C59.487 62.6905 63.3667 56.6924 64.1841 46.4725C65.1696 34.1513 62.1915 28.8789 62.1915 28.8789C62.1915 28.8789 64.3884 34.2001 62.6183 44.7349C61.5417 51.1423 57.9213 54.2918 57.9213 54.2918C57.9213 54.2918 58.1605 55.2469 57.0674 58.0567C56.3576 59.8807 55.2168 61.2425 55.2168 61.2425" stroke="white"/>
<path d="M45.7159 57.1158C48.0546 57.1158 49.9504 55.1871 49.9504 52.8079C49.9504 50.4287 48.0546 48.5 45.7159 48.5C43.3773 48.5 41.4814 50.4287 41.4814 52.8079C41.4814 55.1871 43.3773 57.1158 45.7159 57.1158Z" fill="#948F8F"/>
<path d="M45.7159 57.1158C48.0546 57.1158 49.9504 55.1871 49.9504 52.8079C49.9504 50.4287 48.0546 48.5 45.7159 48.5C43.3773 48.5 41.4814 50.4287 41.4814 52.8079C41.4814 55.1871 43.3773 57.1158 45.7159 57.1158Z" fill="#948F8F" stroke="white"/>
<path d="M26.3939 57.1882C24.0749 57.1882 22.195 55.2433 22.195 52.8441C22.195 50.4449 24.0749 48.5 26.3939 48.5C28.7129 48.5 30.5928 50.4449 30.5928 52.8441C30.5928 55.2433 28.7129 57.1882 26.3939 57.1882Z" fill="#948F8F"/>
<path d="M26.3939 57.1882C24.0749 57.1882 22.195 55.2433 22.195 52.8441C22.195 50.4449 24.0749 48.5 26.3939 48.5C28.7129 48.5 30.5928 50.4449 30.5928 52.8441C30.5928 55.2433 28.7129 57.1882 26.3939 57.1882Z" fill="#948F8F" stroke="white"/>
<path d="M23.1914 69.4966C23.1914 69.4966 27.2845 73.6958 35.717 73.6958C44.4661 73.6958 48.9639 69.4966 48.9639 69.4966C48.9639 69.4966 47.6989 71.9538 43.1183 74.1301C38.9623 76.1048 35.8593 75.723 35.8593 75.723C35.8593 75.723 33.3035 76.027 29.7388 74.2751C24.8582 71.8761 23.1914 69.4966 23.1914 69.4966Z" fill="#948F8F"/>
<path d="M23.1914 69.4966C23.1914 69.4966 27.2845 73.6958 35.717 73.6958C44.4661 73.6958 48.9639 69.4966 48.9639 69.4966C48.9639 69.4966 47.6989 71.9538 43.1183 74.1301C38.9623 76.1048 35.8593 75.723 35.8593 75.723C35.8593 75.723 33.3035 76.027 29.7388 74.2751C24.8582 71.8761 23.1914 69.4966 23.1914 69.4966Z" fill="#948F8F" stroke="white"/>
<path d="M44.5413 82.9634C44.5413 82.9634 44.8008 83.524 44.9684 84.7733C45.0856 85.6479 44.9684 86.1489 44.9684 86.1489C44.9684 86.1489 43.4064 87.0496 42.3351 89.5518C40.4136 94.0409 40.983 96.8645 40.983 96.8645C40.983 96.8645 39.8738 96.5003 38.7056 94.4029C37.4957 92.2307 37.5669 89.9116 37.638 88.7555C37.7803 86.4386 38.7056 84.556 38.7056 84.556C38.7056 84.556 39.7976 84.5089 41.4812 84.0493C43.6882 83.4468 44.5413 82.9634 44.5413 82.9634Z" fill="#948F8F"/>
<path d="M44.5413 82.9634C44.5413 82.9634 44.8008 83.524 44.9684 84.7733C45.0856 85.6479 44.9684 86.1489 44.9684 86.1489C44.9684 86.1489 43.4064 87.0496 42.3351 89.5518C40.4136 94.0409 40.983 96.8645 40.983 96.8645C40.983 96.8645 39.8738 96.5003 38.7056 94.4029C37.4957 92.2307 37.5669 89.9116 37.638 88.7555C37.7803 86.4386 38.7056 84.556 38.7056 84.556C38.7056 84.556 39.7976 84.5089 41.4812 84.0493C43.6882 83.4468 44.5413 82.9634 44.5413 82.9634Z" fill="#948F8F" stroke="white"/>
<path d="M27.6035 82.8184C27.6035 82.8184 28.3039 88.3587 32.7274 92.9546C37.2238 97.6263 40.983 96.7197 40.983 96.7197C40.983 96.7197 38.6049 95.8673 37.8515 91.7963C37.0866 87.6619 38.7056 84.4113 38.7056 84.4113C38.7056 84.4113 36.7965 85.0786 33.1544 84.556C29.3952 84.0168 27.6035 82.8184 27.6035 82.8184Z" fill="#948F8F"/>
<path d="M27.6035 82.8184C27.6035 82.8184 28.3039 88.3587 32.7274 92.9546C37.2238 97.6263 40.983 96.7197 40.983 96.7197C40.983 96.7197 38.6049 95.8673 37.8515 91.7963C37.0866 87.6619 38.7056 84.4113 38.7056 84.4113C38.7056 84.4113 36.7965 85.0786 33.1544 84.556C29.3952 84.0168 27.6035 82.8184 27.6035 82.8184Z" fill="#948F8F" stroke="white"/>
<path d="M13.9394 64.4282C13.9394 64.4282 12.1877 73.5549 16.9284 81.8048C22.3371 91.217 29.3118 93.0996 29.3118 93.0996C29.3118 93.0996 27.8789 91.3078 27.3189 88.0315C26.7402 84.6468 27.6037 83.108 27.6037 83.108C27.6037 83.108 23.1912 81.6601 18.9212 76.447C15.4847 71.6675 16.3591 67.4691 16.3591 67.4691L13.9394 64.4282Z" fill="#948F8F"/>
<path d="M13.9394 64.4282C13.9394 64.4282 12.1877 73.5549 16.9284 81.8048C22.3371 91.217 29.3118 93.0996 29.3118 93.0996C29.3118 93.0996 27.8789 91.3078 27.3189 88.0315C26.7402 84.6468 27.6037 83.108 27.6037 83.108C27.6037 83.108 23.1912 81.6601 18.9212 76.447C15.4847 71.6675 16.3591 67.4691 16.3591 67.4691L13.9394 64.4282Z" fill="#948F8F" stroke="white"/>
<path d="M58.1752 64.4282C58.1752 64.4282 59.9234 73.5549 55.1923 81.8048C49.7943 91.217 42.834 93.0996 42.834 93.0996C42.834 93.0996 44.2636 91.3078 44.8226 88.0315C45.4002 84.6468 44.5386 83.108 44.5386 83.108C44.5386 83.108 48.942 81.6601 53.2035 76.447C56.6331 71.6675 55.7603 67.4691 55.7603 67.4691L58.1752 64.4282Z" fill="#948F8F"/>
<path d="M58.1752 64.4282C58.1752 64.4282 59.9234 73.5549 55.1923 81.8048C49.7943 91.217 42.834 93.0996 42.834 93.0996C42.834 93.0996 44.2636 91.3078 44.8226 88.0315C45.4002 84.6468 44.5386 83.108 44.5386 83.108C44.5386 83.108 48.942 81.6601 53.2035 76.447C56.6331 71.6675 55.7603 67.4691 55.7603 67.4691L58.1752 64.4282Z" fill="#948F8F" stroke="white"/>
<path d="M42.6915 62.3286L38.7061 60.3737C38.7061 60.3737 37.4323 59.8103 37.1403 61.0979C36.9269 62.0389 37.9231 62.2562 37.9231 62.2562C37.9231 62.2562 38.2079 62.4009 38.5638 62.0389C38.8878 61.7092 38.9906 61.4599 38.9906 61.4599L42.6915 62.3286Z" fill="#948F8F"/>
<path d="M42.6915 62.3286L38.7061 60.3737C38.7061 60.3737 37.4323 59.8103 37.1403 61.0979C36.9269 62.0389 37.9231 62.2562 37.9231 62.2562C37.9231 62.2562 38.2079 62.4009 38.5638 62.0389C38.8878 61.7092 38.9906 61.4599 38.9906 61.4599L42.6915 62.3286Z" fill="#948F8F" stroke="white"/>
<path d="M29.3115 62.3286L33.2754 60.3531C33.2754 60.3531 34.5422 59.7836 34.8326 61.0847C35.045 62.036 34.0541 62.2554 34.0541 62.2554C34.0541 62.2554 33.7709 62.4018 33.4168 62.036C33.0945 61.7027 32.9922 61.4505 32.9922 61.4505L29.3115 62.3286Z" fill="#948F8F"/>
<path d="M29.3115 62.3286L33.2754 60.3531C33.2754 60.3531 34.5422 59.7836 34.8326 61.0847C35.045 62.036 34.0541 62.2554 34.0541 62.2554C34.0541 62.2554 33.7709 62.4018 33.4168 62.036C33.0945 61.7027 32.9922 61.4505 32.9922 61.4505L29.3115 62.3286Z" fill="#948F8F" stroke="white"/>
</g>
<defs>
<clipPath id="clip0_746_1502">
<rect width="73" height="97" fill="white"/>
</clipPath>
</defs>
</svg>
