<svg width="40" height="50" viewBox="0 0 40 50" fill="none" xmlns="http://www.w3.org/2000/svg">
<g opacity="0.7" clip-path="url(#clip0_740_206)">
<path d="M7.01407 25.448C7.48195 27.6125 8.33991 32.1656 8.33991 32.1656L8.26195 38.6594C8.26195 38.6594 7.38516 38.7171 7.01407 38.734C3.18312 38.734 0.0727539 35.7574 0.0727539 32.091C0.0727539 28.4245 3.18312 25.448 7.01407 25.448Z" fill="#948F8F"/>
<path d="M7.01407 25.448C7.48195 27.6125 8.33991 32.1656 8.33991 32.1656L8.26195 38.6594C8.26195 38.6594 7.38516 38.7171 7.01407 38.734C3.18312 38.734 0.0727539 35.7574 0.0727539 32.091C0.0727539 28.4245 3.18312 25.448 7.01407 25.448Z" fill="#948F8F" stroke="white"/>
<path d="M7.63798 35.7599C7.22586 35.8974 6.78309 35.9723 6.32206 35.9723C4.12133 35.9723 2.33447 34.2666 2.33447 32.1656C2.33447 30.0646 4.12133 28.3589 6.32206 28.3589C6.78309 28.3589 7.22586 28.4337 7.63798 28.5715V35.7599Z" fill="#948F8F"/>
<path d="M7.63798 35.7599C7.22586 35.8974 6.78309 35.9723 6.32206 35.9723C4.12133 35.9723 2.33447 34.2666 2.33447 32.1656C2.33447 30.0646 4.12133 28.3589 6.32206 28.3589C6.78309 28.3589 7.22586 28.4337 7.63798 28.5715V35.7599Z" fill="#948F8F" stroke="white"/>
<path d="M32.9855 25.448C32.5176 27.6125 31.6597 32.1656 31.6597 32.1656L31.7376 38.6594C31.7376 38.6594 32.6144 38.7171 32.9855 38.734C36.8165 38.734 39.9268 35.7574 39.9268 32.091C39.9268 28.4245 36.8165 25.448 32.9855 25.448Z" fill="#948F8F"/>
<path d="M32.9855 25.448C32.5176 27.6125 31.6597 32.1656 31.6597 32.1656L31.7376 38.6594C31.7376 38.6594 32.6144 38.7171 32.9855 38.734C36.8165 38.734 39.9268 35.7574 39.9268 32.091C39.9268 28.4245 36.8165 25.448 32.9855 25.448Z" fill="#948F8F" stroke="white"/>
<path d="M32.3613 28.5715C32.7734 28.4337 33.2162 28.3589 33.6772 28.3589C35.878 28.3589 37.6648 30.0646 37.6648 32.1656C37.6648 34.2666 35.878 35.9723 33.6772 35.9723C33.2162 35.9723 32.7734 35.8974 32.3613 35.7599V28.5715Z" fill="#948F8F"/>
<path d="M32.3613 28.5715C32.7734 28.4337 33.2162 28.3589 33.6772 28.3589C35.878 28.3589 37.6648 30.0646 37.6648 32.1656C37.6648 34.2666 35.878 35.9723 33.6772 35.9723C33.2162 35.9723 32.7734 35.8974 32.3613 35.7599V28.5715Z" fill="#948F8F" stroke="white"/>
<path d="M16.4513 0.0698242C16.4513 0.0698242 17.7769 2.99385 16.1393 7.60865C15.4375 9.58658 13.7957 10.699 13.0196 11.8631C12.0217 13.3599 12.0058 14.7742 12.0058 14.7742C12.0058 14.7742 11.7764 15.9645 12.3177 18.2823C12.7643 20.1943 13.4875 21.1187 13.4875 21.1187C13.4875 21.1187 14.1424 20.9105 15.2034 21.0067C16.6122 21.1343 17.1922 21.4546 17.1922 21.4546C17.1922 21.4546 22.0668 17.4612 22.1448 11.5645C22.2488 3.69454 16.4513 0.0698242 16.4513 0.0698242Z" fill="#948F8F"/>
<path d="M16.4513 0.0698242C16.4513 0.0698242 17.7769 2.99385 16.1393 7.60865C15.4375 9.58658 13.7957 10.699 13.0196 11.8631C12.0217 13.3599 12.0058 14.7742 12.0058 14.7742C12.0058 14.7742 11.7764 15.9645 12.3177 18.2823C12.7643 20.1943 13.4875 21.1187 13.4875 21.1187C13.4875 21.1187 14.1424 20.9105 15.2034 21.0067C16.6122 21.1343 17.1922 21.4546 17.1922 21.4546C17.1922 21.4546 22.0668 17.4612 22.1448 11.5645C22.2488 3.69454 16.4513 0.0698242 16.4513 0.0698242Z" fill="#948F8F" stroke="white"/>
<path d="M16.5684 0.256348C16.5684 0.256348 23.0808 1.7118 25.3425 9.02674C26.9904 14.3563 23.4317 21.2305 23.4317 21.2305C23.4317 21.2305 22.8589 21.2044 21.6768 21.8277C20.3111 22.5478 19.805 23.2832 19.805 23.2832C19.805 23.2832 19.5272 22.6744 18.5962 22.0889C17.7073 21.53 17.0754 21.4918 17.0754 21.4918C17.0754 21.4918 21.7549 17.8717 22.1449 11.7885C21.9888 3.27939 16.5684 0.256348 16.5684 0.256348Z" fill="#948F8F"/>
<path d="M16.5684 0.256348C16.5684 0.256348 23.0808 1.7118 25.3425 9.02674C26.9904 14.3563 23.4317 21.2305 23.4317 21.2305C23.4317 21.2305 22.8589 21.2044 21.6768 21.8277C20.3111 22.5478 19.805 23.2832 19.805 23.2832C19.805 23.2832 19.5272 22.6744 18.5962 22.0889C17.7073 21.53 17.0754 21.4918 17.0754 21.4918C17.0754 21.4918 21.7549 17.8717 22.1449 11.7885C21.9888 3.27939 16.5684 0.256348 16.5684 0.256348Z" fill="#948F8F" stroke="white"/>
<path d="M26.5122 6.19043C26.5122 6.19043 26.994 7.40942 26.7071 9.40007C26.4741 11.0171 25.7322 11.602 25.7322 11.602L23.0806 21.1934L25.3423 21.0068C25.3423 21.0068 29.9048 18.6555 30.0998 14.4756C30.0609 9.13875 26.5122 6.19043 26.5122 6.19043Z" fill="#948F8F"/>
<path d="M26.5122 6.19043C26.5122 6.19043 26.994 7.40942 26.7071 9.40007C26.4741 11.0171 25.7322 11.602 25.7322 11.602L23.0806 21.1934L25.3423 21.0068C25.3423 21.0068 29.9048 18.6555 30.0998 14.4756C30.0609 9.13875 26.5122 6.19043 26.5122 6.19043Z" fill="#948F8F" stroke="white"/>
<path d="M26.5122 6.26514C26.5122 6.26514 30.6458 10.3703 29.8658 15.3713C28.774 19.3273 25.3423 21.044 25.3423 21.044L26.7461 21.1561C26.7461 21.1561 32.1275 19.6259 32.2836 14.6249C32.1972 9.12184 26.5122 6.26514 26.5122 6.26514Z" fill="#948F8F"/>
<path d="M26.5122 6.26514C26.5122 6.26514 30.6458 10.3703 29.8658 15.3713C28.774 19.3273 25.3423 21.044 25.3423 21.044L26.7461 21.1561C26.7461 21.1561 32.1275 19.6259 32.2836 14.6249C32.1972 9.12184 26.5122 6.26514 26.5122 6.26514Z" fill="#948F8F" stroke="white"/>
<path d="M13.0196 5.59326C13.0196 5.59326 11.6058 10.1257 10.7299 10.6843C8.41673 12.1596 7.35979 15.1311 7.24826 15.8937C6.39031 20.1483 11.2648 21.9396 11.2648 21.9396C11.2648 21.9396 11.39 21.7391 11.8107 21.5664C12.1179 21.4405 12.3957 21.4919 12.3957 21.4919C12.3957 21.4919 9.54899 17.4611 9.66593 16.267C9.90563 13.8202 11.5316 12.9241 12.0448 11.1913C12.8721 8.39759 13.0196 5.59326 13.0196 5.59326Z" fill="#948F8F"/>
<path d="M13.0196 5.59326C13.0196 5.59326 11.6058 10.1257 10.7299 10.6843C8.41673 12.1596 7.35979 15.1311 7.24826 15.8937C6.39031 20.1483 11.2648 21.9396 11.2648 21.9396C11.2648 21.9396 11.39 21.7391 11.8107 21.5664C12.1179 21.4405 12.3957 21.4919 12.3957 21.4919C12.3957 21.4919 9.54899 17.4611 9.66593 16.267C9.90563 13.8202 11.5316 12.9241 12.0448 11.1913C12.8721 8.39759 13.0196 5.59326 13.0196 5.59326Z" fill="#948F8F" stroke="white"/>
<path d="M13.0195 5.66772C13.0195 5.66772 12.7855 8.09356 11.7716 11.4898C11.5364 12.2776 10.7977 13.0257 10.4847 13.6543C9.82049 14.9885 9.67772 15.2973 9.62677 15.931C9.58779 16.416 9.5275 17.06 10.5237 19.1032C11.3472 20.7922 12.3176 21.417 12.3176 21.417C12.3176 21.417 12.4443 21.2155 12.8244 21.1186C13.2243 21.0165 13.4874 21.1186 13.4874 21.1186C13.4874 21.1186 12.3125 19.2349 12.4735 15.2219C12.539 13.5902 14.1366 11.8012 14.2674 9.54915C14.4233 6.862 13.0195 5.66772 13.0195 5.66772Z" fill="#948F8F"/>
<path d="M13.0195 5.66772C13.0195 5.66772 12.7855 8.09356 11.7716 11.4898C11.5364 12.2776 10.7977 13.0257 10.4847 13.6543C9.82049 14.9885 9.67772 15.2973 9.62677 15.931C9.58779 16.416 9.5275 17.06 10.5237 19.1032C11.3472 20.7922 12.3176 21.417 12.3176 21.417C12.3176 21.417 12.4443 21.2155 12.8244 21.1186C13.2243 21.0165 13.4874 21.1186 13.4874 21.1186C13.4874 21.1186 12.3125 19.2349 12.4735 15.2219C12.539 13.5902 14.1366 11.8012 14.2674 9.54915C14.4233 6.862 13.0195 5.66772 13.0195 5.66772Z" fill="#948F8F" stroke="white"/>
<path d="M15.281 30.8595C15.281 30.8595 13.3689 31.0833 10.9886 32.3149C9.27894 33.1995 8.99836 34.8528 8.99836 34.8528C8.99836 34.8528 6.63018 32.7674 5.26464 28.4831C4.91661 27.3909 4.63369 26.156 4.47179 24.7762C3.55194 16.9392 6.42288 12.9082 6.42288 12.9082C6.42288 12.9082 5.60186 15.3962 6.50099 19.2528C7.3188 22.7609 8.99836 23.9551 8.99836 23.9551C8.99836 23.9551 7.60726 25.0909 7.8277 27.9111C8.02347 30.4152 9.62274 31.9417 9.62274 31.9417C9.62274 31.9417 10.7544 31.3072 12.1201 31.0833C14.0146 30.7727 15.281 30.8595 15.281 30.8595Z" fill="#948F8F"/>
<path d="M15.281 30.8595C15.281 30.8595 13.3689 31.0833 10.9886 32.3149C9.27894 33.1995 8.99836 34.8528 8.99836 34.8528C8.99836 34.8528 6.63018 32.7674 5.26464 28.4831C4.91661 27.3909 4.63369 26.156 4.47179 24.7762C3.55194 16.9392 6.42288 12.9082 6.42288 12.9082C6.42288 12.9082 5.60186 15.3962 6.50099 19.2528C7.3188 22.7609 8.99836 23.9551 8.99836 23.9551C8.99836 23.9551 7.60726 25.0909 7.8277 27.9111C8.02347 30.4152 9.62274 31.9417 9.62274 31.9417C9.62274 31.9417 10.7544 31.3072 12.1201 31.0833C14.0146 30.7727 15.281 30.8595 15.281 30.8595Z" fill="#948F8F" stroke="white"/>
<path d="M6.39009 12.9082C6.39009 12.9082 5.47023 15.1938 6.46804 19.4766C7.18615 22.5583 8.96381 23.9551 8.96381 23.9551C8.96381 23.9551 9.21447 23.4146 10.0167 22.7236C10.7743 22.0711 11.3037 21.9398 11.3037 21.9398C11.3037 21.9398 9.11987 21.0441 7.87198 19.0289C6.23257 16.3812 6.39009 12.9082 6.39009 12.9082Z" fill="#948F8F"/>
<path d="M6.39009 12.9082C6.39009 12.9082 5.47023 15.1938 6.46804 19.4766C7.18615 22.5583 8.96381 23.9551 8.96381 23.9551C8.96381 23.9551 9.21447 23.4146 10.0167 22.7236C10.7743 22.0711 11.3037 21.9398 11.3037 21.9398C11.3037 21.9398 9.11987 21.0441 7.87198 19.0289C6.23257 16.3812 6.39009 12.9082 6.39009 12.9082Z" fill="#948F8F" stroke="white"/>
<path d="M33.1455 12.9082C33.1455 12.9082 34.0622 15.1565 33.0635 19.4393C32.3449 22.5211 30.5696 23.9551 30.5696 23.9551C30.5696 23.9551 29.6938 22.8921 28.8909 22.2011C28.1328 21.5486 26.7461 21.1934 26.7461 21.1934C26.7461 21.1934 28.5454 20.6219 30.3338 18.9542C33.3754 16.1178 33.1455 12.9082 33.1455 12.9082Z" fill="#948F8F"/>
<path d="M33.1455 12.9082C33.1455 12.9082 34.0622 15.1565 33.0635 19.4393C32.3449 22.5211 30.5696 23.9551 30.5696 23.9551C30.5696 23.9551 29.6938 22.8921 28.8909 22.2011C28.1328 21.5486 26.7461 21.1934 26.7461 21.1934C26.7461 21.1934 28.5454 20.6219 30.3338 18.9542C33.3754 16.1178 33.1455 12.9082 33.1455 12.9082Z" fill="#948F8F" stroke="white"/>
<path d="M24.2896 30.8595C24.2896 30.8595 26.2004 31.0833 28.579 32.3149C30.2875 33.1995 30.5678 34.8528 30.5678 34.8528C30.5678 34.8528 34.2947 31.5688 35.0914 24.7762C36.0106 16.9392 33.1417 12.9082 33.1417 12.9082C33.1417 12.9082 33.9621 15.3962 33.0636 19.2528C32.2463 22.7609 30.5678 23.9551 30.5678 23.9551C30.5678 23.9551 31.958 25.0909 31.7377 27.9111C31.5421 30.4152 29.9439 31.9417 29.9439 31.9417C29.9439 31.9417 28.8131 31.3072 27.4482 31.0833C25.5551 30.7727 24.2896 30.8595 24.2896 30.8595Z" fill="#948F8F"/>
<path d="M24.2896 30.8595C24.2896 30.8595 26.2004 31.0833 28.579 32.3149C30.2875 33.1995 30.5678 34.8528 30.5678 34.8528C30.5678 34.8528 34.2947 31.5688 35.0914 24.7762C36.0106 16.9392 33.1417 12.9082 33.1417 12.9082C33.1417 12.9082 33.9621 15.3962 33.0636 19.2528C32.2463 22.7609 30.5678 23.9551 30.5678 23.9551C30.5678 23.9551 31.958 25.0909 31.7377 27.9111C31.5421 30.4152 29.9439 31.9417 29.9439 31.9417C29.9439 31.9417 28.8131 31.3072 27.4482 31.0833C25.5551 30.7727 24.2896 30.8595 24.2896 30.8595Z" fill="#948F8F" stroke="white"/>
<path d="M32.5957 32.3149C32.5957 32.3149 34.7216 29.2231 35.1694 23.9551C35.7094 17.604 34.0776 14.8862 34.0776 14.8862C34.0776 14.8862 35.2814 17.6291 34.3115 23.0594C33.7216 26.3622 31.7378 27.9857 31.7378 27.9857C31.7378 27.9857 31.8689 28.478 31.2699 29.9263C30.881 30.8665 30.2559 31.5685 30.2559 31.5685" fill="#948F8F"/>
<path d="M32.5957 32.3149C32.5957 32.3149 34.7216 29.2231 35.1694 23.9551C35.7094 17.604 34.0776 14.8862 34.0776 14.8862C34.0776 14.8862 35.2814 17.6291 34.3115 23.0594C33.7216 26.3622 31.7378 27.9857 31.7378 27.9857C31.7378 27.9857 31.8689 28.478 31.2699 29.9263C30.881 30.8665 30.2559 31.5685 30.2559 31.5685" fill="#948F8F"/>
<path d="M32.5957 32.3149C32.5957 32.3149 34.7216 29.2231 35.1694 23.9551C35.7094 17.604 34.0776 14.8862 34.0776 14.8862C34.0776 14.8862 35.2814 17.6291 34.3115 23.0594C33.7216 26.3622 31.7378 27.9857 31.7378 27.9857C31.7378 27.9857 31.8689 28.478 31.2699 29.9263C30.881 30.8665 30.2559 31.5685 30.2559 31.5685" stroke="white"/>
<path d="M25.0498 29.4412C26.3312 29.4412 27.37 28.447 27.37 27.2206C27.37 25.9942 26.3312 25 25.0498 25C23.7683 25 22.7295 25.9942 22.7295 27.2206C22.7295 28.447 23.7683 29.4412 25.0498 29.4412Z" fill="#948F8F"/>
<path d="M25.0498 29.4412C26.3312 29.4412 27.37 28.447 27.37 27.2206C27.37 25.9942 26.3312 25 25.0498 25C23.7683 25 22.7295 25.9942 22.7295 27.2206C22.7295 28.447 23.7683 29.4412 25.0498 29.4412Z" fill="#948F8F" stroke="white"/>
<path d="M14.4624 29.4785C13.1917 29.4785 12.1616 28.4759 12.1616 27.2392C12.1616 26.0025 13.1917 25 14.4624 25C15.7331 25 16.7632 26.0025 16.7632 27.2392C16.7632 28.4759 15.7331 29.4785 14.4624 29.4785Z" fill="#948F8F"/>
<path d="M14.4624 29.4785C13.1917 29.4785 12.1616 28.4759 12.1616 27.2392C12.1616 26.0025 13.1917 25 14.4624 25C15.7331 25 16.7632 26.0025 16.7632 27.2392C16.7632 28.4759 15.7331 29.4785 14.4624 29.4785Z" fill="#948F8F" stroke="white"/>
<path d="M12.7075 35.823C12.7075 35.823 14.9503 37.9875 19.5709 37.9875C24.3649 37.9875 26.8294 35.823 26.8294 35.823C26.8294 35.823 26.1363 37.0896 23.6264 38.2114C21.3491 39.2293 19.6488 39.0325 19.6488 39.0325C19.6488 39.0325 18.2484 39.1892 16.2951 38.2861C13.6208 37.0495 12.7075 35.823 12.7075 35.823Z" fill="#948F8F"/>
<path d="M12.7075 35.823C12.7075 35.823 14.9503 37.9875 19.5709 37.9875C24.3649 37.9875 26.8294 35.823 26.8294 35.823C26.8294 35.823 26.1363 37.0896 23.6264 38.2114C21.3491 39.2293 19.6488 39.0325 19.6488 39.0325C19.6488 39.0325 18.2484 39.1892 16.2951 38.2861C13.6208 37.0495 12.7075 35.823 12.7075 35.823Z" fill="#948F8F" stroke="white"/>
<path d="M24.4065 42.7646C24.4065 42.7646 24.5487 43.0536 24.6405 43.6976C24.7047 44.1484 24.6405 44.4067 24.6405 44.4067C24.6405 44.4067 23.7846 44.8709 23.1976 46.1607C22.1447 48.4747 22.4567 49.9302 22.4567 49.9302C22.4567 49.9302 21.8489 49.7424 21.2088 48.6613C20.5459 47.5416 20.5849 46.3462 20.6238 45.7503C20.7018 44.556 21.2088 43.5856 21.2088 43.5856C21.2088 43.5856 21.8072 43.5613 22.7297 43.3244C23.939 43.0138 24.4065 42.7646 24.4065 42.7646Z" fill="#948F8F"/>
<path d="M24.4065 42.7646C24.4065 42.7646 24.5487 43.0536 24.6405 43.6976C24.7047 44.1484 24.6405 44.4067 24.6405 44.4067C24.6405 44.4067 23.7846 44.8709 23.1976 46.1607C22.1447 48.4747 22.4567 49.9302 22.4567 49.9302C22.4567 49.9302 21.8489 49.7424 21.2088 48.6613C20.5459 47.5416 20.5849 46.3462 20.6238 45.7503C20.7018 44.556 21.2088 43.5856 21.2088 43.5856C21.2088 43.5856 21.8072 43.5613 22.7297 43.3244C23.939 43.0138 24.4065 42.7646 24.4065 42.7646Z" fill="#948F8F" stroke="white"/>
<path d="M15.1255 42.6899C15.1255 42.6899 15.5093 45.5458 17.9331 47.9148C20.3969 50.3229 22.4567 49.8556 22.4567 49.8556C22.4567 49.8556 21.1537 49.4162 20.7408 47.3177C20.3217 45.1866 21.2088 43.511 21.2088 43.511C21.2088 43.511 20.1627 43.855 18.1671 43.5856C16.1072 43.3077 15.1255 42.6899 15.1255 42.6899Z" fill="#948F8F"/>
<path d="M15.1255 42.6899C15.1255 42.6899 15.5093 45.5458 17.9331 47.9148C20.3969 50.3229 22.4567 49.8556 22.4567 49.8556C22.4567 49.8556 21.1537 49.4162 20.7408 47.3177C20.3217 45.1866 21.2088 43.511 21.2088 43.511C21.2088 43.511 20.1627 43.855 18.1671 43.5856C16.1072 43.3077 15.1255 42.6899 15.1255 42.6899Z" fill="#948F8F" stroke="white"/>
<path d="M7.63819 33.2104C7.63819 33.2104 6.67833 37.9149 9.276 42.1674C12.2396 47.0191 16.0614 47.9895 16.0614 47.9895C16.0614 47.9895 15.2763 47.0659 14.9694 45.3771C14.6523 43.6324 15.1255 42.8392 15.1255 42.8392C15.1255 42.8392 12.7077 42.0928 10.368 39.4057C8.4849 36.942 8.96403 34.7779 8.96403 34.7779L7.63819 33.2104Z" fill="#948F8F"/>
<path d="M7.63819 33.2104C7.63819 33.2104 6.67833 37.9149 9.276 42.1674C12.2396 47.0191 16.0614 47.9895 16.0614 47.9895C16.0614 47.9895 15.2763 47.0659 14.9694 45.3771C14.6523 43.6324 15.1255 42.8392 15.1255 42.8392C15.1255 42.8392 12.7077 42.0928 10.368 39.4057C8.4849 36.942 8.96403 34.7779 8.96403 34.7779L7.63819 33.2104Z" fill="#948F8F" stroke="white"/>
<path d="M31.8763 33.2104C31.8763 33.2104 32.8343 37.9149 30.2419 42.1674C27.2841 47.0191 23.4702 47.9895 23.4702 47.9895C23.4702 47.9895 24.2536 47.0659 24.5599 45.3771C24.8763 43.6324 24.4042 42.8392 24.4042 42.8392C24.4042 42.8392 26.8171 42.0928 29.1521 39.4057C31.0314 36.942 30.5531 34.7779 30.5531 34.7779L31.8763 33.2104Z" fill="#948F8F"/>
<path d="M31.8763 33.2104C31.8763 33.2104 32.8343 37.9149 30.2419 42.1674C27.2841 47.0191 23.4702 47.9895 23.4702 47.9895C23.4702 47.9895 24.2536 47.0659 24.5599 45.3771C24.8763 43.6324 24.4042 42.8392 24.4042 42.8392C24.4042 42.8392 26.8171 42.0928 29.1521 39.4057C31.0314 36.942 30.5531 34.7779 30.5531 34.7779L31.8763 33.2104Z" fill="#948F8F" stroke="white"/>
<path d="M23.3922 32.128L21.2084 31.1204C21.2084 31.1204 20.5104 30.83 20.3504 31.4937C20.2335 31.9787 20.7793 32.0908 20.7793 32.0908C20.7793 32.0908 20.9354 32.1653 21.1304 31.9787C21.3079 31.8088 21.3643 31.6803 21.3643 31.6803L23.3922 32.128Z" fill="#948F8F"/>
<path d="M23.3922 32.128L21.2084 31.1204C21.2084 31.1204 20.5104 30.83 20.3504 31.4937C20.2335 31.9787 20.7793 32.0908 20.7793 32.0908C20.7793 32.0908 20.9354 32.1653 21.1304 31.9787C21.3079 31.8088 21.3643 31.6803 21.3643 31.6803L23.3922 32.128Z" fill="#948F8F" stroke="white"/>
<path d="M16.061 32.1282L18.233 31.1099C18.233 31.1099 18.9272 30.8163 19.0863 31.487C19.2026 31.9773 18.6597 32.0905 18.6597 32.0905C18.6597 32.0905 18.5045 32.1659 18.3105 31.9773C18.1339 31.8055 18.0778 31.6755 18.0778 31.6755L16.061 32.1282Z" fill="#948F8F"/>
<path d="M16.061 32.1282L18.233 31.1099C18.233 31.1099 18.9272 30.8163 19.0863 31.487C19.2026 31.9773 18.6597 32.0905 18.6597 32.0905C18.6597 32.0905 18.5045 32.1659 18.3105 31.9773C18.1339 31.8055 18.0778 31.6755 18.0778 31.6755L16.061 32.1282Z" fill="#948F8F" stroke="white"/>
</g>
<defs>
<clipPath id="clip0_740_206">
<rect width="40" height="50" fill="white"/>
</clipPath>
</defs>
</svg>
