<svg width="343" height="455" viewBox="0 0 343 455" fill="none" xmlns="http://www.w3.org/2000/svg">
<g opacity="0.7" clip-path="url(#clip0_1960_1102)">
<path d="M60.1477 231.576C64.1598 251.273 71.5168 292.706 71.5168 292.706L70.8483 351.8C70.8483 351.8 63.3299 352.325 60.1477 352.479C27.2974 352.479 0.625977 325.391 0.625977 292.027C0.625977 258.662 27.2974 231.576 60.1477 231.576Z" fill="#BB00C7"/>
<path d="M60.1477 231.576C64.1598 251.273 71.5168 292.706 71.5168 292.706L70.8483 351.8C70.8483 351.8 63.3299 352.325 60.1477 352.479C27.2974 352.479 0.625977 325.391 0.625977 292.027C0.625977 258.662 27.2974 231.576 60.1477 231.576Z" fill="#BB00C7" stroke="white" stroke-width="2"/>
<path d="M65.4981 325.414C61.9641 326.666 58.1674 327.347 54.2141 327.347C35.3428 327.347 20.0205 311.825 20.0205 292.706C20.0205 273.587 35.3428 258.065 54.2141 258.065C58.1674 258.065 61.9641 258.746 65.4981 259.999V325.414Z" fill="#BB00C7"/>
<path d="M65.4981 325.414C61.9641 326.666 58.1674 327.347 54.2141 327.347C35.3428 327.347 20.0205 311.825 20.0205 292.706C20.0205 273.587 35.3428 258.065 54.2141 258.065C58.1674 258.065 61.9641 258.746 65.4981 259.999V325.414Z" fill="#BB00C7" stroke="white" stroke-width="2"/>
<path d="M282.852 231.576C278.84 251.273 271.483 292.706 271.483 292.706L272.152 351.8C272.152 351.8 279.67 352.325 282.852 352.479C315.703 352.479 342.374 325.391 342.374 292.027C342.374 258.662 315.703 231.576 282.852 231.576Z" fill="#BB00C7"/>
<path d="M282.852 231.576C278.84 251.273 271.483 292.706 271.483 292.706L272.152 351.8C272.152 351.8 279.67 352.325 282.852 352.479C315.703 352.479 342.374 325.391 342.374 292.027C342.374 258.662 315.703 231.576 282.852 231.576Z" fill="#BB00C7" stroke="white" stroke-width="2"/>
<path d="M277.502 259.999C281.036 258.746 284.833 258.065 288.786 258.065C307.657 258.065 322.98 273.587 322.98 292.706C322.98 311.825 307.657 327.347 288.786 327.347C284.833 327.347 281.036 326.666 277.502 325.414V259.999Z" fill="#BB00C7"/>
<path d="M277.502 259.999C281.036 258.746 284.833 258.065 288.786 258.065C307.657 258.065 322.98 273.587 322.98 292.706C322.98 311.825 307.657 327.347 288.786 327.347C284.833 327.347 281.036 326.666 277.502 325.414V259.999Z" fill="#BB00C7" stroke="white" stroke-width="2"/>
<path d="M141.071 0.635498C141.071 0.635498 152.437 27.2441 138.396 69.2388C132.377 87.238 118.299 97.3611 111.644 107.954C103.087 121.575 102.95 134.445 102.95 134.445C102.95 134.445 100.984 145.277 105.625 166.369C109.455 183.768 115.656 192.18 115.656 192.18C115.656 192.18 121.272 190.285 130.37 191.161C142.45 192.323 147.424 195.237 147.424 195.237C147.424 195.237 189.223 158.897 189.892 105.237C190.784 33.6205 141.071 0.635498 141.071 0.635498Z" fill="#BB00C7"/>
<path d="M141.071 0.635498C141.071 0.635498 152.437 27.2441 138.396 69.2388C132.377 87.238 118.299 97.3611 111.644 107.954C103.087 121.575 102.95 134.445 102.95 134.445C102.95 134.445 100.984 145.277 105.625 166.369C109.455 183.768 115.656 192.18 115.656 192.18C115.656 192.18 121.272 190.285 130.37 191.161C142.45 192.323 147.424 195.237 147.424 195.237C147.424 195.237 189.223 158.897 189.892 105.237C190.784 33.6205 141.071 0.635498 141.071 0.635498Z" fill="#BB00C7" stroke="white" stroke-width="2"/>
<path d="M142.073 2.3335C142.073 2.3335 197.917 15.5781 217.312 82.1441C231.443 130.644 200.927 193.198 200.927 193.198C200.927 193.198 196.015 192.961 185.879 198.633C174.168 205.186 169.828 211.878 169.828 211.878C169.828 211.878 167.445 206.337 159.463 201.01C151.84 195.923 146.421 195.576 146.421 195.576C146.421 195.576 186.548 162.633 189.892 107.276C188.554 29.8432 142.073 2.3335 142.073 2.3335Z" fill="#BB00C7"/>
<path d="M142.073 2.3335C142.073 2.3335 197.917 15.5781 217.312 82.1441C231.443 130.644 200.927 193.198 200.927 193.198C200.927 193.198 196.015 192.961 185.879 198.633C174.168 205.186 169.828 211.878 169.828 211.878C169.828 211.878 167.445 206.337 159.463 201.01C151.84 195.923 146.421 195.576 146.421 195.576C146.421 195.576 186.548 162.633 189.892 107.276C188.554 29.8432 142.073 2.3335 142.073 2.3335Z" fill="#BB00C7" stroke="white" stroke-width="2"/>
<path d="M227.344 56.3323C227.344 56.3323 231.475 67.4251 229.015 85.54C227.017 100.255 220.655 105.578 220.655 105.578L197.917 192.859L217.312 191.161C217.312 191.161 256.435 169.765 258.107 131.728C257.773 83.162 227.344 56.3323 227.344 56.3323Z" fill="#BB00C7"/>
<path d="M227.344 56.3323C227.344 56.3323 231.475 67.4251 229.015 85.54C227.017 100.255 220.655 105.578 220.655 105.578L197.917 192.859L217.312 191.161C217.312 191.161 256.435 169.765 258.107 131.728C257.773 83.162 227.344 56.3323 227.344 56.3323Z" fill="#BB00C7" stroke="white" stroke-width="2"/>
<path d="M227.344 57.0122C227.344 57.0122 262.789 94.3692 256.101 139.878C246.738 175.878 217.312 191.5 217.312 191.5L229.349 192.52C229.349 192.52 275.495 178.595 276.834 133.086C276.092 83.0082 227.344 57.0122 227.344 57.0122Z" fill="#BB00C7"/>
<path d="M227.344 57.0122C227.344 57.0122 262.789 94.3692 256.101 139.878C246.738 175.878 217.312 191.5 217.312 191.5L229.349 192.52C229.349 192.52 275.495 178.595 276.834 133.086C276.092 83.0082 227.344 57.0122 227.344 57.0122Z" fill="#BB00C7" stroke="white" stroke-width="2"/>
<path d="M111.644 50.8989C111.644 50.8989 99.5202 92.1438 92.0092 97.2276C72.1741 110.653 63.1108 137.693 62.1544 144.633C54.7975 183.35 96.5959 199.651 96.5959 199.651C96.5959 199.651 97.67 197.826 101.278 196.255C103.912 195.109 106.294 195.576 106.294 195.576C106.294 195.576 81.8832 158.897 82.8859 148.03C84.9414 125.764 98.8842 117.61 103.284 101.841C110.378 76.4183 111.644 50.8989 111.644 50.8989Z" fill="#BB00C7"/>
<path d="M111.644 50.8989C111.644 50.8989 99.5202 92.1438 92.0092 97.2276C72.1741 110.653 63.1108 137.693 62.1544 144.633C54.7975 183.35 96.5959 199.651 96.5959 199.651C96.5959 199.651 97.67 197.826 101.278 196.255C103.912 195.109 106.294 195.576 106.294 195.576C106.294 195.576 81.8832 158.897 82.8859 148.03C84.9414 125.764 98.8842 117.61 103.284 101.841C110.378 76.4183 111.644 50.8989 111.644 50.8989Z" fill="#BB00C7" stroke="white" stroke-width="2"/>
<path d="M111.644 51.5776C111.644 51.5776 109.637 73.6528 100.944 104.558C98.9269 111.728 92.5926 118.535 89.9087 124.256C84.2129 136.397 82.9886 139.207 82.5518 144.973C82.2175 149.387 81.7005 155.248 90.243 173.84C97.3045 189.21 105.625 194.896 105.625 194.896C105.625 194.896 106.712 193.062 109.972 192.18C113.4 191.251 115.656 192.18 115.656 192.18C115.656 192.18 105.582 175.039 106.962 138.521C107.524 123.672 121.223 107.393 122.345 86.8986C123.682 62.4455 111.644 51.5776 111.644 51.5776Z" fill="#BB00C7"/>
<path d="M111.644 51.5776C111.644 51.5776 109.637 73.6528 100.944 104.558C98.9269 111.728 92.5926 118.535 89.9087 124.256C84.2129 136.397 82.9886 139.207 82.5518 144.973C82.2175 149.387 81.7005 155.248 90.243 173.84C97.3045 189.21 105.625 194.896 105.625 194.896C105.625 194.896 106.712 193.062 109.972 192.18C113.4 191.251 115.656 192.18 115.656 192.18C115.656 192.18 105.582 175.039 106.962 138.521C107.524 123.672 121.223 107.393 122.345 86.8986C123.682 62.4455 111.644 51.5776 111.644 51.5776Z" fill="#BB00C7" stroke="white" stroke-width="2"/>
<path d="M131.039 280.82C131.039 280.82 114.642 282.858 94.2312 294.065C79.5711 302.115 77.1651 317.159 77.1651 317.159C77.1651 317.159 56.858 298.183 45.1484 259.195C42.1641 249.256 39.738 238.019 38.3498 225.463C30.462 154.146 55.0804 117.464 55.0804 117.464C55.0804 117.464 48.0401 140.105 55.7501 175.199C62.7629 207.123 77.1651 217.991 77.1651 217.991C77.1651 217.991 65.2365 228.326 67.1267 253.991C68.8054 276.777 82.5192 290.669 82.5192 290.669C82.5192 290.669 92.2233 284.895 103.934 282.858C120.179 280.031 131.039 280.82 131.039 280.82Z" fill="#BB00C7"/>
<path d="M131.039 280.82C131.039 280.82 114.642 282.858 94.2312 294.065C79.5711 302.115 77.1651 317.159 77.1651 317.159C77.1651 317.159 56.858 298.183 45.1484 259.195C42.1641 249.256 39.738 238.019 38.3498 225.463C30.462 154.146 55.0804 117.464 55.0804 117.464C55.0804 117.464 48.0401 140.105 55.7501 175.199C62.7629 207.123 77.1651 217.991 77.1651 217.991C77.1651 217.991 65.2365 228.326 67.1267 253.991C68.8054 276.777 82.5192 290.669 82.5192 290.669C82.5192 290.669 92.2233 284.895 103.934 282.858C120.179 280.031 131.039 280.82 131.039 280.82Z" fill="#BB00C7" stroke="white" stroke-width="2"/>
<path d="M54.7976 117.464C54.7976 117.464 46.9099 138.263 55.4661 177.237C61.6238 205.28 76.8673 217.991 76.8673 217.991C76.8673 217.991 79.0167 213.072 85.8954 206.784C92.3924 200.846 96.9315 199.651 96.9315 199.651C96.9315 199.651 78.2055 191.501 67.5049 173.162C53.4469 149.069 54.7976 117.464 54.7976 117.464Z" fill="#BB00C7"/>
<path d="M54.7976 117.464C54.7976 117.464 46.9099 138.263 55.4661 177.237C61.6238 205.28 76.8673 217.991 76.8673 217.991C76.8673 217.991 79.0167 213.072 85.8954 206.784C92.3924 200.846 96.9315 199.651 96.9315 199.651C96.9315 199.651 78.2055 191.501 67.5049 173.162C53.4469 149.069 54.7976 117.464 54.7976 117.464Z" fill="#BB00C7" stroke="white" stroke-width="2"/>
<path d="M284.224 117.464C284.224 117.464 292.085 137.924 283.521 176.897C277.359 204.941 262.136 217.991 262.136 217.991C262.136 217.991 254.626 208.318 247.741 202.029C241.24 196.091 229.349 192.859 229.349 192.859C229.349 192.859 244.778 187.658 260.114 172.482C286.196 146.672 284.224 117.464 284.224 117.464Z" fill="#BB00C7"/>
<path d="M284.224 117.464C284.224 117.464 292.085 137.924 283.521 176.897C277.359 204.941 262.136 217.991 262.136 217.991C262.136 217.991 254.626 208.318 247.741 202.029C241.24 196.091 229.349 192.859 229.349 192.859C229.349 192.859 244.778 187.658 260.114 172.482C286.196 146.672 284.224 117.464 284.224 117.464Z" fill="#BB00C7" stroke="white" stroke-width="2"/>
<path d="M208.284 280.82C208.284 280.82 224.669 282.858 245.066 294.065C259.716 302.115 262.12 317.159 262.12 317.159C262.12 317.159 294.078 287.275 300.91 225.463C308.791 154.146 284.191 117.464 284.191 117.464C284.191 117.464 291.226 140.105 283.521 175.199C276.513 207.123 262.12 217.991 262.12 217.991C262.12 217.991 274.041 228.326 272.152 253.991C270.474 276.777 256.769 290.669 256.769 290.669C256.769 290.669 247.073 284.895 235.369 282.858C219.136 280.031 208.284 280.82 208.284 280.82Z" fill="#BB00C7"/>
<path d="M208.284 280.82C208.284 280.82 224.669 282.858 245.066 294.065C259.716 302.115 262.12 317.159 262.12 317.159C262.12 317.159 294.078 287.275 300.91 225.463C308.791 154.146 284.191 117.464 284.191 117.464C284.191 117.464 291.226 140.105 283.521 175.199C276.513 207.123 262.12 217.991 262.12 217.991C262.12 217.991 274.041 228.326 272.152 253.991C270.474 276.777 256.769 290.669 256.769 290.669C256.769 290.669 247.073 284.895 235.369 282.858C219.136 280.031 208.284 280.82 208.284 280.82Z" fill="#BB00C7" stroke="white" stroke-width="2"/>
<path d="M279.509 294.065C279.509 294.065 297.738 265.93 301.578 217.991C306.209 160.196 292.216 135.464 292.216 135.464C292.216 135.464 302.539 160.425 294.222 209.84C289.163 239.896 272.152 254.669 272.152 254.669C272.152 254.669 273.276 259.149 268.14 272.329C264.805 280.885 259.445 287.273 259.445 287.273" fill="#BB00C7"/>
<path d="M279.509 294.065C279.509 294.065 297.738 265.93 301.578 217.991C306.209 160.196 292.216 135.464 292.216 135.464C292.216 135.464 302.539 160.425 294.222 209.84C289.163 239.896 272.152 254.669 272.152 254.669C272.152 254.669 273.276 259.149 268.14 272.329C264.805 280.885 259.445 287.273 259.445 287.273" fill="#BB00C7"/>
<path d="M279.509 294.065C279.509 294.065 297.738 265.93 301.578 217.991C306.209 160.196 292.216 135.464 292.216 135.464C292.216 135.464 302.539 160.425 294.222 209.84C289.163 239.896 272.152 254.669 272.152 254.669C272.152 254.669 273.276 259.149 268.14 272.329C264.805 280.885 259.445 287.273 259.445 287.273" stroke="white" stroke-width="2"/>
<path d="M214.804 267.914C225.792 267.914 234.7 258.867 234.7 247.707C234.7 236.547 225.792 227.5 214.804 227.5C203.815 227.5 194.907 236.547 194.907 247.707C194.907 258.867 203.815 267.914 214.804 267.914Z" fill="#BB00C7"/>
<path d="M214.804 267.914C225.792 267.914 234.7 258.867 234.7 247.707C234.7 236.547 225.792 227.5 214.804 227.5C203.815 227.5 194.907 236.547 194.907 247.707C194.907 258.867 203.815 267.914 214.804 267.914Z" fill="#BB00C7" stroke="white" stroke-width="2"/>
<path d="M124.017 268.254C113.12 268.254 104.287 259.131 104.287 247.877C104.287 236.623 113.12 227.5 124.017 227.5C134.913 227.5 143.746 236.623 143.746 247.877C143.746 259.131 134.913 268.254 124.017 268.254Z" fill="#BB00C7"/>
<path d="M124.017 268.254C113.12 268.254 104.287 259.131 104.287 247.877C104.287 236.623 113.12 227.5 124.017 227.5C134.913 227.5 143.746 236.623 143.746 247.877C143.746 259.131 134.913 268.254 124.017 268.254Z" fill="#BB00C7" stroke="white" stroke-width="2"/>
<path d="M108.969 325.99C108.969 325.99 128.201 345.687 167.822 345.687C208.931 345.687 230.064 325.99 230.064 325.99C230.064 325.99 224.121 337.516 202.598 347.724C183.071 356.987 168.491 355.196 168.491 355.196C168.491 355.196 156.482 356.622 139.733 348.404C116.8 337.151 108.969 325.99 108.969 325.99Z" fill="#BB00C7"/>
<path d="M108.969 325.99C108.969 325.99 128.201 345.687 167.822 345.687C208.931 345.687 230.064 325.99 230.064 325.99C230.064 325.99 224.121 337.516 202.598 347.724C183.071 356.987 168.491 355.196 168.491 355.196C168.491 355.196 156.482 356.622 139.733 348.404C116.8 337.151 108.969 325.99 108.969 325.99Z" fill="#BB00C7" stroke="white" stroke-width="2"/>
<path d="M209.286 389.158C209.286 389.158 210.506 391.788 211.293 397.648C211.844 401.751 211.293 404.101 211.293 404.101C211.293 404.101 203.954 408.325 198.92 420.063C189.892 441.12 192.567 454.364 192.567 454.364C192.567 454.364 187.356 452.656 181.866 442.818C176.182 432.629 176.516 421.75 176.85 416.327C177.519 405.459 181.866 396.629 181.866 396.629C181.866 396.629 186.998 396.408 194.908 394.252C205.278 391.426 209.286 389.158 209.286 389.158Z" fill="#BB00C7"/>
<path d="M209.286 389.158C209.286 389.158 210.506 391.788 211.293 397.648C211.844 401.751 211.293 404.101 211.293 404.101C211.293 404.101 203.954 408.325 198.92 420.063C189.892 441.12 192.567 454.364 192.567 454.364C192.567 454.364 187.356 452.656 181.866 442.818C176.182 432.629 176.516 421.75 176.85 416.327C177.519 405.459 181.866 396.629 181.866 396.629C181.866 396.629 186.998 396.408 194.908 394.252C205.278 391.426 209.286 389.158 209.286 389.158Z" fill="#BB00C7" stroke="white" stroke-width="2"/>
<path d="M129.702 388.479C129.702 388.479 132.993 414.467 153.777 436.025C174.904 457.938 192.567 453.686 192.567 453.686C192.567 453.686 181.393 449.687 177.853 430.591C174.259 411.198 181.866 395.95 181.866 395.95C181.866 395.95 172.896 399.081 155.783 396.629C138.12 394.1 129.702 388.479 129.702 388.479Z" fill="#BB00C7"/>
<path d="M129.702 388.479C129.702 388.479 132.993 414.467 153.777 436.025C174.904 457.938 192.567 453.686 192.567 453.686C192.567 453.686 181.393 449.687 177.853 430.591C174.259 411.198 181.866 395.95 181.866 395.95C181.866 395.95 172.896 399.081 155.783 396.629C138.12 394.1 129.702 388.479 129.702 388.479Z" fill="#BB00C7" stroke="white" stroke-width="2"/>
<path d="M65.4981 302.215C65.4981 302.215 57.2674 345.026 79.5424 383.724C104.956 427.874 137.727 436.705 137.727 436.705C137.727 436.705 130.995 428.3 128.364 412.932C125.645 397.055 129.702 389.837 129.702 389.837C129.702 389.837 108.969 383.045 88.906 358.592C72.7587 336.173 76.8672 316.479 76.8672 316.479L65.4981 302.215Z" fill="#BB00C7"/>
<path d="M65.4981 302.215C65.4981 302.215 57.2674 345.026 79.5424 383.724C104.956 427.874 137.727 436.705 137.727 436.705C137.727 436.705 130.995 428.3 128.364 412.932C125.645 397.055 129.702 389.837 129.702 389.837C129.702 389.837 108.969 383.045 88.906 358.592C72.7587 336.173 76.8672 316.479 76.8672 316.479L65.4981 302.215Z" fill="#BB00C7" stroke="white" stroke-width="2"/>
<path d="M273.344 302.215C273.344 302.215 281.558 345.026 259.328 383.724C233.965 427.874 201.261 436.705 201.261 436.705C201.261 436.705 207.978 428.3 210.605 412.932C213.319 397.055 209.27 389.837 209.27 389.837C209.27 389.837 229.96 383.045 249.983 358.592C266.098 336.173 261.997 316.479 261.997 316.479L273.344 302.215Z" fill="#BB00C7"/>
<path d="M273.344 302.215C273.344 302.215 281.558 345.026 259.328 383.724C233.965 427.874 201.261 436.705 201.261 436.705C201.261 436.705 207.978 428.3 210.605 412.932C213.319 397.055 209.27 389.837 209.27 389.837C209.27 389.837 229.96 383.045 249.983 358.592C266.098 336.173 261.997 316.479 261.997 316.479L273.344 302.215Z" fill="#BB00C7" stroke="white" stroke-width="2"/>
<path d="M200.593 292.367L181.866 283.197C181.866 283.197 175.881 280.554 174.509 286.594C173.507 291.008 178.187 292.027 178.187 292.027C178.187 292.027 179.526 292.706 181.198 291.008C182.72 289.461 183.203 288.292 183.203 288.292L200.593 292.367Z" fill="#BB00C7"/>
<path d="M200.593 292.367L181.866 283.197C181.866 283.197 175.881 280.554 174.509 286.594C173.507 291.008 178.187 292.027 178.187 292.027C178.187 292.027 179.526 292.706 181.198 291.008C182.72 289.461 183.203 288.292 183.203 288.292L200.593 292.367Z" fill="#BB00C7" stroke="white" stroke-width="2"/>
<path d="M137.727 292.367L156.352 283.1C156.352 283.1 162.304 280.429 163.669 286.532C164.666 290.994 160.011 292.024 160.011 292.024C160.011 292.024 158.68 292.71 157.016 290.994C155.502 289.431 155.021 288.248 155.021 288.248L137.727 292.367Z" fill="#BB00C7"/>
<path d="M137.727 292.367L156.352 283.1C156.352 283.1 162.304 280.429 163.669 286.532C164.666 290.994 160.011 292.024 160.011 292.024C160.011 292.024 158.68 292.71 157.016 290.994C155.502 289.431 155.021 288.248 155.021 288.248L137.727 292.367Z" fill="#BB00C7" stroke="white" stroke-width="2"/>
</g>
<defs>
<clipPath id="clip0_1960_1102">
<rect width="343" height="455" fill="white"/>
</clipPath>
</defs>
</svg>
