<svg width="277" height="82" viewBox="0 0 277 82" fill="none" xmlns="http://www.w3.org/2000/svg">
<rect x="3" y="3" width="271" height="76" rx="20" fill="white" stroke="url(#paint0_linear_1243_457)" stroke-width="5"/>
<path d="M56.3129 41.5469H53.2021C53.1452 41.1444 53.0292 40.7869 52.854 40.4744C52.6789 40.1572 52.454 39.8873 52.1793 39.6648C51.9047 39.4422 51.5875 39.2718 51.2276 39.1534C50.8725 39.035 50.4866 38.9759 50.07 38.9759C49.3171 38.9759 48.6613 39.1629 48.1026 39.5369C47.5439 39.9062 47.1107 40.446 46.8029 41.1562C46.4951 41.8617 46.3413 42.7187 46.3413 43.7273C46.3413 44.7642 46.4951 45.6354 46.8029 46.3409C47.1154 47.0464 47.551 47.5791 48.1097 47.9389C48.6684 48.2988 49.3147 48.4787 50.0487 48.4787C50.4606 48.4787 50.8417 48.4242 51.1921 48.3153C51.5472 48.2064 51.8621 48.0478 52.1367 47.8395C52.4113 47.6264 52.6386 47.3684 52.8185 47.0653C53.0032 46.7623 53.131 46.4167 53.2021 46.0284L56.3129 46.0426C56.2324 46.7102 56.0311 47.3542 55.7092 47.9744C55.3919 48.59 54.9634 49.1416 54.4237 49.6293C53.8886 50.1122 53.2494 50.4957 52.506 50.7798C51.7674 51.0592 50.9317 51.1989 49.9989 51.1989C48.7016 51.1989 47.5415 50.9053 46.5188 50.3182C45.5008 49.7311 44.6959 48.8812 44.104 47.7685C43.5169 46.6558 43.2234 45.3087 43.2234 43.7273C43.2234 42.1411 43.5217 40.7917 44.1183 39.679C44.7148 38.5663 45.5245 37.7187 46.5472 37.1364C47.57 36.5492 48.7205 36.2557 49.9989 36.2557C50.8417 36.2557 51.623 36.3741 52.3427 36.6108C53.0671 36.8475 53.7087 37.1932 54.2674 37.6477C54.8261 38.0975 55.2807 38.6491 55.631 39.3026C55.9862 39.956 56.2134 40.7041 56.3129 41.5469ZM71.8846 43.7273C71.8846 45.3134 71.5839 46.6629 70.9826 47.7756C70.386 48.8883 69.5716 49.7382 68.5394 50.3253C67.512 50.9077 66.3567 51.1989 65.0735 51.1989C63.7809 51.1989 62.6209 50.9053 61.5934 50.3182C60.5659 49.7311 59.7539 48.8812 59.1573 47.7685C58.5607 46.6558 58.2624 45.3087 58.2624 43.7273C58.2624 42.1411 58.5607 40.7917 59.1573 39.679C59.7539 38.5663 60.5659 37.7187 61.5934 37.1364C62.6209 36.5492 63.7809 36.2557 65.0735 36.2557C66.3567 36.2557 67.512 36.5492 68.5394 37.1364C69.5716 37.7187 70.386 38.5663 70.9826 39.679C71.5839 40.7917 71.8846 42.1411 71.8846 43.7273ZM68.7667 43.7273C68.7667 42.6998 68.6128 41.8333 68.305 41.1278C68.002 40.4223 67.5735 39.8873 67.0195 39.5227C66.4656 39.1581 65.8169 38.9759 65.0735 38.9759C64.3301 38.9759 63.6815 39.1581 63.1275 39.5227C62.5735 39.8873 62.1426 40.4223 61.8349 41.1278C61.5318 41.8333 61.3803 42.6998 61.3803 43.7273C61.3803 44.7547 61.5318 45.6212 61.8349 46.3267C62.1426 47.0322 62.5735 47.5672 63.1275 47.9318C63.6815 48.2964 64.3301 48.4787 65.0735 48.4787C65.8169 48.4787 66.4656 48.2964 67.0195 47.9318C67.5735 47.5672 68.002 47.0322 68.305 46.3267C68.6128 45.6212 68.7667 44.7547 68.7667 43.7273ZM74.1626 36.4545H77.9553L81.9609 46.2273H82.1314L86.1371 36.4545H89.9297V51H86.9467V41.5327H86.826L83.0618 50.929H81.0305L77.2663 41.4972H77.1456V51H74.1626V36.4545ZM92.4634 51V36.4545H102.265V38.9901H95.5387V42.456H101.76V44.9915H95.5387V48.4645H102.293V51H92.4634ZM117.543 41.5469H114.433C114.376 41.1444 114.26 40.7869 114.085 40.4744C113.909 40.1572 113.684 39.8873 113.41 39.6648C113.135 39.4422 112.818 39.2718 112.458 39.1534C112.103 39.035 111.717 38.9759 111.3 38.9759C110.548 38.9759 109.892 39.1629 109.333 39.5369C108.774 39.9062 108.341 40.446 108.033 41.1562C107.726 41.8617 107.572 42.7187 107.572 43.7273C107.572 44.7642 107.726 45.6354 108.033 46.3409C108.346 47.0464 108.781 47.5791 109.34 47.9389C109.899 48.2988 110.545 48.4787 111.279 48.4787C111.691 48.4787 112.072 48.4242 112.423 48.3153C112.778 48.2064 113.093 48.0478 113.367 47.8395C113.642 47.6264 113.869 47.3684 114.049 47.0653C114.234 46.7623 114.362 46.4167 114.433 46.0284L117.543 46.0426C117.463 46.7102 117.262 47.3542 116.94 47.9744C116.622 48.59 116.194 49.1416 115.654 49.6293C115.119 50.1122 114.48 50.4957 113.737 50.7798C112.998 51.0592 112.162 51.1989 111.229 51.1989C109.932 51.1989 108.772 50.9053 107.749 50.3182C106.731 49.7311 105.926 48.8812 105.335 47.7685C104.747 46.6558 104.454 45.3087 104.454 43.7273C104.454 42.1411 104.752 40.7917 105.349 39.679C105.945 38.5663 106.755 37.7187 107.778 37.1364C108.8 36.5492 109.951 36.2557 111.229 36.2557C112.072 36.2557 112.853 36.3741 113.573 36.6108C114.298 36.8475 114.939 37.1932 115.498 37.6477C116.057 38.0975 116.511 38.6491 116.862 39.3026C117.217 39.956 117.444 40.7041 117.543 41.5469ZM119.749 51V36.4545H129.55V38.9901H122.824V42.456H129.045V44.9915H122.824V48.4645H129.578V51H119.749ZM139.131 51H135.835L140.857 36.4545H144.82L149.834 51H146.538L142.895 39.7784H142.781L139.131 51ZM138.925 45.2827H146.709V47.6832H138.925V45.2827ZM158.841 36.4545L162.357 47.5057H162.492L166.015 36.4545H169.424L164.409 51H160.446L155.425 36.4545H158.841ZM171.174 51V36.4545H180.975V38.9901H174.25V42.456H180.471V44.9915H174.25V48.4645H181.004V51H171.174ZM195.587 36.4545V51H192.93L186.602 41.8452H186.496V51H183.42V36.4545H186.119L192.398 45.6023H192.526V36.4545H195.587ZM203.284 51H198.127V36.4545H203.326C204.789 36.4545 206.049 36.7457 207.105 37.3281C208.161 37.9058 208.973 38.7367 209.541 39.821C210.114 40.9053 210.4 42.2027 210.4 43.7131C210.4 45.2282 210.114 46.5303 209.541 47.6193C208.973 48.7083 208.156 49.544 207.091 50.1264C206.03 50.7088 204.761 51 203.284 51ZM201.203 48.3651H203.156C204.065 48.3651 204.83 48.2041 205.45 47.8821C206.075 47.5554 206.544 47.0511 206.856 46.3693C207.173 45.6828 207.332 44.7973 207.332 43.7131C207.332 42.6383 207.173 41.7599 206.856 41.0781C206.544 40.3963 206.077 39.8944 205.457 39.5724C204.837 39.2505 204.072 39.0895 203.163 39.0895H201.203V48.3651ZM212.678 51V36.4545H222.479V38.9901H215.754V42.456H221.975V44.9915H215.754V48.4645H222.508V51H212.678ZM224.924 51V36.4545H230.663C231.761 36.4545 232.699 36.651 233.475 37.044C234.257 37.4323 234.851 37.9839 235.258 38.6989C235.67 39.4091 235.876 40.2448 235.876 41.206C235.876 42.1719 235.668 43.0028 235.251 43.6989C234.834 44.3902 234.231 44.9205 233.44 45.2898C232.654 45.6591 231.702 45.8438 230.585 45.8438H226.743V43.3722H230.088C230.675 43.3722 231.163 43.2917 231.551 43.1307C231.939 42.9697 232.228 42.7282 232.417 42.4062C232.611 42.0843 232.708 41.6842 232.708 41.206C232.708 40.723 232.611 40.3158 232.417 39.9844C232.228 39.6529 231.937 39.402 231.544 39.2315C231.155 39.0563 230.665 38.9688 230.074 38.9688H228V51H224.924ZM232.779 44.3807L236.395 51H233L229.463 44.3807H232.779Z" fill="url(#paint1_linear_1243_457)"/>
<defs>
<linearGradient id="paint0_linear_1243_457" x1="3" y1="41" x2="274" y2="41" gradientUnits="userSpaceOnUse">
<stop offset="0.1875" stop-color="#FF008A"/>
<stop offset="0.817708" stop-color="#FFC700"/>
</linearGradient>
<linearGradient id="paint1_linear_1243_457" x1="139.5" y1="32" x2="139.5" y2="56" gradientUnits="userSpaceOnUse">
<stop stop-color="#EF5781"/>
<stop offset="0.0001" stop-color="#F05E7E"/>
<stop offset="1" stop-color="#FBD54A"/>
</linearGradient>
</defs>
</svg>
