<svg width="140" height="140" viewBox="0 0 140 140" fill="none" xmlns="http://www.w3.org/2000/svg">
<circle cx="70" cy="70" r="64" stroke="url(#paint0_linear_1354_290)" stroke-width="12"/>
<path d="M45.7168 70.3534C46.5739 74.4775 48.1458 83.1526 48.1458 83.1526L48.0029 95.5255C48.0029 95.5255 46.3966 95.6354 45.7168 95.6676C38.6983 95.6676 33 89.996 33 83.0105C33 76.0247 38.6983 70.3534 45.7168 70.3534Z" fill="url(#paint1_linear_1354_290)"/>
<path d="M45.7168 70.3534C46.5739 74.4775 48.1458 83.1526 48.1458 83.1526L48.0029 95.5255C48.0029 95.5255 46.3966 95.6354 45.7168 95.6676C38.6983 95.6676 33 89.996 33 83.0105C33 76.0247 38.6983 70.3534 45.7168 70.3534Z" fill="url(#paint2_linear_1354_290)" stroke="white" stroke-width="0.5"/>
<path d="M46.8595 90.0008C46.1045 90.263 45.2933 90.4056 44.4487 90.4056C40.4169 90.4056 37.1433 87.1556 37.1433 83.1526C37.1433 79.1496 40.4169 75.8996 44.4487 75.8996C45.2933 75.8996 46.1045 76.0422 46.8595 76.3046V90.0008Z" fill="url(#paint3_linear_1354_290)"/>
<path d="M46.8595 90.0008C46.1045 90.263 45.2933 90.4056 44.4487 90.4056C40.4169 90.4056 37.1433 87.1556 37.1433 83.1526C37.1433 79.1496 40.4169 75.8996 44.4487 75.8996C45.2933 75.8996 46.1045 76.0422 46.8595 76.3046V90.0008Z" fill="url(#paint4_linear_1354_290)" stroke="white" stroke-width="0.5"/>
<path d="M93.2969 70.3534C92.4397 74.4775 90.8679 83.1526 90.8679 83.1526L91.0107 95.5255C91.0107 95.5255 92.6171 95.6354 93.2969 95.6676C100.315 95.6676 106.014 89.996 106.014 83.0105C106.014 76.0247 100.315 70.3534 93.2969 70.3534Z" fill="url(#paint5_linear_1354_290)"/>
<path d="M93.2969 70.3534C92.4397 74.4775 90.8679 83.1526 90.8679 83.1526L91.0107 95.5255C91.0107 95.5255 92.6171 95.6354 93.2969 95.6676C100.315 95.6676 106.014 89.996 106.014 83.0105C106.014 76.0247 100.315 70.3534 93.2969 70.3534Z" fill="url(#paint6_linear_1354_290)" stroke="white" stroke-width="0.5"/>
<path d="M92.1538 76.3046C92.9088 76.0422 93.72 75.8996 94.5646 75.8996C98.5964 75.8996 101.87 79.1496 101.87 83.1526C101.87 87.1556 98.5964 90.4056 94.5646 90.4056C93.72 90.4056 92.9088 90.263 92.1538 90.0008V76.3046Z" fill="url(#paint7_linear_1354_290)"/>
<path d="M92.1538 76.3046C92.9088 76.0422 93.72 75.8996 94.5646 75.8996C98.5964 75.8996 101.87 79.1496 101.87 83.1526C101.87 87.1556 98.5964 90.4056 94.5646 90.4056C93.72 90.4056 92.9088 90.263 92.1538 90.0008V76.3046Z" fill="url(#paint8_linear_1354_290)" stroke="white" stroke-width="0.5"/>
<path d="M63.0058 22C63.0058 22 65.4342 27.5712 62.4342 36.3639C61.1483 40.1325 58.1406 42.252 56.7188 44.47C54.8905 47.3219 54.8613 50.0165 54.8613 50.0165C54.8613 50.0165 54.4412 52.2845 55.4329 56.7005C56.251 60.3435 57.576 62.1049 57.576 62.1049C57.576 62.1049 58.7758 61.7081 60.7196 61.8915C63.3005 62.1347 64.3631 62.7449 64.3631 62.7449C64.3631 62.7449 73.2935 55.1361 73.4364 43.9011C73.6271 28.9063 63.0058 22 63.0058 22Z" fill="url(#paint9_linear_1354_290)"/>
<path d="M63.0058 22C63.0058 22 65.4342 27.5712 62.4342 36.3639C61.1483 40.1325 58.1406 42.252 56.7188 44.47C54.8905 47.3219 54.8613 50.0165 54.8613 50.0165C54.8613 50.0165 54.4412 52.2845 55.4329 56.7005C56.251 60.3435 57.576 62.1049 57.576 62.1049C57.576 62.1049 58.7758 61.7081 60.7196 61.8915C63.3005 62.1347 64.3631 62.7449 64.3631 62.7449C64.3631 62.7449 73.2935 55.1361 73.4364 43.9011C73.6271 28.9063 63.0058 22 63.0058 22Z" fill="url(#paint10_linear_1354_290)" stroke="white" stroke-width="0.5"/>
<path d="M63.2202 22.3555C63.2202 22.3555 75.1512 25.1286 79.2948 39.0659C82.3138 49.2206 75.7942 62.3181 75.7942 62.3181C75.7942 62.3181 74.7447 62.2683 72.5791 63.4559C70.0771 64.828 69.1499 66.229 69.1499 66.229C69.1499 66.229 68.6409 65.0691 66.9354 63.9535C65.3069 62.8886 64.1491 62.8159 64.1491 62.8159C64.1491 62.8159 72.7222 55.9185 73.4366 44.3279C73.1507 28.1154 63.2202 22.3555 63.2202 22.3555Z" fill="url(#paint11_linear_1354_290)"/>
<path d="M63.2202 22.3555C63.2202 22.3555 75.1512 25.1286 79.2948 39.0659C82.3138 49.2206 75.7942 62.3181 75.7942 62.3181C75.7942 62.3181 74.7447 62.2683 72.5791 63.4559C70.0771 64.828 69.1499 66.229 69.1499 66.229C69.1499 66.229 68.6409 65.0691 66.9354 63.9535C65.3069 62.8886 64.1491 62.8159 64.1491 62.8159C64.1491 62.8159 72.7222 55.9185 73.4366 44.3279C73.1507 28.1154 63.2202 22.3555 63.2202 22.3555Z" fill="url(#paint12_linear_1354_290)" stroke="white" stroke-width="0.5"/>
<path d="M81.4379 33.6616C81.4379 33.6616 82.3204 35.9842 81.7949 39.777C81.368 42.858 80.0089 43.9724 80.0089 43.9724L75.1509 62.247L79.2945 61.8915C79.2945 61.8915 87.6531 57.4116 88.0105 49.4476C87.9391 39.2791 81.4379 33.6616 81.4379 33.6616Z" fill="url(#paint13_linear_1354_290)"/>
<path d="M81.4379 33.6616C81.4379 33.6616 82.3204 35.9842 81.7949 39.777C81.368 42.858 80.0089 43.9724 80.0089 43.9724L75.1509 62.247L79.2945 61.8915C79.2945 61.8915 87.6531 57.4116 88.0105 49.4476C87.9391 39.2791 81.4379 33.6616 81.4379 33.6616Z" fill="url(#paint14_linear_1354_290)" stroke="white" stroke-width="0.5"/>
<path d="M81.4378 33.804C81.4378 33.804 89.0107 41.6256 87.5817 51.1541C85.5814 58.6915 79.2944 61.9625 79.2944 61.9625L81.8662 62.1759C81.8662 62.1759 91.7253 59.2605 92.0112 49.732C91.8529 39.2469 81.4378 33.804 81.4378 33.804Z" fill="url(#paint15_linear_1354_290)"/>
<path d="M81.4378 33.804C81.4378 33.804 89.0107 41.6256 87.5817 51.1541C85.5814 58.6915 79.2944 61.9625 79.2944 61.9625L81.8662 62.1759C81.8662 62.1759 91.7253 59.2605 92.0112 49.732C91.8529 39.2469 81.4378 33.804 81.4378 33.804Z" fill="url(#paint16_linear_1354_290)" stroke="white" stroke-width="0.5"/>
<path d="M56.7187 32.524C56.7187 32.524 54.1284 41.1597 52.5237 42.2241C48.286 45.035 46.3496 50.6967 46.1453 52.1496C44.5735 60.256 53.5037 63.6691 53.5037 63.6691C53.5037 63.6691 53.7331 63.2869 54.5039 62.958C55.0666 62.718 55.5756 62.8159 55.5756 62.8159C55.5756 62.8159 50.3603 55.1361 50.5745 52.8609C51.0137 48.199 53.9926 46.4916 54.9327 43.1901C56.4483 37.8671 56.7187 32.524 56.7187 32.524Z" fill="url(#paint17_linear_1354_290)"/>
<path d="M56.7187 32.524C56.7187 32.524 54.1284 41.1597 52.5237 42.2241C48.286 45.035 46.3496 50.6967 46.1453 52.1496C44.5735 60.256 53.5037 63.6691 53.5037 63.6691C53.5037 63.6691 53.7331 63.2869 54.5039 62.958C55.0666 62.718 55.5756 62.8159 55.5756 62.8159C55.5756 62.8159 50.3603 55.1361 50.5745 52.8609C51.0137 48.199 53.9926 46.4916 54.9327 43.1901C56.4483 37.8671 56.7187 32.524 56.7187 32.524Z" fill="url(#paint18_linear_1354_290)" stroke="white" stroke-width="0.5"/>
<path d="M56.7194 32.6661C56.7194 32.6661 56.2906 37.2881 54.4332 43.759C54.0023 45.2602 52.649 46.6854 52.0756 47.8832C50.8587 50.4253 50.5971 51.0136 50.5038 52.221C50.4324 53.1452 50.3219 54.3722 52.147 58.265C53.6557 61.4831 55.4335 62.6736 55.4335 62.6736C55.4335 62.6736 55.6656 62.2896 56.362 62.105C57.0946 61.9104 57.5765 62.105 57.5765 62.105C57.5765 62.105 55.4241 58.516 55.7191 50.8699C55.8392 47.761 58.7659 44.3525 59.0055 40.0615C59.2912 34.9416 56.7194 32.6661 56.7194 32.6661Z" fill="url(#paint19_linear_1354_290)"/>
<path d="M56.7194 32.6661C56.7194 32.6661 56.2906 37.2881 54.4332 43.759C54.0023 45.2602 52.649 46.6854 52.0756 47.8832C50.8587 50.4253 50.5971 51.0136 50.5038 52.221C50.4324 53.1452 50.3219 54.3722 52.147 58.265C53.6557 61.4831 55.4335 62.6736 55.4335 62.6736C55.4335 62.6736 55.6656 62.2896 56.362 62.105C57.0946 61.9104 57.5765 62.105 57.5765 62.105C57.5765 62.105 55.4241 58.516 55.7191 50.8699C55.8392 47.761 58.7659 44.3525 59.0055 40.0615C59.2912 34.9416 56.7194 32.6661 56.7194 32.6661Z" fill="url(#paint20_linear_1354_290)" stroke="white" stroke-width="0.5"/>
<path d="M60.8624 80.664C60.8624 80.664 57.3593 81.0905 52.9986 83.4371C49.8664 85.1226 49.3524 88.2725 49.3524 88.2725C49.3524 88.2725 45.0138 84.2993 42.5121 76.1362C41.8745 74.0552 41.3561 71.7023 41.0595 69.0734C39.3743 54.1414 44.634 46.4611 44.634 46.4611C44.634 46.4611 43.1299 51.2015 44.7771 58.5495C46.2754 65.2335 49.3524 67.509 49.3524 67.509C49.3524 67.509 46.8039 69.673 47.2077 75.0465C47.5664 79.8175 50.4963 82.726 50.4963 82.726C50.4963 82.726 52.5696 81.5171 55.0716 81.0905C58.5423 80.4987 60.8624 80.664 60.8624 80.664Z" fill="url(#paint21_linear_1354_290)"/>
<path d="M60.8624 80.664C60.8624 80.664 57.3593 81.0905 52.9986 83.4371C49.8664 85.1226 49.3524 88.2725 49.3524 88.2725C49.3524 88.2725 45.0138 84.2993 42.5121 76.1362C41.8745 74.0552 41.3561 71.7023 41.0595 69.0734C39.3743 54.1414 44.634 46.4611 44.634 46.4611C44.634 46.4611 43.1299 51.2015 44.7771 58.5495C46.2754 65.2335 49.3524 67.509 49.3524 67.509C49.3524 67.509 46.8039 69.673 47.2077 75.0465C47.5664 79.8175 50.4963 82.726 50.4963 82.726C50.4963 82.726 52.5696 81.5171 55.0716 81.0905C58.5423 80.4987 60.8624 80.664 60.8624 80.664Z" fill="url(#paint22_linear_1354_290)" stroke="white" stroke-width="0.5"/>
<path d="M44.5739 46.4611C44.5739 46.4611 42.8887 50.8159 44.7167 58.976C46.0323 64.8477 49.289 67.509 49.289 67.509C49.289 67.509 49.7482 66.4792 51.2179 65.1625C52.606 63.9192 53.5757 63.6691 53.5757 63.6691C53.5757 63.6691 49.5749 61.9626 47.2888 58.1229C44.2853 53.0783 44.5739 46.4611 44.5739 46.4611Z" fill="url(#paint23_linear_1354_290)"/>
<path d="M44.5739 46.4611C44.5739 46.4611 42.8887 50.8159 44.7167 58.976C46.0323 64.8477 49.289 67.509 49.289 67.509C49.289 67.509 49.7482 66.4792 51.2179 65.1625C52.606 63.9192 53.5757 63.6691 53.5757 63.6691C53.5757 63.6691 49.5749 61.9626 47.2888 58.1229C44.2853 53.0783 44.5739 46.4611 44.5739 46.4611Z" fill="url(#paint24_linear_1354_290)" stroke="white" stroke-width="0.5"/>
<path d="M93.5907 46.4611C93.5907 46.4611 95.27 50.7448 93.4404 58.905C92.124 64.7766 88.8715 67.509 88.8715 67.509C88.8715 67.509 87.2671 65.4837 85.7961 64.167C84.4072 62.9237 81.8667 62.247 81.8667 62.247C81.8667 62.247 85.163 61.1581 88.4396 57.9805C94.0119 52.5765 93.5907 46.4611 93.5907 46.4611Z" fill="url(#paint25_linear_1354_290)"/>
<path d="M93.5907 46.4611C93.5907 46.4611 95.27 50.7448 93.4404 58.905C92.124 64.7766 88.8715 67.509 88.8715 67.509C88.8715 67.509 87.2671 65.4837 85.7961 64.167C84.4072 62.9237 81.8667 62.247 81.8667 62.247C81.8667 62.247 85.163 61.1581 88.4396 57.9805C94.0119 52.5765 93.5907 46.4611 93.5907 46.4611Z" fill="url(#paint26_linear_1354_290)" stroke="white" stroke-width="0.5"/>
<path d="M77.3657 80.664C77.3657 80.664 80.8664 81.0905 85.2242 83.4371C88.3542 85.1226 88.8677 88.2725 88.8677 88.2725C88.8677 88.2725 95.6955 82.0155 97.1552 69.0734C98.8391 54.1414 93.5832 46.4611 93.5832 46.4611C93.5832 46.4611 95.0862 51.2015 93.4401 58.5495C91.9429 65.2335 88.8677 67.509 88.8677 67.509C88.8677 67.509 91.4147 69.673 91.0111 75.0465C90.6527 79.8175 87.7246 82.726 87.7246 82.726C87.7246 82.726 85.653 81.5171 83.1526 81.0905C79.6843 80.4987 77.3657 80.664 77.3657 80.664Z" fill="url(#paint27_linear_1354_290)"/>
<path d="M77.3657 80.664C77.3657 80.664 80.8664 81.0905 85.2242 83.4371C88.3542 85.1226 88.8677 88.2725 88.8677 88.2725C88.8677 88.2725 95.6955 82.0155 97.1552 69.0734C98.8391 54.1414 93.5832 46.4611 93.5832 46.4611C93.5832 46.4611 95.0862 51.2015 93.4401 58.5495C91.9429 65.2335 88.8677 67.509 88.8677 67.509C88.8677 67.509 91.4147 69.673 91.0111 75.0465C90.6527 79.8175 87.7246 82.726 87.7246 82.726C87.7246 82.726 85.653 81.5171 83.1526 81.0905C79.6843 80.4987 77.3657 80.664 77.3657 80.664Z" fill="url(#paint28_linear_1354_290)" stroke="white" stroke-width="0.5"/>
<path d="M92.5833 83.4371C92.5833 83.4371 96.478 77.5463 97.2985 67.509C98.2878 55.4081 95.2982 50.2299 95.2982 50.2299C95.2982 50.2299 97.5036 55.456 95.7267 65.8025C94.6459 72.0953 91.0115 75.1886 91.0115 75.1886C91.0115 75.1886 91.2517 76.1266 90.1543 78.8861C89.4419 80.6775 88.2966 82.015 88.2966 82.015" fill="url(#paint29_linear_1354_290)"/>
<path d="M92.5833 83.4371C92.5833 83.4371 96.478 77.5463 97.2985 67.509C98.2878 55.4081 95.2982 50.2299 95.2982 50.2299C95.2982 50.2299 97.5036 55.456 95.7267 65.8025C94.6459 72.0953 91.0115 75.1886 91.0115 75.1886C91.0115 75.1886 91.2517 76.1266 90.1543 78.8861C89.4419 80.6775 88.2966 82.015 88.2966 82.015" fill="url(#paint30_linear_1354_290)"/>
<path d="M92.5833 83.4371C92.5833 83.4371 96.478 77.5463 97.2985 67.509C98.2878 55.4081 95.2982 50.2299 95.2982 50.2299C95.2982 50.2299 97.5036 55.456 95.7267 65.8025C94.6459 72.0953 91.0115 75.1886 91.0115 75.1886C91.0115 75.1886 91.2517 76.1266 90.1543 78.8861C89.4419 80.6775 88.2966 82.015 88.2966 82.015" stroke="white" stroke-width="0.5"/>
<path d="M78.7591 77.9618C81.1068 77.9618 83.0099 76.0676 83.0099 73.7309C83.0099 71.3942 81.1068 69.5 78.7591 69.5C76.4115 69.5 74.5083 71.3942 74.5083 73.7309C74.5083 76.0676 76.4115 77.9618 78.7591 77.9618Z" fill="url(#paint31_linear_1354_290)"/>
<path d="M78.7591 77.9618C81.1068 77.9618 83.0099 76.0676 83.0099 73.7309C83.0099 71.3942 81.1068 69.5 78.7591 69.5C76.4115 69.5 74.5083 71.3942 74.5083 73.7309C74.5083 76.0676 76.4115 77.9618 78.7591 77.9618Z" fill="url(#paint32_linear_1354_290)" stroke="white" stroke-width="0.5"/>
<path d="M59.3625 78.0329C57.0346 78.0329 55.1474 76.1228 55.1474 73.7665C55.1474 71.4102 57.0346 69.5 59.3625 69.5C61.6905 69.5 63.5776 71.4102 63.5776 73.7665C63.5776 76.1228 61.6905 78.0329 59.3625 78.0329Z" fill="url(#paint33_linear_1354_290)"/>
<path d="M59.3625 78.0329C57.0346 78.0329 55.1474 76.1228 55.1474 73.7665C55.1474 71.4102 57.0346 69.5 59.3625 69.5C61.6905 69.5 63.5776 71.4102 63.5776 73.7665C63.5776 76.1228 61.6905 78.0329 59.3625 78.0329Z" fill="url(#paint34_linear_1354_290)" stroke="white" stroke-width="0.5"/>
<path d="M56.1475 90.1214C56.1475 90.1214 60.2563 94.2455 68.7214 94.2455C77.5042 94.2455 82.0193 90.1214 82.0193 90.1214C82.0193 90.1214 80.7495 92.5347 76.1512 94.6721C71.9792 96.6115 68.8642 96.2365 68.8642 96.2365C68.8642 96.2365 66.2986 96.5351 62.7201 94.8145C57.8206 92.4583 56.1475 90.1214 56.1475 90.1214Z" fill="url(#paint35_linear_1354_290)"/>
<path d="M56.1475 90.1214C56.1475 90.1214 60.2563 94.2455 68.7214 94.2455C77.5042 94.2455 82.0193 90.1214 82.0193 90.1214C82.0193 90.1214 80.7495 92.5347 76.1512 94.6721C71.9792 96.6115 68.8642 96.2365 68.8642 96.2365C68.8642 96.2365 66.2986 96.5351 62.7201 94.8145C57.8206 92.4583 56.1475 90.1214 56.1475 90.1214Z" fill="url(#paint36_linear_1354_290)" stroke="white" stroke-width="0.5"/>
<path d="M77.58 103.347C77.58 103.347 77.8405 103.898 78.0088 105.125C78.1264 105.984 78.0088 106.476 78.0088 106.476C78.0088 106.476 76.4407 107.36 75.3653 109.818C73.4364 114.227 74.008 117 74.008 117C74.008 117 72.8946 116.642 71.7218 114.582C70.5073 112.449 70.5787 110.171 70.6501 109.036C70.7929 106.76 71.7218 104.912 71.7218 104.912C71.7218 104.912 72.8181 104.865 74.5081 104.414C76.7237 103.822 77.58 103.347 77.58 103.347Z" fill="url(#paint37_linear_1354_290)"/>
<path d="M77.58 103.347C77.58 103.347 77.8405 103.898 78.0088 105.125C78.1264 105.984 78.0088 106.476 78.0088 106.476C78.0088 106.476 76.4407 107.36 75.3653 109.818C73.4364 114.227 74.008 117 74.008 117C74.008 117 72.8946 116.642 71.7218 114.582C70.5073 112.449 70.5787 110.171 70.6501 109.036C70.7929 106.76 71.7218 104.912 71.7218 104.912C71.7218 104.912 72.8181 104.865 74.5081 104.414C76.7237 103.822 77.58 103.347 77.58 103.347Z" fill="url(#paint38_linear_1354_290)" stroke="white" stroke-width="0.5"/>
<path d="M60.5769 103.205C60.5769 103.205 61.28 108.646 65.7205 113.16C70.2343 117.748 74.008 116.858 74.008 116.858C74.008 116.858 71.6208 116.021 70.8644 112.022C70.0966 107.962 71.7219 104.769 71.7219 104.769C71.7219 104.769 69.8053 105.425 66.1492 104.912C62.3755 104.382 60.5769 103.205 60.5769 103.205Z" fill="url(#paint39_linear_1354_290)"/>
<path d="M60.5769 103.205C60.5769 103.205 61.28 108.646 65.7205 113.16C70.2343 117.748 74.008 116.858 74.008 116.858C74.008 116.858 71.6208 116.021 70.8644 112.022C70.0966 107.962 71.7219 104.769 71.7219 104.769C71.7219 104.769 69.8053 105.425 66.1492 104.912C62.3755 104.382 60.5769 103.205 60.5769 103.205Z" fill="url(#paint40_linear_1354_290)" stroke="white" stroke-width="0.5"/>
<path d="M46.8598 85.1436C46.8598 85.1436 45.1013 94.1071 49.8603 102.21C55.2899 111.454 62.2915 113.302 62.2915 113.302C62.2915 113.302 60.8531 111.543 60.2909 108.325C59.71 105.001 60.5768 103.49 60.5768 103.49C60.5768 103.49 56.1473 102.067 51.8609 96.9476C48.411 92.2534 49.2888 88.1301 49.2888 88.1301L46.8598 85.1436Z" fill="url(#paint41_linear_1354_290)"/>
<path d="M46.8598 85.1436C46.8598 85.1436 45.1013 94.1071 49.8603 102.21C55.2899 111.454 62.2915 113.302 62.2915 113.302C62.2915 113.302 60.8531 111.543 60.2909 108.325C59.71 105.001 60.5768 103.49 60.5768 103.49C60.5768 103.49 56.1473 102.067 51.8609 96.9476C48.411 92.2534 49.2888 88.1301 49.2888 88.1301L46.8598 85.1436Z" fill="url(#paint42_linear_1354_290)" stroke="white" stroke-width="0.5"/>
<path d="M91.2656 85.1436C91.2656 85.1436 93.0206 94.1071 88.2712 102.21C82.8524 111.454 75.8652 113.302 75.8652 113.302C75.8652 113.302 77.3004 111.543 77.8615 108.325C78.4413 105.001 77.5764 103.49 77.5764 103.49C77.5764 103.49 81.9968 102.067 86.2747 96.9476C89.7176 92.2534 88.8414 88.1301 88.8414 88.1301L91.2656 85.1436Z" fill="url(#paint43_linear_1354_290)"/>
<path d="M91.2656 85.1436C91.2656 85.1436 93.0206 94.1071 88.2712 102.21C82.8524 111.454 75.8652 113.302 75.8652 113.302C75.8652 113.302 77.3004 111.543 77.8615 108.325C78.4413 105.001 77.5764 103.49 77.5764 103.49C77.5764 103.49 81.9968 102.067 86.2747 96.9476C89.7176 92.2534 88.8414 88.1301 88.8414 88.1301L91.2656 85.1436Z" fill="url(#paint44_linear_1354_290)" stroke="white" stroke-width="0.5"/>
<path d="M75.7226 83.0815L71.7218 81.1616C71.7218 81.1616 70.4431 80.6083 70.15 81.8729C69.9357 82.797 70.9357 83.0105 70.9357 83.0105C70.9357 83.0105 71.2216 83.1526 71.5789 82.797C71.9042 82.4732 72.0074 82.2284 72.0074 82.2284L75.7226 83.0815Z" fill="url(#paint45_linear_1354_290)"/>
<path d="M75.7226 83.0815L71.7218 81.1616C71.7218 81.1616 70.4431 80.6083 70.15 81.8729C69.9357 82.797 70.9357 83.0105 70.9357 83.0105C70.9357 83.0105 71.2216 83.1526 71.5789 82.797C71.9042 82.4732 72.0074 82.2284 72.0074 82.2284L75.7226 83.0815Z" fill="url(#paint46_linear_1354_290)" stroke="white" stroke-width="0.5"/>
<path d="M62.2917 83.0816L66.2709 81.1414C66.2709 81.1414 67.5426 80.5821 67.8341 81.8599C68.0473 82.7942 67.0526 83.0098 67.0526 83.0098C67.0526 83.0098 66.7683 83.1534 66.4129 82.7942C66.0893 82.4669 65.9866 82.2191 65.9866 82.2191L62.2917 83.0816Z" fill="url(#paint47_linear_1354_290)"/>
<path d="M62.2917 83.0816L66.2709 81.1414C66.2709 81.1414 67.5426 80.5821 67.8341 81.8599C68.0473 82.7942 67.0526 83.0098 67.0526 83.0098C67.0526 83.0098 66.7683 83.1534 66.4129 82.7942C66.0893 82.4669 65.9866 82.2191 65.9866 82.2191L62.2917 83.0816Z" fill="url(#paint48_linear_1354_290)" stroke="white" stroke-width="0.5"/>
<defs>
<linearGradient id="paint0_linear_1354_290" x1="70" y1="0" x2="70" y2="140" gradientUnits="userSpaceOnUse">
<stop offset="0.442948" stop-color="#FF008A"/>
<stop offset="1" stop-color="#FFC700"/>
</linearGradient>
<linearGradient id="paint1_linear_1354_290" x1="40.5729" y1="70.3534" x2="40.5729" y2="96.1912" gradientUnits="userSpaceOnUse">
<stop offset="0.219791" stop-color="#FFC700"/>
<stop offset="0.620833" stop-color="#FF008A"/>
<stop offset="1" stop-color="#7D3098"/>
</linearGradient>
<linearGradient id="paint2_linear_1354_290" x1="40.5729" y1="70.3534" x2="40.5729" y2="96.1912" gradientUnits="userSpaceOnUse">
<stop offset="0.219791" stop-color="#FFC700"/>
<stop offset="0.620833" stop-color="#FF008A"/>
<stop offset="1" stop-color="#7D3098"/>
</linearGradient>
<linearGradient id="paint3_linear_1354_290" x1="42.0014" y1="75.8996" x2="42.0014" y2="90.7056" gradientUnits="userSpaceOnUse">
<stop offset="0.219791" stop-color="#FFC700"/>
<stop offset="0.620833" stop-color="#FF008A"/>
<stop offset="1" stop-color="#7D3098"/>
</linearGradient>
<linearGradient id="paint4_linear_1354_290" x1="42.0014" y1="75.8996" x2="42.0014" y2="90.7056" gradientUnits="userSpaceOnUse">
<stop offset="0.219791" stop-color="#FFC700"/>
<stop offset="0.620833" stop-color="#FF008A"/>
<stop offset="1" stop-color="#7D3098"/>
</linearGradient>
<linearGradient id="paint5_linear_1354_290" x1="98.4408" y1="70.3534" x2="98.4408" y2="96.1912" gradientUnits="userSpaceOnUse">
<stop offset="0.219791" stop-color="#FFC700"/>
<stop offset="0.620833" stop-color="#FF008A"/>
<stop offset="1" stop-color="#7D3098"/>
</linearGradient>
<linearGradient id="paint6_linear_1354_290" x1="98.4408" y1="70.3534" x2="98.4408" y2="96.1912" gradientUnits="userSpaceOnUse">
<stop offset="0.219791" stop-color="#FFC700"/>
<stop offset="0.620833" stop-color="#FF008A"/>
<stop offset="1" stop-color="#7D3098"/>
</linearGradient>
<linearGradient id="paint7_linear_1354_290" x1="97.0119" y1="75.8996" x2="97.0119" y2="90.7056" gradientUnits="userSpaceOnUse">
<stop offset="0.219791" stop-color="#FFC700"/>
<stop offset="0.620833" stop-color="#FF008A"/>
<stop offset="1" stop-color="#7D3098"/>
</linearGradient>
<linearGradient id="paint8_linear_1354_290" x1="97.0119" y1="75.8996" x2="97.0119" y2="90.7056" gradientUnits="userSpaceOnUse">
<stop offset="0.219791" stop-color="#FFC700"/>
<stop offset="0.620833" stop-color="#FF008A"/>
<stop offset="1" stop-color="#7D3098"/>
</linearGradient>
<linearGradient id="paint9_linear_1354_290" x1="64.1059" y1="22" x2="64.1059" y2="63.5877" gradientUnits="userSpaceOnUse">
<stop offset="0.219791" stop-color="#FFC700"/>
<stop offset="0.620833" stop-color="#FF008A"/>
<stop offset="1" stop-color="#7D3098"/>
</linearGradient>
<linearGradient id="paint10_linear_1354_290" x1="64.1059" y1="22" x2="64.1059" y2="63.5877" gradientUnits="userSpaceOnUse">
<stop offset="0.219791" stop-color="#FFC700"/>
<stop offset="0.620833" stop-color="#FF008A"/>
<stop offset="1" stop-color="#7D3098"/>
</linearGradient>
<linearGradient id="paint11_linear_1354_290" x1="71.6565" y1="22.3555" x2="71.6565" y2="67.1365" gradientUnits="userSpaceOnUse">
<stop offset="0.219791" stop-color="#FFC700"/>
<stop offset="0.620833" stop-color="#FF008A"/>
<stop offset="1" stop-color="#7D3098"/>
</linearGradient>
<linearGradient id="paint12_linear_1354_290" x1="71.6565" y1="22.3555" x2="71.6565" y2="67.1365" gradientUnits="userSpaceOnUse">
<stop offset="0.219791" stop-color="#FFC700"/>
<stop offset="0.620833" stop-color="#FF008A"/>
<stop offset="1" stop-color="#7D3098"/>
</linearGradient>
<linearGradient id="paint13_linear_1354_290" x1="81.5807" y1="33.6616" x2="81.5807" y2="62.8383" gradientUnits="userSpaceOnUse">
<stop offset="0.219791" stop-color="#FFC700"/>
<stop offset="0.620833" stop-color="#FF008A"/>
<stop offset="1" stop-color="#7D3098"/>
</linearGradient>
<linearGradient id="paint14_linear_1354_290" x1="81.5807" y1="33.6616" x2="81.5807" y2="62.8383" gradientUnits="userSpaceOnUse">
<stop offset="0.219791" stop-color="#FFC700"/>
<stop offset="0.620833" stop-color="#FF008A"/>
<stop offset="1" stop-color="#7D3098"/>
</linearGradient>
<linearGradient id="paint15_linear_1354_290" x1="85.6528" y1="33.804" x2="85.6528" y2="62.7628" gradientUnits="userSpaceOnUse">
<stop offset="0.219791" stop-color="#FFC700"/>
<stop offset="0.620833" stop-color="#FF008A"/>
<stop offset="1" stop-color="#7D3098"/>
</linearGradient>
<linearGradient id="paint16_linear_1354_290" x1="85.6528" y1="33.804" x2="85.6528" y2="62.7628" gradientUnits="userSpaceOnUse">
<stop offset="0.219791" stop-color="#FFC700"/>
<stop offset="0.620833" stop-color="#FF008A"/>
<stop offset="1" stop-color="#7D3098"/>
</linearGradient>
<linearGradient id="paint17_linear_1354_290" x1="51.3392" y1="32.524" x2="51.3392" y2="64.3133" gradientUnits="userSpaceOnUse">
<stop offset="0.219791" stop-color="#FFC700"/>
<stop offset="0.620833" stop-color="#FF008A"/>
<stop offset="1" stop-color="#7D3098"/>
</linearGradient>
<linearGradient id="paint18_linear_1354_290" x1="51.3392" y1="32.524" x2="51.3392" y2="64.3133" gradientUnits="userSpaceOnUse">
<stop offset="0.219791" stop-color="#FFC700"/>
<stop offset="0.620833" stop-color="#FF008A"/>
<stop offset="1" stop-color="#7D3098"/>
</linearGradient>
<linearGradient id="paint19_linear_1354_290" x1="54.7498" y1="32.6661" x2="54.7498" y2="63.2943" gradientUnits="userSpaceOnUse">
<stop offset="0.219791" stop-color="#FFC700"/>
<stop offset="0.620833" stop-color="#FF008A"/>
<stop offset="1" stop-color="#7D3098"/>
</linearGradient>
<linearGradient id="paint20_linear_1354_290" x1="54.7498" y1="32.6661" x2="54.7498" y2="63.2943" gradientUnits="userSpaceOnUse">
<stop offset="0.219791" stop-color="#FFC700"/>
<stop offset="0.620833" stop-color="#FF008A"/>
<stop offset="1" stop-color="#7D3098"/>
</linearGradient>
<linearGradient id="paint21_linear_1354_290" x1="50.7945" y1="46.4611" x2="50.7945" y2="89.1374" gradientUnits="userSpaceOnUse">
<stop offset="0.219791" stop-color="#FFC700"/>
<stop offset="0.620833" stop-color="#FF008A"/>
<stop offset="1" stop-color="#7D3098"/>
</linearGradient>
<linearGradient id="paint22_linear_1354_290" x1="50.7945" y1="46.4611" x2="50.7945" y2="89.1374" gradientUnits="userSpaceOnUse">
<stop offset="0.219791" stop-color="#FFC700"/>
<stop offset="0.620833" stop-color="#FF008A"/>
<stop offset="1" stop-color="#7D3098"/>
</linearGradient>
<linearGradient id="paint23_linear_1354_290" x1="48.7206" y1="46.4611" x2="48.7206" y2="67.9444" gradientUnits="userSpaceOnUse">
<stop offset="0.219791" stop-color="#FFC700"/>
<stop offset="0.620833" stop-color="#FF008A"/>
<stop offset="1" stop-color="#7D3098"/>
</linearGradient>
<linearGradient id="paint24_linear_1354_290" x1="48.7206" y1="46.4611" x2="48.7206" y2="67.9444" gradientUnits="userSpaceOnUse">
<stop offset="0.219791" stop-color="#FFC700"/>
<stop offset="0.620833" stop-color="#FF008A"/>
<stop offset="1" stop-color="#7D3098"/>
</linearGradient>
<linearGradient id="paint25_linear_1354_290" x1="88.0806" y1="46.4611" x2="88.0806" y2="67.9444" gradientUnits="userSpaceOnUse">
<stop offset="0.219791" stop-color="#FFC700"/>
<stop offset="0.620833" stop-color="#FF008A"/>
<stop offset="1" stop-color="#7D3098"/>
</linearGradient>
<linearGradient id="paint26_linear_1354_290" x1="88.0806" y1="46.4611" x2="88.0806" y2="67.9444" gradientUnits="userSpaceOnUse">
<stop offset="0.219791" stop-color="#FFC700"/>
<stop offset="0.620833" stop-color="#FF008A"/>
<stop offset="1" stop-color="#7D3098"/>
</linearGradient>
<linearGradient id="paint27_linear_1354_290" x1="87.4268" y1="46.4611" x2="87.4268" y2="89.1374" gradientUnits="userSpaceOnUse">
<stop offset="0.219791" stop-color="#FFC700"/>
<stop offset="0.620833" stop-color="#FF008A"/>
<stop offset="1" stop-color="#7D3098"/>
</linearGradient>
<linearGradient id="paint28_linear_1354_290" x1="87.4268" y1="46.4611" x2="87.4268" y2="89.1374" gradientUnits="userSpaceOnUse">
<stop offset="0.219791" stop-color="#FFC700"/>
<stop offset="0.620833" stop-color="#FF008A"/>
<stop offset="1" stop-color="#7D3098"/>
</linearGradient>
<linearGradient id="paint29_linear_1354_290" x1="92.8979" y1="50.2299" x2="92.8979" y2="84.124" gradientUnits="userSpaceOnUse">
<stop offset="0.219791" stop-color="#FFC700"/>
<stop offset="0.620833" stop-color="#FF008A"/>
<stop offset="1" stop-color="#7D3098"/>
</linearGradient>
<linearGradient id="paint30_linear_1354_290" x1="92.8979" y1="50.2299" x2="92.8979" y2="84.124" gradientUnits="userSpaceOnUse">
<stop offset="0.219791" stop-color="#FFC700"/>
<stop offset="0.620833" stop-color="#FF008A"/>
<stop offset="1" stop-color="#7D3098"/>
</linearGradient>
<linearGradient id="paint31_linear_1354_290" x1="78.7591" y1="69.5" x2="78.7591" y2="78.1369" gradientUnits="userSpaceOnUse">
<stop offset="0.219791" stop-color="#FFC700"/>
<stop offset="0.620833" stop-color="#FF008A"/>
<stop offset="1" stop-color="#7D3098"/>
</linearGradient>
<linearGradient id="paint32_linear_1354_290" x1="78.7591" y1="69.5" x2="78.7591" y2="78.1369" gradientUnits="userSpaceOnUse">
<stop offset="0.219791" stop-color="#FFC700"/>
<stop offset="0.620833" stop-color="#FF008A"/>
<stop offset="1" stop-color="#7D3098"/>
</linearGradient>
<linearGradient id="paint33_linear_1354_290" x1="59.3625" y1="69.5" x2="59.3625" y2="78.2094" gradientUnits="userSpaceOnUse">
<stop offset="0.219791" stop-color="#FFC700"/>
<stop offset="0.620833" stop-color="#FF008A"/>
<stop offset="1" stop-color="#7D3098"/>
</linearGradient>
<linearGradient id="paint34_linear_1354_290" x1="59.3625" y1="69.5" x2="59.3625" y2="78.2094" gradientUnits="userSpaceOnUse">
<stop offset="0.219791" stop-color="#FFC700"/>
<stop offset="0.620833" stop-color="#FF008A"/>
<stop offset="1" stop-color="#7D3098"/>
</linearGradient>
<linearGradient id="paint35_linear_1354_290" x1="69.0834" y1="90.1214" x2="69.0834" y2="96.3928" gradientUnits="userSpaceOnUse">
<stop offset="0.219791" stop-color="#FFC700"/>
<stop offset="0.620833" stop-color="#FF008A"/>
<stop offset="1" stop-color="#7D3098"/>
</linearGradient>
<linearGradient id="paint36_linear_1354_290" x1="69.0834" y1="90.1214" x2="69.0834" y2="96.3928" gradientUnits="userSpaceOnUse">
<stop offset="0.219791" stop-color="#FFC700"/>
<stop offset="0.620833" stop-color="#FF008A"/>
<stop offset="1" stop-color="#7D3098"/>
</linearGradient>
<linearGradient id="paint37_linear_1354_290" x1="74.3388" y1="103.347" x2="74.3388" y2="117.282" gradientUnits="userSpaceOnUse">
<stop offset="0.219791" stop-color="#FFC700"/>
<stop offset="0.620833" stop-color="#FF008A"/>
<stop offset="1" stop-color="#7D3098"/>
</linearGradient>
<linearGradient id="paint38_linear_1354_290" x1="74.3388" y1="103.347" x2="74.3388" y2="117.282" gradientUnits="userSpaceOnUse">
<stop offset="0.219791" stop-color="#FFC700"/>
<stop offset="0.620833" stop-color="#FF008A"/>
<stop offset="1" stop-color="#7D3098"/>
</linearGradient>
<linearGradient id="paint39_linear_1354_290" x1="67.2925" y1="103.205" x2="67.2925" y2="117.211" gradientUnits="userSpaceOnUse">
<stop offset="0.219791" stop-color="#FFC700"/>
<stop offset="0.620833" stop-color="#FF008A"/>
<stop offset="1" stop-color="#7D3098"/>
</linearGradient>
<linearGradient id="paint40_linear_1354_290" x1="67.2925" y1="103.205" x2="67.2925" y2="117.211" gradientUnits="userSpaceOnUse">
<stop offset="0.219791" stop-color="#FFC700"/>
<stop offset="0.620833" stop-color="#FF008A"/>
<stop offset="1" stop-color="#7D3098"/>
</linearGradient>
<linearGradient id="paint41_linear_1354_290" x1="54.4169" y1="85.1436" x2="54.4169" y2="113.885" gradientUnits="userSpaceOnUse">
<stop offset="0.219791" stop-color="#FFC700"/>
<stop offset="0.620833" stop-color="#FF008A"/>
<stop offset="1" stop-color="#7D3098"/>
</linearGradient>
<linearGradient id="paint42_linear_1354_290" x1="54.4169" y1="85.1436" x2="54.4169" y2="113.885" gradientUnits="userSpaceOnUse">
<stop offset="0.219791" stop-color="#FFC700"/>
<stop offset="0.620833" stop-color="#FF008A"/>
<stop offset="1" stop-color="#7D3098"/>
</linearGradient>
<linearGradient id="paint43_linear_1354_290" x1="83.7239" y1="85.1436" x2="83.7239" y2="113.885" gradientUnits="userSpaceOnUse">
<stop offset="0.219791" stop-color="#FFC700"/>
<stop offset="0.620833" stop-color="#FF008A"/>
<stop offset="1" stop-color="#7D3098"/>
</linearGradient>
<linearGradient id="paint44_linear_1354_290" x1="83.7239" y1="85.1436" x2="83.7239" y2="113.885" gradientUnits="userSpaceOnUse">
<stop offset="0.219791" stop-color="#FFC700"/>
<stop offset="0.620833" stop-color="#FF008A"/>
<stop offset="1" stop-color="#7D3098"/>
</linearGradient>
<linearGradient id="paint45_linear_1354_290" x1="72.9212" y1="81.0411" x2="72.9212" y2="83.1237" gradientUnits="userSpaceOnUse">
<stop offset="0.219791" stop-color="#FFC700"/>
<stop offset="0.620833" stop-color="#FF008A"/>
<stop offset="1" stop-color="#7D3098"/>
</linearGradient>
<linearGradient id="paint46_linear_1354_290" x1="72.9212" y1="81.0411" x2="72.9212" y2="83.1237" gradientUnits="userSpaceOnUse">
<stop offset="0.219791" stop-color="#FFC700"/>
<stop offset="0.620833" stop-color="#FF008A"/>
<stop offset="1" stop-color="#7D3098"/>
</linearGradient>
<linearGradient id="paint47_linear_1354_290" x1="65.0779" y1="81.0195" x2="65.0779" y2="83.1243" gradientUnits="userSpaceOnUse">
<stop offset="0.219791" stop-color="#FFC700"/>
<stop offset="0.620833" stop-color="#FF008A"/>
<stop offset="1" stop-color="#7D3098"/>
</linearGradient>
<linearGradient id="paint48_linear_1354_290" x1="65.0779" y1="81.0195" x2="65.0779" y2="83.1243" gradientUnits="userSpaceOnUse">
<stop offset="0.219791" stop-color="#FFC700"/>
<stop offset="0.620833" stop-color="#FF008A"/>
<stop offset="1" stop-color="#7D3098"/>
</linearGradient>
</defs>
</svg>
