<svg width="1008" height="1032" viewBox="0 0 1008 1032" fill="none" xmlns="http://www.w3.org/2000/svg">
<path d="M77.4778 63.95L83.167 70.9238L83.1768 70.9157L83.1867 70.9077L77.4778 63.95ZM58.9528 89.625L67.2968 92.9981L67.3091 92.9678L67.3211 92.9374L58.9528 89.625ZM58.9528 156.25L50.5846 159.562L50.5966 159.593L50.6088 159.623L58.9528 156.25ZM77.4778 181.925L71.6806 188.809L71.778 188.891L71.8776 188.97L77.4778 181.925ZM184.403 181.925L190.092 188.899L190.146 188.854L190.2 188.809L184.403 181.925ZM202.928 156.25L211.272 159.623L211.284 159.593L211.296 159.562L202.928 156.25ZM202.928 89.625L194.56 92.9374L194.572 92.9678L194.584 92.9981L202.928 89.625ZM184.403 63.95L178.606 70.8342L178.659 70.8794L178.714 70.9238L184.403 63.95ZM141.503 98.075L137.697 106.231L137.926 106.337L138.16 106.431L141.503 98.075ZM149.953 103.925L143.318 110.007L143.583 110.295L143.871 110.559L149.953 103.925ZM155.803 112.375L147.447 115.717L147.54 115.952L147.647 116.181L155.803 112.375ZM155.803 133.5L147.647 129.694L147.54 129.923L147.447 130.157L155.803 133.5ZM149.953 142.275L143.589 135.911L149.953 142.275ZM141.503 148.125L145.309 156.281L141.503 148.125ZM120.378 148.125L116.572 156.281L116.671 156.327L116.77 156.37L120.378 148.125ZM111.603 142.275L104.968 148.357L105.233 148.645L105.521 148.909L111.603 142.275ZM105.753 133.5L97.5972 137.306H97.5972L105.753 133.5ZM105.753 112.375L97.5972 108.569L97.5972 108.569L105.753 112.375ZM111.603 103.925L117.967 110.289L111.603 103.925ZM120.378 98.075L123.72 106.431L123.854 106.378L123.985 106.32L120.378 98.075ZM200.978 11.3L196.749 19.2447L196.825 19.2852L196.902 19.3242L200.978 11.3ZM235.103 38.925L242.157 33.3353L235.103 38.925ZM255.578 78.25L246.979 80.9056L246.984 80.9237L246.99 80.9418L255.578 78.25ZM262.078 123.1L253.079 122.973L253.078 123.037V123.1H262.078ZM255.253 168.275L263.841 170.967L263.847 170.949L263.852 170.931L255.253 168.275ZM234.778 207.275L227.724 201.685L227.691 201.727L227.659 201.768L234.778 207.275ZM200.978 235.225L205.054 243.249L205.104 243.224L205.154 243.197L200.978 235.225ZM61.5528 235.225L57.3242 243.17L57.4002 243.21L57.4771 243.249L61.5528 235.225ZM6.95283 168.275L-1.64644 170.931L-1.62289 171.007L-1.59799 171.083L6.95283 168.275ZM6.62783 78.25L-1.97144 75.5943L-1.98398 75.6349L-1.99614 75.6757L6.62783 78.25ZM27.1028 38.925L20.0491 33.3353H20.0491L27.1028 38.925ZM61.2278 11.3L65.3036 19.3242L65.3539 19.2987L65.4039 19.2725L61.2278 11.3ZM109.003 44.55C94.6827 44.55 82.0653 48.5441 71.769 56.9923L83.1867 70.9077C89.7904 65.4892 98.1896 62.55 109.003 62.55V44.55ZM71.7887 56.9762C62.3009 64.7162 55.2361 74.5614 50.5846 86.3126L67.3211 92.9374C70.9029 83.8886 76.1881 76.6171 83.167 70.9238L71.7887 56.9762ZM50.6088 86.2519C46.0233 97.595 43.7778 109.801 43.7778 122.775H61.7778C61.7778 111.916 63.649 102.022 67.2968 92.9981L50.6088 86.2519ZM43.7778 122.775C43.7778 135.751 46.0238 148.04 50.5846 159.562L67.3211 152.938C63.6486 143.66 61.7778 133.633 61.7778 122.775H43.7778ZM50.6088 159.623C55.2638 171.138 62.3012 180.911 71.6806 188.809L83.2751 175.041C76.1879 169.073 70.8752 161.729 67.2968 152.877L50.6088 159.623ZM71.8776 188.97C82.1733 197.154 94.7514 201 109.003 201V183C98.1209 183 89.6824 180.129 83.078 174.88L71.8776 188.97ZM109.003 201H153.528V183H109.003V201ZM153.528 201C167.598 201 179.998 197.133 190.092 188.899L178.714 174.951C172.341 180.15 164.158 183 153.528 183V201ZM190.2 188.809C199.58 180.911 206.617 171.138 211.272 159.623L194.584 152.877C191.005 161.729 185.693 169.073 178.606 175.041L190.2 188.809ZM211.296 159.562C215.857 148.04 218.103 135.751 218.103 122.775H200.103C200.103 133.633 198.232 143.66 194.56 152.938L211.296 159.562ZM218.103 122.775C218.103 109.801 215.857 97.595 211.272 86.2519L194.584 92.9981C198.232 102.022 200.103 111.916 200.103 122.775H218.103ZM211.296 86.3126C206.645 74.5614 199.58 64.7162 190.092 56.9762L178.714 70.9238C185.693 76.6171 190.978 83.8886 194.56 92.9374L211.296 86.3126ZM190.2 57.0658C180.108 48.567 167.668 44.55 153.528 44.55V62.55C164.087 62.55 172.231 65.4663 178.606 70.8342L190.2 57.0658ZM153.528 44.55H109.003V62.55H153.528V44.55ZM131.103 104.8C133.508 104.8 135.671 105.285 137.697 106.231L145.309 89.9193C140.834 87.8313 136.065 86.8 131.103 86.8V104.8ZM138.16 106.431C140.146 107.226 141.841 108.394 143.318 110.007L156.587 97.8435C153.298 94.2557 149.359 91.5243 144.845 89.7187L138.16 106.431ZM143.871 110.559C145.484 112.037 146.652 113.731 147.447 115.717L164.159 109.032C162.354 104.519 159.622 100.579 156.034 97.2906L143.871 110.559ZM147.647 116.181C148.56 118.138 149.078 120.399 149.078 123.1H167.078C167.078 118.001 166.079 113.112 163.958 108.569L147.647 116.181ZM149.078 123.1C149.078 125.505 148.592 127.668 147.647 129.694L163.958 137.306C166.047 132.832 167.078 128.062 167.078 123.1H149.078ZM147.447 130.157C146.622 132.219 145.371 134.129 143.589 135.911L156.317 148.639C159.734 145.221 162.384 141.281 164.159 136.843L147.447 130.157ZM143.589 135.911C141.994 137.506 140.058 138.868 137.697 139.969L145.309 156.281C149.448 154.349 153.145 151.81 156.317 148.639L143.589 135.911ZM137.697 139.969C135.671 140.915 133.508 141.4 131.103 141.4V159.4C136.065 159.4 140.834 158.369 145.309 156.281L137.697 139.969ZM131.103 141.4C128.695 141.4 126.346 140.913 123.985 139.88L116.77 156.37C121.343 158.371 126.144 159.4 131.103 159.4V141.4ZM124.184 139.969C121.751 138.834 119.596 137.393 117.684 135.641L105.521 148.909C108.809 151.923 112.504 154.383 116.572 156.281L124.184 139.969ZM118.237 136.193C116.485 134.281 115.044 132.127 113.908 129.694L97.5972 137.306C99.4953 141.373 101.954 145.069 104.968 148.357L118.237 136.193ZM113.908 129.694C112.963 127.668 112.478 125.505 112.478 123.1H94.4778C94.4778 128.062 95.5091 132.832 97.5972 137.306L113.908 129.694ZM112.478 123.1C112.478 120.399 112.995 118.138 113.908 116.181L97.5972 108.569C95.4771 113.112 94.4778 118.001 94.4778 123.1H112.478ZM113.908 116.181C115.01 113.82 116.372 111.884 117.967 110.289L105.239 97.561C102.067 100.732 99.5288 104.43 97.5972 108.569L113.908 116.181ZM117.967 110.289C119.749 108.507 121.659 107.256 123.72 106.431L117.035 89.7187C112.597 91.4941 108.656 94.1435 105.239 97.561L117.967 110.289ZM123.985 106.32C126.346 105.287 128.695 104.8 131.103 104.8V86.8C126.144 86.8 121.343 87.8292 116.77 89.8296L123.985 106.32ZM153.528 9.575C170.541 9.575 184.85 12.9112 196.749 19.2447L205.206 3.35527C190.239 -4.61124 172.915 -8.425 153.528 -8.425V9.575ZM196.902 19.3242C209.449 25.6971 219.791 34.0937 228.049 44.5147L242.157 33.3353C232.215 20.7896 219.807 10.7695 205.054 3.27578L196.902 19.3242ZM228.049 44.5147C236.421 55.079 242.74 67.1811 246.979 80.9056L264.177 75.5943C259.316 59.8522 251.985 45.7377 242.157 33.3353L228.049 44.5147ZM246.99 80.9418C251.251 94.5363 253.282 108.534 253.079 122.973L271.077 123.227C271.307 106.899 269.005 90.997 264.166 75.5582L246.99 80.9418ZM253.078 123.1C253.078 137.581 250.939 151.744 246.654 165.619L263.852 170.931C268.667 155.339 271.078 139.386 271.078 123.1H253.078ZM246.665 165.583C242.432 179.089 236.113 191.099 227.724 201.685L241.832 212.865C251.642 200.485 258.974 186.494 263.841 170.967L246.665 165.583ZM227.659 201.768C219.616 212.165 209.377 220.666 196.802 227.253L205.154 243.197C219.879 235.484 232.173 225.351 241.896 212.782L227.659 201.768ZM196.902 227.201C184.718 233.39 170.341 236.625 153.528 236.625V254.625C172.681 254.625 189.938 250.927 205.054 243.249L196.902 227.201ZM153.528 236.625H109.003V254.625H153.528V236.625ZM109.003 236.625C92.1893 236.625 77.8128 233.39 65.6286 227.201L57.4771 243.249C72.5929 250.927 89.8497 254.625 109.003 254.625V236.625ZM65.7815 227.28C53.3987 220.689 43.1072 212.16 34.8065 201.685L20.6991 212.865C30.5985 225.357 42.8403 235.461 57.3242 243.17L65.7815 227.28ZM34.8065 201.685C26.3937 191.069 19.9536 179.019 15.5037 165.467L-1.59799 171.083C3.48542 186.564 10.912 200.514 20.6991 212.865L34.8065 201.685ZM15.5521 165.619C11.2671 151.744 9.12783 137.581 9.12783 123.1H-8.87217C-8.87217 139.386 -6.46145 155.339 -1.64644 170.931L15.5521 165.619ZM9.12783 123.1C9.12783 108.575 11.1717 94.4927 15.2518 80.8243L-1.99614 75.6757C-6.5827 91.0406 -8.87217 106.858 -8.87217 123.1H9.12783ZM15.2271 80.9056C19.4656 67.1811 25.7849 55.079 34.1565 44.5147L20.0491 33.3353C10.2208 45.7377 2.89009 59.8522 -1.97144 75.5943L15.2271 80.9056ZM34.1565 44.5147C42.4147 34.0937 52.7569 25.6971 65.3036 19.3242L57.152 3.27579C42.3988 10.7695 29.991 20.7896 20.0491 33.3353L34.1565 44.5147ZM65.4039 19.2725C77.551 12.9097 91.9945 9.575 109.003 9.575V-8.425C89.6111 -8.425 72.2046 -4.6097 57.0518 3.32751L65.4039 19.2725ZM109.003 9.575H153.528V-8.425H109.003V9.575ZM293.285 45.425L286.152 50.9124L286.204 50.9803L286.258 51.0473L293.285 45.425ZM293.285 8.69999L300.313 14.3223L300.367 14.2553L300.419 14.1874L293.285 8.69999ZM457.735 10.325L453.061 18.0157L453.116 18.0494L453.172 18.0824L457.735 10.325ZM483.735 35.675L476.032 40.329L476.067 40.3873L476.103 40.445L483.735 35.675ZM495.76 70.125L486.825 71.2034L486.834 71.2791L486.845 71.3547L495.76 70.125ZM493.485 106.85L484.803 104.482L484.782 104.556L484.764 104.63L493.485 106.85ZM476.91 139.35L469.959 133.634L469.952 133.642L469.945 133.651L476.91 139.35ZM446.035 160.15L443.146 151.626L431.123 155.702L438.949 165.698L446.035 160.15ZM478.86 202.075L471.774 207.623L471.886 207.766L472.003 207.904L478.86 202.075ZM485.035 215.725L476.072 216.54L476.074 216.559L476.076 216.578L485.035 215.725ZM482.76 228.725L474.627 224.872L474.58 224.97L474.536 225.07L482.76 228.725ZM474.635 238.8L469.168 231.651L469.063 231.731L468.96 231.815L474.635 238.8ZM462.935 244.325L461.17 235.5L460.906 235.553L460.645 235.621L462.935 244.325ZM449.935 244L447.089 252.538L447.275 252.6L447.463 252.654L449.935 244ZM437.585 234.9L430.526 240.482L430.558 240.523L430.59 240.563L437.585 234.9ZM382.335 165.025L389.395 159.443L386.693 156.025H382.335V165.025ZM338.46 165.025V156.025H329.46V165.025H338.46ZM334.56 232.625L341.913 237.815L341.982 237.717L342.049 237.617L334.56 232.625ZM299.46 241.075L303.485 233.025L299.46 241.075ZM289.71 232.625L282.222 237.617L282.289 237.717L282.358 237.815L289.71 232.625ZM293.285 119.525L299.506 126.029L299.506 126.029L293.285 119.525ZM431.735 108.15L437.203 115.299L437.232 115.277L437.261 115.254L431.735 108.15ZM440.185 97.1L431.978 93.4067L431.9 93.5805L431.829 93.7575L440.185 97.1ZM440.185 68.825L431.829 72.1675L431.9 72.3445L431.978 72.5183L440.185 68.825ZM431.735 58.1L426.014 65.0474L426.235 65.2289L426.466 65.3961L431.735 58.1ZM313.11 44.55C306.127 44.55 302.478 42.5084 300.313 39.8027L286.258 51.0473C292.76 59.1749 302.327 62.55 313.11 62.55V44.55ZM300.419 39.9376C297.221 35.7796 295.785 31.5117 295.785 26.9H277.785C277.785 35.7216 280.684 43.8037 286.152 50.9124L300.419 39.9376ZM295.785 26.9C295.785 22.2983 297.211 18.1997 300.313 14.3223L286.258 3.07773C280.693 10.0336 277.785 18.0684 277.785 26.9H295.785ZM300.419 14.1874C302.628 11.3157 306.25 9.24998 313.11 9.24998V-8.75002C302.204 -8.75002 292.609 -5.18237 286.152 3.21259L300.419 14.1874ZM313.11 9.24998H417.76V-8.75002H313.11V9.24998ZM417.76 9.24998C432.053 9.24998 443.685 12.317 453.061 18.0157L462.41 2.63429C449.685 -5.10036 434.668 -8.75002 417.76 -8.75002V9.24998ZM453.172 18.0824C463.007 23.8678 470.565 31.279 476.032 40.329L491.439 31.021C484.34 19.271 474.563 9.78217 462.299 2.56758L453.172 18.0824ZM476.103 40.445C481.881 49.6886 485.462 59.9046 486.825 71.2034L504.696 69.0466C503.026 55.212 498.59 42.4614 491.367 30.905L476.103 40.445ZM486.845 71.3547C488.417 82.752 487.724 93.7686 484.803 104.482L502.168 109.218C505.747 96.0981 506.571 82.6313 504.676 68.8952L486.845 71.3547ZM484.764 104.63C482.065 115.231 477.159 124.877 469.959 133.634L483.862 145.066C492.696 134.323 498.839 122.302 502.207 109.07L484.764 104.63ZM469.945 133.651C463.313 141.756 454.491 147.781 443.146 151.626L448.925 168.674C463.146 163.853 474.907 156.011 483.876 145.049L469.945 133.651ZM438.949 165.698L471.774 207.623L485.947 196.527L453.122 154.602L438.949 165.698ZM472.003 207.904C474.716 211.096 475.837 213.949 476.072 216.54L493.998 214.91C493.367 207.968 490.372 201.721 485.718 196.246L472.003 207.904ZM476.076 216.578C476.356 219.52 475.88 222.226 474.627 224.872L490.894 232.578C493.541 226.99 494.581 221.03 493.995 214.872L476.076 216.578ZM474.536 225.07C473.467 227.475 471.761 229.668 469.168 231.651L480.103 245.949C484.877 242.298 488.587 237.775 490.985 232.38L474.536 225.07ZM468.96 231.815C466.615 233.72 464.054 234.923 461.17 235.5L464.701 253.15C470.483 251.994 475.722 249.513 480.311 245.785L468.96 231.815ZM460.645 235.621C458.262 236.249 455.582 236.253 452.408 235.346L447.463 252.654C453.389 254.347 459.376 254.568 465.226 253.029L460.645 235.621ZM452.782 235.462C450.188 234.597 447.423 232.748 444.581 229.237L430.59 240.563C435.115 246.152 440.583 250.369 447.089 252.538L452.782 235.462ZM444.645 229.318L389.395 159.443L375.276 170.607L430.526 240.482L444.645 229.318ZM382.335 156.025H338.46V174.025H382.335V156.025ZM329.46 165.025V218H347.46V165.025H329.46ZM329.46 218C329.46 222.515 328.467 225.54 327.072 227.633L342.049 237.617C345.854 231.91 347.46 225.185 347.46 218H329.46ZM327.208 227.435C325.434 229.948 323.311 231.762 320.786 233.025L328.835 249.125C334.11 246.488 338.487 242.669 341.913 237.815L327.208 227.435ZM320.786 233.025C318.19 234.323 315.351 235 312.135 235V253C318.02 253 323.631 251.727 328.835 249.125L320.786 233.025ZM312.135 235C308.92 235 306.081 234.323 303.485 233.025L295.436 249.125C300.64 251.727 306.251 253 312.135 253V235ZM303.485 233.025C300.96 231.762 298.837 229.948 297.063 227.435L282.358 237.815C285.784 242.669 290.161 246.488 295.436 249.125L303.485 233.025ZM297.199 227.633C295.804 225.54 294.81 222.515 294.81 218H276.81C276.81 225.185 278.417 231.91 282.222 237.617L297.199 227.633ZM294.81 218V138.05H276.81V218H294.81ZM294.81 138.05C294.81 132.652 296.485 128.919 299.506 126.029L287.064 113.021C280.119 119.664 276.81 128.281 276.81 138.05H294.81ZM299.506 126.029C302.498 123.167 306.716 121.375 313.11 121.375V103.375C303.038 103.375 294.039 106.35 287.064 113.021L299.506 126.029ZM313.11 121.375H417.76V103.375H313.11V121.375ZM417.76 121.375C424.934 121.375 431.635 119.557 437.203 115.299L426.268 101.001C424.469 102.377 421.854 103.375 417.76 103.375V121.375ZM437.261 115.254C442.345 111.3 446.18 106.346 448.542 100.443L431.829 93.7575C430.724 96.5202 428.926 98.9333 426.21 101.046L437.261 115.254ZM448.393 100.793C450.891 95.2423 452.11 89.3183 452.11 83.125H434.11C434.11 86.8984 433.38 90.291 431.978 93.4067L448.393 100.793ZM452.11 83.125C452.11 76.773 450.913 70.7319 448.393 65.1317L431.978 72.5183C433.358 75.5847 434.11 79.077 434.11 83.125H452.11ZM448.542 65.4825C446.155 59.5148 442.243 54.5869 437.005 50.8039L426.466 65.3961C429.028 67.2465 430.75 69.4686 431.829 72.1675L448.542 65.4825ZM437.457 51.1526C431.882 46.5615 425.087 44.55 417.76 44.55V62.55C421.701 62.55 424.222 63.5718 426.014 65.0474L437.457 51.1526ZM417.76 44.55H313.11V62.55H417.76V44.55ZM722.839 9.02499L715.705 14.5124L715.758 14.5803L715.811 14.6472L722.839 9.02499ZM722.839 45.425L729.867 51.0473L729.92 50.9803L729.973 50.9124L722.839 45.425ZM596.089 63.95L601.778 70.9238L601.788 70.9157L601.798 70.9077L596.089 63.95ZM577.239 89.625L568.931 86.1635L568.913 86.2076L568.895 86.2519L577.239 89.625ZM577.239 156.25L568.871 159.562L568.913 159.669L568.958 159.774L577.239 156.25ZM596.089 181.925L590.292 188.809L590.389 188.891L590.489 188.97L596.089 181.925ZM677.664 192V201H686.664V192H677.664ZM677.664 152.35H686.664V143.35H677.664V152.35ZM725.114 107.825L717.876 113.175L718.008 113.353L718.148 113.524L725.114 107.825ZM728.039 229.375L719.832 225.682L719.787 225.782L719.744 225.882L728.039 229.375ZM721.214 239.45L727.295 246.084L727.307 246.074L727.318 246.063L721.214 239.45ZM712.439 244.325L710.12 235.629L710.043 235.649L709.966 235.671L712.439 244.325ZM580.164 235.225L575.988 243.197L576.038 243.224L576.088 243.249L580.164 235.225ZM525.564 168.275L516.965 170.931L516.97 170.949L516.976 170.967L525.564 168.275ZM525.564 78.25L534.152 80.9418L534.158 80.9237L534.163 80.9056L525.564 78.25ZM545.714 38.925L538.66 33.3353L538.628 33.3765L538.595 33.4181L545.714 38.925ZM579.839 11.3L583.915 19.3242L583.965 19.2987L584.015 19.2725L579.839 11.3ZM703.664 9.575C709.912 9.575 713.407 11.5246 715.705 14.5124L729.973 3.53757C723.604 -4.74128 714.316 -8.425 703.664 -8.425V9.575ZM715.811 14.6472C718.913 18.5247 720.339 22.6233 720.339 27.225H738.339C738.339 18.3934 735.432 10.3586 729.867 3.40273L715.811 14.6472ZM720.339 27.225C720.339 31.552 718.948 35.7217 715.705 39.9376L729.973 50.9124C735.396 43.8616 738.339 35.8979 738.339 27.225H720.339ZM715.811 39.8027C713.559 42.6177 710.039 44.55 703.664 44.55V62.55C714.188 62.55 723.452 59.0656 729.867 51.0473L715.811 39.8027ZM703.664 44.55H627.614V62.55H703.664V44.55ZM627.614 44.55C613.294 44.55 600.676 48.5441 590.38 56.9923L601.798 70.9077C608.402 65.4892 616.801 62.55 627.614 62.55V44.55ZM590.4 56.9762C580.948 64.6867 573.799 74.4801 568.931 86.1635L585.547 93.0865C589.345 83.9699 594.763 76.6466 601.778 70.9238L590.4 56.9762ZM568.895 86.2519C564.309 97.595 562.064 109.801 562.064 122.775H580.064C580.064 111.916 581.935 102.022 585.583 92.9981L568.895 86.2519ZM562.064 122.775C562.064 135.751 564.31 148.04 568.871 159.562L585.607 152.938C581.935 143.66 580.064 133.633 580.064 122.775H562.064ZM568.958 159.774C573.828 171.219 580.947 180.94 590.292 188.809L601.886 175.041C594.764 169.043 589.317 161.648 585.52 152.726L568.958 159.774ZM590.489 188.97C600.784 197.154 613.363 201 627.614 201V183C616.732 183 608.294 180.129 601.689 174.88L590.489 188.97ZM627.614 201H677.664V183H627.614V201ZM686.664 192V152.35H668.664V192H686.664ZM677.664 143.35H619.489V161.35H677.664V143.35ZM619.489 143.35C617.135 143.35 615.578 142.616 614.017 139.828L598.311 148.622C602.816 156.667 610.143 161.35 619.489 161.35V143.35ZM614.017 139.828C611.771 135.819 610.614 131.385 610.614 126.35H592.614C592.614 134.315 594.49 141.798 598.311 148.622L614.017 139.828ZM610.614 126.35C610.614 121.315 611.771 116.881 614.017 112.872L598.311 104.078C594.49 110.902 592.614 118.385 592.614 126.35H610.614ZM614.017 112.872C615.578 110.084 617.135 109.35 619.489 109.35V91.35C610.143 91.35 602.816 96.033 598.311 104.078L614.017 112.872ZM619.489 109.35H711.464V91.35H619.489V109.35ZM711.464 109.35C713.586 109.35 715.61 110.109 717.876 113.175L732.352 102.475C727.251 95.5745 720.175 91.35 711.464 91.35V109.35ZM718.148 113.524C720.487 116.383 721.964 120.312 721.964 126.025H739.964C739.964 117.005 737.541 108.801 732.08 102.126L718.148 113.524ZM721.964 126.025V212.8H739.964V126.025H721.964ZM721.964 212.8C721.964 218.733 721.09 222.886 719.832 225.682L736.246 233.068C738.888 227.198 739.964 220.3 739.964 212.8H721.964ZM719.744 225.882C718.428 229.009 716.838 231.241 715.109 232.837L727.318 246.063C731.223 242.459 734.183 237.975 736.334 232.868L719.744 225.882ZM715.132 232.816C713.548 234.268 711.899 235.154 710.12 235.629L714.758 253.021C719.479 251.762 723.68 249.399 727.295 246.084L715.132 232.816ZM709.966 235.671C707.572 236.355 705.597 236.625 703.989 236.625V254.625C707.581 254.625 711.239 254.028 714.911 252.979L709.966 235.671ZM703.989 236.625H627.614V254.625H703.989V236.625ZM627.614 236.625C610.8 236.625 596.424 233.39 584.24 227.201L576.088 243.249C591.204 250.927 608.461 254.625 627.614 254.625V236.625ZM584.34 227.253C571.747 220.656 561.37 212.131 553.093 201.685L538.985 212.865C548.907 225.386 561.281 235.494 575.988 243.197L584.34 227.253ZM553.093 201.685C544.703 191.099 538.385 179.089 534.152 165.583L516.976 170.967C521.843 186.494 529.174 200.485 538.985 212.865L553.093 201.685ZM534.163 165.619C529.878 151.744 527.739 137.581 527.739 123.1H509.739C509.739 139.386 512.15 155.339 516.965 170.931L534.163 165.619ZM527.739 123.1C527.739 108.619 529.878 94.5774 534.152 80.9418L516.976 75.5582C512.15 90.9559 509.739 106.814 509.739 123.1H527.739ZM534.163 80.9056C538.415 67.1392 544.65 55.0094 552.833 44.4318L538.595 33.4181C529.011 45.8073 521.813 59.8941 516.965 75.5943L534.163 80.9056ZM552.768 44.5147C561.026 34.0937 571.368 25.6971 583.915 19.3242L575.763 3.27579C561.01 10.7695 548.602 20.7896 538.66 33.3353L552.768 44.5147ZM584.015 19.2725C596.162 12.9097 610.606 9.575 627.614 9.575V-8.425C608.222 -8.425 590.816 -4.6097 575.663 3.32751L584.015 19.2725ZM627.614 9.575H703.664V-8.425H627.614V9.575ZM893.276 4.47498L888.811 12.2892L888.888 12.3334L888.966 12.376L893.276 4.47498ZM904.001 15.525L895.951 19.5499L895.973 19.5936L895.995 19.6371L904.001 15.525ZM1001.83 205.975L993.82 210.087L993.905 210.251L993.996 210.412L1001.83 205.975ZM1003.78 226.125L995.265 223.199L995.237 223.28L995.211 223.362L1003.78 226.125ZM990.776 241.4L994.696 249.501L994.855 249.424L995.011 249.341L990.776 241.4ZM970.301 243.025L967.538 251.59L967.577 251.603L967.617 251.615L970.301 243.025ZM955.026 229.375L963.076 225.35L963.044 225.286L963.011 225.222L955.026 229.375ZM879.301 83.775L887.286 79.6223L879.284 64.2367L871.309 79.6363L879.301 83.775ZM803.901 229.375L795.909 225.236L795.88 225.293L795.851 225.35L803.901 229.375ZM788.301 243.025L790.986 251.615L788.301 243.025ZM767.826 241.4L763.698 249.398L763.802 249.451L763.906 249.501L767.826 241.4ZM754.501 226.125L745.911 228.809L745.923 228.849L745.936 228.888L754.501 226.125ZM756.451 205.975L764.392 210.21L764.416 210.165L764.44 210.119L756.451 205.975ZM855.251 15.525L863.24 19.6694L863.271 19.6099L863.301 19.5499L855.251 15.525ZM865.326 4.47498L860.861 -3.33921L860.778 -3.29171L860.696 -3.24245L865.326 4.47498ZM889.701 161.775L885.895 169.931L886.213 170.079L886.541 170.202L889.701 161.775ZM898.476 167.625L891.842 173.707L892.106 173.995L892.395 174.259L898.476 167.625ZM904.326 176.075L895.97 179.418L896.109 179.765L896.276 180.1L904.326 176.075ZM898.476 205.325L904.703 211.823L904.709 211.817L898.476 205.325ZM859.801 205.325L853.437 211.689L853.57 211.821L853.708 211.948L859.801 205.325ZM853.951 176.075L845.795 172.269L845.735 172.398L845.679 172.53L853.951 176.075ZM859.801 167.625L853.437 161.261L859.801 167.625ZM868.576 161.775L871.919 170.131L872.052 170.078L872.183 170.02L868.576 161.775ZM879.301 9.575C882.349 9.575 885.482 10.387 888.811 12.2892L897.741 -3.33921C891.97 -6.63699 885.786 -8.425 879.301 -8.425V9.575ZM888.966 12.376C892.152 14.1138 894.406 16.4596 895.951 19.5499L912.051 11.5001C908.829 5.05708 903.933 0.0361633 897.586 -3.42607L888.966 12.376ZM895.995 19.6371L993.82 210.087L1009.83 201.863L912.007 11.4129L895.995 19.6371ZM993.996 210.412C996.436 214.718 996.792 218.757 995.265 223.199L1012.29 229.051C1015.53 219.626 1014.58 210.232 1009.66 201.538L993.996 210.412ZM995.211 223.362C993.795 227.751 991.08 231.038 986.541 233.459L995.011 249.341C1003.47 244.829 1009.42 237.933 1012.34 228.888L995.211 223.362ZM986.856 233.299C982.137 235.582 977.67 235.899 972.986 234.435L967.617 251.615C976.799 254.485 985.982 253.718 994.696 249.501L986.856 233.299ZM973.064 234.46C968.886 233.112 965.579 230.356 963.076 225.35L946.976 233.4C951.407 242.261 958.283 248.605 967.538 251.59L973.064 234.46ZM963.011 225.222L887.286 79.6223L871.316 87.9277L947.041 233.528L963.011 225.222ZM871.309 79.6363L795.909 225.236L811.893 233.514L887.293 87.9137L871.309 79.6363ZM795.851 225.35C793.397 230.26 790.046 233.05 785.617 234.435L790.986 251.615C800.423 248.666 807.472 242.357 811.951 233.4L795.851 225.35ZM785.617 234.435C780.932 235.899 776.466 235.582 771.746 233.299L763.906 249.501C772.62 253.718 781.804 254.485 790.986 251.615L785.617 234.435ZM771.954 233.402C767.184 230.94 764.448 227.645 763.066 223.362L745.936 228.888C748.888 238.039 755.035 244.926 763.698 249.398L771.954 233.402ZM763.091 223.441C761.655 218.844 762.042 214.617 764.392 210.21L748.51 201.74C743.927 210.332 743.014 219.539 745.911 228.809L763.091 223.441ZM764.44 210.119L863.24 19.6694L847.262 11.3806L748.462 201.831L764.44 210.119ZM863.301 19.5499C864.963 16.2266 867.173 13.8627 869.957 12.1924L860.696 -3.24245C854.813 0.287277 850.306 5.29007 847.201 11.5001L863.301 19.5499ZM869.791 12.2892C873.12 10.387 876.253 9.575 879.301 9.575V-8.425C872.816 -8.425 866.632 -6.63699 860.861 -3.33921L869.791 12.2892ZM879.301 168.5C881.706 168.5 883.87 168.985 885.895 169.931L893.507 153.619C889.033 151.531 884.263 150.5 879.301 150.5V168.5ZM886.541 170.202C888.749 171.03 890.464 172.203 891.842 173.707L905.11 161.543C901.722 157.847 897.586 155.12 892.861 153.348L886.541 170.202ZM892.395 174.259C894.007 175.737 895.175 177.431 895.97 179.418L912.682 172.732C910.877 168.219 908.145 164.279 904.558 160.991L892.395 174.259ZM896.276 180.1C897.154 181.855 897.601 183.723 897.601 185.825H915.601C915.601 180.993 914.532 176.362 912.376 172.05L896.276 180.1ZM897.601 185.825C897.601 191.281 895.817 195.402 892.243 198.833L904.709 211.817C911.969 204.848 915.601 195.969 915.601 185.825H897.601ZM892.249 198.827C888.82 202.113 884.699 203.8 879.301 203.8V221.8C889.069 221.8 897.732 218.503 904.703 211.823L892.249 198.827ZM879.301 203.8C873.9 203.8 869.595 202.106 865.895 198.702L853.708 211.948C860.84 218.51 869.536 221.8 879.301 221.8V203.8ZM866.165 198.961C862.763 195.559 861.001 191.399 861.001 185.825H843.001C843.001 195.851 846.439 204.691 853.437 211.689L866.165 198.961ZM861.001 185.825C861.001 183.515 861.428 181.477 862.223 179.62L845.679 172.53C843.875 176.74 843.001 181.202 843.001 185.825H861.001ZM862.107 179.881C863.208 177.52 864.57 175.584 866.165 173.989L853.437 161.261C850.266 164.432 847.727 168.13 845.795 172.269L862.107 179.881ZM866.165 173.989C867.947 172.207 869.857 170.956 871.919 170.131L865.234 153.419C860.795 155.194 856.855 157.843 853.437 161.261L866.165 173.989ZM872.183 170.02C874.544 168.987 876.894 168.5 879.301 168.5V150.5C874.342 150.5 869.541 151.529 864.969 153.53L872.183 170.02ZM145.301 649.5L150.924 656.528L145.301 649.5ZM109.226 649.5L114.849 642.472L109.226 649.5ZM105.976 422.325L98.9485 416.703L98.9303 416.725L98.9123 416.748L105.976 422.325ZM118.651 413.55L116.031 404.94H116.031L118.651 413.55ZM134.576 413.55L132.237 422.241L132.277 422.251L132.318 422.262L134.576 413.55ZM150.176 423.3L156.846 417.257L156.834 417.244L156.823 417.232L150.176 423.3ZM275.626 561.75L268.957 567.793L284.626 585.086V561.75H275.626ZM284.076 418.75L289.564 425.884L284.076 418.75ZM321.126 418.75L315.639 425.884H315.639L321.126 418.75ZM324.051 646.9L317.194 641.071L324.051 646.9ZM310.726 655.675L313.246 664.315L310.726 655.675ZM294.476 655.675L291.829 664.277L291.982 664.324L292.137 664.366L294.476 655.675ZM280.501 644.95L287.944 639.889L287.581 639.356L287.146 638.88L280.501 644.95ZM153.426 505.85L160.071 499.78L144.426 482.655V505.85H153.426ZM144.426 630C144.426 636.68 142.438 640.265 139.679 642.472L150.924 656.528C158.998 650.068 162.426 640.653 162.426 630H144.426ZM139.679 642.472C135.802 645.574 131.703 647 127.101 647V665C135.933 665 143.968 662.093 150.924 656.528L139.679 642.472ZM127.101 647C122.788 647 118.784 645.621 114.849 642.472L103.604 656.528C110.501 662.046 118.415 665 127.101 665V647ZM114.849 642.472C112.089 640.265 110.101 636.68 110.101 630H92.1013C92.1013 640.653 95.5298 650.068 103.604 656.528L114.849 642.472ZM110.101 630V438.25H92.1013V630H110.101ZM110.101 438.25C110.101 433.278 111.32 430.08 113.04 427.902L98.9123 416.748C94.1321 422.803 92.1013 430.222 92.1013 438.25H110.101ZM113.004 427.947C115.415 424.934 118.141 423.113 121.272 422.16L116.031 404.94C109.195 407.02 103.471 411.049 98.9485 416.703L113.004 427.947ZM121.272 422.16C124.454 421.192 128.03 421.108 132.237 422.241L136.916 404.859C129.855 402.959 122.816 402.875 116.031 404.94L121.272 422.16ZM132.318 422.262C136.287 423.291 140.014 425.517 143.53 429.368L156.823 417.232C151.239 411.116 144.565 406.842 136.835 404.838L132.318 422.262ZM143.507 429.343L268.957 567.793L282.296 555.707L156.846 417.257L143.507 429.343ZM284.626 561.75V438.25H266.626V561.75H284.626ZM284.626 438.25C284.626 431.695 286.635 428.136 289.564 425.884L278.589 411.616C270.251 418.03 266.626 427.472 266.626 438.25H284.626ZM289.564 425.884C293.722 422.685 297.99 421.25 302.601 421.25V403.25C293.78 403.25 285.698 406.148 278.589 411.616L289.564 425.884ZM302.601 421.25C307.213 421.25 311.481 422.685 315.639 425.884L326.614 411.616C319.505 406.148 311.423 403.25 302.601 403.25V421.25ZM315.639 425.884C318.567 428.136 320.576 431.695 320.576 438.25H338.576C338.576 427.472 334.952 418.03 326.614 411.616L315.639 425.884ZM320.576 438.25V630H338.576V438.25H320.576ZM320.576 630C320.576 635.284 319.209 638.701 317.194 641.071L330.909 652.729C336.261 646.432 338.576 638.582 338.576 630H320.576ZM317.194 641.071C314.59 644.134 311.63 646.036 308.206 647.035L313.246 664.315C320.223 662.28 326.146 658.333 330.909 652.729L317.194 641.071ZM308.206 647.035C304.713 648.054 300.983 648.106 296.816 646.984L292.137 664.366C299.236 666.277 306.34 666.329 313.246 664.315L308.206 647.035ZM297.123 647.073C293.663 646.008 290.613 643.815 287.944 639.889L273.059 650.011C277.756 656.919 284.023 661.875 291.829 664.277L297.123 647.073ZM287.146 638.88L160.071 499.78L146.782 511.92L273.857 651.02L287.146 638.88ZM144.426 505.85V630H162.426V505.85H144.426ZM403.433 640.725L395.187 637.118L395.13 637.249L395.076 637.383L403.433 640.725ZM397.908 649.5L404.271 655.864L404.41 655.726L404.542 655.582L397.908 649.5ZM389.458 655.35L392.8 663.706L393.035 663.612L393.263 663.506L389.458 655.35ZM360.533 649.5L354.04 655.733L354.104 655.799L354.169 655.864L360.533 649.5ZM360.533 420.05L366.896 426.414L360.533 420.05ZM389.458 414.525L385.652 422.681L385.88 422.787L386.115 422.881L389.458 414.525ZM397.908 420.05L391.544 426.414H391.544L397.908 420.05ZM403.433 428.5L395.076 431.843L395.215 432.19L395.383 432.525L403.433 428.5ZM396.708 630C396.708 632.407 396.22 634.757 395.187 637.118L411.678 644.332C413.678 639.76 414.708 634.959 414.708 630H396.708ZM395.076 637.383C394.183 639.615 392.927 641.614 391.273 643.418L404.542 655.582C407.654 652.186 410.082 648.335 411.789 644.068L395.076 637.383ZM391.544 643.136C389.948 644.731 388.012 646.093 385.652 647.194L393.263 663.506C397.403 661.574 401.1 659.035 404.271 655.864L391.544 643.136ZM386.115 646.994C383.918 647.873 381.693 648.3 379.383 648.3V666.3C384.006 666.3 388.498 665.427 392.8 663.706L386.115 646.994ZM379.383 648.3C374.398 648.3 370.405 646.645 366.896 643.136L354.169 655.864C361.06 662.755 369.634 666.3 379.383 666.3V648.3ZM367.025 643.267C363.452 639.545 361.733 635.286 361.733 630H343.733C343.733 639.881 347.213 648.622 354.04 655.733L367.025 643.267ZM361.733 630V438.25H343.733V630H361.733ZM361.733 438.25C361.733 433.86 363.271 430.04 366.896 426.414L354.169 413.686C347.394 420.46 343.733 428.774 343.733 438.25H361.733ZM366.896 426.414C370.405 422.905 374.398 421.25 379.383 421.25V403.25C369.634 403.25 361.06 406.795 354.169 413.686L366.896 426.414ZM379.383 421.25C381.488 421.25 383.551 421.7 385.652 422.681L393.264 406.369C388.864 404.316 384.21 403.25 379.383 403.25V421.25ZM386.115 422.881C388.278 423.746 390.055 424.926 391.544 426.414L404.271 413.686C400.993 410.408 397.137 407.904 392.8 406.169L386.115 422.881ZM391.544 426.414C393.032 427.902 394.211 429.68 395.076 431.843L411.789 425.157C410.054 420.82 407.55 416.964 404.271 413.686L391.544 426.414ZM395.383 432.525C396.26 434.28 396.708 436.148 396.708 438.25H414.708C414.708 433.418 413.638 428.786 411.482 424.475L395.383 432.525ZM396.708 438.25V630H414.708V438.25H396.708ZM627.888 612.45L621.39 618.677L621.457 618.746L621.524 618.814L627.888 612.45ZM627.888 649.5L621.396 643.267L621.39 643.273L627.888 649.5ZM469.613 653.725L466.767 662.263L466.907 662.31L467.048 662.352L469.613 653.725ZM448.488 642.675L453.928 635.505L448.488 642.675ZM432.888 625.125L425.089 629.616L425.119 629.668L425.15 629.72L432.888 625.125ZM425.413 600.75L434.373 599.897L434.37 599.867L434.367 599.836L425.413 600.75ZM429.313 571.5L437.627 574.947L437.641 574.912L437.656 574.877L429.313 571.5ZM444.913 547.45L451.377 553.712L444.913 547.45ZM468.313 529.575L463.91 521.726L468.313 529.575ZM495.938 517.875L493.389 509.244L493.388 509.244L495.938 517.875ZM558.663 499.35L556.154 490.707L556.134 490.713L556.114 490.719L558.663 499.35ZM575.563 490.9L581.226 497.895L581.244 497.88L581.262 497.866L575.563 490.9ZM583.363 479.525L592.302 480.577L592.305 480.548L592.308 480.519L583.363 479.525ZM576.863 469.45L571.871 476.938L572.074 477.074L572.285 477.198L576.863 469.45ZM432.888 457.425L426.39 463.652L426.457 463.721L426.524 463.789L432.888 457.425ZM427.363 428.825L435.635 432.37L435.679 432.269L435.719 432.167L427.363 428.825ZM432.888 420.375L439.252 426.739H439.252L432.888 420.375ZM441.013 414.85L444.558 423.122L444.69 423.066L444.819 423.006L441.013 414.85ZM599.613 419.4L603.563 411.313L599.613 419.4ZM622.688 436.625L629.732 431.022L629.6 430.857L629.461 430.698L622.688 436.625ZM635.363 468.15L626.389 468.827L626.39 468.84L635.363 468.15ZM630.488 501.3L638.734 504.907L638.823 504.704L638.901 504.497L630.488 501.3ZM619.113 519.825L612.222 514.036L619.113 519.825ZM603.513 534.125L598.334 526.765L598.268 526.811L598.203 526.858L603.513 534.125ZM584.988 544.85L588.567 553.108L588.63 553.081L588.692 553.052L584.988 544.85ZM565.163 552L567.671 560.643L567.672 560.643L565.163 552ZM502.438 570.2L499.93 561.557L499.861 561.577L499.791 561.598L502.438 570.2ZM487.163 578.65L492.992 585.507L493.006 585.495L493.02 585.483L487.163 578.65ZM478.388 590.025L470 586.763L469.92 586.969L469.85 587.179L478.388 590.025ZM479.688 600.425L472.365 605.656L472.579 605.957L472.818 606.238L479.688 600.425ZM608.713 613.65C614.286 613.65 618.255 615.405 621.39 618.677L634.386 606.223C627.555 599.095 618.74 595.65 608.713 595.65V613.65ZM621.524 618.814C625.09 622.38 626.688 626.287 626.688 630.975H644.688C644.688 621.363 641.086 612.92 634.252 606.086L621.524 618.814ZM626.688 630.975C626.688 635.382 625.133 639.374 621.396 643.267L634.381 655.733C641.043 648.793 644.688 640.435 644.688 630.975H626.688ZM621.39 643.273C618.255 646.545 614.286 648.3 608.713 648.3V666.3C618.74 666.3 627.555 662.855 634.386 655.727L621.39 643.273ZM608.713 648.3H494.638V666.3H608.713V648.3ZM494.638 648.3C486.808 648.3 479.332 647.225 472.178 645.098L467.048 662.352C475.927 664.992 485.135 666.3 494.638 666.3V648.3ZM472.459 645.187C465.553 642.885 459.394 639.652 453.928 635.505L443.049 649.845C450.149 655.232 458.074 659.365 466.767 662.263L472.459 645.187ZM453.928 635.505C448.591 631.456 444.164 626.488 440.627 620.53L425.15 629.72C429.846 637.629 435.819 644.361 443.049 649.845L453.928 635.505ZM440.688 620.634C437.28 614.715 435.131 607.855 434.373 599.897L416.454 601.603C417.429 611.845 420.263 621.235 425.089 629.616L440.688 620.634ZM434.367 599.836C433.418 590.538 434.576 582.306 437.627 574.947L421 568.053C416.684 578.461 415.242 589.729 416.46 601.664L434.367 599.836ZM437.656 574.877C440.912 566.832 445.481 559.799 451.377 553.712L438.449 541.188C430.912 548.967 425.081 557.968 420.971 568.123L437.656 574.877ZM451.377 553.712C457.455 547.439 464.551 542.005 472.716 537.424L463.91 521.726C454.308 527.112 445.805 533.595 438.449 541.188L451.377 553.712ZM472.716 537.424C481.028 532.762 489.616 529.128 498.488 526.506L493.388 509.244C483.194 512.256 473.365 516.421 463.91 521.726L472.716 537.424ZM498.487 526.506L561.212 507.981L556.114 490.719L493.389 509.244L498.487 526.506ZM561.172 507.993C568.82 505.773 575.582 502.464 581.226 497.895L569.9 483.905C566.444 486.703 561.94 489.027 556.154 490.707L561.172 507.993ZM581.262 497.866C586.711 493.408 591.463 487.701 592.302 480.577L574.425 478.473C574.396 478.716 573.949 480.592 569.864 483.934L581.262 497.866ZM592.308 480.519C593.291 471.676 587.795 465.456 581.442 461.702L572.285 477.198C573.901 478.154 574.41 478.82 574.501 478.96C574.53 479.006 574.483 478.943 574.447 478.792C574.43 478.724 574.422 478.659 574.419 478.605C574.416 478.552 574.419 478.525 574.418 478.531L592.308 480.519ZM581.855 461.962C574.894 457.32 564.348 455.9 552.488 455.9V473.9C564.029 473.9 569.733 475.513 571.871 476.938L581.855 461.962ZM552.488 455.9H451.413V473.9H552.488V455.9ZM451.413 455.9C446.313 455.9 442.464 454.273 439.252 451.061L426.524 463.789C433.279 470.543 441.78 473.9 451.413 473.9V455.9ZM439.386 451.198C436.049 447.715 434.413 443.68 434.413 438.575H416.413C416.413 448.203 419.761 456.735 426.39 463.652L439.386 451.198ZM434.413 438.575C434.413 436.265 434.84 434.227 435.635 432.37L419.091 425.28C417.287 429.49 416.413 433.952 416.413 438.575H434.413ZM435.719 432.167C436.585 430.005 437.764 428.227 439.252 426.739L426.524 414.011C423.246 417.289 420.742 421.145 419.007 425.482L435.719 432.167ZM439.252 426.739C440.844 425.148 442.6 423.962 444.558 423.122L437.468 406.578C433.359 408.338 429.7 410.836 426.524 414.011L439.252 426.739ZM444.819 423.006C446.845 422.06 449.008 421.575 451.413 421.575V403.575C446.451 403.575 441.682 404.606 437.207 406.694L444.819 423.006ZM451.413 421.575H566.138V403.575H451.413V421.575ZM566.138 421.575C578.108 421.575 587.849 423.671 595.664 427.487L603.563 411.313C592.744 406.029 580.168 403.575 566.138 403.575V421.575ZM595.664 427.487C604.039 431.578 610.73 436.625 615.915 442.552L629.461 430.698C622.513 422.758 613.82 416.322 603.563 411.313L595.664 427.487ZM615.645 442.228C622.174 450.436 625.666 459.249 626.389 468.827L644.338 467.473C643.327 454.085 638.369 441.881 629.732 431.022L615.645 442.228ZM626.39 468.84C627.152 478.751 625.734 488.476 622.075 498.103L638.901 504.497C643.476 492.458 645.308 480.082 644.337 467.46L626.39 468.84ZM622.243 497.693C619.53 503.893 616.181 509.323 612.222 514.036L626.005 525.614C631.145 519.494 635.38 512.574 638.734 504.907L622.243 497.693ZM612.222 514.036C608.178 518.851 603.555 523.091 598.334 526.765L608.693 541.485C615.172 536.926 620.949 531.633 626.005 525.614L612.222 514.036ZM598.203 526.858C593.099 530.589 587.466 533.856 581.284 536.648L588.692 553.052C595.944 549.778 602.661 545.895 608.823 541.391L598.203 526.858ZM581.41 536.592C575.253 539.26 569.002 541.514 562.654 543.357L567.672 560.643C574.758 558.586 581.723 556.073 588.567 553.108L581.41 536.592ZM562.655 543.357L499.93 561.557L504.946 578.844L567.671 560.643L562.655 543.357ZM499.791 561.598C492.958 563.701 486.777 567.127 481.306 571.817L493.02 585.483C496.649 582.373 500.652 580.166 505.085 578.802L499.791 561.598ZM481.334 571.793C476.253 576.112 472.218 581.061 470 586.763L486.776 593.287C487.592 591.189 489.407 588.555 492.992 585.507L481.334 571.793ZM469.85 587.179C467.748 593.485 468.334 600.014 472.365 605.656L487.012 595.194C486.709 594.77 486.428 594.365 486.926 592.871L469.85 587.179ZM472.818 606.238C475.548 609.465 479.219 611.252 482.766 612.255C486.329 613.262 490.365 613.65 494.638 613.65V595.65C491.328 595.65 489.08 595.334 487.661 594.933C486.224 594.527 486.212 594.202 486.559 594.612L472.818 606.238ZM494.638 613.65H608.713V595.65H494.638V613.65ZM794.253 416.475L789.787 424.289L789.865 424.333L789.943 424.376L794.253 416.475ZM804.978 427.525L796.928 431.55L796.95 431.594L796.972 431.637L804.978 427.525ZM902.803 617.975L894.797 622.087L894.881 622.251L894.972 622.412L902.803 617.975ZM904.753 638.125L896.241 635.199L896.214 635.28L896.187 635.362L904.753 638.125ZM891.753 653.4L895.673 661.501L895.832 661.424L895.988 661.341L891.753 653.4ZM871.278 655.025L868.515 663.59L868.554 663.603L868.593 663.615L871.278 655.025ZM856.003 641.375L864.052 637.35L864.02 637.286L863.987 637.222L856.003 641.375ZM780.278 495.775L788.262 491.622L780.26 476.237L772.286 491.636L780.278 495.775ZM704.878 641.375L696.886 637.236L696.856 637.293L696.828 637.35L704.878 641.375ZM689.278 655.025L691.962 663.615L689.278 655.025ZM668.803 653.4L664.675 661.398L664.778 661.451L664.883 661.501L668.803 653.4ZM655.478 638.125L646.887 640.809L646.9 640.849L646.912 640.888L655.478 638.125ZM657.428 617.975L665.369 622.21L665.393 622.165L665.417 622.119L657.428 617.975ZM756.228 427.525L764.217 431.669L764.247 431.61L764.277 431.55L756.228 427.525ZM766.303 416.475L761.837 408.661L761.754 408.708L761.672 408.758L766.303 416.475ZM790.678 573.775L786.872 581.931L787.189 582.079L787.518 582.202L790.678 573.775ZM799.453 579.625L792.818 585.707L793.083 585.995L793.371 586.259L799.453 579.625ZM805.303 588.075L796.946 591.418L797.085 591.765L797.253 592.1L805.303 588.075ZM799.453 617.325L805.68 623.823L805.685 623.818L799.453 617.325ZM760.778 617.325L754.414 623.689L754.546 623.821L754.684 623.948L760.778 617.325ZM754.928 588.075L746.772 584.269L746.712 584.398L746.655 584.53L754.928 588.075ZM760.778 579.625L754.414 573.261L760.778 579.625ZM769.553 573.775L772.895 582.131L773.028 582.078L773.16 582.02L769.553 573.775ZM780.278 421.575C783.326 421.575 786.459 422.387 789.787 424.289L798.718 408.661C792.947 405.363 786.763 403.575 780.278 403.575V421.575ZM789.943 424.376C793.129 426.114 795.383 428.46 796.928 431.55L813.027 423.5C809.806 417.057 804.91 412.036 798.562 408.574L789.943 424.376ZM796.972 431.637L894.797 622.087L910.808 613.863L812.983 423.413L796.972 431.637ZM894.972 622.412C897.412 626.718 897.768 630.757 896.241 635.199L913.264 641.051C916.503 631.626 915.56 622.232 910.633 613.538L894.972 622.412ZM896.187 635.362C894.772 639.751 892.057 643.038 887.517 645.459L895.988 661.341C904.448 656.829 910.4 649.933 913.318 640.888L896.187 635.362ZM887.833 645.299C883.113 647.582 878.647 647.899 873.962 646.435L868.593 663.615C877.775 666.485 886.959 665.718 895.673 661.501L887.833 645.299ZM874.041 646.46C869.863 645.112 866.555 642.356 864.052 637.35L847.953 645.4C852.383 654.261 859.259 660.605 868.515 663.59L874.041 646.46ZM863.987 637.222L788.262 491.622L772.293 499.928L848.018 645.528L863.987 637.222ZM772.286 491.636L696.886 637.236L712.87 645.514L788.27 499.914L772.286 491.636ZM696.828 637.35C694.373 642.26 691.023 645.05 686.593 646.435L691.962 663.615C701.399 660.666 708.449 654.357 712.927 645.4L696.828 637.35ZM686.593 646.435C681.908 647.899 677.442 647.582 672.723 645.299L664.883 661.501C673.596 665.718 682.78 666.485 691.962 663.615L686.593 646.435ZM672.93 645.402C668.16 642.94 665.424 639.645 664.043 635.362L646.912 640.888C649.864 650.039 656.012 656.926 664.675 661.398L672.93 645.402ZM664.068 635.441C662.632 630.844 663.018 626.617 665.369 622.21L649.486 613.74C644.904 622.333 643.99 631.539 646.887 640.809L664.068 635.441ZM665.417 622.119L764.217 431.669L748.239 423.381L649.439 613.831L665.417 622.119ZM764.277 431.55C765.939 428.227 768.149 425.863 770.933 424.192L761.672 408.758C755.789 412.287 751.283 417.29 748.178 423.5L764.277 431.55ZM770.768 424.289C774.097 422.387 777.23 421.575 780.278 421.575V403.575C773.792 403.575 767.609 405.363 761.837 408.661L770.768 424.289ZM780.278 580.5C782.682 580.5 784.846 580.985 786.872 581.931L794.484 565.619C790.009 563.531 785.24 562.5 780.278 562.5V580.5ZM787.518 582.202C789.726 583.03 791.44 584.203 792.818 585.707L806.087 573.543C802.699 569.847 798.563 567.12 793.838 565.348L787.518 582.202ZM793.371 586.259C794.983 587.737 796.152 589.431 796.946 591.418L813.659 584.732C811.853 580.219 809.122 576.279 805.534 572.991L793.371 586.259ZM797.253 592.1C798.13 593.855 798.578 595.723 798.578 597.825H816.578C816.578 592.993 815.508 588.362 813.352 584.05L797.253 592.1ZM798.578 597.825C798.578 603.281 796.793 607.402 793.22 610.833L805.685 623.818C812.946 616.848 816.578 607.969 816.578 597.825H798.578ZM793.226 610.827C789.796 614.113 785.676 615.8 780.278 615.8V633.8C790.046 633.8 798.709 630.503 805.68 623.823L793.226 610.827ZM780.278 615.8C774.876 615.8 770.572 614.106 766.871 610.702L754.684 623.948C761.817 630.51 770.513 633.8 780.278 633.8V615.8ZM767.142 610.961C763.74 607.559 761.978 603.399 761.978 597.825H743.978C743.978 607.851 747.416 616.691 754.414 623.689L767.142 610.961ZM761.978 597.825C761.978 595.515 762.404 593.477 763.2 591.62L746.655 584.53C744.851 588.74 743.978 593.202 743.978 597.825H761.978ZM763.083 591.881C764.185 589.52 765.546 587.584 767.142 585.989L754.414 573.261C751.242 576.432 748.704 580.13 746.772 584.269L763.083 591.881ZM767.142 585.989C768.924 584.207 770.834 582.956 772.895 582.131L766.21 565.419C761.772 567.194 757.831 569.843 754.414 573.261L767.142 585.989ZM773.16 582.02C775.521 580.987 777.87 580.5 780.278 580.5V562.5C775.318 562.5 770.518 563.529 765.945 565.53L773.16 582.02ZM142.846 869.425L135.712 874.912L135.765 874.98L135.818 875.047L142.846 869.425ZM142.846 832.7L149.874 838.322L149.927 838.255L149.98 838.187L142.846 832.7ZM307.296 834.325L302.621 842.016L302.677 842.049L302.733 842.082L307.296 834.325ZM333.296 859.675L325.593 864.329L325.628 864.387L325.664 864.445L333.296 859.675ZM345.321 894.125L336.386 895.203L336.395 895.279L336.405 895.355L345.321 894.125ZM343.046 930.85L334.363 928.482L334.343 928.556L334.324 928.63L343.046 930.85ZM326.471 963.35L319.519 957.634L319.512 957.642L319.505 957.651L326.471 963.35ZM295.596 984.15L292.707 975.626L280.683 979.702L288.51 989.698L295.596 984.15ZM328.421 1026.07L321.335 1031.62L321.446 1031.77L321.564 1031.9L328.421 1026.07ZM334.596 1039.72L325.633 1040.54L325.635 1040.56L325.637 1040.58L334.596 1039.72ZM332.321 1052.72L324.187 1048.87L324.141 1048.97L324.097 1049.07L332.321 1052.72ZM324.196 1062.8L318.729 1055.65L318.624 1055.73L318.521 1055.81L324.196 1062.8ZM312.496 1068.32L310.731 1059.5L310.466 1059.55L310.206 1059.62L312.496 1068.32ZM299.496 1068L296.65 1076.54L296.835 1076.6L297.024 1076.65L299.496 1068ZM287.146 1058.9L280.086 1064.48L280.118 1064.52L280.151 1064.56L287.146 1058.9ZM231.896 989.025L238.956 983.443L236.253 980.025H231.896V989.025ZM188.021 989.025V980.025H179.021V989.025H188.021ZM184.121 1056.62L191.474 1061.82L191.543 1061.72L191.609 1061.62L184.121 1056.62ZM149.021 1065.07L153.046 1057.03L149.021 1065.07ZM139.271 1056.62L131.783 1061.62L131.849 1061.72L131.918 1061.82L139.271 1056.62ZM142.846 943.525L149.067 950.029L142.846 943.525ZM281.296 932.15L286.763 939.299L286.792 939.277L286.821 939.254L281.296 932.15ZM289.746 921.1L281.539 917.407L281.46 917.581L281.39 917.757L289.746 921.1ZM289.746 892.825L281.39 896.168L281.461 896.344L281.539 896.518L289.746 892.825ZM281.296 882.1L275.575 889.047L275.795 889.229L276.027 889.396L281.296 882.1ZM162.671 868.55C155.687 868.55 152.038 866.508 149.874 863.803L135.818 875.047C142.32 883.175 151.888 886.55 162.671 886.55V868.55ZM149.98 863.938C146.781 859.78 145.346 855.512 145.346 850.9H127.346C127.346 859.722 130.244 867.804 135.712 874.912L149.98 863.938ZM145.346 850.9C145.346 846.298 146.772 842.2 149.874 838.322L135.818 827.078C130.253 834.034 127.346 842.068 127.346 850.9H145.346ZM149.98 838.187C152.189 835.316 155.811 833.25 162.671 833.25V815.25C151.764 815.25 142.17 818.818 135.712 827.213L149.98 838.187ZM162.671 833.25H267.321V815.25H162.671V833.25ZM267.321 833.25C281.614 833.25 293.246 836.317 302.621 842.016L311.971 826.634C299.246 818.9 284.228 815.25 267.321 815.25V833.25ZM302.733 842.082C312.568 847.868 320.125 855.279 325.593 864.329L340.999 855.021C333.9 843.271 324.124 833.782 311.859 826.568L302.733 842.082ZM325.664 864.445C331.441 873.689 335.022 883.905 336.386 895.203L354.256 893.047C352.586 879.212 348.151 866.461 340.928 854.905L325.664 864.445ZM336.405 895.355C337.977 906.752 337.285 917.769 334.363 928.482L351.729 933.218C355.307 920.098 356.131 906.631 354.237 892.895L336.405 895.355ZM334.324 928.63C331.626 939.231 326.719 948.877 319.519 957.634L333.423 969.066C342.256 958.323 348.4 946.302 351.768 933.07L334.324 928.63ZM319.505 957.651C312.874 965.756 304.052 971.781 292.707 975.626L298.485 992.674C312.707 987.853 324.468 980.011 333.437 969.049L319.505 957.651ZM288.51 989.698L321.335 1031.62L335.507 1020.53L302.682 978.602L288.51 989.698ZM321.564 1031.9C324.277 1035.1 325.397 1037.95 325.633 1040.54L343.559 1038.91C342.928 1031.97 339.932 1025.72 335.278 1020.25L321.564 1031.9ZM325.637 1040.58C325.917 1043.52 325.441 1046.23 324.187 1048.87L340.455 1056.58C343.101 1050.99 344.142 1045.03 343.555 1038.87L325.637 1040.58ZM324.097 1049.07C323.028 1051.48 321.321 1053.67 318.729 1055.65L329.663 1069.95C334.437 1066.3 338.148 1061.77 340.545 1056.38L324.097 1049.07ZM318.521 1055.81C316.176 1057.72 313.615 1058.92 310.731 1059.5L314.261 1077.15C320.044 1075.99 325.283 1073.51 329.871 1069.79L318.521 1055.81ZM310.206 1059.62C307.822 1060.25 305.142 1060.25 301.969 1059.35L297.024 1076.65C302.95 1078.35 308.936 1078.57 314.786 1077.03L310.206 1059.62ZM302.342 1059.46C299.748 1058.6 296.984 1056.75 294.141 1053.24L280.151 1064.56C284.675 1070.15 290.144 1074.37 296.65 1076.54L302.342 1059.46ZM294.206 1053.32L238.956 983.443L224.836 994.607L280.086 1064.48L294.206 1053.32ZM231.896 980.025H188.021V998.025H231.896V980.025ZM179.021 989.025V1042H197.021V989.025H179.021ZM179.021 1042C179.021 1046.51 178.028 1049.54 176.633 1051.63L191.609 1061.62C195.414 1055.91 197.021 1049.19 197.021 1042H179.021ZM176.768 1051.43C174.994 1053.95 172.872 1055.76 170.346 1057.03L178.396 1073.12C183.67 1070.49 188.048 1066.67 191.474 1061.82L176.768 1051.43ZM170.346 1057.03C167.751 1058.32 164.911 1059 161.696 1059V1077C167.581 1077 173.191 1075.73 178.396 1073.12L170.346 1057.03ZM161.696 1059C158.481 1059 155.641 1058.32 153.046 1057.03L144.996 1073.12C150.201 1075.73 155.811 1077 161.696 1077V1059ZM153.046 1057.03C150.52 1055.76 148.398 1053.95 146.624 1051.43L131.918 1061.82C135.344 1066.67 139.722 1070.49 144.996 1073.12L153.046 1057.03ZM146.759 1051.63C145.364 1049.54 144.371 1046.51 144.371 1042H126.371C126.371 1049.19 127.978 1055.91 131.783 1061.62L146.759 1051.63ZM144.371 1042V962.05H126.371V1042H144.371ZM144.371 962.05C144.371 956.652 146.045 952.919 149.067 950.029L136.625 937.021C129.68 943.664 126.371 952.281 126.371 962.05H144.371ZM149.067 950.029C152.059 947.167 156.277 945.375 162.671 945.375V927.375C152.599 927.375 143.6 930.35 136.625 937.021L149.067 950.029ZM162.671 945.375H267.321V927.375H162.671V945.375ZM267.321 945.375C274.494 945.375 281.196 943.557 286.763 939.299L275.829 925.001C274.03 926.377 271.414 927.375 267.321 927.375V945.375ZM286.821 939.254C291.905 935.3 295.741 930.346 298.102 924.443L281.39 917.757C280.285 920.52 278.487 922.933 275.771 925.046L286.821 939.254ZM297.953 924.793C300.451 919.242 301.671 913.318 301.671 907.125H283.671C283.671 910.898 282.941 914.291 281.539 917.407L297.953 924.793ZM301.671 907.125C301.671 900.773 300.473 894.732 297.953 889.132L281.539 896.518C282.919 899.585 283.671 903.077 283.671 907.125H301.671ZM298.102 889.482C295.715 883.515 291.803 878.587 286.565 874.804L276.027 889.396C278.589 891.246 280.31 893.469 281.39 896.168L298.102 889.482ZM287.017 875.153C281.442 870.562 274.647 868.55 267.321 868.55V886.55C271.261 886.55 273.783 887.572 275.575 889.047L287.017 875.153ZM267.321 868.55H162.671V886.55H267.321V868.55ZM505.775 1056.62L513.127 1061.82L513.196 1061.72L513.263 1061.62L505.775 1056.62ZM470.674 1065.07L466.65 1073.12L470.674 1065.07ZM460.924 1056.62L453.436 1061.62L453.503 1061.72L453.572 1061.82L460.924 1056.62ZM457.025 877.55H466.025V868.55H457.025V877.55ZM372.2 869.425L365.066 874.912L365.118 874.98L365.172 875.047L372.2 869.425ZM372.2 833.025L379.227 838.647L379.281 838.58L379.333 838.512L372.2 833.025ZM593.85 833.025L586.716 838.512L586.768 838.58L586.822 838.647L593.85 833.025ZM593.85 869.425L600.877 875.047L600.931 874.98L600.983 874.912L593.85 869.425ZM509.674 877.55V868.55H500.674V877.55H509.674ZM500.674 1042C500.674 1046.51 499.681 1049.54 498.286 1051.63L513.263 1061.62C517.068 1055.91 518.674 1049.19 518.674 1042H500.674ZM498.422 1051.43C496.648 1053.95 494.525 1055.76 492 1057.03L500.049 1073.12C505.324 1070.49 509.701 1066.67 513.127 1061.82L498.422 1051.43ZM492 1057.03C489.404 1058.32 486.565 1059 483.35 1059V1077C489.234 1077 494.845 1075.73 500.049 1073.12L492 1057.03ZM483.35 1059C480.134 1059 477.295 1058.32 474.699 1057.03L466.65 1073.12C471.854 1075.73 477.465 1077 483.35 1077V1059ZM474.699 1057.03C472.174 1055.76 470.051 1053.95 468.277 1051.43L453.572 1061.82C456.998 1066.67 461.375 1070.49 466.65 1073.12L474.699 1057.03ZM468.413 1051.63C467.018 1049.54 466.025 1046.51 466.025 1042H448.025C448.025 1049.19 449.631 1055.91 453.436 1061.62L468.413 1051.63ZM466.025 1042V877.55H448.025V1042H466.025ZM457.025 868.55H391.7V886.55H457.025V868.55ZM391.7 868.55C385.019 868.55 381.435 866.562 379.227 863.803L365.172 875.047C371.631 883.121 381.047 886.55 391.7 886.55V868.55ZM379.333 863.938C376.09 859.722 374.7 855.552 374.7 851.225H356.7C356.7 859.898 359.642 867.862 365.066 874.912L379.333 863.938ZM374.7 851.225C374.7 846.623 376.125 842.525 379.227 838.647L365.172 827.403C359.607 834.359 356.7 842.393 356.7 851.225H374.7ZM379.333 838.512C381.586 835.584 385.145 833.575 391.7 833.575V815.575C380.921 815.575 371.48 819.199 365.066 827.538L379.333 838.512ZM391.7 833.575H574.35V815.575H391.7V833.575ZM574.35 833.575C580.904 833.575 584.463 835.584 586.716 838.512L600.983 827.538C594.569 819.199 585.128 815.575 574.35 815.575V833.575ZM586.822 838.647C589.924 842.525 591.35 846.623 591.35 851.225H609.35C609.35 842.393 606.442 834.359 600.877 827.403L586.822 838.647ZM591.35 851.225C591.35 855.552 589.959 859.722 586.716 863.938L600.983 874.912C606.407 867.862 609.35 859.898 609.35 851.225H591.35ZM586.822 863.803C584.614 866.562 581.03 868.55 574.35 868.55V886.55C585.003 886.55 594.418 883.121 600.877 875.047L586.822 863.803ZM574.35 868.55H509.674V886.55H574.35V868.55ZM500.674 877.55V1042H518.674V877.55H500.674ZM627.451 832.05L621.964 824.916L621.896 824.969L621.829 825.022L627.451 832.05ZM645.651 825.55V834.55H645.797L645.942 834.545L645.651 825.55ZM663.851 831.725L658.229 838.753L658.296 838.806L658.364 838.859L663.851 831.725ZM677.826 879.825L686.196 876.516L677.826 879.825ZM692.451 904.525L685.589 910.348L685.616 910.38L685.644 910.412L692.451 904.525ZM716.501 922.725L712.792 930.925L712.908 930.978L713.026 931.027L716.501 922.725ZM772.727 922.725L776.272 930.997L776.354 930.962L776.436 930.925L772.727 922.725ZM796.776 904.525L790.016 898.584L789.992 898.611L789.969 898.638L796.776 904.525ZM811.727 879.825L803.424 876.35L803.39 876.433L803.357 876.516L811.727 879.825ZM816.927 851.55L807.951 850.893L807.912 851.426L807.936 851.959L816.927 851.55ZM826.026 831.725L831.649 838.753L831.665 838.74L831.682 838.726L826.026 831.725ZM844.227 825.225L843.927 834.22L844.077 834.225H844.227V825.225ZM861.776 832.05L855.85 838.823L855.999 838.954L856.154 839.078L861.776 832.05ZM861.126 898.675L869.508 901.955L869.516 901.934L869.523 901.914L861.126 898.675ZM836.751 939.625L843.392 945.7L843.517 945.564L843.636 945.422L836.751 939.625ZM806.201 964.65L801.638 956.893L801.605 956.912L801.571 956.933L806.201 964.65ZM770.776 977.975L769.127 969.127L761.776 970.498V977.975H770.776ZM762.651 1062.15L768.274 1069.18L762.651 1062.15ZM726.576 1062.15L720.788 1069.04L720.87 1069.11L720.954 1069.18L726.576 1062.15ZM718.451 977.975H727.451V970.546L720.157 969.138L718.451 977.975ZM683.026 964.65L678.463 972.407L678.496 972.427L678.529 972.446L683.026 964.65ZM652.476 939.625L645.592 945.422L645.711 945.564L645.836 945.7L652.476 939.625ZM628.101 898.675L619.704 901.914L619.712 901.934L619.72 901.955L628.101 898.675ZM628.326 851.55C628.326 844.87 630.315 841.285 633.074 839.078L621.829 825.022C613.755 831.482 610.326 840.897 610.326 851.55H628.326ZM632.939 839.184C637.155 835.941 641.324 834.55 645.651 834.55V816.55C636.979 816.55 629.015 819.493 621.964 824.916L632.939 839.184ZM645.942 834.545C650.442 834.4 654.427 835.711 658.229 838.753L669.474 824.697C662.442 819.072 654.294 816.266 645.361 816.555L645.942 834.545ZM658.364 838.859C661.236 841.068 663.301 844.69 663.301 851.55H681.301C681.301 840.643 677.734 831.049 669.339 824.591L658.364 838.859ZM663.301 851.55C663.301 862.273 665.378 872.818 669.457 883.134L686.196 876.516C682.908 868.198 681.301 859.893 681.301 851.55H663.301ZM669.457 883.134C673.477 893.302 678.844 902.398 685.589 910.348L699.314 898.702C693.926 892.352 689.543 884.981 686.196 876.516L669.457 883.134ZM685.644 910.412C693.377 919.354 702.432 926.238 712.792 930.925L720.211 914.525C712.371 910.978 705.392 905.73 699.259 898.638L685.644 910.412ZM713.026 931.027C723.377 935.36 733.98 937.575 744.776 937.575V919.575C736.506 919.575 728.259 917.89 719.977 914.423L713.026 931.027ZM744.776 937.575C755.576 937.575 766.096 935.359 776.272 930.997L769.181 914.453C761.157 917.891 753.044 919.575 744.776 919.575V937.575ZM776.436 930.925C786.796 926.238 795.851 919.354 803.584 910.412L789.969 898.638C783.836 905.73 776.857 910.978 769.017 914.525L776.436 930.925ZM803.537 910.466C810.539 902.498 816.052 893.363 820.096 883.134L803.357 876.516C800.034 884.92 795.58 892.252 790.016 898.584L803.537 910.466ZM820.028 883.3C824.412 872.829 826.414 862.081 825.917 851.141L807.936 851.959C808.305 860.085 806.841 868.188 803.424 876.35L820.028 883.3ZM825.902 852.207C826.425 845.07 828.707 841.106 831.649 838.753L820.404 824.697C812.512 831.011 808.728 840.264 807.951 850.893L825.902 852.207ZM831.682 838.726C835.838 835.369 839.835 834.084 843.927 834.22L844.526 816.23C835.618 815.933 827.482 818.981 820.371 824.724L831.682 838.726ZM844.227 834.225C848.402 834.225 852.178 835.61 855.85 838.823L867.703 825.277C860.975 819.39 853.051 816.225 844.227 816.225V834.225ZM856.154 839.078C858.913 841.285 860.901 844.87 860.901 851.55H878.901C878.901 840.897 875.473 831.482 867.399 825.022L856.154 839.078ZM860.901 851.55C860.901 866.692 858.181 881.302 852.729 895.436L869.523 901.914C875.772 885.714 878.901 868.908 878.901 851.55H860.901ZM852.745 895.395C847.256 909.425 839.638 922.225 829.867 933.828L843.636 945.422C854.665 932.325 863.297 917.825 869.508 901.955L852.745 895.395ZM830.111 933.55C821.353 943.123 811.859 950.88 801.638 956.893L810.765 972.407C822.644 965.42 833.516 956.494 843.392 945.7L830.111 933.55ZM801.571 956.933C791.683 962.865 780.889 966.935 769.127 969.127L772.426 986.823C786.231 984.249 799.053 979.435 810.832 972.367L801.571 956.933ZM761.776 977.975V1042H779.776V977.975H761.776ZM761.776 1042C761.776 1049.29 759.684 1053 757.029 1055.12L768.274 1069.18C776.453 1062.63 779.776 1052.91 779.776 1042H761.776ZM757.029 1055.12C753.152 1058.22 749.053 1059.65 744.451 1059.65V1077.65C753.283 1077.65 761.318 1074.74 768.274 1069.18L757.029 1055.12ZM744.451 1059.65C740.138 1059.65 736.135 1058.27 732.199 1055.12L720.954 1069.18C727.852 1074.7 735.765 1077.65 744.451 1077.65V1059.65ZM732.365 1055.26C729.489 1052.84 727.451 1048.96 727.451 1042H709.451C709.451 1052.8 712.831 1062.36 720.788 1069.04L732.365 1055.26ZM727.451 1042V977.975H709.451V1042H727.451ZM720.157 969.138C708.822 966.951 697.954 962.872 687.524 956.854L678.529 972.446C690.632 979.428 703.381 984.233 716.746 986.812L720.157 969.138ZM687.59 956.893C677.369 950.88 667.875 943.123 659.117 933.55L645.836 945.7C655.711 956.494 666.584 965.42 678.463 972.407L687.59 956.893ZM659.361 933.828C649.59 922.225 641.972 909.425 636.483 895.395L619.72 901.955C625.931 917.825 634.563 932.325 645.592 945.422L659.361 933.828ZM636.498 895.436C631.047 881.302 628.326 866.692 628.326 851.55H610.326C610.326 868.908 613.456 885.714 619.704 901.914L636.498 895.436Z" fill="url(#paint0_linear_962_689)"/>
<defs>
<linearGradient id="paint0_linear_962_689" x1="1031" y1="3" x2="1036.2" y2="1370.48" gradientUnits="userSpaceOnUse">
<stop stop-color="#933C8C"/>
<stop offset="0.276042" stop-color="#D55F67"/>
<stop offset="0.739583" stop-color="#F9CC4C"/>
</linearGradient>
</defs>
</svg>
