<svg width="525" height="525" viewBox="0 0 525 525" fill="none" xmlns="http://www.w3.org/2000/svg">
<path d="M255.69 0H269.375C271.408 0.11 273.427 0.33 275.43 0.66C277.285 0.965 279.24 0.995 281.245 1.28C327.12 7.86 366.19 36.64 386.06 78.585C398.745 105.35 401.95 135.495 396.16 164.63C388.16 204.865 365.62 242.7 337.36 271.985C322.435 287.445 304.27 301.87 283.94 310.31C283.877 310.337 283.821 310.379 283.777 310.432C283.734 310.486 283.704 310.549 283.691 310.616C283.677 310.683 283.681 310.753 283.701 310.818C283.721 310.883 283.757 310.942 283.805 310.99C285.728 312.903 287.66 314.79 289.6 316.65C292.175 319.13 294.04 321.97 293.99 325.51C293.92 330.425 290.675 334.525 285.83 335.665C283.755 336.155 280.985 336.01 278.685 335.96C278.621 335.958 278.557 335.972 278.5 336C278.442 336.029 278.393 336.072 278.356 336.124C278.319 336.177 278.296 336.238 278.289 336.302C278.282 336.366 278.291 336.43 278.315 336.49C287.19 358.635 294.645 382.76 293.695 406.69C292.865 427.58 282.345 445.18 268.18 460.06C260.73 467.885 252.905 475.54 246.37 484C238.963 493.6 233.805 504.352 230.895 516.255C229.685 521.205 226.618 524.12 221.695 525H219.5C216.077 524.54 213.465 522.902 211.665 520.085C209.73 517.05 209.8 514.31 210.695 510.64C214.222 496.177 220.502 483.1 229.535 471.41C237.245 461.44 246.59 452.285 255.41 443.035C257.713 440.618 260.237 437.48 262.98 433.62C270.525 423 273.26 411.35 272.635 398.5C272.192 389.433 270.722 380.533 268.225 371.8C264.775 359.71 260.385 348.085 255.705 336.44C255.644 336.292 255.541 336.166 255.409 336.078C255.277 335.99 255.123 335.944 254.965 335.945C251.058 335.995 247.168 336 243.295 335.96C240.742 335.933 238.827 335.667 237.55 335.16C231.545 332.78 229.11 325.34 232.655 319.875C233.232 318.982 234.053 318.023 235.12 317C237.16 315.04 239.165 313.048 241.135 311.025C241.19 310.968 241.23 310.898 241.252 310.822C241.274 310.746 241.277 310.666 241.26 310.589C241.244 310.511 241.209 310.439 241.158 310.378C241.108 310.318 241.043 310.27 240.97 310.24C224.59 303.48 209.83 292.925 196.865 280.89C166.94 253.12 142.865 216.865 131.82 177.275C127.195 160.7 125.11 143.285 126.445 125.73C131.285 62.11 180.35 10.495 243.435 1.33C245.805 0.985 248.32 0.94 250.76 0.505C252.377 0.218333 254.02 0.05 255.69 0ZM244.44 22.46C194.765 30.25 156.105 69.515 148.32 118.925C140.9 166.04 165.125 215.125 195.25 249.445C205.855 261.53 217.64 272.735 230.365 281.265C242.225 289.215 256.795 296.77 270.885 292.82C281.465 289.855 291.245 284.065 300.225 277.235C309.895 269.885 318.797 261.698 326.93 252.675C357.18 219.125 381.805 172.175 377.485 125.885C373.945 87.91 351.665 53.815 318.595 35.535C304.442 27.715 289.845 23.0717 274.805 21.605C268.002 20.9417 260.022 20.9183 250.865 21.535C248.73 21.68 246.605 22.12 244.44 22.46Z" fill="#FD0000"/>
<path d="M218.335 77.8396C200.235 91.4696 189.08 112.98 189.01 135.63C189.003 137.82 188.538 139.78 187.615 141.51C182.86 150.415 169.325 147.71 168.175 137.945C168.015 136.605 167.988 134.79 168.095 132.5C170.43 82.1696 211.47 42.3646 262 41.9896C274.735 41.8946 277.155 59.5146 264.815 62.6496C262.945 63.1246 260.38 63.0896 258.255 63.2146C243.435 64.0813 230.128 68.9563 218.335 77.8396Z" fill="#FD0000"/>
</svg>
