<svg width="49" height="67" viewBox="0 0 49 67" fill="none" xmlns="http://www.w3.org/2000/svg">
<path d="M9.18586 34.3264C9.73763 37.0836 10.7494 42.8833 10.7494 42.8833L10.6575 51.1551C10.6575 51.1551 9.62349 51.2286 9.18586 51.2501C4.66804 51.2501 1 47.4584 1 42.7883C1 38.1179 4.66804 34.3264 9.18586 34.3264Z" fill="white"/>
<path d="M9.18586 34.3264C9.73763 37.0836 10.7494 42.8833 10.7494 42.8833L10.6575 51.1551C10.6575 51.1551 9.62349 51.2286 9.18586 51.2501C4.66804 51.2501 1 47.4584 1 42.7883C1 38.1179 4.66804 34.3264 9.18586 34.3264Z" fill="white" stroke="#848484"/>
<path d="M9.92334 47.4618C9.43734 47.637 8.91518 47.7324 8.37149 47.7324C5.77618 47.7324 3.66895 45.5596 3.66895 42.8834C3.66895 40.2072 5.77618 38.0344 8.37149 38.0344C8.91518 38.0344 9.43734 38.1298 9.92334 38.3052V47.4618Z" fill="white"/>
<path d="M9.92334 47.462C9.43734 47.6372 8.91518 47.7326 8.37149 47.7326C5.77618 47.7326 3.66895 45.5599 3.66895 42.8836C3.66895 40.2074 5.77618 38.0347 8.37149 38.0347C8.91518 38.0347 9.43734 38.13 9.92334 38.3054V47.462Z" fill="white" stroke="#848484"/>
<path d="M39.8155 34.3259C39.2637 37.0831 38.252 42.8828 38.252 42.8828L38.3439 51.1546C38.3439 51.1546 39.3779 51.2281 39.8155 51.2496C44.3333 51.2496 48.0014 47.458 48.0014 42.7878C48.0014 38.1174 44.3333 34.3259 39.8155 34.3259Z" fill="white"/>
<path d="M39.8155 34.3262C39.2637 37.0833 38.252 42.883 38.252 42.883L38.3439 51.1549C38.3439 51.1549 39.3779 51.2284 39.8155 51.2499C44.3333 51.2499 48.0014 47.4582 48.0014 42.788C48.0014 38.1177 44.3333 34.3262 39.8155 34.3262Z" fill="white" stroke="#848484"/>
<path d="M39.0762 38.3057C39.5622 38.1303 40.0843 38.0349 40.628 38.0349C43.2233 38.0349 45.3306 40.2077 45.3306 42.8839C45.3306 45.5601 43.2233 47.7329 40.628 47.7329C40.0843 47.7329 39.5622 47.6375 39.0762 47.4623V38.3057Z" fill="white"/>
<path d="M39.0762 38.3059C39.5622 38.1305 40.0843 38.0352 40.628 38.0352C43.2233 38.0352 45.3306 40.2079 45.3306 42.8841C45.3306 45.5603 43.2233 47.7331 40.628 47.7331C40.0843 47.7331 39.5622 47.6377 39.0762 47.4625V38.3059Z" fill="white" stroke="#848484"/>
<path d="M20.3151 2C20.3151 2 21.8784 5.72461 19.9472 11.6029C19.1195 14.1224 17.1834 15.5394 16.2682 17.0223C15.0913 18.9289 15.0725 20.7303 15.0725 20.7303C15.0725 20.7303 14.8021 22.2466 15.4404 25.1989C15.9671 27.6344 16.82 28.812 16.82 28.812C16.82 28.812 17.5923 28.5467 18.8435 28.6693C20.5049 28.8319 21.1889 29.2399 21.1889 29.2399C21.1889 29.2399 26.9374 24.153 27.0294 16.6419C27.1521 6.61716 20.3151 2 20.3151 2Z" fill="white"/>
<path d="M20.3161 2C20.3161 2 21.8793 5.72461 19.9482 11.6029C19.1205 14.1224 17.1844 15.5394 16.2692 17.0223C15.0923 18.9289 15.0735 20.7303 15.0735 20.7303C15.0735 20.7303 14.803 22.2466 15.4414 25.1989C15.968 27.6344 16.8209 28.812 16.8209 28.812C16.8209 28.812 17.5932 28.5467 18.8445 28.6693C20.5058 28.8319 21.1898 29.2399 21.1898 29.2399C21.1898 29.2399 26.9384 24.153 27.0304 16.6419C27.1531 6.61716 20.3161 2 20.3161 2Z" fill="white" stroke="#848484"/>
<path d="M20.4531 2.23682C20.4531 2.23682 28.1332 4.09076 30.8005 13.4085C32.7438 20.1974 28.5471 28.9536 28.5471 28.9536C28.5471 28.9536 27.8715 28.9204 26.4775 29.7144C24.867 30.6316 24.2701 31.5683 24.2701 31.5683C24.2701 31.5683 23.9425 30.7928 22.8446 30.047C21.7963 29.3351 21.051 29.2865 21.051 29.2865C21.051 29.2865 26.5696 24.6752 27.0295 16.9264C26.8454 6.08756 20.4531 2.23682 20.4531 2.23682Z" fill="white"/>
<path d="M20.4531 2.23682C20.4531 2.23682 28.1332 4.09076 30.8005 13.4085C32.7438 20.1974 28.5471 28.9536 28.5471 28.9536C28.5471 28.9536 27.8715 28.9204 26.4775 29.7144C24.867 30.6316 24.2701 31.5683 24.2701 31.5683C24.2701 31.5683 23.9425 30.7928 22.8446 30.047C21.7963 29.3351 21.051 29.2865 21.051 29.2865C21.051 29.2865 26.5696 24.6752 27.0295 16.9264C26.8454 6.08756 20.4531 2.23682 20.4531 2.23682Z" fill="white" stroke="#848484"/>
<path d="M32.1778 9.79517C32.1778 9.79517 32.746 11.3479 32.4077 13.8836C32.1329 15.9434 31.258 16.6884 31.258 16.6884L28.1309 28.9059L30.7981 28.6682C30.7981 28.6682 36.1786 25.6732 36.4087 20.3488C36.3627 13.5507 32.1778 9.79517 32.1778 9.79517Z" fill="white"/>
<path d="M32.1778 9.79492C32.1778 9.79492 32.746 11.3477 32.4077 13.8833C32.1329 15.9431 31.258 16.6882 31.258 16.6882L28.1309 28.9056L30.7981 28.6679C30.7981 28.6679 36.1786 25.6729 36.4087 20.3486C36.3627 13.5505 32.1778 9.79492 32.1778 9.79492Z" fill="white" stroke="#848484"/>
<path d="M32.1785 9.89185C32.1785 9.89185 37.0532 15.121 36.1334 21.4912C34.8458 26.5304 30.7988 28.7172 30.7988 28.7172L32.4543 28.8599C32.4543 28.8599 38.8007 26.9107 38.9847 20.5405C38.8828 13.5307 32.1785 9.89185 32.1785 9.89185Z" fill="white"/>
<path d="M32.1785 9.89185C32.1785 9.89185 37.0532 15.121 36.1334 21.4912C34.8458 26.5304 30.7988 28.7172 30.7988 28.7172L32.4543 28.8599C32.4543 28.8599 38.8007 26.9107 38.9847 20.5405C38.8828 13.5307 32.1785 9.89185 32.1785 9.89185Z" fill="white" stroke="#848484"/>
<path d="M16.2655 9.03613C16.2655 9.03613 14.5981 14.8095 13.5651 15.5211C10.8373 17.4003 9.59082 21.1854 9.45929 22.1568C8.44751 27.5763 14.1959 29.8581 14.1959 29.8581C14.1959 29.8581 14.3436 29.6026 14.8398 29.3827C15.202 29.2223 15.5297 29.2877 15.5297 29.2877C15.5297 29.2877 12.1725 24.1534 12.3104 22.6323C12.5931 19.5156 14.5106 18.3742 15.1158 16.1669C16.0914 12.6083 16.2655 9.03613 16.2655 9.03613Z" fill="white"/>
<path d="M16.2655 9.03613C16.2655 9.03613 14.5981 14.8095 13.5651 15.5211C10.8373 17.4003 9.59082 21.1854 9.45929 22.1568C8.44751 27.5763 14.1959 29.8581 14.1959 29.8581C14.1959 29.8581 14.3436 29.6026 14.8398 29.3827C15.202 29.2223 15.5297 29.2877 15.5297 29.2877C15.5297 29.2877 12.1725 24.1534 12.3104 22.6323C12.5931 19.5156 14.5106 18.3742 15.1158 16.1669C16.0914 12.6083 16.2655 9.03613 16.2655 9.03613Z" fill="white" stroke="#848484"/>
<path d="M16.2666 9.13037C16.2666 9.13037 15.9907 12.2204 14.795 16.5465C14.5177 17.5501 13.6465 18.5029 13.2774 19.3037C12.4941 21.0032 12.3257 21.3965 12.2656 22.2037C12.2197 22.8216 12.1486 23.6419 13.3234 26.2444C14.2945 28.3958 15.4389 29.1918 15.4389 29.1918C15.4389 29.1918 15.5883 28.9351 16.0366 28.8116C16.5082 28.6816 16.8184 28.8116 16.8184 28.8116C16.8184 28.8116 15.4329 26.4122 15.6228 21.3005C15.7001 19.222 17.584 16.9432 17.7383 14.0745C17.9221 10.6516 16.2666 9.13037 16.2666 9.13037Z" fill="white"/>
<path d="M16.2666 9.13037C16.2666 9.13037 15.9907 12.2204 14.795 16.5465C14.5177 17.5501 13.6465 18.5029 13.2774 19.3037C12.4941 21.0032 12.3257 21.3965 12.2656 22.2037C12.2197 22.8216 12.1486 23.6419 13.3234 26.2444C14.2945 28.3958 15.4389 29.1918 15.4389 29.1918C15.4389 29.1918 15.5883 28.9351 16.0366 28.8116C16.5082 28.6816 16.8184 28.8116 16.8184 28.8116C16.8184 28.8116 15.4329 26.4122 15.6228 21.3005C15.7001 19.222 17.584 16.9432 17.7383 14.0745C17.9221 10.6516 16.2666 9.13037 16.2666 9.13037Z" fill="white" stroke="#848484"/>
<path d="M18.9362 41.2193C18.9362 41.2193 16.6812 41.5045 13.8742 43.0732C11.858 44.2001 11.5271 46.3059 11.5271 46.3059C11.5271 46.3059 8.73433 43.6496 7.12395 38.1922C6.71352 36.801 6.37987 35.228 6.18895 33.4705C5.10417 23.4877 8.48987 18.353 8.48987 18.353C8.48987 18.353 7.52164 21.5222 8.58197 26.4347C9.54641 30.9033 11.5271 32.4246 11.5271 32.4246C11.5271 32.4246 9.8866 33.8713 10.1466 37.4637C10.3774 40.6534 12.2634 42.5979 12.2634 42.5979C12.2634 42.5979 13.598 41.7896 15.2086 41.5045C17.4427 41.1088 18.9362 41.2193 18.9362 41.2193Z" fill="white"/>
<path d="M18.9362 41.219C18.9362 41.219 16.6812 41.5042 13.8742 43.073C11.858 44.1998 11.5271 46.3057 11.5271 46.3057C11.5271 46.3057 8.73433 43.6494 7.12395 38.192C6.71352 36.8008 6.37987 35.2277 6.18895 33.4702C5.10417 23.4875 8.48987 18.3528 8.48987 18.3528C8.48987 18.3528 7.52164 21.522 8.58197 26.4345C9.54641 30.9031 11.5271 32.4243 11.5271 32.4243C11.5271 32.4243 9.8866 33.871 10.1466 37.4635C10.3774 40.6531 12.2634 42.5976 12.2634 42.5976C12.2634 42.5976 13.598 41.7894 15.2086 41.5042C17.4427 41.1086 18.9362 41.219 18.9362 41.219Z" fill="white" stroke="#848484"/>
<path d="M8.45014 18.353C8.45014 18.353 7.36536 21.2644 8.54207 26.7199C9.38893 30.6453 11.4853 32.4246 11.4853 32.4246C11.4853 32.4246 11.7809 31.7361 12.7269 30.8558C13.6204 30.0246 14.2447 29.8574 14.2447 29.8574C14.2447 29.8574 11.6694 28.7165 10.1977 26.1495C8.26438 22.777 8.45014 18.353 8.45014 18.353Z" fill="white"/>
<path d="M8.45014 18.3528C8.45014 18.3528 7.36536 21.2642 8.54207 26.7196C9.38893 30.6451 11.4853 32.4243 11.4853 32.4243C11.4853 32.4243 11.7809 31.7358 12.7269 30.8556C13.6204 30.0244 14.2447 29.8572 14.2447 29.8572C14.2447 29.8572 11.6694 28.7163 10.1977 26.1493C8.26438 22.7767 8.45014 18.3528 8.45014 18.3528Z" fill="white" stroke="#848484"/>
<path d="M40.0038 18.353C40.0038 18.353 41.0848 21.2169 39.9071 26.6724C39.0597 30.5978 36.9661 32.4246 36.9661 32.4246C36.9661 32.4246 35.9333 31.0705 34.9864 30.1903C34.0924 29.3591 32.457 28.9067 32.457 28.9067C32.457 28.9067 34.5789 28.1787 36.688 26.0543C40.275 22.4415 40.0038 18.353 40.0038 18.353Z" fill="white"/>
<path d="M40.0038 18.3528C40.0038 18.3528 41.0848 21.2167 39.9071 26.6721C39.0597 30.5976 36.9661 32.4243 36.9661 32.4243C36.9661 32.4243 35.9333 31.0703 34.9864 30.19C34.0924 29.3589 32.457 28.9064 32.457 28.9064C32.457 28.9064 34.5789 28.1785 36.688 26.0541C40.275 22.4412 40.0038 18.3528 40.0038 18.3528Z" fill="white" stroke="#848484"/>
<path d="M29.5586 41.2193C29.5586 41.2193 31.812 41.5045 34.6172 43.0732C36.632 44.2001 36.9625 46.3059 36.9625 46.3059C36.9625 46.3059 41.3576 42.1229 42.2972 33.4705C43.3811 23.4877 39.9979 18.353 39.9979 18.353C39.9979 18.353 40.9654 21.5222 39.9058 26.4347C38.942 30.9033 36.9625 32.4246 36.9625 32.4246C36.9625 32.4246 38.602 33.8713 38.3422 37.4637C38.1115 40.6534 36.2267 42.5979 36.2267 42.5979C36.2267 42.5979 34.8931 41.7896 33.2836 41.5045C31.051 41.1088 29.5586 41.2193 29.5586 41.2193Z" fill="white"/>
<path d="M29.5586 41.2195C29.5586 41.2195 31.812 41.5047 34.6172 43.0735C36.632 44.2003 36.9625 46.3062 36.9625 46.3062C36.9625 46.3062 41.3576 42.1231 42.2972 33.4707C43.3811 23.488 39.9979 18.3533 39.9979 18.3533C39.9979 18.3533 40.9654 21.5225 39.9058 26.4349C38.942 30.9036 36.9625 32.4248 36.9625 32.4248C36.9625 32.4248 38.602 33.8715 38.3422 37.464C38.1115 40.6536 36.2267 42.5981 36.2267 42.5981C36.2267 42.5981 34.8931 41.7899 33.2836 41.5047C31.051 41.109 29.5586 41.2195 29.5586 41.2195Z" fill="white" stroke="#848484"/>
<path d="M39.3541 43.0731C39.3541 43.0731 41.8611 39.1348 42.3893 32.4244C43.0261 24.3344 41.1017 20.8726 41.1017 20.8726C41.1017 20.8726 42.5213 24.3664 41.3775 31.2835C40.6818 35.4906 38.3423 37.5586 38.3423 37.5586C38.3423 37.5586 38.4969 38.1857 37.7905 40.0306C37.3319 41.2282 36.5947 42.1224 36.5947 42.1224" fill="white"/>
<path d="M39.3541 43.0733C39.3541 43.0733 41.8611 39.1351 42.3893 32.4247C43.0261 24.3347 41.1017 20.8728 41.1017 20.8728C41.1017 20.8728 42.5213 24.3667 41.3775 31.2838C40.6818 35.4909 38.3423 37.5588 38.3423 37.5588C38.3423 37.5588 38.4969 38.1859 37.7905 40.0308C37.3319 41.2285 36.5947 42.1226 36.5947 42.1226" fill="white"/>
<path d="M39.3541 43.0733C39.3541 43.0733 41.8611 39.1351 42.3893 32.4247C43.0261 24.3347 41.1017 20.8728 41.1017 20.8728C41.1017 20.8728 42.5213 24.3667 41.3775 31.2838C40.6818 35.4909 38.3423 37.5588 38.3423 37.5588C38.3423 37.5588 38.4969 38.1859 37.7905 40.0308C37.3319 41.2285 36.5947 42.1226 36.5947 42.1226" stroke="#848484"/>
<path d="M30.4541 39.4142C31.9653 39.4142 33.1903 38.1478 33.1903 36.5856C33.1903 35.0235 31.9653 33.7571 30.4541 33.7571C28.9429 33.7571 27.7178 35.0235 27.7178 36.5856C27.7178 38.1478 28.9429 39.4142 30.4541 39.4142Z" fill="white"/>
<path d="M30.4541 39.4142C31.9653 39.4142 33.1903 38.1478 33.1903 36.5856C33.1903 35.0235 31.9653 33.7571 30.4541 33.7571C28.9429 33.7571 27.7178 35.0235 27.7178 36.5856C27.7178 38.1478 28.9429 39.4142 30.4541 39.4142Z" fill="white" stroke="#848484"/>
<path d="M17.9732 39.4617C16.4747 39.4617 15.2599 38.1847 15.2599 36.6094C15.2599 35.0341 16.4747 33.7571 17.9732 33.7571C19.4717 33.7571 20.6865 35.0341 20.6865 36.6094C20.6865 38.1847 19.4717 39.4617 17.9732 39.4617Z" fill="white"/>
<path d="M17.9732 39.462C16.4747 39.462 15.2599 38.185 15.2599 36.6097C15.2599 35.0344 16.4747 33.7573 17.9732 33.7573C19.4717 33.7573 20.6865 35.0344 20.6865 36.6097C20.6865 38.185 19.4717 39.462 17.9732 39.462Z" fill="white" stroke="#848484"/>
<path d="M15.8984 47.542C15.8984 47.542 18.5433 50.2992 23.9924 50.2992C29.6459 50.2992 32.5523 47.542 32.5523 47.542C32.5523 47.542 31.7349 49.1554 28.775 50.5843C26.0894 51.8809 24.0843 51.6302 24.0843 51.6302C24.0843 51.6302 22.4328 51.8298 20.1293 50.6795C16.9755 49.1044 15.8984 47.542 15.8984 47.542Z" fill="white"/>
<path d="M15.8984 47.542C15.8984 47.542 18.5433 50.2992 23.9924 50.2992C29.6459 50.2992 32.5523 47.542 32.5523 47.542C32.5523 47.542 31.7349 49.1554 28.775 50.5843C26.0894 51.8809 24.0843 51.6302 24.0843 51.6302C24.0843 51.6302 22.4328 51.8298 20.1293 50.6795C16.9755 49.1044 15.8984 47.542 15.8984 47.542Z" fill="white" stroke="#848484"/>
<path d="M29.6954 56.3853C29.6954 56.3853 29.8631 56.7533 29.9714 57.5737C30.0471 58.1479 29.9714 58.4769 29.9714 58.4769C29.9714 58.4769 28.962 59.0682 28.2697 60.7112C27.0281 63.6587 27.396 65.5126 27.396 65.5126C27.396 65.5126 26.6793 65.2735 25.9244 63.8964C25.1426 62.4701 25.1886 60.9474 25.2346 60.1883C25.3265 58.6671 25.9244 57.431 25.9244 57.431C25.9244 57.431 26.6301 57.4 27.718 57.0983C29.1441 56.7026 29.6954 56.3853 29.6954 56.3853Z" fill="white"/>
<path d="M29.6954 56.3855C29.6954 56.3855 29.8631 56.7536 29.9714 57.5739C30.0471 58.1482 29.9714 58.4771 29.9714 58.4771C29.9714 58.4771 28.962 59.0685 28.2697 60.7114C27.0281 63.6589 27.396 65.5129 27.396 65.5129C27.396 65.5129 26.6793 65.2738 25.9244 63.8966C25.1426 62.4704 25.1886 60.9477 25.2346 60.1886C25.3265 58.6673 25.9244 57.4312 25.9244 57.4312C25.9244 57.4312 26.6301 57.4003 27.718 57.0985C29.1441 56.7029 29.6954 56.3855 29.6954 56.3855Z" fill="white" stroke="#848484"/>
<path d="M18.7529 56.2893C18.7529 56.2893 19.2055 59.9271 22.0639 62.9447C24.9695 66.0121 27.3986 65.4169 27.3986 65.4169C27.3986 65.4169 25.8619 64.8572 25.3751 62.1842C24.8808 59.4695 25.927 57.3352 25.927 57.3352C25.927 57.3352 24.6933 57.7734 22.3399 57.4302C19.9107 57.0762 18.7529 56.2893 18.7529 56.2893Z" fill="white"/>
<path d="M18.7539 56.2896C18.7539 56.2896 19.2065 59.9273 22.0649 62.945C24.9704 66.0124 27.3996 65.4171 27.3996 65.4171C27.3996 65.4171 25.8629 64.8574 25.376 62.1844C24.8818 59.4698 25.928 57.3355 25.928 57.3355C25.928 57.3355 24.6943 57.7736 22.3409 57.4305C19.9117 57.0764 18.7539 56.2896 18.7539 56.2896Z" fill="white" stroke="#848484"/>
<path d="M9.92024 44.2139C9.92024 44.2139 8.78829 50.2064 11.8517 55.6232C15.3467 61.8033 19.8537 63.0394 19.8537 63.0394C19.8537 63.0394 18.9278 61.8629 18.5659 59.7117C18.192 57.4893 18.75 56.479 18.75 56.479C18.75 56.479 15.8987 55.5282 13.1395 52.1054C10.9188 48.9671 11.4838 46.2105 11.4838 46.2105L9.92024 44.2139Z" fill="white"/>
<path d="M9.92024 44.2136C9.92024 44.2136 8.78829 50.2062 11.8517 55.623C15.3467 61.8031 19.8537 63.0391 19.8537 63.0391C19.8537 63.0391 18.9278 61.8626 18.5659 59.7114C18.192 57.489 18.75 56.4787 18.75 56.4787C18.75 56.4787 15.8987 55.528 13.1395 52.1051C10.9188 48.9669 11.4838 46.2102 11.4838 46.2102L9.92024 44.2136Z" fill="white" stroke="#848484"/>
<path d="M38.5061 44.2139C38.5061 44.2139 39.6358 50.2064 36.5786 55.6232C33.0905 61.8033 28.5928 63.0394 28.5928 63.0394C28.5928 63.0394 29.5166 61.8629 29.8778 59.7117C30.251 57.4893 29.6943 56.479 29.6943 56.479C29.6943 56.479 32.5397 55.5282 35.2934 52.1054C37.5096 48.9671 36.9456 46.2105 36.9456 46.2105L38.5061 44.2139Z" fill="white"/>
<path d="M38.5061 44.2139C38.5061 44.2139 39.6358 50.2064 36.5786 55.6232C33.0905 61.8033 28.5928 63.0394 28.5928 63.0394C28.5928 63.0394 29.5166 61.8629 29.8778 59.7117C30.251 57.4893 29.6943 56.479 29.6943 56.479C29.6943 56.479 32.5397 55.5282 35.2934 52.1054C37.5096 48.9671 36.9456 46.2105 36.9456 46.2105L38.5061 44.2139Z" fill="white" stroke="#848484"/>
<path d="M28.502 42.8358L25.9267 41.5522C25.9267 41.5522 25.1036 41.1824 24.9149 42.0278C24.777 42.6456 25.4207 42.7883 25.4207 42.7883C25.4207 42.7883 25.6047 42.8833 25.8347 42.6456C26.0441 42.4291 26.1105 42.2654 26.1105 42.2654L28.502 42.8358Z" fill="white"/>
<path d="M28.502 42.8358L25.9267 41.5522C25.9267 41.5522 25.1036 41.1824 24.9149 42.0278C24.777 42.6456 25.4207 42.7883 25.4207 42.7883C25.4207 42.7883 25.6047 42.8833 25.8347 42.6456C26.0441 42.4291 26.1105 42.2654 26.1105 42.2654L28.502 42.8358Z" fill="white" stroke="#848484"/>
<path d="M19.8555 42.8361L22.4169 41.539C22.4169 41.539 23.2355 41.1651 23.4231 42.0193C23.5604 42.644 22.9201 42.7881 22.9201 42.7881C22.9201 42.7881 22.7371 42.8841 22.5083 42.644C22.3 42.4251 22.2339 42.2595 22.2339 42.2595L19.8555 42.8361Z" fill="white"/>
<path d="M19.8555 42.8359L22.4169 41.5388C22.4169 41.5388 23.2355 41.1648 23.4231 42.0191C23.5604 42.6437 22.9201 42.7878 22.9201 42.7878C22.9201 42.7878 22.7371 42.8839 22.5083 42.6437C22.3 42.4249 22.2339 42.2593 22.2339 42.2593L19.8555 42.8359Z" fill="white" stroke="#848484"/>
</svg>
