<svg width="73" height="97" viewBox="0 0 73 97" fill="none" xmlns="http://www.w3.org/2000/svg">
<path d="M12.8007 49.3691C13.6546 53.5683 15.2204 62.4013 15.2204 62.4013L15.0781 74.9994C15.0781 74.9994 13.478 75.1113 12.8007 75.144C5.80923 75.144 0.132812 69.3693 0.132812 62.2566C0.132812 55.1436 5.80923 49.3691 12.8007 49.3691Z" fill="white"/>
<path d="M12.8007 49.3691C13.6546 53.5683 15.2204 62.4013 15.2204 62.4013L15.0781 74.9994C15.0781 74.9994 13.478 75.1113 12.8007 75.144C5.80923 75.144 0.132812 69.3693 0.132812 62.2566C0.132812 55.1436 5.80923 49.3691 12.8007 49.3691Z" fill="white" stroke="#953893"/>
<path d="M13.9396 69.3745C13.1875 69.6414 12.3795 69.7866 11.5381 69.7866C7.52176 69.7866 4.26074 66.4775 4.26074 62.4016C4.26074 58.3257 7.52176 55.0166 11.5381 55.0166C12.3795 55.0166 13.1875 55.1618 13.9396 55.429V69.3745Z" fill="white"/>
<path d="M13.9396 69.3745C13.1875 69.6414 12.3795 69.7866 11.5381 69.7866C7.52176 69.7866 4.26074 66.4775 4.26074 62.4016C4.26074 58.3257 7.52176 55.0166 11.5381 55.0166C12.3795 55.0166 13.1875 55.1618 13.9396 55.429V69.3745Z" fill="white" stroke="#953893"/>
<path d="M60.199 49.3691C59.3451 53.5683 57.7793 62.4013 57.7793 62.4013L57.9216 74.9994C57.9216 74.9994 59.5217 75.1113 60.199 75.144C67.1904 75.144 72.8669 69.3693 72.8669 62.2566C72.8669 55.1436 67.1904 49.3691 60.199 49.3691Z" fill="white"/>
<path d="M60.199 49.3691C59.3451 53.5683 57.7793 62.4013 57.7793 62.4013L57.9216 74.9994C57.9216 74.9994 59.5217 75.1113 60.199 75.144C67.1904 75.144 72.8669 69.3693 72.8669 62.2566C72.8669 55.1436 67.1904 49.3691 60.199 49.3691Z" fill="white" stroke="#953893"/>
<path d="M59.0605 55.429C59.8127 55.1618 60.6207 55.0166 61.4621 55.0166C65.4784 55.0166 68.7394 58.3257 68.7394 62.4016C68.7394 66.4775 65.4784 69.7866 61.4621 69.7866C60.6207 69.7866 59.8127 69.6414 59.0605 69.3745V55.429Z" fill="white"/>
<path d="M59.0605 55.429C59.8127 55.1618 60.6207 55.0166 61.4621 55.0166C65.4784 55.0166 68.7394 58.3257 68.7394 62.4016C68.7394 66.4775 65.4784 69.7866 61.4621 69.7866C60.6207 69.7866 59.8127 69.6414 59.0605 69.3745V55.429Z" fill="white" stroke="#953893"/>
<path d="M30.0234 0.135742C30.0234 0.135742 32.4426 5.80835 29.4541 14.7611C28.1731 18.5983 25.1769 20.7564 23.7606 23.0147C21.9394 25.9185 21.9103 28.6621 21.9103 28.6621C21.9103 28.6621 21.4918 30.9714 22.4797 35.4679C23.2947 39.1772 24.6145 40.9706 24.6145 40.9706C24.6145 40.9706 25.8097 40.5666 27.7461 40.7533C30.317 41.0009 31.3755 41.6222 31.3755 41.6222C31.3755 41.6222 40.2717 33.8749 40.414 22.4354C40.6039 7.1677 30.0234 0.135742 30.0234 0.135742Z" fill="white"/>
<path d="M30.0234 0.135742C30.0234 0.135742 32.4426 5.80835 29.4541 14.7611C28.1731 18.5983 25.1769 20.7564 23.7606 23.0147C21.9394 25.9185 21.9103 28.6621 21.9103 28.6621C21.9103 28.6621 21.4918 30.9714 22.4797 35.4679C23.2947 39.1772 24.6145 40.9706 24.6145 40.9706C24.6145 40.9706 25.8097 40.5666 27.7461 40.7533C30.317 41.0009 31.3755 41.6222 31.3755 41.6222C31.3755 41.6222 40.2717 33.8749 40.414 22.4354C40.6039 7.1677 30.0234 0.135742 30.0234 0.135742Z" fill="white" stroke="#953893"/>
<path d="M30.2373 0.498047C30.2373 0.498047 42.1225 3.32162 46.2501 17.5126C49.2575 27.8521 42.7629 41.1879 42.7629 41.1879C42.7629 41.1879 41.7175 41.1373 39.5603 42.3465C37.0679 43.7435 36.1442 45.1701 36.1442 45.1701C36.1442 45.1701 35.6372 43.989 33.9382 42.8532C32.3159 41.7688 31.1626 41.6949 31.1626 41.6949C31.1626 41.6949 39.7028 34.6719 40.4144 22.8704C40.1296 6.36275 30.2373 0.498047 30.2373 0.498047Z" fill="white"/>
<path d="M30.2373 0.498047C30.2373 0.498047 42.1225 3.32162 46.2501 17.5126C49.2575 27.8521 42.7629 41.1879 42.7629 41.1879C42.7629 41.1879 41.7175 41.1373 39.5603 42.3465C37.0679 43.7435 36.1442 45.1701 36.1442 45.1701C36.1442 45.1701 35.6372 43.989 33.9382 42.8532C32.3159 41.7688 31.1626 41.6949 31.1626 41.6949C31.1626 41.6949 39.7028 34.6719 40.4144 22.8704C40.1296 6.36275 30.2373 0.498047 30.2373 0.498047Z" fill="white" stroke="#953893"/>
<path d="M48.3849 12.0098C48.3849 12.0098 49.2641 14.3746 48.7406 18.2365C48.3154 21.3735 46.9614 22.5083 46.9614 22.5083L42.1221 41.1155L46.2498 40.7535C46.2498 40.7535 54.5763 36.192 54.9322 28.083C54.8611 17.7295 48.3849 12.0098 48.3849 12.0098Z" fill="white"/>
<path d="M48.3849 12.0098C48.3849 12.0098 49.2641 14.3746 48.7406 18.2365C48.3154 21.3735 46.9614 22.5083 46.9614 22.5083L42.1221 41.1155L46.2498 40.7535C46.2498 40.7535 54.5763 36.192 54.9322 28.083C54.8611 17.7295 48.3849 12.0098 48.3849 12.0098Z" fill="white" stroke="#953893"/>
<path d="M48.3851 12.1543C48.3851 12.1543 55.9289 20.1183 54.5054 29.8202C52.5128 37.4949 46.25 40.8254 46.25 40.8254L48.8119 41.0427C48.8119 41.0427 58.6331 38.0742 58.9179 28.3723C58.7602 17.6963 48.3851 12.1543 48.3851 12.1543Z" fill="white"/>
<path d="M48.3851 12.1543C48.3851 12.1543 55.9289 20.1183 54.5054 29.8202C52.5128 37.4949 46.25 40.8254 46.25 40.8254L48.8119 41.0427C48.8119 41.0427 58.6331 38.0742 58.9179 28.3723C58.7602 17.6963 48.3851 12.1543 48.3851 12.1543Z" fill="white" stroke="#953893"/>
<path d="M23.7606 10.8516C23.7606 10.8516 21.1803 19.6444 19.5818 20.7282C15.3603 23.5903 13.4314 29.355 13.2278 30.8344C11.6621 39.0883 20.5579 42.5635 20.5579 42.5635C20.5579 42.5635 20.7865 42.1744 21.5543 41.8395C22.1149 41.5951 22.6219 41.6949 22.6219 41.6949C22.6219 41.6949 17.4267 33.8752 17.6401 31.5586C18.0775 26.8119 21.0449 25.0734 21.9814 21.7118C23.4912 16.292 23.7606 10.8516 23.7606 10.8516Z" fill="white"/>
<path d="M23.7606 10.8516C23.7606 10.8516 21.1803 19.6444 19.5818 20.7282C15.3603 23.5903 13.4314 29.355 13.2278 30.8344C11.6621 39.0883 20.5579 42.5635 20.5579 42.5635C20.5579 42.5635 20.7865 42.1744 21.5543 41.8395C22.1149 41.5951 22.6219 41.6949 22.6219 41.6949C22.6219 41.6949 17.4267 33.8752 17.6401 31.5586C18.0775 26.8119 21.0449 25.0734 21.9814 21.7118C23.4912 16.292 23.7606 10.8516 23.7606 10.8516Z" fill="white" stroke="#953893"/>
<path d="M23.7605 10.9961C23.7605 10.9961 23.3335 15.7022 21.4831 22.2909C21.0539 23.8193 19.7058 25.2705 19.1346 26.4901C17.9224 29.0785 17.6618 29.6775 17.5689 30.9068C17.4977 31.8478 17.3877 33.0972 19.2058 37.0609C20.7087 40.3375 22.4796 41.5497 22.4796 41.5497C22.4796 41.5497 22.7108 41.1588 23.4046 40.9707C24.1343 40.7727 24.6144 40.9707 24.6144 40.9707C24.6144 40.9707 22.4702 37.3164 22.7641 29.5312C22.8837 26.3657 25.7992 22.8951 26.0379 18.5261C26.3225 13.313 23.7605 10.9961 23.7605 10.9961Z" fill="white"/>
<path d="M23.7605 10.9961C23.7605 10.9961 23.3335 15.7022 21.4831 22.2909C21.0539 23.8193 19.7058 25.2705 19.1346 26.4901C17.9224 29.0785 17.6618 29.6775 17.5689 30.9068C17.4977 31.8478 17.3877 33.0972 19.2058 37.0609C20.7087 40.3375 22.4796 41.5497 22.4796 41.5497C22.4796 41.5497 22.7108 41.1588 23.4046 40.9707C24.1343 40.7727 24.6144 40.9707 24.6144 40.9707C24.6144 40.9707 22.4702 37.3164 22.7641 29.5312C22.8837 26.3657 25.7992 22.8951 26.0379 18.5261C26.3225 13.313 23.7605 10.9961 23.7605 10.9961Z" fill="white" stroke="#953893"/>
<path d="M27.8886 59.8674C27.8886 59.8674 24.3989 60.3018 20.0549 62.691C16.9348 64.4072 16.4228 67.6144 16.4228 67.6144C16.4228 67.6144 12.1008 63.5689 9.60872 55.2572C8.97357 53.1384 8.45724 50.7427 8.16177 48.0659C6.48304 32.8621 11.7225 25.042 11.7225 25.042C11.7225 25.042 10.2242 29.8687 11.8651 37.3504C13.3576 44.1561 16.4228 46.473 16.4228 46.473C16.4228 46.473 13.884 48.6764 14.2863 54.1477C14.6436 59.0055 17.5623 61.967 17.5623 61.967C17.5623 61.967 19.6276 60.7361 22.12 60.3018C25.5773 59.6992 27.8886 59.8674 27.8886 59.8674Z" fill="white"/>
<path d="M27.8886 59.8674C27.8886 59.8674 24.3989 60.3018 20.0549 62.691C16.9348 64.4072 16.4228 67.6144 16.4228 67.6144C16.4228 67.6144 12.1008 63.5689 9.60872 55.2572C8.97357 53.1384 8.45724 50.7427 8.16177 48.0659C6.48304 32.8621 11.7225 25.042 11.7225 25.042C11.7225 25.042 10.2242 29.8687 11.8651 37.3504C13.3576 44.1561 16.4228 46.473 16.4228 46.473C16.4228 46.473 13.884 48.6764 14.2863 54.1477C14.6436 59.0055 17.5623 61.967 17.5623 61.967C17.5623 61.967 19.6276 60.7361 22.12 60.3018C25.5773 59.6992 27.8886 59.8674 27.8886 59.8674Z" fill="white" stroke="#953893"/>
<path d="M11.6627 25.042C11.6627 25.042 9.98397 29.4761 11.805 37.7848C13.1155 43.7633 16.3597 46.473 16.3597 46.473C16.3597 46.473 16.8172 45.4245 18.2812 44.0838C19.6639 42.8179 20.63 42.5632 20.63 42.5632C20.63 42.5632 16.6446 40.8256 14.3672 36.9161C11.3752 31.7797 11.6627 25.042 11.6627 25.042Z" fill="white"/>
<path d="M11.6627 25.042C11.6627 25.042 9.98397 29.4761 11.805 37.7848C13.1155 43.7633 16.3597 46.473 16.3597 46.473C16.3597 46.473 16.8172 45.4245 18.2812 44.0838C19.6639 42.8179 20.63 42.5632 20.63 42.5632C20.63 42.5632 16.6446 40.8256 14.3672 36.9161C11.3752 31.7797 11.6627 25.042 11.6627 25.042Z" fill="white" stroke="#953893"/>
<path d="M60.4905 25.042C60.4905 25.042 62.1633 29.4037 60.3407 37.7124C59.0294 43.6909 55.7894 46.473 55.7894 46.473C55.7894 46.473 54.1911 44.4108 52.7258 43.0702C51.3423 41.8043 48.8115 41.1153 48.8115 41.1153C48.8115 41.1153 52.0952 40.0065 55.3591 36.7711C60.9101 31.2687 60.4905 25.042 60.4905 25.042Z" fill="white"/>
<path d="M60.4905 25.042C60.4905 25.042 62.1633 29.4037 60.3407 37.7124C59.0294 43.6909 55.7894 46.473 55.7894 46.473C55.7894 46.473 54.1911 44.4108 52.7258 43.0702C51.3423 41.8043 48.8115 41.1153 48.8115 41.1153C48.8115 41.1153 52.0952 40.0065 55.3591 36.7711C60.9101 31.2687 60.4905 25.042 60.4905 25.042Z" fill="white" stroke="#953893"/>
<path d="M44.3281 59.8674C44.3281 59.8674 47.8153 60.3018 52.1564 62.691C55.2744 64.4072 55.7859 67.6144 55.7859 67.6144C55.7859 67.6144 62.5875 61.2436 64.0416 48.0659C65.719 32.8621 60.4832 25.042 60.4832 25.042C60.4832 25.042 61.9805 29.8687 60.3407 37.3504C58.8493 44.1561 55.7859 46.473 55.7859 46.473C55.7859 46.473 58.3231 48.6764 57.921 54.1477C57.564 59.0055 54.6472 61.967 54.6472 61.967C54.6472 61.967 52.5835 60.7361 50.0927 60.3018C46.6377 59.6992 44.3281 59.8674 44.3281 59.8674Z" fill="white"/>
<path d="M44.3281 59.8674C44.3281 59.8674 47.8153 60.3018 52.1564 62.691C55.2744 64.4072 55.7859 67.6144 55.7859 67.6144C55.7859 67.6144 62.5875 61.2436 64.0416 48.0659C65.719 32.8621 60.4832 25.042 60.4832 25.042C60.4832 25.042 61.9805 29.8687 60.3407 37.3504C58.8493 44.1561 55.7859 46.473 55.7859 46.473C55.7859 46.473 58.3231 48.6764 57.921 54.1477C57.564 59.0055 54.6472 61.967 54.6472 61.967C54.6472 61.967 52.5835 60.7361 50.0927 60.3018C46.6377 59.6992 44.3281 59.8674 44.3281 59.8674Z" fill="white" stroke="#953893"/>
<path d="M59.487 62.6914C59.487 62.6914 63.3667 56.6934 64.1841 46.4735C65.1696 34.1523 62.1915 28.8799 62.1915 28.8799C62.1915 28.8799 64.3884 34.2011 62.6183 44.7359C61.5417 51.1433 57.9213 54.2928 57.9213 54.2928C57.9213 54.2928 58.1605 55.2479 57.0674 58.0576C56.3576 59.8817 55.2168 61.2435 55.2168 61.2435" fill="white"/>
<path d="M59.487 62.6914C59.487 62.6914 63.3667 56.6934 64.1841 46.4735C65.1696 34.1523 62.1915 28.8799 62.1915 28.8799C62.1915 28.8799 64.3884 34.2011 62.6183 44.7359C61.5417 51.1433 57.9213 54.2928 57.9213 54.2928C57.9213 54.2928 58.1605 55.2479 57.0674 58.0576C56.3576 59.8817 55.2168 61.2435 55.2168 61.2435" fill="white"/>
<path d="M59.487 62.6914C59.487 62.6914 63.3667 56.6934 64.1841 46.4735C65.1696 34.1523 62.1915 28.8799 62.1915 28.8799C62.1915 28.8799 64.3884 34.2011 62.6183 44.7359C61.5417 51.1433 57.9213 54.2928 57.9213 54.2928C57.9213 54.2928 58.1605 55.2479 57.0674 58.0576C56.3576 59.8817 55.2168 61.2435 55.2168 61.2435" stroke="#953893"/>
<path d="M45.7159 57.1158C48.0546 57.1158 49.9504 55.1871 49.9504 52.8079C49.9504 50.4287 48.0546 48.5 45.7159 48.5C43.3773 48.5 41.4814 50.4287 41.4814 52.8079C41.4814 55.1871 43.3773 57.1158 45.7159 57.1158Z" fill="white"/>
<path d="M45.7159 57.1158C48.0546 57.1158 49.9504 55.1871 49.9504 52.8079C49.9504 50.4287 48.0546 48.5 45.7159 48.5C43.3773 48.5 41.4814 50.4287 41.4814 52.8079C41.4814 55.1871 43.3773 57.1158 45.7159 57.1158Z" fill="white" stroke="#953893"/>
<path d="M26.3939 57.1882C24.0749 57.1882 22.195 55.2433 22.195 52.8441C22.195 50.4449 24.0749 48.5 26.3939 48.5C28.7129 48.5 30.5928 50.4449 30.5928 52.8441C30.5928 55.2433 28.7129 57.1882 26.3939 57.1882Z" fill="white"/>
<path d="M26.3939 57.1882C24.0749 57.1882 22.195 55.2433 22.195 52.8441C22.195 50.4449 24.0749 48.5 26.3939 48.5C28.7129 48.5 30.5928 50.4449 30.5928 52.8441C30.5928 55.2433 28.7129 57.1882 26.3939 57.1882Z" fill="white" stroke="#953893"/>
<path d="M23.1914 69.4971C23.1914 69.4971 27.2845 73.6962 35.717 73.6962C44.4661 73.6962 48.9639 69.4971 48.9639 69.4971C48.9639 69.4971 47.6989 71.9543 43.1183 74.1306C38.9623 76.1053 35.8593 75.7235 35.8593 75.7235C35.8593 75.7235 33.3035 76.0275 29.7388 74.2755C24.8582 71.8766 23.1914 69.4971 23.1914 69.4971Z" fill="white"/>
<path d="M23.1914 69.4971C23.1914 69.4971 27.2845 73.6962 35.717 73.6962C44.4661 73.6962 48.9639 69.4971 48.9639 69.4971C48.9639 69.4971 47.6989 71.9543 43.1183 74.1306C38.9623 76.1053 35.8593 75.7235 35.8593 75.7235C35.8593 75.7235 33.3035 76.0275 29.7388 74.2755C24.8582 71.8766 23.1914 69.4971 23.1914 69.4971Z" fill="white" stroke="#953893"/>
<path d="M44.5413 82.9629C44.5413 82.9629 44.8008 83.5235 44.9684 84.7728C45.0856 85.6475 44.9684 86.1484 44.9684 86.1484C44.9684 86.1484 43.4064 87.0491 42.3351 89.5513C40.4136 94.0404 40.983 96.864 40.983 96.864C40.983 96.864 39.8738 96.4998 38.7056 94.4024C37.4957 92.2302 37.5669 89.9111 37.638 88.755C37.7803 86.4381 38.7056 84.5555 38.7056 84.5555C38.7056 84.5555 39.7976 84.5084 41.4812 84.0489C43.6882 83.4463 44.5413 82.9629 44.5413 82.9629Z" fill="white"/>
<path d="M44.5413 82.9629C44.5413 82.9629 44.8008 83.5235 44.9684 84.7728C45.0856 85.6475 44.9684 86.1484 44.9684 86.1484C44.9684 86.1484 43.4064 87.0491 42.3351 89.5513C40.4136 94.0404 40.983 96.864 40.983 96.864C40.983 96.864 39.8738 96.4998 38.7056 94.4024C37.4957 92.2302 37.5669 89.9111 37.638 88.755C37.7803 86.4381 38.7056 84.5555 38.7056 84.5555C38.7056 84.5555 39.7976 84.5084 41.4812 84.0489C43.6882 83.4463 44.5413 82.9629 44.5413 82.9629Z" fill="white" stroke="#953893"/>
<path d="M27.6035 82.8184C27.6035 82.8184 28.3039 88.3587 32.7274 92.9546C37.2238 97.6263 40.983 96.7197 40.983 96.7197C40.983 96.7197 38.6049 95.8673 37.8515 91.7963C37.0866 87.6619 38.7056 84.4113 38.7056 84.4113C38.7056 84.4113 36.7965 85.0786 33.1544 84.556C29.3952 84.0168 27.6035 82.8184 27.6035 82.8184Z" fill="white"/>
<path d="M27.6035 82.8184C27.6035 82.8184 28.3039 88.3587 32.7274 92.9546C37.2238 97.6263 40.983 96.7197 40.983 96.7197C40.983 96.7197 38.6049 95.8673 37.8515 91.7963C37.0866 87.6619 38.7056 84.4113 38.7056 84.4113C38.7056 84.4113 36.7965 85.0786 33.1544 84.556C29.3952 84.0168 27.6035 82.8184 27.6035 82.8184Z" fill="white" stroke="#953893"/>
<path d="M13.9394 64.4287C13.9394 64.4287 12.1877 73.5554 16.9284 81.8053C22.3371 91.2175 29.3118 93.1001 29.3118 93.1001C29.3118 93.1001 27.8789 91.3083 27.3189 88.032C26.7402 84.6472 27.6037 83.1085 27.6037 83.1085C27.6037 83.1085 23.1912 81.6606 18.9212 76.4475C15.4847 71.6679 16.3591 67.4696 16.3591 67.4696L13.9394 64.4287Z" fill="white"/>
<path d="M13.9394 64.4287C13.9394 64.4287 12.1877 73.5554 16.9284 81.8053C22.3371 91.2175 29.3118 93.1001 29.3118 93.1001C29.3118 93.1001 27.8789 91.3083 27.3189 88.032C26.7402 84.6472 27.6037 83.1085 27.6037 83.1085C27.6037 83.1085 23.1912 81.6606 18.9212 76.4475C15.4847 71.6679 16.3591 67.4696 16.3591 67.4696L13.9394 64.4287Z" fill="white" stroke="#953893"/>
<path d="M58.1752 64.4287C58.1752 64.4287 59.9234 73.5554 55.1923 81.8053C49.7943 91.2175 42.834 93.1001 42.834 93.1001C42.834 93.1001 44.2636 91.3083 44.8226 88.032C45.4002 84.6472 44.5386 83.1085 44.5386 83.1085C44.5386 83.1085 48.942 81.6606 53.2035 76.4475C56.6331 71.6679 55.7603 67.4696 55.7603 67.4696L58.1752 64.4287Z" fill="white"/>
<path d="M58.1752 64.4287C58.1752 64.4287 59.9234 73.5554 55.1923 81.8053C49.7943 91.2175 42.834 93.1001 42.834 93.1001C42.834 93.1001 44.2636 91.3083 44.8226 88.032C45.4002 84.6472 44.5386 83.1085 44.5386 83.1085C44.5386 83.1085 48.942 81.6606 53.2035 76.4475C56.6331 71.6679 55.7603 67.4696 55.7603 67.4696L58.1752 64.4287Z" fill="white" stroke="#953893"/>
<path d="M42.6915 62.3295L38.7061 60.3746C38.7061 60.3746 37.4323 59.8113 37.1403 61.0989C36.9269 62.0399 37.9231 62.2572 37.9231 62.2572C37.9231 62.2572 38.2079 62.4019 38.5638 62.0399C38.8878 61.7101 38.9906 61.4609 38.9906 61.4609L42.6915 62.3295Z" fill="white"/>
<path d="M42.6915 62.3295L38.7061 60.3746C38.7061 60.3746 37.4323 59.8113 37.1403 61.0989C36.9269 62.0399 37.9231 62.2572 37.9231 62.2572C37.9231 62.2572 38.2079 62.4019 38.5638 62.0399C38.8878 61.7101 38.9906 61.4609 38.9906 61.4609L42.6915 62.3295Z" fill="white" stroke="#953893"/>
<path d="M29.3115 62.3291L33.2754 60.3536C33.2754 60.3536 34.5422 59.7841 34.8326 61.0852C35.045 62.0365 34.0541 62.2559 34.0541 62.2559C34.0541 62.2559 33.7709 62.4022 33.4168 62.0365C33.0945 61.7032 32.9922 61.4509 32.9922 61.4509L29.3115 62.3291Z" fill="white"/>
<path d="M29.3115 62.3291L33.2754 60.3536C33.2754 60.3536 34.5422 59.7841 34.8326 61.0852C35.045 62.0365 34.0541 62.2559 34.0541 62.2559C34.0541 62.2559 33.7709 62.4022 33.4168 62.0365C33.0945 61.7032 32.9922 61.4509 32.9922 61.4509L29.3115 62.3291Z" fill="white" stroke="#953893"/>
</svg>
