<svg width="78" height="78" viewBox="0 0 78 78" fill="none" xmlns="http://www.w3.org/2000/svg">
<circle cx="39" cy="39" r="37" stroke="#EF5781" stroke-width="4"/>
<path d="M25.7955 47.3064L25.8021 47.3439L25.719 54.7071C25.6324 54.713 25.5274 54.7201 25.4149 54.7276C25.1245 54.7468 24.7862 54.7683 24.5833 54.7782C20.5008 54.7749 17.1797 51.4004 17.1797 47.2358C17.1797 43.1385 20.394 39.8063 24.3854 39.6962C24.6397 40.9635 24.9829 42.8134 25.2685 44.3803C25.4191 45.2063 25.5535 45.953 25.6503 46.4932C25.6987 46.7633 25.7377 46.9817 25.7646 47.1326L25.7955 47.3064Z" fill="#EF5781" stroke="white" stroke-width="0.5"/>
<path d="M24.5893 39.4434C25.1056 41.9824 26.0524 47.3233 26.0524 47.3233L25.9664 54.9407C25.9664 54.9407 24.9988 55.0084 24.5893 55.0282C20.3619 55.0282 16.9297 51.5365 16.9297 47.2358C16.9297 42.9349 20.3619 39.4434 24.5893 39.4434Z" fill="#EF5781" stroke="white" stroke-width="0.5"/>
<path d="M25.0281 43.2878V51.3589C24.6477 51.4757 24.2443 51.5386 23.826 51.5386C21.5391 51.5386 19.6758 49.6532 19.6758 47.3233C19.6758 44.9934 21.5391 43.1079 23.826 43.1079C24.2443 43.1079 24.6478 43.1708 25.0281 43.2878Z" fill="#EF5781" stroke="white" stroke-width="0.5"/>
<path d="M25.2781 51.5394C24.8234 51.7008 24.3348 51.7886 23.826 51.7886C21.3976 51.7886 19.4258 49.7878 19.4258 47.3233C19.4258 44.8588 21.3976 42.8579 23.826 42.8579C24.3348 42.8579 24.8234 42.9457 25.2781 43.1073V51.5394Z" fill="#EF5781" stroke="white" stroke-width="0.5"/>
<path d="M52.4226 54.7276C52.3101 54.7201 52.2052 54.713 52.1186 54.7071L52.0354 47.3439L52.0421 47.3064L52.073 47.1326C52.0999 46.9817 52.1388 46.7633 52.1872 46.4932C52.284 45.953 52.4185 45.2063 52.569 44.3803C52.8546 42.8134 53.1978 40.9635 53.4522 39.6962C57.4436 39.8063 60.6579 43.1385 60.6579 47.2358C60.6579 51.4004 57.3368 54.7749 53.2542 54.7782C53.0513 54.7683 52.7131 54.7468 52.4226 54.7276Z" fill="#EF5781" stroke="white" stroke-width="0.5"/>
<path d="M53.2482 39.4434C52.7319 41.9824 51.7852 47.3233 51.7852 47.3233L51.8712 54.9407C51.8712 54.9407 52.8387 55.0084 53.2482 55.0282C57.4756 55.0282 60.9079 51.5365 60.9079 47.2358C60.9079 42.9349 57.4756 39.4434 53.2482 39.4434Z" fill="#EF5781" stroke="white" stroke-width="0.5"/>
<path d="M52.8096 51.3589V43.2878C53.19 43.1708 53.5934 43.1079 54.0117 43.1079C56.2986 43.1079 58.1619 44.9934 58.1619 47.3233C58.1619 49.6532 56.2986 51.5386 54.0117 51.5386C53.5934 51.5386 53.19 51.4757 52.8096 51.3589Z" fill="#EF5781" stroke="white" stroke-width="0.5"/>
<path d="M52.5596 43.1073C53.0143 42.9457 53.5029 42.8579 54.0117 42.8579C56.4401 42.8579 58.4119 44.8588 58.4119 47.3233C58.4119 49.7878 56.4401 51.7886 54.0117 51.7886C53.5029 51.7886 53.0143 51.7008 52.5596 51.5394V43.1073Z" fill="#EF5781" stroke="white" stroke-width="0.5"/>
<path d="M30.3432 26.9674L30.3432 26.9673L30.3432 26.9671L30.3433 26.967L30.3433 26.9669L30.347 26.9466L30.3472 26.9258L30.3472 26.9257L30.3472 26.9256L30.3472 26.9256L30.3472 26.9255L30.3472 26.9233L30.3475 26.9117C30.3479 26.9009 30.3485 26.8841 30.3497 26.8616C30.3522 26.8166 30.3568 26.749 30.3658 26.6618C30.3838 26.4874 30.419 26.2349 30.4876 25.9285C30.6249 25.3153 30.8955 24.4896 31.4278 23.641L31.4278 23.641C31.6314 23.3163 31.895 22.9904 32.1956 22.6418C32.3046 22.5154 32.4197 22.3847 32.538 22.2502C32.7404 22.0204 32.9523 21.7797 33.1599 21.531C33.8251 20.734 34.4941 19.7997 34.8957 18.5967L34.6585 18.5175L34.8957 18.5967C35.811 15.8547 35.9 13.609 35.7573 12.0433C35.6929 11.3368 35.5814 10.7693 35.4777 10.3576C35.5852 10.448 35.7041 10.5514 35.8326 10.668C36.4197 11.2011 37.2033 12.008 37.9838 13.0996C39.5437 15.2813 41.0921 18.6012 41.0355 23.1547C40.9932 26.5489 39.6519 29.4023 38.3125 31.4138C37.6435 32.4186 36.9771 33.2099 36.4786 33.7495C36.2294 34.0192 36.0224 34.2257 35.8784 34.3642C35.8399 34.4012 35.8059 34.4333 35.7768 34.4605C35.6847 34.4204 35.5542 34.3692 35.3818 34.3144C35.0098 34.1961 34.4437 34.0614 33.6498 33.9849C33.0423 33.9263 32.5488 33.9602 32.2044 34.0097C32.0543 34.0312 31.9324 34.0558 31.8417 34.0769C31.833 34.0628 31.8237 34.0477 31.8139 34.0315C31.7355 33.9016 31.6244 33.7034 31.4976 33.4356C31.2441 32.9001 30.9277 32.0862 30.6856 30.9843C30.3905 29.641 30.3064 28.6288 30.2953 27.9567C30.2897 27.6206 30.3024 27.3694 30.3161 27.2042C30.323 27.1216 30.3301 27.0604 30.3353 27.0209C30.3379 27.0012 30.3401 26.9868 30.3415 26.9779L30.343 26.9686L30.3432 26.9674Z" fill="#EF5781" stroke="white" stroke-width="0.5"/>
<path d="M35.0028 9.67432C35.0028 9.67432 36.4655 13.1043 34.6585 18.5175C33.884 20.8377 32.0724 22.1426 31.216 23.5081C30.1148 25.2639 30.0972 26.9228 30.0972 26.9228C30.0972 26.9228 29.8441 28.3192 30.4414 31.0379C30.9342 33.2808 31.7323 34.3651 31.7323 34.3651C31.7323 34.3651 32.455 34.1209 33.6258 34.2338C35.1803 34.3835 35.8203 34.7592 35.8203 34.7592C35.8203 34.7592 41.1994 30.0748 41.2854 23.1579C41.4003 13.9262 35.0028 9.67432 35.0028 9.67432Z" fill="#EF5781" stroke="white" stroke-width="0.5"/>
<path d="M38.3478 12.7692C37.6911 11.8452 37.0375 11.15 36.502 10.6554C37.1631 10.9491 37.9989 11.3881 38.8921 12.0233C40.9624 13.4954 43.3442 16.0231 44.574 20.251C45.4639 23.3105 44.9508 26.8352 44.2003 29.6182C43.8261 31.0055 43.3954 32.1995 43.0584 33.0464C42.8899 33.4698 42.7449 33.806 42.6424 34.0359C42.602 34.1263 42.5683 34.2002 42.5422 34.2565C42.451 34.2672 42.3248 34.2885 42.1633 34.3307C41.8191 34.4204 41.3152 34.6042 40.6467 34.979C39.8728 35.4127 39.3389 35.8531 38.9961 36.1888C38.8912 36.2916 38.8042 36.3845 38.7338 36.4644C38.7005 36.4161 38.6624 36.3638 38.6193 36.3082C38.3991 36.0243 38.0463 35.6551 37.5085 35.2956L37.5085 35.2955C36.9972 34.9538 36.5559 34.7687 36.2374 34.6688C36.2315 34.667 36.2257 34.6651 36.2199 34.6634C36.3483 34.5418 36.5057 34.3875 36.6849 34.2014C37.1835 33.6838 37.8515 32.9195 38.5329 31.9296C39.8953 29.9504 41.3163 27.0617 41.535 23.4358L41.5356 23.4261L41.5354 23.4164C41.4484 18.3728 39.8924 14.9424 38.3478 12.7692Z" fill="#EF5781" stroke="white" stroke-width="0.5"/>
<path d="M35.1318 9.89331C35.1318 9.89331 42.3182 11.6006 44.814 20.1812C46.6324 26.4329 42.7055 34.4965 42.7055 34.4965C42.7055 34.4965 42.0733 34.4659 40.769 35.197C39.2619 36.0417 38.7034 36.9043 38.7034 36.9043C38.7034 36.9043 38.3969 36.1902 37.3696 35.5034C36.3887 34.8477 35.6913 34.803 35.6913 34.803C35.6913 34.803 40.8552 30.5565 41.2854 23.4208C41.1132 13.4394 35.1318 9.89331 35.1318 9.89331Z" fill="#EF5781" stroke="white" stroke-width="0.5"/>
<path d="M46.5582 17.6896C46.9145 18.1018 47.3834 18.7064 47.8539 19.4938C48.8198 21.1101 49.7916 23.4944 49.814 26.5678C49.7082 28.9301 48.4423 30.7878 47.1805 32.0661C46.5505 32.7044 45.9265 33.193 45.4601 33.5218C45.2272 33.6861 45.034 33.8101 44.8999 33.8927C44.8328 33.934 44.7805 33.9648 44.7454 33.9852C44.7429 33.9866 44.7405 33.988 44.7382 33.9894L42.6495 34.1726L45.4684 23.3339C45.4945 23.3076 45.5276 23.2725 45.566 23.2278C45.6563 23.1227 45.7757 22.9652 45.9022 22.7469C46.1556 22.3096 46.4351 21.6326 46.568 20.6523C46.7297 19.4594 46.6751 18.4947 46.5789 17.825C46.5722 17.7785 46.5653 17.7333 46.5582 17.6896Z" fill="#EF5781" stroke="white" stroke-width="0.5"/>
<path d="M46.1052 16.8538C46.1052 16.8538 46.6368 18.2837 46.3202 20.6187C46.0631 22.5156 45.2445 23.2017 45.2445 23.2017L42.3184 34.4525L44.8142 34.2337C44.8142 34.2337 49.8488 31.4756 50.064 26.5725C50.021 20.3122 46.1052 16.8538 46.1052 16.8538Z" fill="#EF5781" stroke="white" stroke-width="0.5"/>
<path d="M47.2916 18.0234C47.8158 18.4162 48.444 18.9416 49.0738 19.597C50.6274 21.2139 52.1759 23.6062 52.2241 26.7458C52.139 29.5804 50.6658 31.4309 49.1999 32.5814C48.4656 33.1577 47.7354 33.5559 47.1887 33.81C46.9157 33.9368 46.6892 34.0274 46.5319 34.0859C46.4532 34.1152 46.3919 34.1364 46.3509 34.1502C46.3451 34.1521 46.3398 34.1538 46.3349 34.1555L45.5742 34.091C45.957 33.823 46.4767 33.4187 47.0341 32.8683C48.1545 31.7621 49.4315 30.0607 50.0481 27.686L50.0515 27.6728L50.0534 27.6594C50.4945 24.6535 49.5455 21.9275 48.4991 19.9648C48.0879 19.1934 47.66 18.5368 47.2916 18.0234Z" fill="#EF5781" stroke="white" stroke-width="0.5"/>
<path d="M46.1055 16.9414C46.1055 16.9414 50.6668 21.7569 49.8061 27.6231C48.6013 32.2636 44.8145 34.2774 44.8145 34.2774L46.3635 34.4088C46.3635 34.4088 52.3019 32.6139 52.4741 26.7476C52.3787 20.2924 46.1055 16.9414 46.1055 16.9414Z" fill="#EF5781" stroke="white" stroke-width="0.5"/>
<path d="M28.8293 22.3324L28.8293 22.3324C28.993 22.2214 29.1453 22.0316 29.2848 21.8169C29.4281 21.5963 29.5736 21.3242 29.7172 21.0237C30.0045 20.4223 30.2934 19.6875 30.5499 18.9789C30.6142 18.8014 30.6765 18.6253 30.7364 18.4529C30.5781 19.6407 30.318 21.1495 29.8992 22.6531C29.6798 23.4407 29.2707 24.0675 28.8209 24.7568C28.7165 24.9168 28.6098 25.0802 28.5029 25.2497C27.9405 26.1412 27.4034 27.1604 27.266 28.6512L27.266 28.6512C27.2457 28.8715 27.2902 29.1334 27.3666 29.4069C27.4442 29.6849 27.561 29.9958 27.7017 30.3218C27.9832 30.974 28.3687 31.7052 28.7552 32.3871C29.1423 33.07 29.5331 33.7082 29.8268 34.1754C29.9213 34.3257 30.0058 34.4583 30.077 34.5692C29.9849 34.5875 29.8848 34.6164 29.7819 34.6613L29.7818 34.6613C29.525 34.7733 29.3513 34.8976 29.2383 35.0003C29.2285 35.0092 29.2191 35.018 29.2102 35.0265C29.193 35.0188 29.1746 35.0104 29.155 35.0013C29.0149 34.9365 28.8144 34.8378 28.5761 34.704C28.0987 34.4358 27.4737 34.0284 26.8791 33.4713C25.6925 32.3595 24.6404 30.6675 25.0927 28.2828L25.0931 28.2829L25.0948 28.2703C25.1513 27.8594 25.4617 26.7922 26.0787 25.61C26.6943 24.4303 27.6002 23.1658 28.8293 22.3324Z" fill="#EF5781" stroke="white" stroke-width="0.5"/>
<path d="M31.2158 16.1536C31.2158 16.1536 29.6556 21.4702 28.689 22.1255C26.1365 23.856 24.9702 27.3417 24.8471 28.2362C23.9004 33.227 29.2793 35.3282 29.2793 35.3282C29.2793 35.3282 29.4175 35.093 29.8818 34.8905C30.2207 34.7427 30.5273 34.803 30.5273 34.803C30.5273 34.803 27.386 30.0749 27.515 28.6741C27.7795 25.804 29.5738 24.7528 30.14 22.7202C31.0529 19.4431 31.2158 16.1536 31.2158 16.1536Z" fill="#EF5781" stroke="white" stroke-width="0.5"/>
<path d="M30.42 34.3775C30.3134 34.2845 30.1605 34.1397 29.9798 33.9355C29.6139 33.5219 29.1329 32.8639 28.6893 31.8969C28.1439 30.7077 27.8938 29.9387 27.7837 29.4047C27.677 28.8875 27.6999 28.5848 27.7206 28.3127L27.7216 28.2989C27.7738 27.6091 27.9087 27.2886 28.6455 25.7155C28.7716 25.4462 28.9637 25.1583 29.1787 24.8362C29.241 24.7428 29.3053 24.6464 29.3705 24.5468C29.6507 24.1186 29.9387 23.6403 30.0798 23.138C30.642 21.1361 30.988 19.42 31.1937 18.2034C31.2893 17.6373 31.3546 17.1792 31.3972 16.8507C31.5043 17.0053 31.6255 17.203 31.7448 17.4457C32.0926 18.1535 32.4271 19.2493 32.3435 20.7803C32.274 22.0525 31.8146 23.201 31.3465 24.2957C31.3125 24.3752 31.2784 24.4547 31.2443 24.5339C30.8177 25.5262 30.3993 26.4993 30.3638 27.4388L30.3638 27.4388C30.274 29.8173 30.5565 31.5712 30.8647 32.7359C31.0188 33.3181 31.1792 33.7526 31.3024 34.0438C31.3052 34.0505 31.3081 34.0572 31.3109 34.0637C31.1995 34.069 31.0733 34.0865 30.9355 34.1239C30.9355 34.1239 30.9354 34.1239 30.9354 34.1239L31.0009 34.3652C30.5814 34.4789 30.4416 34.7153 30.4416 34.7153L30.42 34.3775Z" fill="#EF5781" stroke="white" stroke-width="0.5"/>
<path d="M31.2161 16.241C31.2161 16.241 30.9579 19.0865 29.8391 23.0704C29.5796 23.9946 28.7644 24.872 28.4191 25.6094C27.6861 27.1745 27.5285 27.5367 27.4723 28.28C27.4293 28.849 27.3628 29.6044 28.4621 32.0011C29.3708 33.9823 30.4416 34.7153 30.4416 34.7153C30.4416 34.7153 30.5814 34.4789 31.0009 34.3652C31.4421 34.2454 31.7324 34.3652 31.7324 34.3652C31.7324 34.3652 30.436 32.1556 30.6136 27.4483C30.686 25.5342 32.4488 23.4357 32.5932 20.794C32.7652 17.6419 31.2161 16.241 31.2161 16.241Z" fill="#EF5781" stroke="white" stroke-width="0.5"/>
<path d="M30.2673 46.3C30.675 46.229 31.0558 46.1759 31.4045 46.1365C30.6661 46.3962 29.793 46.7636 28.8553 47.2793L28.9757 47.4984L28.8553 47.2793C27.8572 47.8283 27.2771 48.6158 26.9475 49.2625C26.8089 49.5344 26.714 49.7823 26.6505 49.9792C26.615 49.9399 26.5768 49.897 26.5361 49.8503C26.2736 49.5493 25.9061 49.0945 25.4914 48.4837C24.6621 47.262 23.6441 45.417 22.8989 42.9318C22.5191 41.6646 22.21 40.2309 22.033 38.6279L22.033 38.6279C21.5292 34.0652 22.0641 30.6174 22.7208 28.3158C22.9424 27.5393 23.1779 26.8928 23.3923 26.3778C23.3804 26.4929 23.3693 26.6133 23.3594 26.7389C23.2552 28.0556 23.2776 29.9411 23.7795 32.2298C24.2373 34.3172 24.9384 35.7251 25.532 36.616C25.8287 37.0611 26.0979 37.3763 26.2955 37.5822C26.3413 37.6298 26.3832 37.6716 26.4207 37.7077C26.3978 37.7346 26.3734 37.7643 26.3477 37.7967C26.1968 37.9868 26.002 38.2729 25.8165 38.6649C25.4446 39.4507 25.1136 40.654 25.2384 42.351C25.3498 43.8659 25.8605 45.0841 26.3424 45.9227C26.5835 46.3423 26.818 46.668 26.9932 46.8899C27.0809 47.0009 27.1539 47.0861 27.2055 47.1442C27.2314 47.1732 27.2519 47.1955 27.2664 47.2109L27.2833 47.2287L27.2882 47.2338L27.2897 47.2353L27.2902 47.2358L27.2903 47.236C27.2904 47.2361 27.2905 47.2361 27.4686 47.0606L27.2905 47.2361L27.4281 47.3758L27.5965 47.2754L27.5965 47.2754L27.5965 47.2754L27.5968 47.2752L27.5989 47.274L27.6083 47.2685C27.6169 47.2635 27.6302 47.2559 27.6477 47.246C27.6829 47.2263 27.7354 47.1973 27.8035 47.1616C27.9397 47.09 28.1375 46.9914 28.3815 46.8847C28.8709 46.6707 29.5399 46.4268 30.2673 46.3L30.2244 46.0537L30.2673 46.3Z" fill="#EF5781" stroke="white" stroke-width="0.5"/>
<path d="M33.7124 45.7911C33.7124 45.7911 31.6024 46.0537 28.9757 47.4984C27.0892 48.5361 26.7796 50.4754 26.7796 50.4754C26.7796 50.4754 24.1663 48.0292 22.6594 43.0036C22.2754 41.7224 21.9632 40.2738 21.7845 38.6553C20.7695 29.4624 23.9376 24.7339 23.9376 24.7339C23.9376 24.7339 23.0316 27.6524 24.0237 32.1762C24.9262 36.2913 26.7796 37.6922 26.7796 37.6922C26.7796 37.6922 25.2445 39.0245 25.4878 42.3327C25.7038 45.27 27.4686 47.0606 27.4686 47.0606C27.4686 47.0606 28.7174 46.3164 30.2244 46.0537C32.3149 45.6894 33.7124 45.7911 33.7124 45.7911Z" fill="#EF5781" stroke="white" stroke-width="0.5"/>
<path d="M26.7847 37.1316C26.7454 37.1884 26.7109 37.241 26.6809 37.2886C26.6572 37.2642 26.6319 37.2377 26.6052 37.209C26.4166 37.0072 26.1548 36.6993 25.8678 36.2799C25.2942 35.4416 24.62 34.1576 24.2315 32.3853C23.7172 30.0388 23.6704 28.2141 23.7625 26.946C23.7718 27.0263 23.7818 27.1081 23.7926 27.1913C23.9774 28.614 24.3924 30.446 25.3205 32.0394L25.3205 32.0394C26.0322 33.2611 27.0077 34.1391 27.8002 34.7101C28.1678 34.975 28.4979 35.1752 28.7471 35.3142C28.4842 35.4612 28.1356 35.6958 27.7344 36.0631L27.7343 36.0632C27.2772 36.4818 26.9746 36.8572 26.7847 37.1316Z" fill="#EF5781" stroke="white" stroke-width="0.5"/>
<path d="M23.9013 24.7339C23.9013 24.7339 22.8862 27.415 23.9873 32.4388C24.7797 36.0537 26.7414 37.6922 26.7414 37.6922C26.7414 37.6922 27.018 37.0582 27.9032 36.2475C28.7392 35.4821 29.3234 35.3281 29.3234 35.3281C29.3234 35.3281 26.9136 34.2775 25.5366 31.9136C23.7275 28.8078 23.9013 24.7339 23.9013 24.7339Z" fill="#EF5781" stroke="white" stroke-width="0.5"/>
<mask id="path-26-inside-1_995_1518" fill="white">
<path d="M53.425 24.7339C53.425 24.7339 54.4365 27.3712 53.3344 32.3951C52.5415 36.01 50.5825 37.6922 50.5825 37.6922C50.5825 37.6922 49.6161 36.4453 48.7301 35.6346C47.8935 34.8692 46.3633 34.4526 46.3633 34.4526C46.3633 34.4526 48.3488 33.7822 50.3223 31.8259C53.6787 28.4989 53.425 24.7339 53.425 24.7339Z"/>
</mask>
<path d="M53.425 24.7339C53.425 24.7339 54.4365 27.3712 53.3344 32.3951C52.5415 36.01 50.5825 37.6922 50.5825 37.6922C50.5825 37.6922 49.6161 36.4453 48.7301 35.6346C47.8935 34.8692 46.3633 34.4526 46.3633 34.4526C46.3633 34.4526 48.3488 33.7822 50.3223 31.8259C53.6787 28.4989 53.425 24.7339 53.425 24.7339Z" fill="#EF5781"/>
<path d="M53.425 24.7339L53.8918 24.5548L52.9261 24.7675L53.425 24.7339ZM53.3344 32.3951L52.846 32.2879L52.846 32.2879L53.3344 32.3951ZM50.5825 37.6922L50.1873 37.9985L50.5093 38.414L50.9082 38.0715L50.5825 37.6922ZM48.7301 35.6346L48.3925 36.0035L48.3926 36.0035L48.7301 35.6346ZM46.3633 34.4526L46.2033 33.9789L44.6484 34.5039L46.2319 34.9351L46.3633 34.4526ZM50.3223 31.8259L50.6743 32.181L50.6743 32.181L50.3223 31.8259ZM53.425 24.7339C52.9581 24.9129 52.958 24.9127 52.958 24.9125C52.9579 24.9125 52.9579 24.9123 52.9578 24.9121C52.9577 24.9119 52.9577 24.9117 52.9576 24.9116C52.9575 24.9113 52.9574 24.9112 52.9575 24.9112C52.9575 24.9113 52.9577 24.9119 52.9582 24.9133C52.9592 24.9159 52.9611 24.9211 52.9638 24.9289C52.9691 24.9443 52.9778 24.97 52.9889 25.0056C53.0111 25.077 53.0433 25.1888 53.0794 25.3403C53.1516 25.6435 53.2396 26.1063 53.2949 26.7251C53.4056 27.9619 53.3861 29.826 52.846 32.2879L53.8228 32.5022C54.3848 29.9403 54.4106 27.9738 54.291 26.636C54.2312 25.9675 54.1352 25.457 54.0522 25.1086C54.0107 24.9344 53.9725 24.8009 53.9437 24.7084C53.9293 24.6622 53.9172 24.6262 53.9083 24.6006C53.9039 24.5878 53.9002 24.5776 53.8974 24.5699C53.896 24.5661 53.8949 24.563 53.8939 24.5604C53.8935 24.5592 53.893 24.5581 53.8927 24.5572C53.8925 24.5567 53.8923 24.5563 53.8922 24.5559C53.8921 24.5557 53.892 24.5554 53.892 24.5553C53.8919 24.5551 53.8918 24.5548 53.425 24.7339ZM52.846 32.2879C52.4649 34.0258 51.8051 35.2923 51.2467 36.1195C50.9673 36.5334 50.7133 36.8374 50.5321 37.0353C50.4416 37.1342 50.3694 37.2065 50.3214 37.2526C50.2975 37.2757 50.2796 37.2922 50.2686 37.3022C50.263 37.3072 50.2592 37.3106 50.2572 37.3124C50.2562 37.3133 50.2557 37.3138 50.2556 37.3138C50.2556 37.3139 50.2556 37.3138 50.2558 37.3136C50.2559 37.3136 50.256 37.3135 50.2562 37.3133C50.2563 37.3133 50.2564 37.3131 50.2564 37.3131C50.2566 37.313 50.2567 37.3129 50.5825 37.6922C50.9082 38.0715 50.9084 38.0714 50.9085 38.0712C50.9086 38.0712 50.9088 38.071 50.9089 38.0709C50.9092 38.0707 50.9095 38.0704 50.9098 38.0701C50.9105 38.0695 50.9113 38.0689 50.9122 38.0681C50.914 38.0665 50.9163 38.0645 50.919 38.0621C50.9245 38.0573 50.9317 38.0508 50.9408 38.0426C50.9588 38.0262 50.9838 38.0031 51.015 37.9731C51.0773 37.9131 51.1643 37.8257 51.2698 37.7105C51.4808 37.48 51.766 37.1375 52.0755 36.679C52.6949 35.7613 53.4111 34.3792 53.8228 32.5022L52.846 32.2879ZM50.5825 37.6922C50.9777 37.3859 50.9777 37.3859 50.9776 37.3858C50.9776 37.3858 50.9776 37.3858 50.9776 37.3857C50.9775 37.3857 50.9774 37.3856 50.9773 37.3855C50.9772 37.3853 50.9769 37.385 50.9767 37.3846C50.9761 37.3839 50.9753 37.3828 50.9742 37.3815C50.9722 37.3788 50.9692 37.375 50.9653 37.37C50.9576 37.3601 50.9463 37.3457 50.9317 37.3273C50.9026 37.2904 50.8603 37.2371 50.8069 37.1709C50.7002 37.0385 50.5487 36.8536 50.3689 36.6429C50.012 36.2245 49.5333 35.6918 49.0676 35.2658L48.3926 36.0035C48.8128 36.3881 49.2603 36.8842 49.6081 37.2919C49.7807 37.4942 49.9262 37.6718 50.0284 37.7985C50.0794 37.8618 50.1195 37.9123 50.1467 37.9468C50.1603 37.964 50.1706 37.9772 50.1775 37.9859C50.1809 37.9903 50.1835 37.9936 50.1851 37.9957C50.1859 37.9967 50.1865 37.9975 50.1869 37.998C50.1871 37.9982 50.1872 37.9984 50.1872 37.9985C50.1873 37.9985 50.1873 37.9985 50.1873 37.9985C50.1873 37.9985 50.1873 37.9985 50.1873 37.9985C50.1873 37.9985 50.1873 37.9985 50.5825 37.6922ZM49.0676 35.2658C48.5833 34.8227 47.9259 34.5004 47.4227 34.294C47.1653 34.1884 46.9359 34.1082 46.7704 34.0543C46.6875 34.0273 46.6201 34.0067 46.5728 33.9926C46.5491 33.9856 46.5304 33.9802 46.5172 33.9765C46.5106 33.9746 46.5053 33.9731 46.5016 33.9721C46.4997 33.9716 46.4981 33.9711 46.497 33.9708C46.4964 33.9707 46.4959 33.9705 46.4955 33.9704C46.4953 33.9704 46.4952 33.9703 46.495 33.9703C46.4949 33.9703 46.4948 33.9702 46.4948 33.9702C46.4947 33.9702 46.4946 33.9702 46.3633 34.4526C46.2319 34.9351 46.2319 34.935 46.2318 34.935C46.2318 34.935 46.2317 34.935 46.2317 34.935C46.2316 34.935 46.2316 34.935 46.2316 34.935C46.2316 34.935 46.2316 34.935 46.2318 34.935C46.2321 34.9351 46.2328 34.9353 46.2338 34.9356C46.2359 34.9362 46.2394 34.9371 46.2442 34.9385C46.2538 34.9412 46.2688 34.9455 46.2886 34.9514C46.3282 34.9631 46.3869 34.9811 46.4605 35.0051C46.608 35.0531 46.8135 35.125 47.0432 35.2192C47.5143 35.4125 48.0402 35.6812 48.3925 36.0035L49.0676 35.2658ZM46.3633 34.4526C46.5232 34.9263 46.5234 34.9263 46.5235 34.9262C46.5236 34.9262 46.5237 34.9262 46.5239 34.9261C46.5241 34.926 46.5244 34.926 46.5247 34.9258C46.5253 34.9256 46.526 34.9254 46.5269 34.9251C46.5285 34.9245 46.5307 34.9238 46.5334 34.9229C46.5386 34.921 46.5458 34.9185 46.5548 34.9153C46.5729 34.9088 46.5982 34.8995 46.6305 34.8872C46.6949 34.8627 46.7867 34.8262 46.9021 34.7765C47.1327 34.6773 47.4576 34.5251 47.8452 34.3101C48.6198 33.8805 49.6487 33.1977 50.6743 32.181L49.9703 31.4708C49.0224 32.4105 48.0717 33.041 47.3602 33.4356C47.0047 33.6328 46.71 33.7705 46.5066 33.8581C46.405 33.9018 46.3263 33.933 46.2744 33.9527C46.2485 33.9626 46.2293 33.9696 46.2173 33.974C46.2113 33.9761 46.2071 33.9776 46.2047 33.9784C46.2035 33.9788 46.2028 33.9791 46.2026 33.9791C46.2025 33.9792 46.2025 33.9792 46.2026 33.9791C46.2027 33.9791 46.2028 33.9791 46.2029 33.979C46.2029 33.979 46.2031 33.979 46.2031 33.979C46.2032 33.9789 46.2033 33.9789 46.3633 34.4526ZM50.6743 32.181C52.427 30.4437 53.2414 28.5864 53.6159 27.1592C53.8029 26.4464 53.8804 25.8406 53.9109 25.4094C53.9262 25.1937 53.9297 25.0213 53.9293 24.9004C53.9291 24.84 53.9279 24.7924 53.9267 24.7587C53.926 24.7418 53.9254 24.7285 53.9249 24.7187C53.9247 24.7138 53.9244 24.7098 53.9242 24.7067C53.9241 24.7052 53.9241 24.7039 53.924 24.7028C53.924 24.7023 53.9239 24.7018 53.9239 24.7014C53.9239 24.7012 53.9239 24.7009 53.9239 24.7008C53.9238 24.7005 53.9238 24.7003 53.425 24.7339C52.9261 24.7675 52.9261 24.7673 52.9261 24.7671C52.9261 24.767 52.9261 24.7668 52.926 24.7668C52.926 24.7666 52.926 24.7664 52.926 24.7663C52.926 24.7662 52.926 24.7662 52.926 24.7665C52.9261 24.7671 52.9261 24.7686 52.9263 24.7709C52.9265 24.7756 52.9269 24.7837 52.9273 24.7953C52.9282 24.8184 52.9291 24.8549 52.9293 24.9039C52.9297 25.0019 52.9268 25.1496 52.9134 25.3389C52.8866 25.7176 52.8177 26.261 52.6486 26.9054C52.3109 28.1923 51.574 29.8811 49.9703 31.4708L50.6743 32.181Z" fill="white" mask="url(#path-26-inside-1_995_1518)"/>
<path d="M53.425 24.7339C53.425 24.7339 54.4365 27.3712 53.3344 32.3951C52.5415 36.01 50.5825 37.6922 50.5825 37.6922C50.5825 37.6922 49.6161 36.4453 48.7301 35.6346C47.8935 34.8692 46.3633 34.4526 46.3633 34.4526C46.3633 34.4526 48.3488 33.7822 50.3223 31.8259C53.6787 28.4989 53.425 24.7339 53.425 24.7339Z" fill="#EF5781" stroke="white" stroke-width="0.5"/>
<path d="M50.7094 49.979C50.6459 49.7822 50.5512 49.5343 50.4128 49.2626C50.0834 48.6159 49.5037 47.8284 48.5063 47.2794L48.3857 47.4984L48.5063 47.2794C47.5692 46.7636 46.6967 46.3962 45.9587 46.1365C46.3071 46.1759 46.6876 46.229 47.095 46.3L47.1379 46.0537L47.095 46.3C47.8219 46.4268 48.4904 46.6707 48.9794 46.8847C49.2233 46.9914 49.4209 47.09 49.557 47.1615C49.625 47.1973 49.6775 47.2262 49.7126 47.246C49.7302 47.2559 49.7434 47.2635 49.752 47.2685L49.7614 47.274L49.7635 47.2752L49.7637 47.2754L49.7638 47.2754L49.7638 47.2754L49.9322 47.3759L50.0699 47.2361L49.8918 47.0606C50.0699 47.2361 50.07 47.236 50.0701 47.2359L50.0703 47.2357L50.0708 47.2352L50.0722 47.2337L50.0771 47.2287L50.094 47.2108C50.1085 47.1954 50.129 47.1732 50.1548 47.1441C50.2065 47.086 50.2794 47.0008 50.367 46.8898C50.5421 46.6679 50.7765 46.3422 51.0174 45.9226C51.499 45.084 52.0093 43.8659 52.1206 42.351C52.2453 40.654 51.9146 39.4507 51.543 38.665C51.3575 38.2729 51.1629 37.9869 51.0121 37.7967C50.9864 37.7643 50.962 37.7346 50.9391 37.7077C50.9766 37.6716 51.0185 37.6298 51.0642 37.5821C51.2617 37.3763 51.5308 37.0611 51.8272 36.6159C52.4205 35.7251 53.1211 34.3172 53.5786 32.2297C54.0802 29.941 54.1026 28.0556 53.9985 26.7389C53.9886 26.6137 53.9776 26.4936 53.9657 26.3788C54.1798 26.8937 54.415 27.5398 54.6363 28.3158C55.2925 30.6174 55.827 34.0652 55.3236 38.6279C54.8883 42.573 53.6532 45.4949 52.5303 47.4277C51.9688 48.3944 51.4352 49.1139 51.0435 49.5902C50.9157 49.7457 50.803 49.8752 50.7094 49.979Z" fill="#EF5781" stroke="white" stroke-width="0.5"/>
<path d="M43.6523 45.7911C43.6523 45.7911 45.7609 46.0537 48.3857 47.4984C50.271 48.5361 50.5803 50.4754 50.5803 50.4754C50.5803 50.4754 54.6929 46.6232 55.5721 38.6553C56.5864 29.4624 53.4206 24.7339 53.4206 24.7339C53.4206 24.7339 54.3259 27.6524 53.3344 32.1762C52.4326 36.2913 50.5803 37.6922 50.5803 37.6922C50.5803 37.6922 52.1144 39.0245 51.8713 42.3327C51.6555 45.27 49.8918 47.0606 49.8918 47.0606C49.8918 47.0606 48.644 46.3164 47.1379 46.0537C45.0489 45.6894 43.6523 45.7911 43.6523 45.7911Z" fill="#EF5781" stroke="white" stroke-width="0.5"/>
<mask id="path-31-inside-2_995_1518" fill="white">
<path d="M52.8183 47.4984C52.8183 47.4984 55.1642 43.8717 55.6584 37.6922C56.2543 30.2422 54.4536 27.0542 54.4536 27.0542C54.4536 27.0542 55.782 30.2717 54.7117 36.6415C54.0607 40.5158 51.8716 42.4202 51.8716 42.4202C51.8716 42.4202 52.0162 42.9977 51.3553 44.6966C50.9261 45.7995 50.2363 46.6229 50.2363 46.6229"/>
</mask>
<path d="M52.8183 47.4984C52.8183 47.4984 55.1642 43.8717 55.6584 37.6922C56.2543 30.2422 54.4536 27.0542 54.4536 27.0542C54.4536 27.0542 55.782 30.2717 54.7117 36.6415C54.0607 40.5158 51.8716 42.4202 51.8716 42.4202C51.8716 42.4202 52.0162 42.9977 51.3553 44.6966C50.9261 45.7995 50.2363 46.6229 50.2363 46.6229" fill="#EF5781"/>
<path d="M55.6584 37.6922L55.16 37.6523V37.6523L55.6584 37.6922ZM54.4536 27.0542L54.8889 26.8083L53.9914 27.245L54.4536 27.0542ZM54.7117 36.6415L55.2047 36.7244L54.7117 36.6415ZM51.8716 42.4202L51.5434 42.0429L51.3121 42.2442L51.3866 42.5416L51.8716 42.4202ZM51.3553 44.6966L51.8212 44.8779L51.8213 44.8779L51.3553 44.6966ZM52.8183 47.4984C53.2382 47.7699 53.2383 47.7698 53.2384 47.7696C53.2384 47.7696 53.2385 47.7694 53.2386 47.7692C53.2388 47.7689 53.239 47.7686 53.2393 47.7682C53.2398 47.7673 53.2405 47.7663 53.2413 47.765C53.2429 47.7625 53.2451 47.7591 53.2478 47.7548C53.2532 47.7462 53.2608 47.7341 53.2704 47.7185C53.2897 47.6873 53.3171 47.642 53.3516 47.5831C53.4206 47.4651 53.5182 47.2922 53.6359 47.0663C53.8714 46.6147 54.188 45.9512 54.5195 45.0927C55.1823 43.3757 55.9053 40.8768 56.1568 37.732L55.16 37.6523C54.9173 40.687 54.2202 43.0913 53.5866 44.7325C53.2698 45.5531 52.969 46.1825 52.7492 46.604C52.6394 46.8147 52.5498 46.9734 52.4886 47.0779C52.458 47.1302 52.4345 47.1689 52.4192 47.1938C52.4115 47.2063 52.4058 47.2153 52.4023 47.2208C52.4006 47.2235 52.3994 47.2254 52.3988 47.2264C52.3984 47.2269 52.3982 47.2272 52.3982 47.2273C52.3982 47.2273 52.3982 47.2273 52.3982 47.2272C52.3983 47.2272 52.3983 47.2271 52.3983 47.2271C52.3984 47.227 52.3985 47.2268 52.8183 47.4984ZM56.1568 37.732C56.4584 33.9609 56.1547 31.2521 55.768 29.4732C55.5748 28.5841 55.361 27.9283 55.1924 27.4894C55.1081 27.27 55.0352 27.1049 54.9819 26.9921C54.9552 26.9357 54.9334 26.8923 54.9176 26.8618C54.9097 26.8465 54.9032 26.8344 54.8984 26.8255C54.896 26.8211 54.894 26.8174 54.8924 26.8145C54.8916 26.8131 54.8909 26.8119 54.8904 26.8108C54.8901 26.8103 54.8898 26.8098 54.8896 26.8094C54.8895 26.8092 54.8893 26.8089 54.8892 26.8088C54.8891 26.8085 54.8889 26.8083 54.4536 27.0542C54.0182 27.3001 54.0181 27.2999 54.018 27.2997C54.0179 27.2996 54.0178 27.2994 54.0178 27.2993C54.0176 27.299 54.0175 27.2989 54.0175 27.2987C54.0173 27.2985 54.0173 27.2984 54.0174 27.2985C54.0175 27.2988 54.0181 27.2998 54.019 27.3016C54.021 27.3052 54.0246 27.312 54.0297 27.3219C54.04 27.3417 54.0563 27.3741 54.0777 27.4194C54.1205 27.51 54.1836 27.6521 54.2589 27.848C54.4093 28.2397 54.6085 28.8466 54.7909 29.6856C55.1556 31.3633 55.4542 33.9735 55.16 37.6523L56.1568 37.732ZM54.4536 27.0542C53.9914 27.245 53.9913 27.2448 53.9913 27.2446C53.9912 27.2446 53.9912 27.2444 53.9911 27.2443C53.991 27.2441 53.991 27.2439 53.9909 27.2438C53.9909 27.2436 53.9909 27.2436 53.9909 27.2438C53.9911 27.2442 53.9915 27.2453 53.9923 27.2473C53.9938 27.2511 53.9966 27.2581 54.0004 27.2682C54.008 27.2884 54.0199 27.3211 54.0353 27.3662C54.0661 27.4565 54.1106 27.5965 54.1616 27.7862C54.2635 28.1656 54.3916 28.7441 54.4878 29.5206C54.6801 31.0732 54.7457 33.4214 54.2186 36.5587L55.2047 36.7244C55.7479 33.4918 55.6845 31.0464 55.4802 29.3977C55.3781 28.5737 55.2409 27.9496 55.1273 27.5267C55.0705 27.3153 55.0195 27.1542 54.9818 27.0436C54.963 26.9883 54.9474 26.9456 54.9361 26.9155C54.9305 26.9005 54.9259 26.8887 54.9224 26.88C54.9207 26.8756 54.9193 26.8721 54.9182 26.8693C54.9176 26.8679 54.9171 26.8667 54.9167 26.8658C54.9165 26.8653 54.9163 26.8648 54.9162 26.8644C54.9161 26.8642 54.916 26.864 54.9159 26.8639C54.9158 26.8636 54.9157 26.8634 54.4536 27.0542ZM54.2186 36.5587C53.9063 38.4171 53.2263 39.7976 52.6292 40.7098C52.3304 41.1662 52.0526 41.5051 51.8523 41.7274C51.7522 41.8385 51.6717 41.9203 51.6178 41.9729C51.5908 41.9992 51.5705 42.0181 51.5578 42.0298C51.5515 42.0357 51.547 42.0397 51.5446 42.0418C51.5434 42.0429 51.5427 42.0436 51.5425 42.0438C51.5424 42.0438 51.5424 42.0438 51.5425 42.0437C51.5426 42.0436 51.5427 42.0435 51.5429 42.0434C51.543 42.0433 51.5431 42.0432 51.5431 42.0432C51.5433 42.043 51.5434 42.0429 51.8716 42.4202C52.1998 42.7974 52.1999 42.7972 52.2001 42.7971C52.2002 42.797 52.2003 42.7969 52.2005 42.7967C52.2008 42.7965 52.2011 42.7962 52.2014 42.7959C52.2021 42.7953 52.2029 42.7946 52.2039 42.7938C52.2058 42.7921 52.2082 42.7899 52.2112 42.7873C52.2171 42.782 52.225 42.7749 52.2348 42.7658C52.2545 42.7477 52.2819 42.722 52.3161 42.6886C52.3844 42.622 52.48 42.5247 52.5953 42.3967C52.8258 42.1409 53.1359 41.7616 53.4658 41.2575C54.126 40.249 54.866 38.7402 55.2047 36.7244L54.2186 36.5587ZM51.8716 42.4202C51.3866 42.5416 51.3865 42.5412 51.3864 42.5408C51.3863 42.5407 51.3862 42.5403 51.3862 42.54C51.386 42.5395 51.3859 42.5389 51.3858 42.5384C51.3855 42.5374 51.3853 42.5363 51.385 42.5354C51.3846 42.5334 51.3842 42.5316 51.3838 42.53C51.3831 42.5267 51.3825 42.524 51.3821 42.522C51.3813 42.5179 51.3812 42.5163 51.3813 42.5173C51.3816 42.5195 51.3833 42.5323 51.3843 42.557C51.3862 42.6064 51.3855 42.7033 51.3655 42.8567C51.3254 43.1645 51.2089 43.6939 50.8893 44.5153L51.8213 44.8779C52.1627 44.0003 52.3043 43.3915 52.3571 42.9858C52.3836 42.7825 52.3879 42.6288 52.3835 42.5169C52.3812 42.4609 52.3768 42.4153 52.3717 42.3792C52.3692 42.3612 52.3665 42.3455 52.364 42.3321C52.3627 42.3254 52.3614 42.3193 52.3601 42.3137C52.3595 42.3109 52.3589 42.3083 52.3583 42.3058C52.358 42.3045 52.3577 42.3033 52.3575 42.3021C52.3573 42.3015 52.3572 42.3009 52.357 42.3004C52.357 42.3001 52.3568 42.2996 52.3568 42.2995C52.3567 42.2991 52.3566 42.2987 51.8716 42.4202ZM50.8893 44.5153C50.6913 45.024 50.4308 45.4737 50.2171 45.7985C50.1109 45.9601 50.0177 46.0885 49.9519 46.1755C49.9191 46.2189 49.8932 46.2519 49.8761 46.2733C49.8675 46.2841 49.8612 46.2919 49.8573 46.2967C49.8553 46.2991 49.854 46.3007 49.8532 46.3016C49.8529 46.302 49.8527 46.3022 49.8527 46.3023C49.8526 46.3023 49.8527 46.3023 49.8527 46.3022C49.8528 46.3021 49.8528 46.3021 49.8529 46.302C49.8529 46.302 49.8529 46.3019 49.8529 46.3019C49.853 46.3019 49.853 46.3018 50.2363 46.6229C50.6196 46.944 50.6197 46.9439 50.6197 46.9438C50.6197 46.9438 50.6198 46.9437 50.6199 46.9437C50.62 46.9436 50.6201 46.9434 50.6202 46.9433C50.6204 46.943 50.6207 46.9427 50.621 46.9423C50.6216 46.9415 50.6224 46.9406 50.6234 46.9394C50.6253 46.9371 50.6279 46.934 50.6311 46.9301C50.6375 46.9223 50.6464 46.9113 50.6575 46.8974C50.6798 46.8694 50.7112 46.8295 50.7497 46.7785C50.8267 46.6766 50.9328 46.5303 51.0526 46.3481C51.2911 45.9855 51.5901 45.472 51.8212 44.8779L50.8893 44.5153Z" fill="white" mask="url(#path-31-inside-2_995_1518)"/>
<path d="M52.8183 47.4984C52.8183 47.4984 55.1642 43.8717 55.6584 37.6922C56.2543 30.2422 54.4536 27.0542 54.4536 27.0542C54.4536 27.0542 55.782 30.2717 54.7117 36.6415C54.0607 40.5158 51.8716 42.4202 51.8716 42.4202C51.8716 42.4202 52.0162 42.9977 51.3553 44.6966C50.9261 45.7995 50.2363 46.6229 50.2363 46.6229" fill="#EF5781"/>
<path d="M52.8183 47.4984C52.8183 47.4984 55.1642 43.8717 55.6584 37.6922C56.2543 30.2422 54.4536 27.0542 54.4536 27.0542C54.4536 27.0542 55.782 30.2717 54.7117 36.6415C54.0607 40.5158 51.8716 42.4202 51.8716 42.4202C51.8716 42.4202 52.0162 42.9977 51.3553 44.6966C50.9261 45.7995 50.2363 46.6229 50.2363 46.6229" stroke="white" stroke-width="0.5"/>
<path d="M46.8024 41.5228C46.8024 42.8273 45.764 43.8775 44.492 43.8775C43.2201 43.8775 42.1816 42.8273 42.1816 41.5228C42.1816 40.2182 43.2201 39.168 44.492 39.168C45.764 39.168 46.8024 40.2182 46.8024 41.5228Z" fill="#EF5781" stroke="white" stroke-width="0.5"/>
<path d="M44.492 44.1275C45.9061 44.1275 47.0524 42.9613 47.0524 41.5228C47.0524 40.0842 45.9061 38.918 44.492 38.918C43.078 38.918 41.9316 40.0842 41.9316 41.5228C41.9316 42.9613 43.078 44.1275 44.492 44.1275Z" fill="#EF5781" stroke="white" stroke-width="0.5"/>
<path d="M30.5199 41.5446C30.5199 42.8653 31.5526 43.9213 32.8088 43.9213C34.0649 43.9213 35.0977 42.8653 35.0977 41.5446C35.0977 40.224 34.0649 39.168 32.8088 39.168C31.5526 39.168 30.5199 40.224 30.5199 41.5446Z" fill="#EF5781" stroke="white" stroke-width="0.5"/>
<path d="M32.8088 44.1713C31.4066 44.1713 30.2699 42.9953 30.2699 41.5446C30.2699 40.094 31.4066 38.918 32.8088 38.918C34.211 38.918 35.3477 40.094 35.3477 41.5446C35.3477 42.9953 34.211 44.1713 32.8088 44.1713Z" fill="#EF5781" stroke="white" stroke-width="0.5"/>
<path d="M44.8503 52.9574C44.3485 53.3477 43.6832 53.7765 42.8136 54.1896L42.8136 54.1896C41.5849 54.7734 40.5146 55.0077 39.7549 55.0964C39.3751 55.1408 39.0729 55.1489 38.8676 55.146C38.765 55.1446 38.6866 55.1405 38.6349 55.1368C38.6091 55.135 38.5899 55.1333 38.5777 55.1321L38.5646 55.1307L38.5623 55.1305L38.5621 55.1304L38.562 55.1304L38.5618 55.1304L38.5322 55.1268L38.5027 55.1303L38.5027 55.1303L38.5025 55.1303L38.5024 55.1303L38.5022 55.1303L38.501 55.1305L38.491 55.1314C38.4814 55.1323 38.4661 55.1336 38.4452 55.1349C38.4035 55.1376 38.3397 55.1404 38.2556 55.1408C38.0874 55.1414 37.8382 55.1319 37.5223 55.0902C36.8908 55.007 35.9922 54.7952 34.9412 54.2787C34.4208 54.0229 33.9622 53.7678 33.5602 53.5215C34.7881 54.0062 36.414 54.4028 38.4457 54.4028C41.132 54.4028 43.1708 53.7579 44.5413 53.1093C44.6484 53.0586 44.7514 53.0079 44.8503 52.9574Z" fill="#EF5781" stroke="white" stroke-width="0.5"/>
<path d="M30.8721 51.6138C30.8721 51.6138 33.3469 54.1528 38.4457 54.1528C43.7358 54.1528 46.4554 51.6138 46.4554 51.6138C46.4554 51.6138 45.6906 53.0995 42.9209 54.4154C40.408 55.6094 38.5317 55.3786 38.5317 55.3786C38.5317 55.3786 36.9864 55.5624 34.8309 54.5031C31.8799 53.0525 30.8721 51.6138 30.8721 51.6138Z" fill="#EF5781" stroke="white" stroke-width="0.5"/>
<path d="M40.3946 61.0156C40.4034 60.9944 40.4117 60.9749 40.4194 60.9572C40.4997 60.9496 40.6096 60.9373 40.7455 60.9178C41.0469 60.8747 41.4767 60.7961 41.9968 60.6542L41.9968 60.6542C42.6725 60.4697 43.1442 60.3025 43.4496 60.1801C43.5205 60.1516 43.5824 60.1256 43.6359 60.1023C43.6837 60.2698 43.7439 60.5273 43.7917 60.884C43.8249 61.1312 43.8245 61.3227 43.8166 61.4493C43.8145 61.4822 43.812 61.5107 43.8093 61.5347C43.7864 61.5507 43.7601 61.5698 43.7309 61.5919C43.6231 61.6735 43.4753 61.797 43.3073 61.9694C42.9709 62.3144 42.5546 62.8541 42.2174 63.6416L42.2174 63.6417C41.6253 65.025 41.4147 66.1572 41.3535 66.9495C41.3313 67.2379 41.3288 67.481 41.3349 67.6744C41.1069 67.4773 40.7956 67.1341 40.4711 66.5516C39.7767 65.3048 39.8142 63.9653 39.8567 63.2739L39.8567 63.2739C39.898 62.601 40.0535 61.9879 40.1998 61.5414C40.2727 61.3188 40.3429 61.1389 40.3946 61.0156ZM39.6072 63.2585L39.6072 63.2585L39.6072 63.2585Z" fill="#EF5781" stroke="white" stroke-width="0.5"/>
<path d="M43.7813 59.7563C43.7813 59.7563 43.9382 60.0953 44.0395 60.8507C44.1104 61.3796 44.0395 61.6825 44.0395 61.6825C44.0395 61.6825 43.095 62.2271 42.4473 63.74C41.2855 66.4544 41.6297 68.1616 41.6297 68.1616C41.6297 68.1616 40.9591 67.9415 40.2527 66.6733C39.5212 65.3598 39.5642 63.9576 39.6072 63.2585C39.6932 61.8576 40.2527 60.7193 40.2527 60.7193C40.2527 60.7193 40.913 60.6908 41.931 60.413C43.2655 60.0486 43.7813 59.7563 43.7813 59.7563Z" fill="#EF5781" stroke="white" stroke-width="0.5"/>
<path d="M40.8518 67.8552C40.6679 67.8403 40.4528 67.8094 40.2115 67.7519C39.3524 67.5476 38.1462 67.0039 36.8183 65.6242C35.511 64.2659 34.7523 62.7662 34.3205 61.604C34.1047 61.0233 33.9712 60.5284 33.8918 60.18C33.8882 60.1645 33.8848 60.1494 33.8815 60.1345C33.9925 60.1866 34.1229 60.2439 34.273 60.3039C34.8457 60.5329 35.704 60.8009 36.8609 60.9668C37.9831 61.1279 38.8433 61.1062 39.4275 61.0426C39.5844 61.0256 39.7214 61.0055 39.8381 60.9851C39.7568 61.2099 39.6616 61.51 39.5778 61.8705C39.3853 62.6983 39.2516 63.8504 39.4907 65.1427L39.4907 65.1427C39.7269 66.4194 40.2219 67.2083 40.6732 67.6813C40.734 67.745 40.7938 67.8028 40.8518 67.8552Z" fill="#EF5781" stroke="white" stroke-width="0.5"/>
<path d="M33.54 59.6687C33.54 59.6687 33.9636 63.0187 36.6382 65.7976C39.357 68.6223 41.63 68.0742 41.63 68.0742C41.63 68.0742 40.1921 67.5588 39.7365 65.0972C39.274 62.5973 40.253 60.6319 40.253 60.6319C40.253 60.6319 39.0986 61.0354 36.8964 60.7193C34.6234 60.3933 33.54 59.6687 33.54 59.6687Z" fill="#EF5781" stroke="white" stroke-width="0.5"/>
<path d="M25.4432 49.158L26.4766 50.4566C26.476 50.4604 26.4755 50.4642 26.4749 50.4682C26.4637 50.5492 26.4505 50.666 26.4416 50.8145C26.4236 51.1113 26.4226 51.5347 26.4887 52.05C26.6208 53.0817 27.0213 54.4793 28.0875 55.9622L28.0921 55.9686L28.0971 55.9747C29.4078 57.5748 30.7421 58.5993 31.752 59.2246C32.2569 59.5373 32.6807 59.7502 32.9801 59.8856C33.0685 59.9255 33.146 59.9587 33.2116 59.9858C33.1673 60.1155 33.1174 60.2933 33.0769 60.5211C32.9848 61.0392 32.9421 61.8126 33.1217 62.8629C33.2957 63.881 33.6057 64.6705 33.8739 65.2076C33.9065 65.2729 33.9385 65.3344 33.9695 65.3922C33.9675 65.3913 33.9655 65.3904 33.9634 65.3895C33.5296 65.1994 32.914 64.8865 32.1964 64.398C30.762 63.4216 28.9172 61.7415 27.3023 58.9313C25.8951 56.4825 25.449 53.8984 25.3566 51.9202C25.3105 50.932 25.3528 50.098 25.4064 49.5121C25.4184 49.3813 25.431 49.2629 25.4432 49.158Z" fill="#EF5781" stroke="white" stroke-width="0.5"/>
<path d="M25.2782 48.5491C25.2782 48.5491 24.219 54.0675 27.0855 59.0558C30.3559 64.747 34.5731 65.8852 34.5731 65.8852C34.5731 65.8852 33.7068 64.8018 33.3681 62.8208C33.0182 60.7742 33.5403 59.8438 33.5403 59.8438C33.5403 59.8438 30.8723 58.9683 28.2905 55.8162C26.2125 52.9263 26.7412 50.3877 26.7412 50.3877L25.2782 48.5491Z" fill="#EF5781" stroke="white" stroke-width="0.5"/>
<path d="M51.86 49.1589C51.8722 49.2636 51.8847 49.3816 51.8966 49.512C51.9502 50.098 51.9924 50.932 51.9463 51.9202C51.8542 53.8985 51.409 56.4826 50.0046 58.9315C48.3929 61.7417 46.5518 63.4218 45.1204 64.3982C44.4043 64.8867 43.7899 65.1995 43.3571 65.3896C43.3554 65.3903 43.3536 65.3911 43.3519 65.3918C43.3829 65.3341 43.4148 65.2726 43.4472 65.2074C43.7149 64.6703 44.0242 63.8809 44.1979 62.8628C44.3771 61.8125 44.3345 61.0393 44.2427 60.5212C44.2023 60.2933 44.1524 60.1154 44.1082 59.9857C44.1736 59.9586 44.251 59.9255 44.3392 59.8855C44.638 59.7501 45.061 59.5372 45.5649 59.2245C46.5727 58.5991 47.9044 57.5747 49.2125 55.9745L49.2175 55.9684L49.2221 55.962C50.2861 54.4792 50.6857 53.0816 50.8176 52.0499C50.8834 51.5347 50.8824 51.1113 50.8645 50.8145C50.8556 50.6661 50.8424 50.5492 50.8312 50.4682C50.8307 50.4642 50.8301 50.4603 50.8296 50.4565L51.86 49.1589Z" fill="#EF5781" stroke="white" stroke-width="0.5"/>
<path d="M52.0251 48.5491C52.0251 48.5491 53.0822 54.0675 50.2215 59.0558C46.9576 64.747 42.749 65.8852 42.749 65.8852C42.749 65.8852 43.6135 64.8018 43.9514 62.8208C44.3007 60.7742 43.7797 59.8438 43.7797 59.8438C43.7797 59.8438 46.4422 58.9683 49.0189 55.8162C51.0927 52.9263 50.5649 50.3877 50.5649 50.3877L52.0251 48.5491Z" fill="#EF5781" stroke="white" stroke-width="0.5"/>
<path d="M40.1505 46.3253L40.5712 46.5317L40.4831 46.511L40.276 46.4624L40.1959 46.6566C40.1952 46.6581 40.1936 46.6614 40.191 46.6665C40.1855 46.6772 40.1754 46.6955 40.1598 46.72C40.1285 46.7689 40.0746 46.8427 39.9896 46.9293C39.9207 46.9993 39.8789 47.0027 39.8741 47.003L39.8651 46.9985L39.8353 46.992C39.8351 46.9919 39.8349 46.9919 39.8347 46.9918L39.8245 46.989C39.8143 46.9861 39.7984 46.9811 39.7791 46.9735C39.7392 46.958 39.6911 46.9343 39.6484 46.9013C39.6063 46.8688 39.5753 46.8317 39.5576 46.7892C39.541 46.7492 39.5291 46.6876 39.551 46.5908C39.5853 46.4397 39.6415 46.3693 39.6857 46.334C39.7316 46.2972 39.79 46.2782 39.8609 46.2742C39.9332 46.2701 40.0073 46.2825 40.0671 46.2983C40.0961 46.3059 40.1195 46.3138 40.135 46.3194C40.142 46.322 40.1473 46.324 40.1505 46.3253Z" fill="#EF5781" stroke="white" stroke-width="0.5"/>
<path d="M42.6637 47.2796L40.2539 46.0976C40.2539 46.0976 39.4837 45.757 39.3072 46.5355C39.1781 47.1045 39.7805 47.2359 39.7805 47.2359C39.7805 47.2359 39.9527 47.3234 40.1679 47.1045C40.3638 46.9051 40.426 46.7544 40.426 46.7544L42.6637 47.2796Z" fill="#EF5781" stroke="white" stroke-width="0.5"/>
<path d="M37.6676 46.5819L37.6676 46.5819C37.6332 46.4279 37.5768 46.3562 37.5328 46.3205C37.4874 46.2836 37.4301 46.2648 37.3606 46.2608C37.2895 46.2567 37.2164 46.2691 37.1572 46.285C37.1285 46.2927 37.1053 46.3006 37.09 46.3062C37.0831 46.3088 37.078 46.3108 37.0748 46.3121L36.6378 46.53L36.7407 46.5054L36.9497 46.4555L37.0295 46.6522C37.0301 46.6537 37.0317 46.6572 37.0344 46.6625C37.04 46.6734 37.05 46.692 37.0657 46.7169C37.0969 46.7665 37.1505 46.8412 37.2352 46.9287C37.2985 46.9941 37.3383 47.0016 37.3467 47.0025L37.355 46.9983L37.3851 46.9916M37.6676 46.5819L37.3847 46.9917L37.3851 46.9916M37.6676 46.5819C37.6897 46.6809 37.6777 46.7446 37.6607 46.7862C37.6428 46.8301 37.6116 46.8677 37.5699 46.9005C37.5276 46.9337 37.4799 46.9575 37.4405 46.9731C37.4214 46.9807 37.4057 46.9857 37.3957 46.9887L37.3857 46.9914C37.3855 46.9915 37.3853 46.9916 37.3851 46.9916M37.6676 46.5819L37.3851 46.9916M37.0292 46.6517L37.0294 46.6522L37.0292 46.6517ZM37.0713 46.3136L37.0723 46.3132L37.0721 46.3132L37.0718 46.3134L37.0713 46.3136Z" fill="#EF5781" stroke="white" stroke-width="0.5"/>
<path d="M34.5732 47.2795L36.97 46.085C36.97 46.085 37.736 45.7407 37.9116 46.5274C38.04 47.1026 37.4409 47.2353 37.4409 47.2353C37.4409 47.2353 37.2696 47.3238 37.0555 47.1026C36.8606 46.9011 36.7987 46.7486 36.7987 46.7486L34.5732 47.2795Z" fill="#EF5781" stroke="white" stroke-width="0.5"/>
</svg>
