<svg width="73" height="97" viewBox="0 0 73 97" fill="none" xmlns="http://www.w3.org/2000/svg">
<g opacity="0.7" clip-path="url(#clip0_740_906)">
<path d="M12.8007 49.3689C13.6546 53.5681 15.2204 62.401 15.2204 62.401L15.0781 74.9991C15.0781 74.9991 13.478 75.111 12.8007 75.1438C5.80923 75.1438 0.132812 69.369 0.132812 62.2563C0.132812 55.1434 5.80923 49.3689 12.8007 49.3689Z" fill="#948F8F"/>
<path d="M12.8007 49.3689C13.6546 53.5681 15.2204 62.401 15.2204 62.401L15.0781 74.9991C15.0781 74.9991 13.478 75.111 12.8007 75.1438C5.80923 75.1438 0.132812 69.369 0.132812 62.2563C0.132812 55.1434 5.80923 49.3689 12.8007 49.3689Z" fill="#948F8F" stroke="white"/>
<path d="M13.9396 69.3739C13.1875 69.6408 12.3795 69.786 11.5381 69.786C7.52176 69.786 4.26074 66.4769 4.26074 62.401C4.26074 58.3251 7.52176 55.016 11.5381 55.016C12.3795 55.016 13.1875 55.1612 13.9396 55.4284V69.3739Z" fill="#948F8F"/>
<path d="M13.9396 69.3739C13.1875 69.6408 12.3795 69.786 11.5381 69.786C7.52176 69.786 4.26074 66.4769 4.26074 62.401C4.26074 58.3251 7.52176 55.016 11.5381 55.016C12.3795 55.016 13.1875 55.1612 13.9396 55.4284V69.3739Z" fill="#948F8F" stroke="white"/>
<path d="M60.199 49.3689C59.3451 53.5681 57.7793 62.401 57.7793 62.401L57.9216 74.9991C57.9216 74.9991 59.5217 75.111 60.199 75.1438C67.1904 75.1438 72.8669 69.369 72.8669 62.2563C72.8669 55.1434 67.1904 49.3689 60.199 49.3689Z" fill="#948F8F"/>
<path d="M60.199 49.3689C59.3451 53.5681 57.7793 62.401 57.7793 62.401L57.9216 74.9991C57.9216 74.9991 59.5217 75.111 60.199 75.1438C67.1904 75.1438 72.8669 69.369 72.8669 62.2563C72.8669 55.1434 67.1904 49.3689 60.199 49.3689Z" fill="#948F8F" stroke="white"/>
<path d="M59.0605 55.4284C59.8127 55.1612 60.6207 55.016 61.4621 55.016C65.4784 55.016 68.7394 58.3251 68.7394 62.401C68.7394 66.4769 65.4784 69.786 61.4621 69.786C60.6207 69.786 59.8127 69.6408 59.0605 69.3739V55.4284Z" fill="#948F8F"/>
<path d="M59.0605 55.4284C59.8127 55.1612 60.6207 55.016 61.4621 55.016C65.4784 55.016 68.7394 58.3251 68.7394 62.401C68.7394 66.4769 65.4784 69.786 61.4621 69.786C60.6207 69.786 59.8127 69.6408 59.0605 69.3739V55.4284Z" fill="#948F8F" stroke="white"/>
<path d="M30.0234 0.135498C30.0234 0.135498 32.4426 5.8081 29.4541 14.7608C28.1731 18.598 25.1769 20.7561 23.7606 23.0145C21.9394 25.9183 21.9103 28.6619 21.9103 28.6619C21.9103 28.6619 21.4918 30.9712 22.4797 35.4676C23.2947 39.1769 24.6145 40.9703 24.6145 40.9703C24.6145 40.9703 25.8097 40.5663 27.7461 40.753C30.317 41.0007 31.3755 41.622 31.3755 41.622C31.3755 41.622 40.2717 33.8747 40.414 22.4352C40.6039 7.16746 30.0234 0.135498 30.0234 0.135498Z" fill="#948F8F"/>
<path d="M30.0234 0.135498C30.0234 0.135498 32.4426 5.8081 29.4541 14.7608C28.1731 18.598 25.1769 20.7561 23.7606 23.0145C21.9394 25.9183 21.9103 28.6619 21.9103 28.6619C21.9103 28.6619 21.4918 30.9712 22.4797 35.4676C23.2947 39.1769 24.6145 40.9703 24.6145 40.9703C24.6145 40.9703 25.8097 40.5663 27.7461 40.753C30.317 41.0007 31.3755 41.622 31.3755 41.622C31.3755 41.622 40.2717 33.8747 40.414 22.4352C40.6039 7.16746 30.0234 0.135498 30.0234 0.135498Z" fill="#948F8F" stroke="white"/>
<path d="M30.2373 0.497437C30.2373 0.497437 42.1225 3.32101 46.2501 17.512C49.2575 27.8514 42.7629 41.1873 42.7629 41.1873C42.7629 41.1873 41.7175 41.1367 39.5603 42.3459C37.0679 43.7429 36.1442 45.1695 36.1442 45.1695C36.1442 45.1695 35.6372 43.9884 33.9382 42.8526C32.3159 41.7682 31.1626 41.6943 31.1626 41.6943C31.1626 41.6943 39.7028 34.6712 40.4144 22.8698C40.1296 6.36214 30.2373 0.497437 30.2373 0.497437Z" fill="#948F8F"/>
<path d="M30.2373 0.497437C30.2373 0.497437 42.1225 3.32101 46.2501 17.512C49.2575 27.8514 42.7629 41.1873 42.7629 41.1873C42.7629 41.1873 41.7175 41.1367 39.5603 42.3459C37.0679 43.7429 36.1442 45.1695 36.1442 45.1695C36.1442 45.1695 35.6372 43.9884 33.9382 42.8526C32.3159 41.7682 31.1626 41.6943 31.1626 41.6943C31.1626 41.6943 39.7028 34.6712 40.4144 22.8698C40.1296 6.36214 30.2373 0.497437 30.2373 0.497437Z" fill="#948F8F" stroke="white"/>
<path d="M48.3849 12.0093C48.3849 12.0093 49.2641 14.3741 48.7406 18.236C48.3154 21.373 46.9614 22.5078 46.9614 22.5078L42.1221 41.115L46.2498 40.753C46.2498 40.753 54.5763 36.1915 54.9322 28.0826C54.8611 17.729 48.3849 12.0093 48.3849 12.0093Z" fill="#948F8F"/>
<path d="M48.3849 12.0093C48.3849 12.0093 49.2641 14.3741 48.7406 18.236C48.3154 21.373 46.9614 22.5078 46.9614 22.5078L42.1221 41.115L46.2498 40.753C46.2498 40.753 54.5763 36.1915 54.9322 28.0826C54.8611 17.729 48.3849 12.0093 48.3849 12.0093Z" fill="#948F8F" stroke="white"/>
<path d="M48.3851 12.1542C48.3851 12.1542 55.9289 20.1182 54.5054 29.8201C52.5128 37.4947 46.25 40.8253 46.25 40.8253L48.8119 41.0426C48.8119 41.0426 58.6331 38.074 58.9179 28.3721C58.7602 17.6962 48.3851 12.1542 48.3851 12.1542Z" fill="#948F8F"/>
<path d="M48.3851 12.1542C48.3851 12.1542 55.9289 20.1182 54.5054 29.8201C52.5128 37.4947 46.25 40.8253 46.25 40.8253L48.8119 41.0426C48.8119 41.0426 58.6331 38.074 58.9179 28.3721C58.7602 17.6962 48.3851 12.1542 48.3851 12.1542Z" fill="#948F8F" stroke="white"/>
<path d="M23.7606 10.8511C23.7606 10.8511 21.1803 19.6439 19.5818 20.7277C15.3603 23.5898 13.4314 29.3545 13.2278 30.8339C11.6621 39.0878 20.5579 42.563 20.5579 42.563C20.5579 42.563 20.7865 42.1739 21.5543 41.8391C22.1149 41.5947 22.6219 41.6944 22.6219 41.6944C22.6219 41.6944 17.4267 33.8748 17.6401 31.5581C18.0775 26.8114 21.0449 25.073 21.9814 21.7113C23.4912 16.2915 23.7606 10.8511 23.7606 10.8511Z" fill="#948F8F"/>
<path d="M23.7606 10.8511C23.7606 10.8511 21.1803 19.6439 19.5818 20.7277C15.3603 23.5898 13.4314 29.3545 13.2278 30.8339C11.6621 39.0878 20.5579 42.563 20.5579 42.563C20.5579 42.563 20.7865 42.1739 21.5543 41.8391C22.1149 41.5947 22.6219 41.6944 22.6219 41.6944C22.6219 41.6944 17.4267 33.8748 17.6401 31.5581C18.0775 26.8114 21.0449 25.073 21.9814 21.7113C23.4912 16.2915 23.7606 10.8511 23.7606 10.8511Z" fill="#948F8F" stroke="white"/>
<path d="M23.7605 10.9957C23.7605 10.9957 23.3335 15.7019 21.4831 22.2905C21.0539 23.819 19.7058 25.2702 19.1346 26.4897C17.9224 29.0781 17.6618 29.6772 17.5689 30.9065C17.4977 31.8475 17.3877 33.0968 19.2058 37.0605C20.7087 40.3371 22.4796 41.5494 22.4796 41.5494C22.4796 41.5494 22.7108 41.1584 23.4046 40.9704C24.1343 40.7723 24.6144 40.9704 24.6144 40.9704C24.6144 40.9704 22.4702 37.3161 22.7641 29.5309C22.8837 26.3653 25.7992 22.8948 26.0379 18.5257C26.3225 13.3126 23.7605 10.9957 23.7605 10.9957Z" fill="#948F8F"/>
<path d="M23.7605 10.9957C23.7605 10.9957 23.3335 15.7019 21.4831 22.2905C21.0539 23.819 19.7058 25.2702 19.1346 26.4897C17.9224 29.0781 17.6618 29.6772 17.5689 30.9065C17.4977 31.8475 17.3877 33.0968 19.2058 37.0605C20.7087 40.3371 22.4796 41.5494 22.4796 41.5494C22.4796 41.5494 22.7108 41.1584 23.4046 40.9704C24.1343 40.7723 24.6144 40.9704 24.6144 40.9704C24.6144 40.9704 22.4702 37.3161 22.7641 29.5309C22.8837 26.3653 25.7992 22.8948 26.0379 18.5257C26.3225 13.3126 23.7605 10.9957 23.7605 10.9957Z" fill="#948F8F" stroke="white"/>
<path d="M27.8886 59.8672C27.8886 59.8672 24.3989 60.3015 20.0549 62.6908C16.9348 64.4069 16.4228 67.6142 16.4228 67.6142C16.4228 67.6142 12.1008 63.5686 9.60872 55.257C8.97357 53.1381 8.45724 50.7424 8.16177 48.0657C6.48304 32.8619 11.7225 25.0417 11.7225 25.0417C11.7225 25.0417 10.2242 29.8684 11.8651 37.3502C13.3576 44.1559 16.4228 46.4728 16.4228 46.4728C16.4228 46.4728 13.884 48.6761 14.2863 54.1474C14.6436 59.0053 17.5623 61.9668 17.5623 61.9668C17.5623 61.9668 19.6276 60.7358 22.12 60.3015C25.5773 59.6989 27.8886 59.8672 27.8886 59.8672Z" fill="#948F8F"/>
<path d="M27.8886 59.8672C27.8886 59.8672 24.3989 60.3015 20.0549 62.6908C16.9348 64.4069 16.4228 67.6142 16.4228 67.6142C16.4228 67.6142 12.1008 63.5686 9.60872 55.257C8.97357 53.1381 8.45724 50.7424 8.16177 48.0657C6.48304 32.8619 11.7225 25.0417 11.7225 25.0417C11.7225 25.0417 10.2242 29.8684 11.8651 37.3502C13.3576 44.1559 16.4228 46.4728 16.4228 46.4728C16.4228 46.4728 13.884 48.6761 14.2863 54.1474C14.6436 59.0053 17.5623 61.9668 17.5623 61.9668C17.5623 61.9668 19.6276 60.7358 22.12 60.3015C25.5773 59.6989 27.8886 59.8672 27.8886 59.8672Z" fill="#948F8F" stroke="white"/>
<path d="M11.6627 25.0417C11.6627 25.0417 9.98397 29.4758 11.805 37.7845C13.1155 43.763 16.3597 46.4728 16.3597 46.4728C16.3597 46.4728 16.8172 45.4242 18.2812 44.0836C19.6639 42.8177 20.63 42.563 20.63 42.563C20.63 42.563 16.6446 40.8254 14.3672 36.9158C11.3752 31.7795 11.6627 25.0417 11.6627 25.0417Z" fill="#948F8F"/>
<path d="M11.6627 25.0417C11.6627 25.0417 9.98397 29.4758 11.805 37.7845C13.1155 43.763 16.3597 46.4728 16.3597 46.4728C16.3597 46.4728 16.8172 45.4242 18.2812 44.0836C19.6639 42.8177 20.63 42.563 20.63 42.563C20.63 42.563 16.6446 40.8254 14.3672 36.9158C11.3752 31.7795 11.6627 25.0417 11.6627 25.0417Z" fill="#948F8F" stroke="white"/>
<path d="M60.4905 25.0417C60.4905 25.0417 62.1633 29.4035 60.3407 37.7122C59.0294 43.6907 55.7894 46.4728 55.7894 46.4728C55.7894 46.4728 54.1911 44.4106 52.7258 43.0699C51.3423 41.8041 48.8115 41.115 48.8115 41.115C48.8115 41.115 52.0952 40.0063 55.3591 36.7709C60.9101 31.2684 60.4905 25.0417 60.4905 25.0417Z" fill="#948F8F"/>
<path d="M60.4905 25.0417C60.4905 25.0417 62.1633 29.4035 60.3407 37.7122C59.0294 43.6907 55.7894 46.4728 55.7894 46.4728C55.7894 46.4728 54.1911 44.4106 52.7258 43.0699C51.3423 41.8041 48.8115 41.115 48.8115 41.115C48.8115 41.115 52.0952 40.0063 55.3591 36.7709C60.9101 31.2684 60.4905 25.0417 60.4905 25.0417Z" fill="#948F8F" stroke="white"/>
<path d="M44.3281 59.8672C44.3281 59.8672 47.8153 60.3015 52.1564 62.6908C55.2744 64.4069 55.7859 67.6142 55.7859 67.6142C55.7859 67.6142 62.5875 61.2433 64.0416 48.0657C65.719 32.8619 60.4832 25.0417 60.4832 25.0417C60.4832 25.0417 61.9805 29.8684 60.3407 37.3502C58.8493 44.1559 55.7859 46.4728 55.7859 46.4728C55.7859 46.4728 58.3231 48.6761 57.921 54.1474C57.564 59.0053 54.6472 61.9668 54.6472 61.9668C54.6472 61.9668 52.5835 60.7358 50.0927 60.3015C46.6377 59.6989 44.3281 59.8672 44.3281 59.8672Z" fill="#948F8F"/>
<path d="M44.3281 59.8672C44.3281 59.8672 47.8153 60.3015 52.1564 62.6908C55.2744 64.4069 55.7859 67.6142 55.7859 67.6142C55.7859 67.6142 62.5875 61.2433 64.0416 48.0657C65.719 32.8619 60.4832 25.0417 60.4832 25.0417C60.4832 25.0417 61.9805 29.8684 60.3407 37.3502C58.8493 44.1559 55.7859 46.4728 55.7859 46.4728C55.7859 46.4728 58.3231 48.6761 57.921 54.1474C57.564 59.0053 54.6472 61.9668 54.6472 61.9668C54.6472 61.9668 52.5835 60.7358 50.0927 60.3015C46.6377 59.6989 44.3281 59.8672 44.3281 59.8672Z" fill="#948F8F" stroke="white"/>
<path d="M59.487 62.6907C59.487 62.6907 63.3667 56.6927 64.1841 46.4727C65.1696 34.1516 62.1915 28.8792 62.1915 28.8792C62.1915 28.8792 64.3884 34.2003 62.6183 44.7351C61.5417 51.1425 57.9213 54.2921 57.9213 54.2921C57.9213 54.2921 58.1605 55.2472 57.0674 58.0569C56.3576 59.881 55.2168 61.2427 55.2168 61.2427" fill="#948F8F"/>
<path d="M59.487 62.6907C59.487 62.6907 63.3667 56.6927 64.1841 46.4727C65.1696 34.1516 62.1915 28.8792 62.1915 28.8792C62.1915 28.8792 64.3884 34.2003 62.6183 44.7351C61.5417 51.1425 57.9213 54.2921 57.9213 54.2921C57.9213 54.2921 58.1605 55.2472 57.0674 58.0569C56.3576 59.881 55.2168 61.2427 55.2168 61.2427" fill="#948F8F"/>
<path d="M59.487 62.6907C59.487 62.6907 63.3667 56.6927 64.1841 46.4727C65.1696 34.1516 62.1915 28.8792 62.1915 28.8792C62.1915 28.8792 64.3884 34.2003 62.6183 44.7351C61.5417 51.1425 57.9213 54.2921 57.9213 54.2921C57.9213 54.2921 58.1605 55.2472 57.0674 58.0569C56.3576 59.881 55.2168 61.2427 55.2168 61.2427" stroke="white"/>
<path d="M45.7159 57.1158C48.0546 57.1158 49.9504 55.1871 49.9504 52.8079C49.9504 50.4287 48.0546 48.5 45.7159 48.5C43.3773 48.5 41.4814 50.4287 41.4814 52.8079C41.4814 55.1871 43.3773 57.1158 45.7159 57.1158Z" fill="#948F8F"/>
<path d="M45.7159 57.1158C48.0546 57.1158 49.9504 55.1871 49.9504 52.8079C49.9504 50.4287 48.0546 48.5 45.7159 48.5C43.3773 48.5 41.4814 50.4287 41.4814 52.8079C41.4814 55.1871 43.3773 57.1158 45.7159 57.1158Z" fill="#948F8F" stroke="white"/>
<path d="M26.3939 57.1882C24.0749 57.1882 22.195 55.2433 22.195 52.8441C22.195 50.4449 24.0749 48.5 26.3939 48.5C28.7129 48.5 30.5928 50.4449 30.5928 52.8441C30.5928 55.2433 28.7129 57.1882 26.3939 57.1882Z" fill="#948F8F"/>
<path d="M26.3939 57.1882C24.0749 57.1882 22.195 55.2433 22.195 52.8441C22.195 50.4449 24.0749 48.5 26.3939 48.5C28.7129 48.5 30.5928 50.4449 30.5928 52.8441C30.5928 55.2433 28.7129 57.1882 26.3939 57.1882Z" fill="#948F8F" stroke="white"/>
<path d="M23.1914 69.4967C23.1914 69.4967 27.2845 73.6959 35.717 73.6959C44.4661 73.6959 48.9639 69.4967 48.9639 69.4967C48.9639 69.4967 47.6989 71.9539 43.1183 74.1302C38.9623 76.1049 35.8593 75.7231 35.8593 75.7231C35.8593 75.7231 33.3035 76.0271 29.7388 74.2752C24.8582 71.8762 23.1914 69.4967 23.1914 69.4967Z" fill="#948F8F"/>
<path d="M23.1914 69.4967C23.1914 69.4967 27.2845 73.6959 35.717 73.6959C44.4661 73.6959 48.9639 69.4967 48.9639 69.4967C48.9639 69.4967 47.6989 71.9539 43.1183 74.1302C38.9623 76.1049 35.8593 75.7231 35.8593 75.7231C35.8593 75.7231 33.3035 76.0271 29.7388 74.2752C24.8582 71.8762 23.1914 69.4967 23.1914 69.4967Z" fill="#948F8F" stroke="white"/>
<path d="M44.5413 82.9634C44.5413 82.9634 44.8008 83.524 44.9684 84.7733C45.0856 85.6479 44.9684 86.1489 44.9684 86.1489C44.9684 86.1489 43.4064 87.0496 42.3351 89.5518C40.4136 94.0409 40.983 96.8645 40.983 96.8645C40.983 96.8645 39.8738 96.5003 38.7056 94.4029C37.4957 92.2307 37.5669 89.9116 37.638 88.7555C37.7803 86.4386 38.7056 84.556 38.7056 84.556C38.7056 84.556 39.7976 84.5089 41.4812 84.0493C43.6882 83.4468 44.5413 82.9634 44.5413 82.9634Z" fill="#948F8F"/>
<path d="M44.5413 82.9634C44.5413 82.9634 44.8008 83.524 44.9684 84.7733C45.0856 85.6479 44.9684 86.1489 44.9684 86.1489C44.9684 86.1489 43.4064 87.0496 42.3351 89.5518C40.4136 94.0409 40.983 96.8645 40.983 96.8645C40.983 96.8645 39.8738 96.5003 38.7056 94.4029C37.4957 92.2307 37.5669 89.9116 37.638 88.7555C37.7803 86.4386 38.7056 84.556 38.7056 84.556C38.7056 84.556 39.7976 84.5089 41.4812 84.0493C43.6882 83.4468 44.5413 82.9634 44.5413 82.9634Z" fill="#948F8F" stroke="white"/>
<path d="M27.6035 82.8185C27.6035 82.8185 28.3039 88.3589 32.7274 92.9547C37.2238 97.6264 40.983 96.7198 40.983 96.7198C40.983 96.7198 38.6049 95.8674 37.8515 91.7964C37.0866 87.662 38.7056 84.4114 38.7056 84.4114C38.7056 84.4114 36.7965 85.0787 33.1544 84.5561C29.3952 84.0169 27.6035 82.8185 27.6035 82.8185Z" fill="#948F8F"/>
<path d="M27.6035 82.8185C27.6035 82.8185 28.3039 88.3589 32.7274 92.9547C37.2238 97.6264 40.983 96.7198 40.983 96.7198C40.983 96.7198 38.6049 95.8674 37.8515 91.7964C37.0866 87.662 38.7056 84.4114 38.7056 84.4114C38.7056 84.4114 36.7965 85.0787 33.1544 84.5561C29.3952 84.0169 27.6035 82.8185 27.6035 82.8185Z" fill="#948F8F" stroke="white"/>
<path d="M13.9394 64.4283C13.9394 64.4283 12.1877 73.555 16.9284 81.8049C22.3371 91.2171 29.3118 93.0997 29.3118 93.0997C29.3118 93.0997 27.8789 91.3079 27.3189 88.0316C26.7402 84.6469 27.6037 83.1082 27.6037 83.1082C27.6037 83.1082 23.1912 81.6602 18.9212 76.4471C15.4847 71.6676 16.3591 67.4692 16.3591 67.4692L13.9394 64.4283Z" fill="#948F8F"/>
<path d="M13.9394 64.4283C13.9394 64.4283 12.1877 73.555 16.9284 81.8049C22.3371 91.2171 29.3118 93.0997 29.3118 93.0997C29.3118 93.0997 27.8789 91.3079 27.3189 88.0316C26.7402 84.6469 27.6037 83.1082 27.6037 83.1082C27.6037 83.1082 23.1912 81.6602 18.9212 76.4471C15.4847 71.6676 16.3591 67.4692 16.3591 67.4692L13.9394 64.4283Z" fill="#948F8F" stroke="white"/>
<path d="M58.1752 64.4283C58.1752 64.4283 59.9234 73.555 55.1923 81.8049C49.7943 91.2171 42.834 93.0997 42.834 93.0997C42.834 93.0997 44.2636 91.3079 44.8226 88.0316C45.4002 84.6469 44.5386 83.1082 44.5386 83.1082C44.5386 83.1082 48.942 81.6602 53.2035 76.4471C56.6331 71.6676 55.7603 67.4692 55.7603 67.4692L58.1752 64.4283Z" fill="#948F8F"/>
<path d="M58.1752 64.4283C58.1752 64.4283 59.9234 73.555 55.1923 81.8049C49.7943 91.2171 42.834 93.0997 42.834 93.0997C42.834 93.0997 44.2636 91.3079 44.8226 88.0316C45.4002 84.6469 44.5386 83.1082 44.5386 83.1082C44.5386 83.1082 48.942 81.6602 53.2035 76.4471C56.6331 71.6676 55.7603 67.4692 55.7603 67.4692L58.1752 64.4283Z" fill="#948F8F" stroke="white"/>
<path d="M42.6915 62.3287L38.7061 60.3738C38.7061 60.3738 37.4323 59.8105 37.1403 61.098C36.9269 62.039 37.9231 62.2563 37.9231 62.2563C37.9231 62.2563 38.2079 62.401 38.5638 62.039C38.8878 61.7093 38.9906 61.46 38.9906 61.46L42.6915 62.3287Z" fill="#948F8F"/>
<path d="M42.6915 62.3287L38.7061 60.3738C38.7061 60.3738 37.4323 59.8105 37.1403 61.098C36.9269 62.039 37.9231 62.2563 37.9231 62.2563C37.9231 62.2563 38.2079 62.401 38.5638 62.039C38.8878 61.7093 38.9906 61.46 38.9906 61.46L42.6915 62.3287Z" fill="#948F8F" stroke="white"/>
<path d="M29.3115 62.3287L33.2754 60.3532C33.2754 60.3532 34.5422 59.7837 34.8326 61.0848C35.045 62.0361 34.0541 62.2556 34.0541 62.2556C34.0541 62.2556 33.7709 62.4019 33.4168 62.0361C33.0945 61.7028 32.9922 61.4506 32.9922 61.4506L29.3115 62.3287Z" fill="#948F8F"/>
<path d="M29.3115 62.3287L33.2754 60.3532C33.2754 60.3532 34.5422 59.7837 34.8326 61.0848C35.045 62.0361 34.0541 62.2556 34.0541 62.2556C34.0541 62.2556 33.7709 62.4019 33.4168 62.0361C33.0945 61.7028 32.9922 61.4506 32.9922 61.4506L29.3115 62.3287Z" fill="#948F8F" stroke="white"/>
</g>
<defs>
<clipPath id="clip0_740_906">
<rect width="73" height="97" fill="white"/>
</clipPath>
</defs>
</svg>
